<svg width="80" height="23" viewBox="0 0 80 23" fill="none" xmlns="http://www.w3.org/2000/svg">
<path d="M11.175 7.1923C11.175 8.03021 10.9827 8.79943 10.5981 9.49998C10.2135 10.1868 9.62281 10.7431 8.82611 11.1689C8.02941 11.5947 7.0404 11.8077 5.85909 11.8077H3.67504V16.9999H0.151703V2.53573H5.85909C7.01293 2.53573 7.9882 2.7349 8.7849 3.13325C9.5816 3.5316 10.1791 4.08105 10.5775 4.7816C10.9758 5.48214 11.175 6.28571 11.175 7.1923ZM5.59124 9.00547C6.26431 9.00547 6.76568 8.84751 7.09535 8.53158C7.42502 8.21564 7.58985 7.76922 7.58985 7.1923C7.58985 6.61538 7.42502 6.16895 7.09535 5.85302C6.76568 5.53709 6.26431 5.37912 5.59124 5.37912H3.67504V9.00547H5.59124ZM16.5326 7.41894C16.9447 6.78708 17.4598 6.29258 18.0779 5.93544C18.696 5.56456 19.3829 5.37912 20.1383 5.37912V9.1085H19.1699C18.2908 9.1085 17.6315 9.3008 17.1919 9.68542C16.7524 10.0563 16.5326 10.7156 16.5326 11.6634V16.9999H13.0093V5.50275H16.5326V7.41894ZM32.6603 11.0659C32.6603 11.3956 32.6397 11.739 32.5985 12.0961H24.6246C24.6796 12.8104 24.9062 13.3598 25.3045 13.7445C25.7166 14.1153 26.218 14.3008 26.8087 14.3008C27.6878 14.3008 28.299 13.9299 28.6424 13.1881H32.3924C32.2001 13.9436 31.8498 14.6236 31.3416 15.228C30.8471 15.8324 30.2221 16.3063 29.4666 16.6497C28.7111 16.9931 27.8663 17.1648 26.9323 17.1648C25.8059 17.1648 24.8032 16.9244 23.9241 16.4436C23.0449 15.9629 22.3581 15.276 21.8636 14.3832C21.3691 13.4903 21.1219 12.4464 21.1219 11.2513C21.1219 10.0563 21.3623 9.01234 21.843 8.11949C22.3375 7.22664 23.0243 6.53983 23.9035 6.05906C24.7826 5.57829 25.7922 5.33791 26.9323 5.33791C28.0449 5.33791 29.0339 5.57143 29.8993 6.03846C30.7647 6.50549 31.4378 7.17169 31.9185 8.03707C32.413 8.90245 32.6603 9.91206 32.6603 11.0659ZM29.0545 10.1387C29.0545 9.53432 28.8485 9.05355 28.4364 8.69641C28.0243 8.33927 27.5092 8.1607 26.8911 8.1607C26.3004 8.1607 25.799 8.3324 25.387 8.67581C24.9886 9.01921 24.7414 9.50685 24.6452 10.1387H29.0545ZM38.0423 7.13048C38.3858 6.59477 38.8596 6.16208 39.464 5.83241C40.0684 5.50275 40.7758 5.33791 41.5863 5.33791C42.5341 5.33791 43.3926 5.57829 44.1618 6.05906C44.931 6.53983 45.5354 7.22664 45.975 8.11949C46.4283 9.01234 46.6549 10.0494 46.6549 11.2307C46.6549 12.4121 46.4283 13.456 45.975 14.3626C45.5354 15.2554 44.931 15.9491 44.1618 16.4436C43.3926 16.9244 42.5341 17.1648 41.5863 17.1648C40.7896 17.1648 40.0822 16.9999 39.464 16.6703C38.8596 16.3406 38.3858 15.9148 38.0423 15.3928V22.4807H34.519V5.50275H38.0423V7.13048ZM43.0698 11.2307C43.0698 10.3516 42.8225 9.66481 42.328 9.17031C41.8473 8.66207 41.2497 8.40795 40.5355 8.40795C39.8349 8.40795 39.2374 8.66207 38.7429 9.17031C38.2621 9.67855 38.0217 10.3722 38.0217 11.2513C38.0217 12.1305 38.2621 12.8241 38.7429 13.3324C39.2374 13.8406 39.8349 14.0947 40.5355 14.0947C41.236 14.0947 41.8335 13.8406 42.328 13.3324C42.8225 12.8104 43.0698 12.1099 43.0698 11.2307ZM47.8028 11.2307C47.8028 10.0494 48.0226 9.01234 48.4622 8.11949C48.9155 7.22664 49.5267 6.53983 50.2959 6.05906C51.0652 5.57829 51.9237 5.33791 52.8715 5.33791C53.6819 5.33791 54.3893 5.50275 54.9937 5.83241C55.6118 6.16208 56.0857 6.59477 56.4154 7.13048V5.50275H59.9387V16.9999H56.4154V15.3722C56.072 15.9079 55.5912 16.3406 54.9731 16.6703C54.3687 16.9999 53.6613 17.1648 52.8509 17.1648C51.9168 17.1648 51.0652 16.9244 50.2959 16.4436C49.5267 15.9491 48.9155 15.2554 48.4622 14.3626C48.0226 13.456 47.8028 12.4121 47.8028 11.2307ZM56.4154 11.2513C56.4154 10.3722 56.1682 9.67855 55.6737 9.17031C55.1929 8.66207 54.6022 8.40795 53.9017 8.40795C53.2011 8.40795 52.6036 8.66207 52.1091 9.17031C51.6283 9.66481 51.388 10.3516 51.388 11.2307C51.388 12.1099 51.6283 12.8104 52.1091 13.3324C52.6036 13.8406 53.2011 14.0947 53.9017 14.0947C54.6022 14.0947 55.1929 13.8406 55.6737 13.3324C56.1682 12.8241 56.4154 12.1305 56.4154 11.2513ZM64.2597 4.3077C63.6416 4.3077 63.1333 4.12913 62.735 3.77199C62.3504 3.40111 62.1581 2.94781 62.1581 2.4121C62.1581 1.86265 62.3504 1.40936 62.735 1.05222C63.1333 0.681342 63.6416 0.495903 64.2597 0.495903C64.8641 0.495903 65.3586 0.681342 65.7432 1.05222C66.1416 1.40936 66.3407 1.86265 66.3407 2.4121C66.3407 2.94781 66.1416 3.40111 65.7432 3.77199C65.3586 4.12913 64.8641 4.3077 64.2597 4.3077ZM66.0111 5.50275V16.9999H62.4877V5.50275H66.0111ZM67.8638 11.2307C67.8638 10.0494 68.0836 9.01234 68.5232 8.11949C68.9765 7.22664 69.5877 6.53983 70.357 6.05906C71.1262 5.57829 71.9847 5.33791 72.9325 5.33791C73.688 5.33791 74.3748 5.49588 74.9929 5.81181C75.6248 6.12774 76.1193 6.55356 76.4764 7.08928V1.75277H79.9998V16.9999H76.4764V15.3516C76.1468 15.901 75.6729 16.3406 75.0547 16.6703C74.4503 16.9999 73.7429 17.1648 72.9325 17.1648C71.9847 17.1648 71.1262 16.9244 70.357 16.4436C69.5877 15.9491 68.9765 15.2554 68.5232 14.3626C68.0836 13.456 67.8638 12.4121 67.8638 11.2307ZM76.4764 11.2513C76.4764 10.3722 76.2292 9.67855 75.7347 9.17031C75.2539 8.66207 74.6632 8.40795 73.9627 8.40795C73.2622 8.40795 72.6646 8.66207 72.1701 9.17031C71.6894 9.66481 71.449 10.3516 71.449 11.2307C71.449 12.1099 71.6894 12.8104 72.1701 13.3324C72.6646 13.8406 73.2622 14.0947 73.9627 14.0947C74.6632 14.0947 75.2539 13.8406 75.7347 13.3324C76.2292 12.8241 76.4764 12.1305 76.4764 11.2513Z" fill="#D80027"/>
</svg>
