<svg width="56" height="18" viewBox="0 0 56 18" fill="none" xmlns="http://www.w3.org/2000/svg">
<path d="M10.309 14.445H4.91064L4.04526 16.9999H0.357089L5.59058 2.53573H9.67023L14.9037 16.9999H11.1743L10.309 14.445ZM9.40237 11.7252L7.6098 6.42994L5.83783 11.7252H9.40237ZM18.2685 4.3077C17.6504 4.3077 17.1421 4.12913 16.7438 3.77199C16.3592 3.40111 16.1669 2.94781 16.1669 2.4121C16.1669 1.86265 16.3592 1.40936 16.7438 1.05222C17.1421 0.681342 17.6504 0.495903 18.2685 0.495903C18.8729 0.495903 19.3674 0.681342 19.752 1.05222C20.1504 1.40936 20.3495 1.86265 20.3495 2.4121C20.3495 2.94781 20.1504 3.40111 19.752 3.77199C19.3674 4.12913 18.8729 4.3077 18.2685 4.3077ZM20.0199 5.50275V16.9999H16.4965V5.50275H20.0199ZM26.0965 7.41894C26.5086 6.78708 27.0237 6.29258 27.6418 5.93544C28.26 5.56456 28.9468 5.37912 29.7023 5.37912V9.1085H28.7339C27.8547 9.1085 27.1954 9.3008 26.7559 9.68542C26.3163 10.0563 26.0965 10.7156 26.0965 11.6634V16.9999H22.5732V5.50275H26.0965V7.41894ZM37.7943 14.0123V16.9999H36.0017C34.7242 16.9999 33.7284 16.6909 33.0141 16.0727C32.2998 15.4409 31.9427 14.4175 31.9427 13.0027V8.42855H30.5416V5.50275H31.9427V2.70056H35.466V5.50275H37.7737V8.42855H35.466V13.0439C35.466 13.3873 35.5484 13.6346 35.7132 13.7857C35.8781 13.9368 36.1528 14.0123 36.5374 14.0123H37.7943ZM50.5947 11.0659C50.5947 11.3956 50.5741 11.739 50.5329 12.0961H42.559C42.614 12.8104 42.8406 13.3598 43.239 13.7445C43.651 14.1153 44.1524 14.3008 44.7431 14.3008C45.6222 14.3008 46.2334 13.9299 46.5769 13.1881H50.3268C50.1345 13.9436 49.7843 14.6236 49.276 15.228C48.7815 15.8324 48.1565 16.3063 47.401 16.6497C46.6455 16.9931 45.8008 17.1648 44.8667 17.1648C43.7403 17.1648 42.7376 16.9244 41.8585 16.4436C40.9794 15.9629 40.2925 15.276 39.798 14.3832C39.3035 13.4903 39.0563 12.4464 39.0563 11.2513C39.0563 10.0563 39.2967 9.01234 39.7774 8.11949C40.2719 7.22664 40.9587 6.53983 41.8379 6.05906C42.717 5.57829 43.7266 5.33791 44.8667 5.33791C45.9793 5.33791 46.9683 5.57143 47.8337 6.03846C48.6991 6.50549 49.3722 7.17169 49.8529 8.03707C50.3474 8.90245 50.5947 9.91206 50.5947 11.0659ZM46.9889 10.1387C46.9889 9.53432 46.7829 9.05355 46.3708 8.69641C45.9587 8.33927 45.4436 8.1607 44.8255 8.1607C44.2348 8.1607 43.7335 8.3324 43.3214 8.67581C42.923 9.01921 42.6758 9.50685 42.5796 10.1387H46.9889ZM55.9768 1.75277V16.9999H52.4534V1.75277H55.9768Z" fill="#D80027"/>
</svg>
