<svg width="93" height="23" viewBox="0 0 93 23" fill="none" xmlns="http://www.w3.org/2000/svg">
<path d="M11.7376 7.1923C11.7376 8.03021 11.5453 8.79943 11.1607 9.49998C10.7761 10.1868 10.1855 10.7431 9.38876 11.1689C8.59206 11.5947 7.60305 11.8077 6.42174 11.8077H4.23769V16.9999H0.714352V2.53573H6.42174C7.57558 2.53573 8.55085 2.7349 9.34755 3.13325C10.1442 3.5316 10.7418 4.08105 11.1401 4.7816C11.5385 5.48214 11.7376 6.28571 11.7376 7.1923ZM6.15388 9.00547C6.82696 9.00547 7.32833 8.84751 7.658 8.53158C7.98767 8.21564 8.1525 7.76922 8.1525 7.1923C8.1525 6.61538 7.98767 6.16895 7.658 5.85302C7.32833 5.53709 6.82696 5.37912 6.15388 5.37912H4.23769V9.00547H6.15388ZM18.8054 17.1648C17.679 17.1648 16.6626 16.9244 15.756 16.4436C14.8631 15.9629 14.1557 15.276 13.6337 14.3832C13.1255 13.4903 12.8714 12.4464 12.8714 11.2513C12.8714 10.07 13.1324 9.03295 13.6543 8.14009C14.1763 7.23351 14.8906 6.53983 15.7972 6.05906C16.7038 5.57829 17.7202 5.33791 18.8466 5.33791C19.973 5.33791 20.9895 5.57829 21.896 6.05906C22.8026 6.53983 23.5169 7.23351 24.0389 8.14009C24.5609 9.03295 24.8219 10.07 24.8219 11.2513C24.8219 12.4327 24.554 13.4766 24.0183 14.3832C23.4963 15.276 22.7752 15.9629 21.8548 16.4436C20.9482 16.9244 19.9318 17.1648 18.8054 17.1648ZM18.8054 14.1153C19.4785 14.1153 20.0485 13.8681 20.5156 13.3736C20.9963 12.8791 21.2367 12.1717 21.2367 11.2513C21.2367 10.331 21.0032 9.6236 20.5362 9.1291C20.0829 8.6346 19.5197 8.38735 18.8466 8.38735C18.1598 8.38735 17.5897 8.6346 17.1365 9.1291C16.6832 9.60987 16.4565 10.3173 16.4565 11.2513C16.4565 12.1717 16.6763 12.8791 17.1158 13.3736C17.5691 13.8681 18.1323 14.1153 18.8054 14.1153ZM31.3682 17.1648C30.3655 17.1648 29.4726 16.9931 28.6897 16.6497C27.9067 16.3063 27.2886 15.8392 26.8353 15.2486C26.382 14.6442 26.1279 13.9711 26.0729 13.2294H29.555C29.5963 13.6277 29.7817 13.9505 30.1114 14.1978C30.441 14.445 30.8462 14.5686 31.327 14.5686C31.7666 14.5686 32.1031 14.4862 32.3366 14.3214C32.5839 14.1428 32.7075 13.9162 32.7075 13.6414C32.7075 13.3118 32.5358 13.0714 32.1924 12.9203C31.849 12.7555 31.2927 12.5769 30.5234 12.3846C29.6993 12.1923 29.0125 11.9931 28.463 11.7871C27.9136 11.5673 27.4397 11.2307 27.0413 10.7774C26.643 10.3104 26.4438 9.68542 26.4438 8.90245C26.4438 8.24312 26.6224 7.64559 26.9795 7.10988C27.3504 6.56043 27.8861 6.12774 28.5866 5.81181C29.3009 5.49588 30.1457 5.33791 31.121 5.33791C32.5633 5.33791 33.6965 5.69505 34.5207 6.40933C35.3586 7.12362 35.8394 8.07141 35.963 9.25273H32.7075C32.6526 8.85438 32.474 8.53844 32.1718 8.30493C31.8833 8.07141 31.4987 7.95466 31.0179 7.95466C30.6059 7.95466 30.2899 8.03707 30.0702 8.20191C29.8504 8.35301 29.7405 8.56592 29.7405 8.84064C29.7405 9.17031 29.9122 9.41756 30.2556 9.58239C30.6127 9.74723 31.1622 9.91206 31.9039 10.0769C32.7556 10.2967 33.4493 10.5165 33.985 10.7362C34.5207 10.9423 34.9877 11.2857 35.3861 11.7664C35.7981 12.2335 36.0111 12.8653 36.0248 13.662C36.0248 14.3351 35.8325 14.9395 35.4479 15.4752C35.077 15.9972 34.5344 16.4093 33.8201 16.7115C33.1196 17.0137 32.3023 17.1648 31.3682 17.1648ZM44.5883 14.0123V16.9999H42.7957C41.5182 16.9999 40.5224 16.6909 39.8081 16.0727C39.0938 15.4409 38.7367 14.4175 38.7367 13.0027V8.42855H37.3356V5.50275H38.7367V2.70056H42.26V5.50275H44.5677V8.42855H42.26V13.0439C42.26 13.3873 42.3424 13.6346 42.5073 13.7857C42.6721 13.9368 42.9468 14.0123 43.3314 14.0123H44.5883ZM50.0742 7.13048C50.4176 6.59477 50.8915 6.16208 51.4959 5.83241C52.1003 5.50275 52.8077 5.33791 53.6181 5.33791C54.5659 5.33791 55.4244 5.57829 56.1937 6.05906C56.9629 6.53983 57.5673 7.22664 58.0068 8.11949C58.4601 9.01234 58.6868 10.0494 58.6868 11.2307C58.6868 12.4121 58.4601 13.456 58.0068 14.3626C57.5673 15.2554 56.9629 15.9491 56.1937 16.4436C55.4244 16.9244 54.5659 17.1648 53.6181 17.1648C52.8214 17.1648 52.114 16.9999 51.4959 16.6703C50.8915 16.3406 50.4176 15.9148 50.0742 15.3928V22.4807H46.5508V5.50275H50.0742V7.13048ZM55.1016 11.2307C55.1016 10.3516 54.8544 9.66481 54.3599 9.17031C53.8791 8.66207 53.2816 8.40795 52.5673 8.40795C51.8668 8.40795 51.2692 8.66207 50.7747 9.17031C50.294 9.67855 50.0536 10.3722 50.0536 11.2513C50.0536 12.1305 50.294 12.8241 50.7747 13.3324C51.2692 13.8406 51.8668 14.0947 52.5673 14.0947C53.2678 14.0947 53.8654 13.8406 54.3599 13.3324C54.8544 12.8104 55.1016 12.1099 55.1016 11.2307ZM59.8347 11.2307C59.8347 10.0494 60.0544 9.01234 60.494 8.11949C60.9473 7.22664 61.5585 6.53983 62.3278 6.05906C63.097 5.57829 63.9555 5.33791 64.9033 5.33791C65.7137 5.33791 66.4212 5.50275 67.0255 5.83241C67.6437 6.16208 68.1176 6.59477 68.4472 7.13048V5.50275H71.9706V16.9999H68.4472V15.3722C68.1038 15.9079 67.6231 16.3406 67.0049 16.6703C66.4006 16.9999 65.6931 17.1648 64.8827 17.1648C63.9486 17.1648 63.097 16.9244 62.3278 16.4436C61.5585 15.9491 60.9473 15.2554 60.494 14.3626C60.0544 13.456 59.8347 12.4121 59.8347 11.2307ZM68.4472 11.2513C68.4472 10.3722 68.2 9.67855 67.7055 9.17031C67.2247 8.66207 66.6341 8.40795 65.9335 8.40795C65.233 8.40795 64.6355 8.66207 64.1409 9.17031C63.6602 9.66481 63.4198 10.3516 63.4198 11.2307C63.4198 12.1099 63.6602 12.8104 64.1409 13.3324C64.6355 13.8406 65.233 14.0947 65.9335 14.0947C66.6341 14.0947 67.2247 13.8406 67.7055 13.3324C68.2 12.8241 68.4472 12.1305 68.4472 11.2513ZM76.2915 4.3077C75.6734 4.3077 75.1652 4.12913 74.7668 3.77199C74.3822 3.40111 74.1899 2.94781 74.1899 2.4121C74.1899 1.86265 74.3822 1.40936 74.7668 1.05222C75.1652 0.681342 75.6734 0.495903 76.2915 0.495903C76.8959 0.495903 77.3904 0.681342 77.775 1.05222C78.1734 1.40936 78.3726 1.86265 78.3726 2.4121C78.3726 2.94781 78.1734 3.40111 77.775 3.77199C77.3904 4.12913 76.8959 4.3077 76.2915 4.3077ZM78.0429 5.50275V16.9999H74.5196V5.50275H78.0429ZM79.8957 11.2307C79.8957 10.0494 80.1154 9.01234 80.555 8.11949C81.0083 7.22664 81.6196 6.53983 82.3888 6.05906C83.158 5.57829 84.0165 5.33791 84.9643 5.33791C85.7198 5.33791 86.4066 5.49588 87.0247 5.81181C87.6566 6.12774 88.1511 6.55356 88.5083 7.08928V1.75277H92.0316V16.9999H88.5083V15.3516C88.1786 15.901 87.7047 16.3406 87.0866 16.6703C86.4822 16.9999 85.7748 17.1648 84.9643 17.1648C84.0165 17.1648 83.158 16.9244 82.3888 16.4436C81.6196 15.9491 81.0083 15.2554 80.555 14.3626C80.1154 13.456 79.8957 12.4121 79.8957 11.2307ZM88.5083 11.2513C88.5083 10.3722 88.261 9.67855 87.7665 9.17031C87.2857 8.66207 86.6951 8.40795 85.9945 8.40795C85.294 8.40795 84.6965 8.66207 84.202 9.17031C83.7212 9.66481 83.4808 10.3516 83.4808 11.2307C83.4808 12.1099 83.7212 12.8104 84.202 13.3324C84.6965 13.8406 85.294 14.0947 85.9945 14.0947C86.6951 14.0947 87.2857 13.8406 87.7665 13.3324C88.261 12.8241 88.5083 12.1305 88.5083 11.2513Z" fill="#D80027"/>
</svg>
