<svg width="51" height="16" viewBox="0 0 51 16" fill="none" xmlns="http://www.w3.org/2000/svg">
<path d="M9.68625 7.58239C10.5242 7.76097 11.1972 8.17992 11.7055 8.83926C12.2137 9.48486 12.4678 10.2266 12.4678 11.0645C12.4678 12.2733 12.042 13.2348 11.1904 13.9491C10.3525 14.6497 9.17801 14.9999 7.66703 14.9999H0.929424V0.535728H7.44038C8.91015 0.535728 10.0571 0.872265 10.8813 1.54534C11.7192 2.21841 12.1382 3.13187 12.1382 4.28571C12.1382 5.13735 11.9115 5.84477 11.4582 6.40795C11.0187 6.97113 10.428 7.36262 9.68625 7.58239ZM4.45276 6.38735H6.76044C7.33736 6.38735 7.77692 6.26372 8.07911 6.01647C8.39504 5.75548 8.55301 5.37774 8.55301 4.88323C8.55301 4.38873 8.39504 4.01099 8.07911 3.75C7.77692 3.48901 7.33736 3.35852 6.76044 3.35852H4.45276V6.38735ZM7.0489 12.1565C7.63955 12.1565 8.09285 12.0261 8.40878 11.7651C8.73845 11.4903 8.90328 11.0989 8.90328 10.5906C8.90328 10.0824 8.73158 9.68403 8.38818 9.39557C8.05851 9.10711 7.59835 8.96288 7.00769 8.96288H4.45276V12.1565H7.0489ZM19.7448 15.1442C18.6872 15.1442 17.7394 14.9725 16.9015 14.6291C16.0635 14.2857 15.3905 13.7774 14.8822 13.1043C14.3877 12.4313 14.1267 11.6208 14.0993 10.673H17.8492C17.9042 11.2087 18.0896 11.6208 18.4056 11.9093C18.7215 12.184 19.1336 12.3214 19.6418 12.3214C20.1638 12.3214 20.5759 12.2046 20.8781 11.9711C21.1803 11.7239 21.3314 11.3873 21.3314 10.9615C21.3314 10.6044 21.2077 10.309 20.9605 10.0755C20.727 9.842 20.4317 9.64969 20.0745 9.49859C19.7311 9.3475 19.2366 9.17579 18.591 8.98349C17.6569 8.69503 16.8946 8.40657 16.3039 8.11811C15.7133 7.82965 15.205 7.40382 14.7792 6.84064C14.3534 6.27746 14.1405 5.54257 14.1405 4.63598C14.1405 3.28983 14.6281 2.23902 15.6034 1.48353C16.5786 0.714299 17.8492 0.329686 19.4152 0.329686C21.0086 0.329686 22.2929 0.714299 23.2682 1.48353C24.2434 2.23902 24.7654 3.2967 24.8341 4.65659H21.0223C20.9948 4.18956 20.8231 3.82555 20.5072 3.56456C20.1913 3.28983 19.7861 3.15247 19.2915 3.15247C18.8657 3.15247 18.5223 3.26923 18.2613 3.50275C18.0003 3.72252 17.8699 4.04532 17.8699 4.47115C17.8699 4.93818 18.0896 5.30219 18.5292 5.56317C18.9687 5.82416 19.6556 6.10575 20.5896 6.40795C21.5237 6.72388 22.2792 7.02608 22.8561 7.31454C23.4467 7.603 23.955 8.02195 24.3808 8.5714C24.8066 9.12085 25.0195 9.82826 25.0195 10.6936C25.0195 11.5178 24.8066 12.2664 24.3808 12.9395C23.9687 13.6126 23.3643 14.1483 22.5676 14.5466C21.7709 14.945 20.83 15.1442 19.7448 15.1442ZM40.1273 14.9999H36.604L30.7112 6.07828V14.9999H27.1878V0.535728H30.7112L36.604 9.49859V0.535728H40.1273V14.9999ZM46.2046 12.2802H50.82V14.9999H42.6813V0.535728H46.2046V12.2802Z" fill="#D80027"/>
</svg>
