<svg width="31" height="18" viewBox="0 0 31 18" fill="none" xmlns="http://www.w3.org/2000/svg">
<path d="M10.2947 2.53573V12.3846C10.2947 13.9093 9.86197 15.0837 8.99659 15.9079C8.14494 16.7321 6.9911 17.1442 5.53507 17.1442C4.01035 17.1442 2.78783 16.7115 1.8675 15.8461C0.947177 14.9807 0.487015 13.7513 0.487015 12.1579H3.98974C3.98974 12.7623 4.11337 13.2225 4.36062 13.5384C4.60787 13.8406 4.96501 13.9917 5.43204 13.9917C5.85787 13.9917 6.18754 13.8544 6.42105 13.5796C6.65457 13.3049 6.77132 12.9066 6.77132 12.3846V2.53573H10.2947ZM14.9126 4.3077C14.2945 4.3077 13.7862 4.12913 13.3879 3.77199C13.0033 3.40111 12.811 2.94781 12.811 2.4121C12.811 1.86265 13.0033 1.40936 13.3879 1.05222C13.7862 0.681342 14.2945 0.495903 14.9126 0.495903C15.517 0.495903 16.0115 0.681342 16.3961 1.05222C16.7945 1.40936 16.9936 1.86265 16.9936 2.4121C16.9936 2.94781 16.7945 3.40111 16.3961 3.77199C16.0115 4.12913 15.517 4.3077 14.9126 4.3077ZM16.664 5.50275V16.9999H13.1406V5.50275H16.664ZM24.4508 17.1648C23.3244 17.1648 22.3079 16.9244 21.4013 16.4436C20.5085 15.9629 19.8011 15.276 19.2791 14.3832C18.7709 13.4903 18.5167 12.4464 18.5167 11.2513C18.5167 10.07 18.7777 9.03295 19.2997 8.14009C19.8217 7.23351 20.536 6.53983 21.4425 6.05906C22.3491 5.57829 23.3656 5.33791 24.492 5.33791C25.6183 5.33791 26.6348 5.57829 27.5414 6.05906C28.448 6.53983 29.1623 7.23351 29.6843 8.14009C30.2062 9.03295 30.4672 10.07 30.4672 11.2513C30.4672 12.4327 30.1994 13.4766 29.6637 14.3832C29.1417 15.276 28.4205 15.9629 27.5002 16.4436C26.5936 16.9244 25.5771 17.1648 24.4508 17.1648ZM24.4508 14.1153C25.1238 14.1153 25.6939 13.8681 26.1609 13.3736C26.6417 12.8791 26.8821 12.1717 26.8821 11.2513C26.8821 10.331 26.6486 9.6236 26.1815 9.1291C25.7282 8.6346 25.1651 8.38735 24.492 8.38735C23.8052 8.38735 23.2351 8.6346 22.7818 9.1291C22.3285 9.60987 22.1019 10.3173 22.1019 11.2513C22.1019 12.1717 22.3217 12.8791 22.7612 13.3736C23.2145 13.8681 23.7777 14.1153 24.4508 14.1153Z" fill="#D80027"/>
</svg>
