<svg width="125" height="126" viewBox="0 0 125 126" fill="none" xmlns="http://www.w3.org/2000/svg">
<rect width="125" height="126" rx="13" fill="white"/>
<path d="M84.9446 58.5049H39.3392C37.3233 58.5049 35.39 59.3105 33.9645 60.7444C32.5391 62.1783 31.7383 64.1231 31.7383 66.1509V96.7349C31.7383 98.7627 32.5391 100.707 33.9645 102.141C35.39 103.575 37.3233 104.381 39.3392 104.381H84.9446C86.9605 104.381 88.8938 103.575 90.3192 102.141C91.7447 100.707 92.5455 98.7627 92.5455 96.7349V66.1509C92.5455 64.1231 91.7447 62.1783 90.3192 60.7444C88.8938 59.3105 86.9605 58.5049 84.9446 58.5049ZM84.9446 81.4429H39.3392V69.9739H84.9446M81.1441 35.567V54.682H75.4434V41.3015H54.0849L63.282 50.5914L59.2535 54.682L43.1396 38.4342L59.2535 22.1865L63.282 26.2771L54.0849 35.567H81.1441Z" fill="#691EDE"/>
</svg>
