<svg width="23" height="23" viewBox="0 0 23 23" fill="none" xmlns="http://www.w3.org/2000/svg">
<path d="M7.41416 0.849449C7.41416 0.380726 6.95083 0 6.37794 0C5.80506 0 5.34172 0.380726 5.34172 0.849449V4.57051C5.34172 5.03923 5.80506 5.41995 6.37794 5.41995C6.95083 5.41995 7.41416 5.03923 7.41416 4.57051V0.849449ZM10.1978 18.643C10.2588 18.643 10.3073 18.3862 10.3073 18.0683C10.3073 17.7504 10.2588 17.4936 10.1978 17.4936H7.36208C7.30102 17.4936 7.25254 17.7504 7.25254 18.0683C7.25254 18.3862 7.30102 18.643 7.36208 18.643H10.1978ZM19.2238 12.0485C19.2849 12.0485 19.3334 11.7917 19.3334 11.4739C19.3334 11.156 19.2849 10.8992 19.2238 10.8992H16.3882C16.3271 10.8992 16.2786 11.156 16.2786 11.4739C16.2786 11.7917 16.3271 12.0485 16.3882 12.0485H19.2238ZM14.7108 12.0485C14.7719 12.0485 14.8204 11.7917 14.8204 11.4739C14.8204 11.156 14.7719 10.8992 14.7108 10.8992H11.8751C11.8141 10.8992 11.7656 11.156 11.7656 11.4739C11.7656 11.7917 11.8141 12.0485 11.8751 12.0485H14.7108ZM10.1978 12.0485C10.2588 12.0485 10.3073 11.7917 10.3073 11.4739C10.3073 11.156 10.2588 10.8992 10.1978 10.8992H7.36208C7.30102 10.8992 7.25254 11.156 7.25254 11.4739C7.25254 11.7917 7.30102 12.0485 7.36208 12.0485H10.1978ZM5.68294 12.0485C5.744 12.0485 5.79249 11.7917 5.79249 11.4739C5.79249 11.156 5.744 10.8992 5.68294 10.8992H2.84725C2.78619 10.8992 2.7377 11.156 2.7377 11.4739C2.7377 11.7917 2.78619 12.0485 2.84725 12.0485H5.68294ZM19.2238 15.3458C19.2849 15.3458 19.3334 15.089 19.3334 14.7711C19.3334 14.4532 19.2849 14.1964 19.2238 14.1964H16.3882C16.3271 14.1964 16.2786 14.4532 16.2786 14.7711C16.2786 15.089 16.3271 15.3458 16.3882 15.3458H19.2238ZM14.7108 15.3458C14.7719 15.3458 14.8204 15.089 14.8204 14.7711C14.8204 14.4532 14.7719 14.1964 14.7108 14.1964H11.8751C11.8141 14.1964 11.7656 14.4532 11.7656 14.7711C11.7656 15.089 11.8141 15.3458 11.8751 15.3458H14.7108ZM10.1978 15.3458C10.2588 15.3458 10.3073 15.089 10.3073 14.7711C10.3073 14.4532 10.2588 14.1964 10.1978 14.1964H7.36208C7.30102 14.1964 7.25254 14.4532 7.25254 14.7711C7.25254 15.089 7.30102 15.3458 7.36208 15.3458H10.1978ZM5.68294 15.3458C5.744 15.3458 5.79249 15.089 5.79249 14.7711C5.79249 14.4532 5.744 14.1964 5.68294 14.1964H2.84725C2.78619 14.1964 2.7377 14.4532 2.7377 14.7711C2.7377 15.089 2.78619 15.3458 2.84725 15.3458H5.68294ZM19.2238 18.643C19.2849 18.643 19.3334 18.3862 19.3334 18.0683C19.3334 17.7504 19.2849 17.4936 19.2238 17.4936H16.3882C16.3271 17.4936 16.2786 17.7504 16.2786 18.0683C16.2786 18.3862 16.3271 18.643 16.3882 18.643H19.2238ZM14.7108 18.643C14.7719 18.643 14.8204 18.3862 14.8204 18.0683C14.8204 17.7504 14.7719 17.4936 14.7108 17.4936H11.8751C11.8141 17.4936 11.7656 17.7504 11.7656 18.0683C11.7656 18.3862 11.8141 18.643 11.8751 18.643H14.7108ZM16.7527 0.849449C16.7527 0.380726 16.2894 0 15.7165 0C15.1436 0 14.6803 0.380726 14.6803 0.849449V4.57051C14.6803 5.03923 15.1436 5.41995 15.7165 5.41995C16.2894 5.41995 16.7527 5.03923 16.7527 4.57051V0.849449ZM20.921 8.13891H1.15374V3.85575C1.15374 3.71208 1.213 3.58098 1.30818 3.484C1.40337 3.38882 1.53446 3.32955 1.67993 3.32955H3.57278C3.89065 3.32955 4.14746 3.07274 4.14746 2.75487C4.14746 2.437 3.89065 2.18019 3.57278 2.18019H1.67813C1.21659 2.18019 0.798156 2.36876 0.494653 2.67226C0.19115 2.97577 0.00258289 3.39421 0.00258289 3.85575V8.71539V20.394C0.00258289 20.8555 0.19115 21.2739 0.494653 21.5775C0.798156 21.881 1.21659 22.0695 1.67813 22.0695H20.3948C20.8563 22.0695 21.2747 21.881 21.5782 21.5775C21.8817 21.2722 22.0703 20.8537 22.0703 20.3922V8.71359V3.85575C22.0703 3.39421 21.8817 2.97577 21.5782 2.67226C21.2747 2.36876 20.8563 2.18019 20.3948 2.18019H18.3708C18.0529 2.18019 17.7961 2.437 17.7961 2.75487C17.7961 3.07274 18.0529 3.32955 18.3708 3.32955H20.3948C20.5384 3.32955 20.6695 3.38882 20.7665 3.484C20.8617 3.57918 20.921 3.71028 20.921 3.85575V8.13891ZM1.15194 9.29007H20.921V20.3922C20.921 20.5358 20.8617 20.6669 20.7665 20.7639C20.6713 20.8591 20.5402 20.9184 20.3948 20.9184H1.67813C1.53446 20.9184 1.40337 20.8591 1.30639 20.7639C1.21121 20.6687 1.15194 20.5376 1.15194 20.3922V9.29007ZM13.0137 3.32955C13.3316 3.32955 13.5884 3.07274 13.5884 2.75487C13.5884 2.437 13.3316 2.18019 13.0137 2.18019H9.15437C8.8365 2.18019 8.57969 2.437 8.57969 2.75487C8.57969 3.07274 8.8365 3.32955 9.15437 3.32955H13.0137Z" fill="#6019EB"/>
</svg>
