<svg width="12" height="12" viewBox="0 0 12 12" fill="none" xmlns="http://www.w3.org/2000/svg">
<path d="M10.6209 8.86724C10.6209 9.04067 10.5823 9.21893 10.5004 9.39236C10.4185 9.5658 10.3125 9.7296 10.1728 9.88376C9.93676 10.1439 9.6766 10.3318 9.38273 10.4522C9.09367 10.5727 8.78052 10.6353 8.44328 10.6353C7.95188 10.6353 7.42676 10.5197 6.87273 10.2836C6.31869 10.0476 5.76466 9.7296 5.21545 9.32973C4.65569 8.92028 4.12748 8.46936 3.63526 7.98079C3.14808 7.49035 2.69875 6.96372 2.29113 6.40541C1.89608 5.8562 1.57812 5.30699 1.34687 4.76259C1.11562 4.21338 1 3.68825 1 3.18722C1 2.85962 1.05781 2.54647 1.17344 2.25741C1.28906 1.96353 1.47213 1.69374 1.72747 1.45286C2.0358 1.14935 2.37303 1 2.72954 1C2.86443 1 2.99933 1.02891 3.11977 1.08672C3.24503 1.14453 3.35584 1.23125 3.44255 1.35651L4.56025 2.93188C4.64697 3.05232 4.7096 3.16313 4.75296 3.26912C4.79632 3.37029 4.8204 3.47146 4.8204 3.56299C4.8204 3.67862 4.78668 3.79424 4.71923 3.90505C4.6566 4.01585 4.56507 4.13148 4.44944 4.2471L4.0833 4.6277C4.03031 4.68069 4.00622 4.74332 4.00622 4.8204C4.00622 4.85894 4.01104 4.89267 4.02067 4.93121C4.03513 4.96975 4.04958 4.99866 4.05921 5.02756C4.14593 5.18654 4.29528 5.3937 4.50726 5.64422C4.72405 5.89474 4.9553 6.15008 5.20582 6.40541C5.46597 6.66075 5.71649 6.89681 5.97182 7.11361C6.22234 7.32559 6.4295 7.47012 6.5933 7.55683C6.61739 7.56647 6.6463 7.58092 6.68002 7.59537C6.71856 7.60983 6.7571 7.61464 6.80046 7.61464C6.88236 7.61464 6.94499 7.58574 6.99798 7.53274L7.36413 7.17142C7.48457 7.05098 7.60019 6.95944 7.711 6.90163C7.8218 6.83418 7.93261 6.80046 8.05305 6.80046C8.14459 6.80046 8.24094 6.81973 8.34693 6.86309C8.45292 6.90645 8.56372 6.96908 8.68417 7.05098L10.2788 8.18313C10.4041 8.26985 10.4908 8.37102 10.5438 8.49146C10.592 8.6119 10.6209 8.73234 10.6209 8.86724Z" stroke="#6019EB" stroke-miterlimit="10"/>
<path d="M7.50391 2.92713H9.91274M8.70832 4.13155V1.72272" stroke="#6019EB" strokeLinecap="round" stroke-linejoin="round"/>
</svg>
