<svg width="8" height="8" viewBox="0 0 8 8" fill="none" xmlns="http://www.w3.org/2000/svg">
<path d="M3.77217 7.06959L3.77147 7.0689C2.73234 6.04189 1.90793 5.22467 1.33751 4.46405C0.773554 3.71204 0.5 3.06879 0.5 2.39782C0.5 1.28604 1.28323 0.5 2.2 0.5C2.72814 0.5 3.25655 0.770889 3.60717 1.21615L4 1.715L4.39283 1.21615C4.74345 0.770889 5.27186 0.5 5.8 0.5C6.71677 0.5 7.5 1.28604 7.5 2.39782C7.5 3.06879 7.22645 3.71204 6.66249 4.46405C6.09207 5.22467 5.26766 6.04189 4.22853 7.0689L4.22783 7.06959L4 7.29565L3.77217 7.06959Z" stroke="#8A8A8A"/>
</svg>
