<svg width="135" height="94" viewBox="0 0 135 94" fill="none" xmlns="http://www.w3.org/2000/svg">
<path d="M27.0131 72.9281C28.2275 68.9496 30.3215 65.6831 33.6717 63.2542C42.5918 56.8887 54.9878 60.4483 59.05 70.6248C59.7619 72.3836 60.5576 72.9699 62.484 72.9699C69.3102 72.8443 76.1782 72.8862 83.0044 72.9699C84.3445 72.9699 84.9308 72.5512 85.3915 71.3367C87.9461 64.4686 94.1022 60.1133 101.18 60.0714C108.215 60.0295 114.539 64.4268 117.052 71.2529C117.554 72.6349 118.224 73.0537 119.606 72.9699C121.491 72.8443 123.375 72.9281 125.511 72.9281C125.553 72.1743 125.637 71.5042 125.637 70.8341C125.637 64.8455 125.678 58.8151 125.595 52.8265C125.595 51.8214 125.134 50.6488 124.548 49.8112C122.914 47.5498 121.491 44.6602 119.229 43.5295C117.135 42.4406 114.036 43.2363 111.398 43.2363C103.525 43.2363 95.6098 43.2363 87.7367 43.2363C83.8839 43.2363 82.46 41.8125 82.46 37.9178C82.46 29.2489 82.46 20.622 82.46 11.9532C82.46 11.1994 82.46 10.4456 82.46 9.35673C81.4549 9.35673 80.6592 9.35673 79.8635 9.35673C58.8406 9.35673 37.8596 9.35673 16.8366 9.35673C13.7376 9.35673 12.0625 7.80723 12.1463 5.04326C12.1881 2.86558 13.6539 1.23233 15.8316 0.981059C16.4597 0.897302 17.1717 0.939181 17.8836 0.939181C40.121 0.939181 62.4003 0.939181 84.6377 0.939181C89.5374 0.939181 90.8357 2.19553 90.8357 7.0953C90.8357 7.72347 90.8357 8.35165 90.8357 9.31485C91.6314 9.31485 92.3433 9.31485 93.0971 9.31485C97.9969 9.31485 102.855 9.35673 107.755 9.31485C110.267 9.27297 111.942 10.3618 113.031 12.6232C115.46 17.5649 118.098 22.3809 120.402 27.3644C123.459 33.9812 127.186 40.1373 132.002 45.6234C133.468 47.2985 134.054 49.1412 134.012 51.3607C133.928 59.6526 133.97 67.9864 133.97 76.2783C133.97 79.7961 132.421 81.3456 128.861 81.3456C125.595 81.3456 122.286 81.2619 119.02 81.4294C118.35 81.4712 117.387 82.0994 117.135 82.7276C114.162 89.805 108.257 93.951 101.012 93.9091C94.0184 93.8672 88.0717 89.6375 85.3915 82.7276C84.9727 81.6388 84.3864 81.3037 83.2557 81.3456C76.0107 81.3875 68.7239 81.3875 61.479 81.3456C60.2226 81.3456 59.7201 81.8063 59.2594 82.937C56.5373 89.805 50.4231 93.951 43.2619 93.9091C36.3519 93.8672 30.2377 89.5119 27.6412 82.7276C27.2643 81.7225 26.8037 81.3456 25.7148 81.3456C22.6577 81.4294 19.5587 81.3875 16.5016 81.3456C13.7376 81.3037 12.0625 79.7124 12.0625 77.1578C12.0625 74.5613 13.6958 72.9699 16.4597 72.9699C19.9775 72.8862 23.4534 72.9281 27.0131 72.9281ZM90.9613 34.6931C98.8344 34.6931 106.54 34.6931 114.288 34.6931C114.288 34.4419 114.371 34.1906 114.288 34.0231C111.733 28.872 109.137 23.721 106.54 18.57C106.373 18.2349 105.828 17.8162 105.451 17.8162C100.677 17.7743 95.8611 17.7743 90.9613 17.7743C90.9613 23.5116 90.9613 28.9977 90.9613 34.6931ZM92.804 76.9484C92.804 81.555 96.5311 85.4078 101.096 85.4497C105.619 85.5335 109.723 81.4294 109.681 76.9065C109.639 72.3418 105.828 68.6146 101.18 68.6146C96.5311 68.6146 92.8458 72.2999 92.804 76.9484ZM35.1375 77.0321C35.1375 81.6806 38.8646 85.4497 43.4713 85.4497C47.9522 85.4497 51.8888 81.555 51.8888 77.0321C51.9307 72.3418 48.1198 68.5727 43.3875 68.6146C38.6971 68.6565 35.1375 72.258 35.1375 77.0321Z" fill="black"/>
<path d="M29.1911 18.3188C35.0541 18.3188 40.9171 18.2769 46.78 18.3607C49.5859 18.4025 51.3448 20.0777 51.3866 22.4647C51.4285 24.8937 49.5859 26.6526 46.78 26.862C46.2356 26.9039 45.6493 26.862 45.1049 26.862C36.101 26.862 27.0972 26.862 18.1352 26.862C16.167 26.862 14.2406 26.9039 12.2723 26.862C11.5185 26.862 10.7228 26.7782 10.0108 26.5688C8.04256 26.0244 6.82808 24.2655 6.95372 22.3391C7.07935 20.2452 8.46134 18.6538 10.639 18.4863C13.068 18.3188 15.4969 18.3607 17.9677 18.3607C21.6949 18.2769 25.4221 18.2769 29.1911 18.3188C29.1911 18.2769 29.1911 18.2769 29.1911 18.3188Z" fill="black"/>
<path d="M22.1982 43.2785C16.4609 43.2785 10.7654 43.2785 5.02808 43.2785C1.80345 43.2785 -0.0810775 41.6452 0.00267917 39.0069C0.0864359 36.5361 2.01284 34.8609 5.02808 34.8609C16.5446 34.8609 28.0193 34.8609 39.5358 34.8609C42.593 34.8609 44.3937 36.4523 44.3937 39.0906C44.3937 41.7709 42.7186 43.2785 39.5777 43.2785C33.7566 43.3204 27.9774 43.2785 22.1982 43.2785Z" fill="black"/>
<path d="M20.774 59.9878C17.7588 59.9878 14.7854 60.0297 11.7702 59.9878C8.79682 59.9459 6.87041 58.2289 6.91229 55.7162C6.95417 53.2454 8.79682 51.6121 11.6864 51.5703C17.8425 51.5284 23.9568 51.5284 30.1129 51.5703C33.0025 51.5703 34.7614 53.2454 34.7614 55.8C34.7195 58.2708 32.8769 59.9459 30.0291 59.9878C26.8883 59.9878 23.8311 59.9878 20.774 59.9878Z" fill="black"/>
</svg>
