<svg width="121" height="105" viewBox="0 0 121 105" fill="none" xmlns="http://www.w3.org/2000/svg">
<path d="M63.1512 74.0702C64.5836 74.3341 65.7899 74.6356 66.9962 74.7864C67.4108 74.8241 67.9386 74.6356 68.2401 74.3718C69.1825 73.5424 70.0119 72.6 70.9166 71.733C71.7459 70.9414 72.6506 70.6775 73.5553 71.5445C74.46 72.4116 74.2338 73.354 73.4045 74.1833C72.6883 74.8995 71.9344 75.5403 71.2935 76.332C69.6349 78.3675 67.9009 79.3476 65.1491 78.066C63.1889 77.1236 59.3815 78.7445 57.9868 80.5539C60.0224 82.5518 62.058 84.5497 63.9805 86.4722C81.4715 68.9812 99.151 51.3017 116.717 33.7353C107.105 24.1228 97.3039 14.3218 87.3144 4.37002C83.017 8.70508 78.5312 13.2286 74.083 17.7145C73.3668 18.4307 72.6506 19.1469 71.9721 19.8631C71.105 20.7678 70.125 21.6349 68.9187 20.4663C67.7501 19.3354 68.5417 18.3176 69.4464 17.4129C73.6307 13.2286 77.815 9.08204 81.9615 4.89777C82.7155 4.14385 83.4694 3.38992 84.2233 2.636C87.0505 -0.19121 88.1437 -0.19121 90.8955 2.56061C99.1133 10.7784 107.331 18.9961 115.549 27.2139C116.717 28.3825 117.848 29.5133 119.017 30.6819C121.467 33.1322 121.467 34.4138 119.055 36.8264C106.087 49.7939 93.1196 62.7613 80.1521 75.7288C75.6663 80.2147 71.1804 84.7005 66.6946 89.1863C64.6213 91.2596 63.2266 91.2596 61.1156 89.1486C59.2308 87.2261 57.3837 85.2659 55.4235 83.2304C50.146 87.2261 43.813 88.1685 38.0455 90.5057C36.1607 91.2973 34.4644 92.6167 32.7304 93.6722C34.766 97.2533 34.6152 98.3465 32.0895 100.872C31.2602 101.701 30.4309 102.568 29.5639 103.398C27.3398 105.546 25.3796 105.546 23.1933 103.322C16.7095 96.8387 10.2258 90.3549 3.74204 83.8712C2.95042 83.0796 2.12111 82.2879 1.36718 81.4586C-0.140663 79.7623 -0.140663 77.7267 1.40488 76.0304C2.46037 74.8618 3.59126 73.8063 4.72214 72.6754C6.94621 70.4891 8.41636 70.376 10.8666 72.11C17.0865 67.8503 20.5545 61.8189 22.477 54.6944C23.4194 51.264 24.5503 47.8714 25.6058 44.4787C26.5482 41.3499 28.2445 38.6735 30.8456 36.6379C35.9345 32.6421 40.9858 28.6463 46.0371 24.6128C48.3743 22.7657 50.9376 21.9741 53.9156 22.3511C57.1952 22.7657 60.5501 22.9919 63.8297 23.4443C64.5082 23.5197 65.6014 24.0851 65.6768 24.5752C65.8276 25.2537 65.4129 26.3092 64.8852 26.8369C59.9093 31.8882 54.9334 36.9395 49.8444 41.8777C48.5251 43.1594 47.9596 44.441 48.5251 46.5143C49.1282 45.9489 49.6559 45.4588 50.146 44.9688C60.437 34.6777 70.7658 24.3867 81.0568 14.0579C82.4893 12.6255 83.771 12.2485 85.7312 12.927C87.0505 13.3417 88.7091 13.1532 90.0662 12.7763C91.5364 12.3616 92.5919 12.4747 93.6473 13.5302C98.3971 18.2799 103.147 23.0296 107.896 27.7793C108.952 28.8348 108.952 29.928 108.613 31.3605C108.273 32.8683 108.198 34.5646 108.575 36.0348C108.99 37.6557 108.877 38.7489 107.708 39.9175C98.5101 49.0776 89.3123 58.2755 80.1144 67.4734C79.172 68.4158 78.1919 69.3959 76.948 68.0388C75.8171 66.8325 76.7218 65.8901 77.5888 64.9854C86.2966 56.2776 95.0044 47.5698 103.712 38.8997C104.655 37.9573 105.182 37.1657 104.768 35.6578C104.391 34.3762 104.504 32.8683 104.805 31.5866C105.107 30.3427 104.843 29.6264 104.014 28.7971C100.093 24.9898 96.2484 21.1071 92.4034 17.2244C91.6871 16.5082 91.1217 16.2443 89.9908 16.5082C88.4453 16.8474 86.7113 16.8097 85.1657 16.4705C84.1102 16.2443 83.5825 16.4328 82.9039 17.1113C71.7082 28.3071 60.5124 39.5028 49.3544 50.7363C48.7889 51.3394 48.4497 52.3195 48.3366 53.1865C48.1481 54.4305 48.3366 55.7122 48.2989 56.9561C48.2612 58.3886 49.0151 59.3687 50.2214 59.5949C51.0884 59.7457 52.3324 59.4441 53.0109 58.841C55.3104 56.8054 57.3837 54.5059 59.6077 52.3949C60.7763 51.264 62.6611 50.5855 63.2643 49.2661C63.8674 47.9468 63.1512 46.0997 63.2266 44.4787C63.4527 38.6735 68.3909 33.6222 74.46 32.9437C80.416 32.2652 86.2589 36.1102 87.9552 41.84C89.9154 48.3991 86.5982 55.1467 80.1521 57.5593C79.5867 57.7855 78.9458 58.0116 78.5312 58.4263C73.6684 63.2514 68.8433 68.1142 64.0182 72.9393C63.7166 73.2032 63.4904 73.5801 63.1512 74.0702ZM30.0163 91.1842C32.2026 89.8272 34.2382 88.2439 36.5377 87.1884C39.2141 85.9822 42.079 85.2282 44.9062 84.3989C49.8821 82.9288 53.8779 80.2524 57.1198 76.1058C60.1732 72.1477 63.7543 68.6042 67.1093 64.8346C67.4862 64.42 67.8255 64.0053 68.2401 63.553C66.0915 61.8943 65.1491 59.8587 66.0161 57.3708C67.2224 53.8274 72.5375 50.6986 76.1563 51.3017C77.1741 51.4902 78.1165 51.9803 79.172 52.3572C79.8506 50.774 79.0212 49.8316 77.7396 49.4546C76.571 49.1153 75.2516 48.9646 74.0453 49.153C69.1825 49.8316 64.9606 51.8295 61.4925 55.4106C59.5323 57.4462 57.4967 59.4064 55.4988 61.4043C53.6517 63.2514 51.4654 63.9299 48.9774 62.9498C46.3387 61.932 44.7931 59.6326 44.7554 56.8431C44.7554 52.5834 44.6424 48.286 44.8308 44.0264C44.8685 42.8955 45.434 41.5761 46.1879 40.7468C50.2214 36.5248 54.4057 32.416 58.5522 28.3448C59.08 27.817 59.8339 27.5908 60.4747 27.2139C60.2863 26.95 60.0978 26.7238 59.9093 26.46C57.7983 26.3092 55.6873 26.3469 53.614 25.9322C51.4654 25.5176 49.8067 26.1207 48.2235 27.3647C43.2476 31.2851 38.2717 35.2432 33.2958 39.1636C31.034 40.9353 29.677 43.2347 28.8477 45.9489C27.4152 50.6609 25.832 55.3729 24.3241 60.0472C22.9294 64.42 20.7807 68.3404 17.1242 71.243C15.8048 72.2985 14.5985 73.4294 13.3923 74.4848C19.2729 80.3654 24.7388 85.9068 30.0163 91.1842ZM30.3555 97.5172C22.7032 89.8272 15.2394 82.2879 7.70013 74.711C6.49386 75.9173 5.1368 77.2744 3.96822 78.4052C11.5828 86.0576 19.1221 93.5968 26.6236 101.136C27.8676 99.892 29.2623 98.535 30.3555 97.5172ZM83.1678 50.9248C85.8065 47.1175 85.5804 42.6316 82.6778 39.352C79.9259 36.261 75.2516 35.4316 71.5197 37.3541C67.9009 39.239 65.9407 43.4232 66.8831 47.3059C68.8056 46.7782 70.6904 46.062 72.6129 45.7604C77.1741 45.1196 81.3207 45.4211 83.1678 50.9248ZM76.5333 54.9206C75.5532 54.8452 74.4977 54.4682 73.8192 54.8075C72.5752 55.4106 71.482 56.3907 70.4265 57.3708C68.5794 59.1048 68.6925 59.5195 70.5773 60.8011C72.5375 58.8786 74.4223 56.9938 76.5333 54.9206Z" fill="black"/>
</svg>
