<svg width="104" height="105" viewBox="0 0 104 105" fill="none" xmlns="http://www.w3.org/2000/svg">
<path d="M60.5252 80.7412C60.5252 76.0383 60.5252 71.3353 60.5252 66.6026C60.5252 59.5482 60.5252 52.5236 60.5252 45.4692C60.5252 41.3615 63.2041 38.385 67.2224 37.9087C70.705 37.492 74.0387 39.9625 74.9912 43.6535C75.14 44.2785 75.14 44.9334 75.14 45.5585C75.14 52.1069 75.1698 58.6553 75.14 65.2037C75.14 66.2455 75.4377 66.6026 76.5092 66.7812C81.0931 67.5551 85.677 68.329 90.2014 69.3411C96.8093 70.7996 100.709 77.6754 98.744 84.1047C97.3153 88.7779 95.8866 93.4511 94.428 98.1243C94.2197 98.7493 93.922 99.5828 93.4458 99.8507C92.8505 100.178 91.898 100.238 91.2729 99.9697C90.2609 99.553 90.1418 98.541 90.4395 97.5587C91.392 94.4333 92.3742 91.3377 93.3267 88.2124C93.9518 86.1883 94.6066 84.1643 95.0829 82.1104C95.9759 78.0921 93.2672 73.8059 88.6535 72.9724C83.5934 72.0497 78.5333 71.1568 73.4732 70.2638C71.8063 69.9661 71.2407 69.3113 71.2407 67.5551C71.2407 60.2031 71.2407 52.8808 71.2407 45.5287C71.2407 42.701 68.8297 40.9746 66.4485 42.1057C64.9305 42.82 64.4542 44.1892 64.4542 45.7966C64.4542 54.6369 64.4542 63.4475 64.4542 72.2878C64.4542 76.6634 64.4542 81.0091 64.4542 85.3846C64.4542 86.3669 64.3649 87.3194 63.3231 87.7361C62.2813 88.1528 61.4479 87.7361 60.674 86.9622C58.4714 84.7 56.2092 82.4676 53.947 80.2352C52.2504 78.5386 50.0477 78.4195 48.5297 79.9078C46.9819 81.4258 47.101 83.5392 48.8274 85.2953C52.548 89.016 56.2985 92.7069 59.9596 96.4872C60.5252 97.0527 61.061 98.035 61.0014 98.7493C60.8228 100.446 58.8286 100.892 57.4891 99.553C55.2269 97.3206 52.9945 95.0584 50.7621 92.826C49.1548 91.2187 47.5177 89.6113 45.9401 87.9742C42.8743 84.8191 42.8147 80.2055 45.7913 77.1991C48.7678 74.1928 53.4708 74.1928 56.5961 77.2289C57.8165 78.4195 58.9476 79.7292 60.1085 81.0091C60.2275 80.9198 60.3764 80.8305 60.5252 80.7412Z" fill="black" stroke="black" stroke-width="1.98812"/>
<path d="M41.6227 4.92871C57.8152 5.1073 72.1919 15.3764 77.4008 30.6758C77.9664 32.3427 77.5794 33.3845 76.24 33.831C75.1089 34.2179 74.1862 33.5631 73.6504 32.045C68.8879 19.1268 59.6904 11.3581 46.1471 9.39353C29.2403 7.01229 13.7623 17.6088 9.26768 33.5929C4.14802 51.7498 14.5957 70.2639 32.7526 75.3538C34.3004 75.8003 34.985 76.7528 34.5981 78.0327C34.2707 79.1638 33.0801 79.64 31.4727 79.1638C22.4836 76.4849 15.2803 71.3355 10.1309 63.4774C-4.48396 41.183 8.07706 11.1199 34.2409 5.85144C36.6817 5.40496 39.1522 5.22637 41.6227 4.92871Z" fill="black" stroke="black" stroke-width="1.98812"/>
<path d="M37.5447 50.1425C41.8904 45.767 46.1171 41.5106 50.3438 37.2541C52.1893 35.3789 54.0347 33.5334 55.9099 31.688C57.1006 30.5271 58.0531 30.4378 59.0055 31.3308C59.9283 32.2237 59.839 33.3548 58.6484 34.5454C52.219 41.0045 45.7599 47.4637 39.3008 53.893C37.9316 55.2622 37.0386 55.2622 35.6397 53.8632C32.5441 50.7974 29.4782 47.7018 26.3826 44.6062C25.192 43.4156 25.0432 42.2547 25.9064 41.3617C26.7993 40.439 28.0197 40.6176 29.2401 41.8677C32.0083 44.5764 34.6872 47.2553 37.5447 50.1425Z" fill="black" stroke="black" stroke-width="1.98812"/>
</svg>
