<svg width="21" height="20" viewBox="0 0 21 20" fill="none" xmlns="http://www.w3.org/2000/svg">
<path d="M10.0688 6.66192C8.21945 6.66192 6.71026 8.15969 6.71026 9.99501C6.71026 11.8303 8.21945 13.3281 10.0688 13.3281C11.9181 13.3281 13.4273 11.8303 13.4273 9.99501C13.4273 8.15969 11.9181 6.66192 10.0688 6.66192ZM20.1419 9.99501C20.1419 8.61477 20.1545 7.24702 20.0764 5.86928C19.9983 4.269 19.6304 2.84875 18.4513 1.67854C17.2696 0.505833 15.841 0.143269 14.2285 0.0657552C12.8378 -0.0117585 11.4596 0.000743742 10.0713 0.000743742C8.68053 0.000743742 7.30235 -0.0117585 5.91409 0.0657552C4.30159 0.143269 2.87049 0.508333 1.69135 1.67854C0.509694 2.85125 0.144363 4.269 0.0662571 5.86928C-0.0118483 7.24952 0.000749419 8.61727 0.000749419 9.99501C0.000749419 11.3728 -0.0118483 12.743 0.0662571 14.1207C0.144363 15.721 0.512214 17.1413 1.69135 18.3115C2.87301 19.4842 4.30159 19.8468 5.91409 19.9243C7.30487 20.0018 8.68305 19.9893 10.0713 19.9893C11.4621 19.9893 12.8403 20.0018 14.2285 19.9243C15.841 19.8468 17.2721 19.4817 18.4513 18.3115C19.6329 17.1388 19.9983 15.721 20.0764 14.1207C20.157 12.743 20.1419 11.3753 20.1419 9.99501ZM10.0688 15.1234C7.20912 15.1234 4.90123 12.833 4.90123 9.99501C4.90123 7.15701 7.20912 4.8666 10.0688 4.8666C12.9285 4.8666 15.2363 7.15701 15.2363 9.99501C15.2363 12.833 12.9285 15.1234 10.0688 15.1234ZM15.448 5.85428C14.7803 5.85428 14.2411 5.31918 14.2411 4.65657C14.2411 3.99395 14.7803 3.45885 15.448 3.45885C16.1157 3.45885 16.6548 3.99395 16.6548 4.65657C16.655 4.81391 16.624 4.96974 16.5634 5.11514C16.5028 5.26055 16.4139 5.39266 16.3018 5.50392C16.1897 5.61517 16.0566 5.70339 15.9101 5.76351C15.7636 5.82363 15.6065 5.85448 15.448 5.85428Z" fill="#6019EB"/>
</svg>
