<svg width="25" height="20" viewBox="0 0 25 20" fill="none" xmlns="http://www.w3.org/2000/svg">
<path d="M24.224 2.3359C23.3332 2.73063 22.3762 2.99735 21.3702 3.1179C22.4082 2.49677 23.1848 1.51919 23.5551 0.367551C22.5798 0.946842 21.5124 1.3546 20.3993 1.5731C19.6508 0.773879 18.6594 0.244144 17.5789 0.0661369C16.4985 -0.11187 15.3895 0.0718099 14.4241 0.58866C13.4588 1.10551 12.6911 1.92661 12.2402 2.92449C11.7893 3.92236 11.6805 5.04118 11.9306 6.10723C9.95449 6.00801 8.02129 5.49438 6.25649 4.59966C4.49169 3.70495 2.93475 2.44916 1.6867 0.913781C1.25996 1.64991 1.01458 2.50339 1.01458 3.41236C1.0141 4.23063 1.21561 5.03637 1.60122 5.75808C1.98683 6.4798 2.54462 7.09518 3.2251 7.54962C2.43592 7.52451 1.66416 7.31127 0.974039 6.92764V6.99165C0.973959 8.13931 1.37094 9.25166 2.09763 10.1399C2.82432 11.0282 3.83595 11.6377 4.96088 11.865C4.22878 12.0632 3.46124 12.0924 2.71621 11.9504C3.0336 12.9379 3.65184 13.8014 4.48438 14.4201C5.31693 15.0388 6.32209 15.3816 7.35917 15.4006C5.59868 16.7826 3.42448 17.5323 1.18634 17.529C0.789879 17.5291 0.393751 17.5059 0 17.4596C2.27184 18.9203 4.91643 19.6956 7.61734 19.6926C16.7603 19.6926 21.7585 12.12 21.7585 5.55247C21.7585 5.3391 21.7532 5.12359 21.7436 4.91022C22.7158 4.20713 23.555 3.3365 24.2219 2.3391L24.224 2.3359Z" fill="#6019EB"/>
</svg>
