<svg width="22" height="22" viewBox="0 0 22 22" fill="none" xmlns="http://www.w3.org/2000/svg">
<path fillRule="evenodd" clipRule="evenodd" d="M2.67921e-07 1.81004C2.67921e-07 1.32999 0.190701 0.8696 0.530149 0.530151C0.869598 0.190703 1.32999 2.41304e-06 1.81004 2.41304e-06H19.8533C20.0912 -0.000386137 20.3269 0.0461525 20.5468 0.136954C20.7667 0.227755 20.9665 0.361036 21.1348 0.529165C21.3031 0.697295 21.4366 0.896971 21.5277 1.11676C21.6187 1.33655 21.6655 1.57214 21.6654 1.81004V19.8533C21.6656 20.0913 21.619 20.327 21.528 20.5469C21.4371 20.7668 21.3038 20.9666 21.1356 21.1349C20.9674 21.3032 20.7676 21.4366 20.5478 21.5277C20.3279 21.6187 20.0923 21.6655 19.8543 21.6654H1.81004C1.57226 21.6654 1.33681 21.6185 1.11714 21.5275C0.897473 21.4365 0.697892 21.303 0.529801 21.1349C0.36171 20.9667 0.228404 20.767 0.137499 20.5473C0.0465936 20.3276 -0.000129102 20.0921 2.67921e-07 19.8543V1.81004ZM8.57554 8.26041H11.5092V9.73366C11.9327 8.88674 13.016 8.12451 14.6438 8.12451C17.7646 8.12451 18.5042 9.81146 18.5042 12.9066V18.6401H15.346V13.6118C15.346 11.849 14.9225 10.8543 13.8471 10.8543C12.3552 10.8543 11.7347 11.9268 11.7347 13.6118V18.6401H8.57554V8.26041ZM3.1592 18.5052H6.31841V8.12451H3.1592V18.5042V18.5052ZM6.77043 4.73881C6.77638 5.0093 6.72825 5.27826 6.62885 5.5299C6.52945 5.78154 6.38079 6.0108 6.1916 6.20421C6.0024 6.39761 5.77648 6.55128 5.52708 6.6562C5.27769 6.76111 5.00986 6.81515 4.7393 6.81515C4.46874 6.81515 4.2009 6.76111 3.95151 6.6562C3.70212 6.55128 3.4762 6.39761 3.287 6.20421C3.0978 6.0108 2.94914 5.78154 2.84974 5.5299C2.75035 5.27826 2.70221 5.0093 2.70817 4.73881C2.71986 4.20786 2.93899 3.7026 3.31863 3.33123C3.69826 2.95987 4.20822 2.75191 4.7393 2.75191C5.27037 2.75191 5.78033 2.95987 6.15997 3.33123C6.53961 3.7026 6.75873 4.20786 6.77043 4.73881Z" fill="#6019EB"/>
</svg>
