<svg id="Layer_1" data-name="Layer 1" xmlns="http://www.w3.org/2000/svg" viewBox="0 0 955.19 512.4"><defs><style>.cls-1{fill:#5d17ea;}.cls-2{fill:#ef6b19;}</style></defs><path d="M27.24,439.08,0,375.31H19.49l23,55.21H31l23.5-55.21H72.33L45,439.08Z"/><path d="M77.88,439.08V375.31h18v63.77Z"/><path d="M110.58,439.08V375.31h29.15a36.86,36.86,0,0,1,15.08,2.83,22,22,0,0,1,9.79,8.15,22.63,22.63,0,0,1,3.46,12.62,21.52,21.52,0,0,1-13.25,20.63,36.36,36.36,0,0,1-15.08,2.87H120.6l8-7.84v24.51Zm18-22.59-8-8.29h18c3.77,0,6.57-.82,8.43-2.46a8.66,8.66,0,0,0,2.78-6.83,8.78,8.78,0,0,0-2.78-6.93c-1.86-1.64-4.66-2.46-8.43-2.46h-18l8-8.29Z"/><path d="M207.87,439.08V375.31h14.85l35.16,42.45h-7V375.31h17.67v63.77H253.69l-35.16-42.45h7v42.45Z"/><path d="M312.54,440.35q-14.13,0-22.05-7.74t-7.92-21.95V375.31h18v34.8q0,8.2,3.24,11.75t8.88,3.55q5.64,0,8.83-3.55t3.19-11.75v-34.8h17.77v35.35q0,14.2-7.93,21.95T312.54,440.35Z"/><path d="M356.53,439.08V375.31h14.85l26.42,43.36H390l25.69-43.36H430.5l.18,63.77H414.1l-.18-38.53h2.83l-19.22,32.24h-8l-19.77-32.24h3.46v38.53Z"/><path d="M445.26,439.08V375.31h32.61q12.57,0,18.76,4.6a14.35,14.35,0,0,1,6.2,12.07,14.59,14.59,0,0,1-2.6,8.61,17.52,17.52,0,0,1-7.29,5.83,26.6,26.6,0,0,1-11.15,2.14l1.82-4.37a30.84,30.84,0,0,1,11.75,2.05,17.5,17.5,0,0,1,7.79,5.92,15.77,15.77,0,0,1,2.77,9.43,14.76,14.76,0,0,1-6.69,12.89q-6.69,4.61-19.54,4.6Zm17.85-13h15.12q4.65,0,7.06-1.59a6.12,6.12,0,0,0,0-9.75q-2.42-1.59-7.06-1.59H461.84V400.64H475.5c3,0,5.31-.52,6.83-1.55a5.24,5.24,0,0,0,2.28-4.65,5.14,5.14,0,0,0-2.28-4.6c-1.52-1-3.79-1.5-6.83-1.5H463.11Z"/><path d="M535,425.14h33.34v13.94H517.13V375.31h50v13.94H535ZM533.71,400h29.6v13.48h-29.6Z"/><path d="M580.17,439.08V375.31h29.15a36.81,36.81,0,0,1,15.07,2.83,22,22,0,0,1,9.79,8.15,22.63,22.63,0,0,1,3.47,12.62,21.21,21.21,0,0,1-13.26,20.45,37.33,37.33,0,0,1-15.07,2.78H590.19l8-7.57v24.51Zm18-22.59-8-8.29h18c3.77,0,6.57-.82,8.43-2.46a8.66,8.66,0,0,0,2.78-6.83,8.78,8.78,0,0,0-2.78-6.93c-1.86-1.64-4.66-2.46-8.43-2.46h-18l8-8.29Zm21.41,22.59-15.85-23.23H623l15.94,23.23Z"/><path d="M700.13,440.35a57.24,57.24,0,0,1-15.07-2,39.17,39.17,0,0,1-11.8-5.05l5.92-13.3a42.09,42.09,0,0,0,9.89,4.51,36.83,36.83,0,0,0,11.15,1.78,21.4,21.4,0,0,0,6-.69,7.26,7.26,0,0,0,3.32-1.82,3.83,3.83,0,0,0,1.05-2.69,3.93,3.93,0,0,0-2-3.46,17.78,17.78,0,0,0-5.19-2.09c-2.12-.55-4.48-1.1-7.06-1.64a74.1,74.1,0,0,1-7.74-2.1,31,31,0,0,1-7.06-3.32,16.19,16.19,0,0,1-5.19-5.38,16,16,0,0,1-2-8.42,18.1,18.1,0,0,1,3.15-10.39,21.74,21.74,0,0,1,9.42-7.47q6.3-2.82,15.67-2.82a54.34,54.34,0,0,1,12.35,1.41,39.15,39.15,0,0,1,10.79,4.15L720.17,393a43,43,0,0,0-9-3.69,32.61,32.61,0,0,0-8.66-1.23,19.33,19.33,0,0,0-6,.77,6.89,6.89,0,0,0-3.28,2.05,4.58,4.58,0,0,0-1,2.92,3.76,3.76,0,0,0,2,3.32,17.19,17.19,0,0,0,5.19,2q3.23.78,7.1,1.6a79.18,79.18,0,0,1,7.75,2,29.47,29.47,0,0,1,7.06,3.28,15.83,15.83,0,0,1,5.14,5.37,16.19,16.19,0,0,1,2,8.34A18.1,18.1,0,0,1,725.23,430a21.71,21.71,0,0,1-9.38,7.51Q709.61,440.35,700.13,440.35Z"/><path d="M756.52,439.08h-18V375.31h18Zm25.87-24.87H755.24V399.27h27.15Zm-1.28-38.9h18v63.77h-18Z"/><path d="M845.88,440.35a39.4,39.4,0,0,1-14.12-2.46,33.74,33.74,0,0,1-11.25-7,32.69,32.69,0,0,1,0-47.46,33.6,33.6,0,0,1,11.25-7,41.87,41.87,0,0,1,28.28,0A33,33,0,0,1,878.63,394a32,32,0,0,1,2.69,13.21A32.06,32.06,0,0,1,871.2,431,33.46,33.46,0,0,1,860,437.89,39.27,39.27,0,0,1,845.88,440.35Zm0-14.94a17.91,17.91,0,0,0,6.79-1.27,15.71,15.71,0,0,0,5.46-3.69,17.58,17.58,0,0,0,3.65-5.78,21.94,21.94,0,0,0,0-15,17.6,17.6,0,0,0-3.65-5.74,15.71,15.71,0,0,0-5.46-3.69,18.79,18.79,0,0,0-13.58,0,15.71,15.71,0,0,0-5.46,3.69,17.44,17.44,0,0,0-3.65,5.74,21.94,21.94,0,0,0,0,15,17.42,17.42,0,0,0,3.65,5.78,15.71,15.71,0,0,0,5.46,3.69A17.91,17.91,0,0,0,845.88,425.41Z"/><path d="M892.61,439.08V375.31h29.15a36.89,36.89,0,0,1,15.08,2.83,22,22,0,0,1,9.79,8.15,22.63,22.63,0,0,1,3.46,12.62,21.52,21.52,0,0,1-13.25,20.63,36.39,36.39,0,0,1-15.08,2.87H902.63l8-7.84v24.51Zm18-22.59-8-8.29h18q5.64,0,8.42-2.46a8.66,8.66,0,0,0,2.78-6.83,8.78,8.78,0,0,0-2.78-6.93q-2.77-2.46-8.42-2.46h-18l8-8.29Z"/><path d="M62,500.24l14.88-32.87h4.65l14.93,32.87H91.49L78.2,470h1.88L66.79,500.24ZM68.29,492l1.27-3.75h18.5L89.42,492Z"/><path d="M102.24,500.24V467.37h12.82a18.16,18.16,0,0,1,7.37,1.36,10.53,10.53,0,0,1,4.7,3.95,11.25,11.25,0,0,1,1.64,6.15,11.1,11.1,0,0,1-1.64,6.12,10.66,10.66,0,0,1-4.7,3.95,17.82,17.82,0,0,1-7.37,1.38H104.82l2.12-2.2v12.16Zm4.7-11.69-2.12-2.35h10.1q4.5,0,6.83-1.93a7.55,7.55,0,0,0,0-10.89q-2.32-1.92-6.83-1.92h-10.1l2.12-2.35Z"/><path d="M136.61,500.24V467.37h4.69v32.87Zm4.13-7.94-.23-5.73,18.64-19.2h5.35l-14.42,15.21-2.62,2.91Zm19.16,7.94-13.48-15.68,3.15-3.48,15.82,19.16Z"/><path d="M165,500.24l14.89-32.87h4.65l14.93,32.87h-4.93L181.26,470h1.88l-13.29,30.24Zm6.34-8.22,1.27-3.75h18.5l1.36,3.75Z"/><path d="M218.87,500.24V467.37h3.85l21.74,27h-2v-27h4.69v32.87h-3.85l-21.74-27h2v27Z"/><path d="M271.55,500.61q-6.48,0-10.19-3.71t-3.71-10.84V467.37h4.69v18.5q0,5.49,2.42,8a9,9,0,0,0,6.83,2.53q4.47,0,6.88-2.53t2.42-8v-18.5h4.55v18.69q0,7.14-3.68,10.84T271.55,500.61Z"/><path d="M296,500.24V467.37h3.85l14.74,24.84h-2.06l14.55-24.84h3.85l.05,32.87h-4.51l-.05-25.78h1.08l-13,21.79h-2.16l-13.05-21.79h1.18v25.78Z"/><path d="M341.79,500.24V467.37h14.74c3.78,0,6.7.76,8.73,2.28a7.35,7.35,0,0,1,3.05,6.22,8.15,8.15,0,0,1-1.19,4.51,7.84,7.84,0,0,1-3.22,2.81,9.8,9.8,0,0,1-4.37,1l.85-1.41a11.76,11.76,0,0,1,5,1,8.07,8.07,0,0,1,3.43,2.88,8.31,8.31,0,0,1,1.27,4.72,7.65,7.65,0,0,1-3.17,6.55q-3.17,2.32-9.41,2.33Zm4.69-3.81h10.8a11.12,11.12,0,0,0,6-1.31,4.54,4.54,0,0,0,2.07-4.13,4.59,4.59,0,0,0-2.07-4.18,11.11,11.11,0,0,0-6-1.32H346.06v-3.8h10.05a10,10,0,0,0,5.54-1.31,4.94,4.94,0,0,0,0-7.89,9.93,9.93,0,0,0-5.54-1.32h-9.63Z"/><path d="M383,496.15h19.16v4.09H378.27V467.37h23.19v4.09H383Zm-.42-14.6h16.9v4h-16.9Z"/><path d="M410.66,500.24V467.37h12.82a18.13,18.13,0,0,1,7.37,1.36,10.48,10.48,0,0,1,4.7,3.95,11.25,11.25,0,0,1,1.64,6.15,11.1,11.1,0,0,1-1.64,6.12,10.51,10.51,0,0,1-4.7,3.93,18.13,18.13,0,0,1-7.37,1.36H413.24l2.12-2.16v12.16Zm4.7-11.69-2.12-2.3h10.1q4.5,0,6.83-1.95a7.58,7.58,0,0,0,0-10.92q-2.32-1.92-6.83-1.92h-10.1l2.12-2.35Zm17.28,11.69-8.36-11.93h5l8.45,11.93Z"/><path d="M443.29,507.19l2.35-9.49.61,2.73a3.25,3.25,0,0,1-2.28-.85,3,3,0,0,1-.91-2.3A3.06,3.06,0,0,1,444,495a3.1,3.1,0,0,1,2.23-.89,2.86,2.86,0,0,1,2.21.91,3.25,3.25,0,0,1,.85,2.28,7,7,0,0,1-.07.92,10.37,10.37,0,0,1-.24,1c-.11.39-.27.87-.49,1.43l-2.21,6.53Z"/><path d="M465.92,500.24l14.89-32.87h4.65l14.92,32.87h-4.92L482.17,470h1.88l-13.29,30.24Zm6.34-8.22,1.27-3.75H492l1.36,3.75Z"/><path d="M506.21,500.24V467.37H519a18.2,18.2,0,0,1,7.37,1.36,10.45,10.45,0,0,1,4.69,3.95,11.17,11.17,0,0,1,1.65,6.15,11,11,0,0,1-1.65,6.12,10.58,10.58,0,0,1-4.69,3.95,17.85,17.85,0,0,1-7.37,1.38H508.79l2.11-2.2v12.16Zm4.69-11.69-2.11-2.35h10.09q4.51,0,6.84-1.93a7.55,7.55,0,0,0,0-10.89q-2.33-1.92-6.84-1.92H508.79l2.11-2.35Z"/><path d="M540.58,500.24V467.37h4.69v32.87Zm4.13-7.94-.24-5.73,18.64-19.2h5.35l-14.41,15.21-2.63,2.91Zm19.15,7.94-13.47-15.68,3.14-3.48,15.83,19.16Z"/><path d="M575.27,500.24V467.37H580v32.87Z"/><path d="M604.33,500.24V467.37h12.82a18.13,18.13,0,0,1,7.37,1.36,10.48,10.48,0,0,1,4.7,3.95,11.25,11.25,0,0,1,1.64,6.15,11.1,11.1,0,0,1-1.64,6.12,10.61,10.61,0,0,1-4.7,3.95,17.79,17.79,0,0,1-7.37,1.38H606.92l2.11-2.2v12.16Zm4.7-11.69-2.11-2.35H617c3,0,5.28-.64,6.83-1.93a7.53,7.53,0,0,0,0-10.89c-1.55-1.28-3.82-1.92-6.83-1.92H606.92l2.11-2.35Z"/><path d="M643.4,496.15h19.15v4.09H638.7V467.37h23.2v4.09H643.4Zm-.42-14.6h16.9v4H643Z"/><path d="M675.79,500.24H671.1V467.37h4.69Zm19.3-14.65H675.33V481.5h19.76Zm-.42-18.22h4.69v32.87h-4.69Z"/><path d="M724.86,500.61a18.81,18.81,0,0,1-6.93-1.24,16.22,16.22,0,0,1-5.49-3.52A16.71,16.71,0,0,1,718,468.24a19.86,19.86,0,0,1,13.95.05,14.45,14.45,0,0,1,5.47,3.82l-3.06,3a12.23,12.23,0,0,0-4.22-2.93,13.18,13.18,0,0,0-5-1,14,14,0,0,0-5.14.94,12.54,12.54,0,0,0-4.11,2.63,12.16,12.16,0,0,0-2.7,4,13.74,13.74,0,0,0,0,10.09,12.16,12.16,0,0,0,2.7,4A12.54,12.54,0,0,0,720,495.5a14,14,0,0,0,5.14.93,13.17,13.17,0,0,0,5-1,11.86,11.86,0,0,0,4.22-3l3.06,3a14.74,14.74,0,0,1-5.47,3.85A18.46,18.46,0,0,1,724.86,500.61Z"/><path d="M749.74,500.24h-4.69V467.37h4.69ZM769,485.59H749.27V481.5H769Zm-.42-18.22h4.69v32.87h-4.69Z"/><path d="M779.13,500.24,794,467.37h4.65l14.93,32.87h-4.93L795.38,470h1.88L784,500.24Zm6.34-8.22,1.27-3.75h18.5L806.6,492Z"/><path d="M815.05,500.24l14.89-32.87h4.64l14.93,32.87h-4.93L831.3,470h1.87l-13.28,30.24Zm6.34-8.22,1.27-3.75h18.5l1.36,3.75Z"/><path d="M855.34,500.24V467.37h3.85l21.73,27h-2v-27h4.69v32.87h-3.85l-21.74-27h2v27Z"/><path class="cls-1" d="M304.05,105.63l54.68-.47,21.65-.2c.33,0,.65-.07,1-.1h10.47c.59,0,.67-.48.87-.76,2.12-3.19,4.18-6.39,6.28-9.58L407.92,81l9.59-14.62q4.8-7.3,9.63-14.59c.84-1.29,1.74-2.53,2.47-3.85,1-1.82,2.74-2.47,4.5-3.07a18.7,18.7,0,0,1,1.93-.47,10.52,10.52,0,0,1,2.38,0,12.72,12.72,0,0,1,7.68,5,9.14,9.14,0,0,1,1.34,4,8.62,8.62,0,0,1,0,2.38v.4a.22.22,0,0,1-.06.29,17,17,0,0,0-4.61,1.42,6,6,0,0,0-2.3,2.1c-6,9.14-12,18.23-18,27.35-6.21,9.46-12.45,18.89-18.61,28.37a2.8,2.8,0,0,1-2.7,1.45c-6.28-.18-12.56.29-18.84.19-3.26-.06-6.53-.12-9.78,0-7.92.3-15.83,0-23.74.22-7.12.23-14.23,0-21.35.18-4,.13-8,.14-12,.17a.46.46,0,0,0-.33.13,29.46,29.46,0,0,0,1.66,2.66q7,10.75,14.07,21.55,11.29,17.31,22.6,34.69c2.55,3.9,5.1,7.8,7.61,11.72.25.37.63.72.46,1.25a2.26,2.26,0,0,1-.16.26c-1.1,1.66-1.1,1.66-2.21-.05l-54.4-83.33c-.22-.34-.36-.76-.76-1Z"/><path class="cls-2" d="M453.37,330.38c-.57.09-.61-.44-.77-.76-2.77-4.24-5.52-8.46-8.27-12.73-.41-.09-.55-.46-.77-.77-4.67-7.16-9.28-14.35-13.92-21.51-1.76-2.71-3.52-5.41-5.26-8.13a1.6,1.6,0,0,1,0-2.06c4.16-6.26,8.28-12.54,12.42-18.82q8.59-13.07,17.19-26.08L470.4,214.6q8.37-12.72,16.75-25.41l16.41-24.9,17.13-26c4.41-6.69,8.85-13.37,13.19-20.1a2.75,2.75,0,0,1,2.68-1.46c6.68.17,13.36.2,20.05.27,2.42,0,4.84.08,7.26.16a1.87,1.87,0,0,0,1.8-1c5.76-9,11.63-17.83,17.43-26.75q3.35-5.16,6.71-10.28c7.35-11.18,14.6-22.39,22-33.57q8-12.18,15.94-24.4c1.54-2.39,3.16-4.77,4.67-7.19a3.55,3.55,0,0,1,1.93-1.48,15.07,15.07,0,0,1,6-.77,1.23,1.23,0,0,1,.77.23,15.71,15.71,0,0,1,5.38,2c4.44,2.89,5.38,7.64,4.27,12a4,4,0,0,1-.54,1.05L559.65,166.51,453.81,329.61A5.43,5.43,0,0,0,453.37,330.38Z"/><path class="cls-2" d="M462.14,187.44c-2.85,4.33-5.71,8.65-8.53,13q-21,32.15-41.93,64.31c-.63,1-.64,1-1.29,0l-7.89-11.88c-.19-.27-.39-.53-.59-.77-.39-.11-.53-.47-.76-.76-6.09-9.05-12-18.19-18.13-27.25a1.65,1.65,0,0,1,.08-2.14c5.45-8.15,10.86-16.34,16.35-24.48,11.18-16.6,22.19-33.33,33.36-49.94q9.81-14.6,19.56-29.29a2.44,2.44,0,0,1,2.3-1.23h26.65a2.37,2.37,0,0,0,2.3-1.32c2.42-3.84,4.93-7.68,7.4-11.52q10.5-16.2,21-32.42,5.93-9.13,11.86-18.35c3.22-5,6.34-10,9.66-14.89A8.11,8.11,0,0,1,541.69,35c.18.08.3.26.49.31a22.73,22.73,0,0,1,6.44,3.4,10.27,10.27,0,0,1,3.59,7.23,8,8,0,0,1,0,2.19c-.05,1.53-1,2.6-1.8,3.77q-8.71,13.39-17.48,26.75-10.29,15.78-20.59,31.57-8.78,13.5-17.55,26.92l-17.57,27q-7.28,11.19-14.59,22.38C462.45,186.79,462.29,187.11,462.14,187.44Z"/><path class="cls-2" d="M361.59,189.93c-2.85-4.39-5.7-8.81-8.57-13.21l-38-58.18c-.18-.27-.34-.55-.62-1h10.12l44.2-.4c11-.1,21.95-.22,32.92-.3a1.66,1.66,0,0,0,1.58-.88Q421.52,88.1,439.79,60.3c1.63-2.5,3.94-3.38,6.58-3.94.32-.07.66-.09,1-.14.47.12.95,0,1.42.09a12.29,12.29,0,0,1,7.55,4.9,8.92,8.92,0,0,1,1.48,4.14,8.62,8.62,0,0,1,0,2.38c-.06,3.48-2.18,6-3.95,8.76Q444,91.6,434.09,106.7q-9.16,14-18.3,28.09a31.11,31.11,0,0,0-2.35,3.76c-2.4,3.64-4.8,7.26-7.18,10.9l-34.89,53.44c-.63,1-.63,1-1.28,0Z"/><path class="cls-1" d="M641.09,12a17.1,17.1,0,0,0-6.59.72,3.52,3.52,0,0,0-1.94,1.49q-33.28,51-66.6,102a2.29,2.29,0,0,1-2.3,1.2c-9.22-.17-18.44-.27-27.66-.43a1.63,1.63,0,0,0-1.59.86Q479.5,201.31,424.51,284.7a1.21,1.21,0,0,0,0,1.54q9.53,14.67,19,29.38c.27.42.52.84.77,1.27-1.15,1.65-1.15,1.65-2.31-.08q-13.71-21.24-27.44-42.45a1.38,1.38,0,0,1,0-1.81l52.24-79.26c.18-.27.45-.5.46-.86q5.09-7.68,10.16-15.44l10-15.17,11.31-17q5.61-8.46,11.2-17T521,111c1.18-1.8,2.4-3.57,3.55-5.38a1.11,1.11,0,0,1,1.1-.58h6.88c1.86.18,3.73,0,5.6.08a6.59,6.59,0,0,1,1.47.06l7.91.06c1.86.18,3.72,0,5.57.08a8,8,0,0,1,1.69.06c.58.15.63-.43.77-.7,2.36-3.56,4.65-7.16,7-10.75q4.8-7.23,9.52-14.43l9.66-14.83,9.85-15.07,9.79-15q4.89-7.49,9.79-15l9.8-15a7.94,7.94,0,0,0,.72-1.15c1-2.47,3.07-3.07,5.31-3.36,4.61-.63,8.68.49,11.84,4A9.9,9.9,0,0,1,641.09,12Z"/><path class="cls-1" d="M541.81,35.19c-2.7-.43-4.93.69-7.06,2.14a3.14,3.14,0,0,0-.88,1.07Q508.78,77.2,483.7,116a2.24,2.24,0,0,1-2.21,1.19c-9.05,0-18.1,0-27.15,0a1.57,1.57,0,0,0-1.53.8Q418,170.1,383.19,222.19a1.18,1.18,0,0,0,0,1.54q9.1,13.64,18.16,27.33c.2.3.36.62.56.93-1.27,1.86-1.26,1.86-2.51,0L373,212.18a1.43,1.43,0,0,1,0-1.9q22.19-33.12,44.32-66.31a2.4,2.4,0,0,0,.57-1q6.32-9.45,12.61-18.91c4-6,8-12,12-18a1.28,1.28,0,0,1,1.27-.66h27.94a1.2,1.2,0,0,0,1.15-.55q4.53-7.14,9.1-14.25c2.66-4.1,5.38-8.17,8-12.29,3.08-4.76,6.11-9.55,9.22-14.32,2.58-4,5.21-8,7.79-12,3.13-4.85,6.23-9.72,9.36-14.56,2.45-3.84,4.89-7.63,7.45-11.36.94-1.37,2.6-1.85,4.12-2.43a8.84,8.84,0,0,1,1.35-.32,4.66,4.66,0,0,1,1.58,0,18.86,18.86,0,0,1,7.25,3.46c2.45,1.8,3.43,4.44,3.77,7.36A1.7,1.7,0,0,1,541.81,35.19Z"/></svg>