<svg width="21" height="21" viewBox="0 0 21 21" fill="none" xmlns="http://www.w3.org/2000/svg">
<path d="M19.2034 0H0.800141C0.357563 0 0 0.357563 0 0.800141V19.2034C0 19.646 0.357563 20.0035 0.800141 20.0035H19.2034C19.646 20.0035 20.0035 19.646 20.0035 19.2034V0.800141C20.0035 0.357563 19.646 0 19.2034 0ZM16.893 5.83853H15.2952C14.0425 5.83853 13.7999 6.43364 13.7999 7.30879V9.23663H16.7905L16.4004 12.2547H13.7999V20.0035H10.6819V12.2572H8.07393V9.23663H10.6819V7.01124C10.6819 4.42828 12.2597 3.02053 14.5651 3.02053C15.6703 3.02053 16.6179 3.10305 16.8955 3.14055V5.83853H16.893Z" fill="#6019EB"/>
</svg>
