<svg width="29" height="29" viewBox="0 0 29 29" fill="none" xmlns="http://www.w3.org/2000/svg">
<path d="M27.7969 22.4375H6.35939C5.64869 22.4375 4.9671 22.1551 4.46457 21.6526C3.96203 21.1501 3.67971 20.4685 3.67971 19.7578V7.69921C3.67971 6.98852 3.39738 6.30693 2.89485 5.80439C2.39231 5.30185 1.71072 5.01953 1.00002 5.01953" stroke="#6019EB" strokeWidth="2" strokeLinecap="round" stroke-linejoin="round"/>
<path d="M21.0976 17.0781V3.67968C21.0976 2.96899 20.8153 2.2874 20.3128 1.78486C19.8102 1.28232 19.1287 1 18.418 1H17.0781C16.3674 1 15.6858 1.28232 15.1833 1.78486C14.6808 2.2874 14.3984 2.96899 14.3984 3.67968V17.0781" stroke="#6019EB" strokeWidth="2" strokeLinecap="round" stroke-linejoin="round"/>
<path d="M25.1172 6.35938H10.3789C9.63894 6.35938 9.03907 6.95924 9.03907 7.69922V15.7383C9.03907 16.4782 9.63894 17.0781 10.3789 17.0781H25.1172C25.8571 17.0781 26.457 16.4782 26.457 15.7383V7.69922C26.457 6.95924 25.8571 6.35938 25.1172 6.35938Z" stroke="#6019EB" strokeWidth="2" strokeLinecap="round" stroke-linejoin="round"/>
<path d="M22.4375 27.7969C23.9174 27.7969 25.1172 26.5971 25.1172 25.1172C25.1172 23.6372 23.9174 22.4375 22.4375 22.4375C20.9575 22.4375 19.7578 23.6372 19.7578 25.1172C19.7578 26.5971 20.9575 27.7969 22.4375 27.7969Z" stroke="#6019EB" strokeWidth="2" strokeLinecap="round" stroke-linejoin="round"/>
<path d="M10.3789 27.7969C11.8589 27.7969 13.0586 26.5971 13.0586 25.1172C13.0586 23.6372 11.8589 22.4375 10.3789 22.4375C8.89897 22.4375 7.69923 23.6372 7.69923 25.1172C7.69923 26.5971 8.89897 27.7969 10.3789 27.7969Z" stroke="#6019EB" strokeWidth="2" strokeLinecap="round" stroke-linejoin="round"/>
</svg>
