<svg width="22" height="20" viewBox="0 0 22 20" fill="none" xmlns="http://www.w3.org/2000/svg">
<path d="M1.55379 3.47914L5.75379 6.27914L9.93979 0.419135C10.0323 0.289504 10.1544 0.183841 10.296 0.110937C10.4376 0.0380342 10.5945 0 10.7538 0C10.913 0 11.07 0.0380342 11.2116 0.110937C11.3532 0.183841 11.4753 0.289504 11.5678 0.419135L15.7538 6.27914L19.9538 3.47914C20.1127 3.37338 20.2987 3.31534 20.4895 3.31187C20.6804 3.3084 20.8683 3.35965 21.031 3.45956C21.1937 3.55946 21.3244 3.70386 21.4076 3.87567C21.4909 4.04748 21.5232 4.23954 21.5008 4.42914L19.8578 18.3961C19.8291 18.6394 19.7122 18.8637 19.5292 19.0264C19.3461 19.1892 19.1097 19.2791 18.8648 19.2791H2.64279C2.39786 19.2791 2.16145 19.1892 1.97842 19.0264C1.79538 18.8637 1.67845 18.6394 1.64979 18.3961L0.00679167 4.42814C-0.0154084 4.23862 0.0170768 4.04671 0.100412 3.87505C0.183748 3.7034 0.314454 3.55917 0.477103 3.4594C0.639751 3.35962 0.82755 3.30846 1.01833 3.31196C1.20911 3.31546 1.39491 3.37346 1.55379 3.47914ZM10.7538 13.2791C11.2842 13.2791 11.7929 13.0684 12.168 12.6933C12.5431 12.3183 12.7538 11.8096 12.7538 11.2791C12.7538 10.7487 12.5431 10.24 12.168 9.86492C11.7929 9.48985 11.2842 9.27913 10.7538 9.27913C10.2234 9.27913 9.71465 9.48985 9.33958 9.86492C8.96451 10.24 8.75379 10.7487 8.75379 11.2791C8.75379 11.8096 8.96451 12.3183 9.33958 12.6933C9.71465 13.0684 10.2234 13.2791 10.7538 13.2791Z" fill="#F7F2FF"/>
</svg>
