<svg width="46" height="34" viewBox="0 0 46 34" fill="none" xmlns="http://www.w3.org/2000/svg">
<rect width="45.2739" height="33.1026" rx="8" fill="#691EDE"/>
<path d="M36.7062 6.81104H8.56736C7.99329 6.81104 7.44273 7.03908 7.03681 7.44501C6.63088 7.85094 6.40283 8.40149 6.40283 8.97556V24.1273C6.40283 24.7013 6.63088 25.2519 7.03681 25.6578C7.44273 26.0637 7.99329 26.2918 8.56736 26.2918H36.7062C37.2803 26.2918 37.8308 26.0637 38.2368 25.6578C38.6427 25.2519 38.8707 24.7013 38.8707 24.1273V8.97556C38.8707 8.40149 38.6427 7.85094 38.2368 7.44501C37.8308 7.03908 37.2803 6.81104 36.7062 6.81104ZM15.4668 24.1273L8.56736 18.2154V14.8874L15.4668 8.97556H29.8068L36.7062 14.8874V18.2154L29.8068 24.1273H15.4668ZM28.0481 16.5514C28.0481 17.6217 27.7307 18.6679 27.1361 19.5578C26.5415 20.4477 25.6964 21.1412 24.7076 21.5508C23.7188 21.9604 22.6308 22.0675 21.5811 21.8587C20.5314 21.65 19.5672 21.1346 18.8104 20.3778C18.0536 19.621 17.5382 18.6568 17.3294 17.6071C17.1206 16.5574 17.2278 15.4694 17.6374 14.4806C18.0469 13.4918 18.7405 12.6467 19.6304 12.0521C20.5203 11.4575 21.5665 11.1401 22.6368 11.1401C24.072 11.1401 25.4483 11.7102 26.4632 12.725C27.478 13.7398 28.0481 15.1162 28.0481 16.5514Z" fill="white"/>
</svg>
