<svg width="47" height="35" viewBox="0 0 47 35" fill="none" xmlns="http://www.w3.org/2000/svg">
<rect width="46.8983" height="34.6836" rx="8" fill="#691EDE"/>
<path d="M6.00015 9.75235C6.09572 9.50482 6.21072 9.26524 6.34407 9.03585C6.50966 8.78039 6.73721 8.57098 7.00551 8.42712C7.27381 8.28326 7.57415 8.20963 7.87857 8.21307C8.46849 8.20471 9.0596 8.21307 9.69012 8.21307C9.69012 7.65539 9.69012 7.13832 9.69012 6.61528C9.69012 5.31841 10.4544 4.55176 11.7489 4.55176H39.6756C40.9892 4.55176 41.7547 5.32319 41.7547 6.63558V20.4628C41.7547 21.7764 40.9904 22.5478 39.6816 22.5514H38.6068V23.2178C38.6068 24.5313 38.6068 25.8449 38.6068 27.1585C38.6068 27.506 38.5483 27.8105 38.2056 27.9789C37.8629 28.1473 37.5846 27.998 37.3124 27.7866C36.695 27.309 36.074 26.8397 35.4435 26.3811C35.3143 26.2898 35.161 26.2388 35.0029 26.2342C29.1968 26.2271 23.3908 26.2271 17.5847 26.2342C17.4043 26.2465 17.2316 26.3127 17.0892 26.4241C14.8839 28.0792 12.6831 29.7391 10.4866 31.4038L10.2908 31.5495C10.1828 31.6402 10.0498 31.6959 9.90946 31.7091C9.76908 31.7223 9.62801 31.6925 9.50502 31.6235C9.38524 31.5612 9.28646 31.4651 9.22104 31.347C9.15562 31.2289 9.12647 31.0941 9.13722 30.9595C9.13722 29.5401 9.13722 28.1202 9.13722 26.7V26.2223C8.88525 26.2223 8.64522 26.2068 8.40878 26.2223C7.22058 26.313 6.3787 25.864 5.99298 24.6914L6.00015 9.75235ZM9.68892 9.61024C9.10259 9.61024 8.5676 9.61024 8.03381 9.61024C7.57644 9.61024 7.39732 9.78818 7.39732 10.2432C7.39732 14.898 7.39732 19.5553 7.39732 24.2149C7.39732 24.6472 7.58003 24.8275 8.0147 24.8323C8.57357 24.8323 9.13244 24.8323 9.68654 24.8323C10.2908 24.8323 10.5344 25.0771 10.5356 25.6777C10.5356 26.8647 10.5356 28.0521 10.5356 29.2399V29.6137L10.8843 29.3558C12.7496 27.9455 14.6184 26.5399 16.4778 25.1225C16.7334 24.922 17.0511 24.8172 17.3758 24.8263C22.5553 24.8335 27.734 24.8335 32.9119 24.8263H33.3573C33.2379 24.7236 33.1901 24.6687 33.1304 24.6233C32.3231 24.0107 31.5111 23.4076 30.7134 22.7855C30.5056 22.6205 30.2453 22.5357 29.9802 22.5466C27.5823 22.5562 25.1848 22.5562 22.7877 22.5466C22.285 22.5466 21.9912 22.2971 21.9805 21.8779C21.9697 21.4588 22.273 21.1698 22.7794 21.1519C22.8367 21.1519 22.8988 21.1519 22.9537 21.1519C25.4209 21.1519 27.888 21.1519 30.3575 21.1519C30.6834 21.144 31.0018 21.25 31.2579 21.4516C33.1264 22.875 35.0005 24.2925 36.8801 25.704C36.9744 25.7745 37.0723 25.839 37.2109 25.9369C37.2109 24.5839 37.2109 23.3097 37.2109 22.0248C37.2109 21.4134 37.464 21.1614 38.0838 21.1566C38.608 21.1566 39.1311 21.1566 39.6553 21.1566C40.2046 21.1566 40.3539 21.005 40.3539 20.4497C40.3539 17.7381 40.3539 15.0266 40.3539 12.315C40.3539 10.4171 40.3539 8.51957 40.3539 6.62244C40.3539 6.11611 40.1951 5.95968 39.6876 5.95251H11.8957C11.8145 5.95251 11.7321 5.95251 11.6509 5.95251C11.2509 5.97043 11.0897 6.13403 11.0825 6.54004C11.0825 6.89829 11.0825 7.25654 11.0825 7.62315V20.2622C11.0825 20.3553 11.0825 20.4485 11.0825 20.5416C11.0909 20.9859 11.2509 21.1519 11.6951 21.1531C13.1496 21.1531 14.6053 21.1531 16.0598 21.1531C16.1761 21.1495 16.2925 21.1519 16.4085 21.1602C16.8336 21.2044 17.1154 21.5077 17.0951 21.8934C17.0748 22.2792 16.793 22.5443 16.3786 22.5466C14.8537 22.5538 13.3275 22.5096 11.805 22.5622C10.5368 22.6064 9.65549 21.6606 9.67579 20.4377C9.71758 16.9818 9.69012 13.5247 9.69012 10.0676L9.68892 9.61024Z" fill="#FCFAFF"/>
<path d="M35.4841 16.8335C34.8739 17.267 34.2625 17.5632 33.5651 17.6444C31.9971 17.8259 30.7684 17.2121 29.8285 15.9928C28.4553 14.2088 28.503 11.5529 29.9121 9.79392C31.6711 7.59785 34.7867 7.6898 36.3606 10.0244C37.5632 11.8061 37.5906 13.6809 36.5624 15.5605C36.443 15.7803 36.443 15.8901 36.6269 16.0537C36.9852 16.3845 37.3267 16.7356 37.6694 17.0843C38.0122 17.433 38.0444 17.8319 37.7506 18.134C37.4569 18.4361 37.0341 18.417 36.6759 18.0599C36.2782 17.6587 35.8865 17.2455 35.4841 16.8335ZM35.3456 14.8285C36.2543 13.5257 35.963 11.3845 34.7891 10.3134C33.7227 9.34133 32.2276 9.38193 31.2174 10.4149C30.665 10.9754 30.3269 11.712 30.262 12.4963C30.1342 13.8636 30.5295 15.0351 31.6843 15.8543C32.5274 16.4514 33.7287 16.4227 34.4309 15.8137C34.0487 15.4387 33.6654 15.0674 33.2904 14.6888C32.9322 14.3306 32.9119 13.9054 33.2128 13.6141C33.5137 13.3227 33.9209 13.3525 34.2649 13.6965C34.6207 14.0571 34.967 14.4333 35.3456 14.8285Z" fill="#FCFAFF"/>
<path d="M28.0134 17.3737C28.027 17.5399 27.9821 17.7055 27.8867 17.8422C27.7912 17.9789 27.651 18.078 27.4904 18.1224C27.3243 18.1633 27.1489 18.1413 26.9981 18.0606C26.8473 17.9799 26.7317 17.8462 26.6736 17.6854C26.381 17.0143 26.0872 16.3431 25.8281 15.6553C25.7087 15.3556 25.5546 15.2648 25.2394 15.2732C24.3557 15.297 23.472 15.2899 22.5883 15.2732C22.3495 15.2732 22.2157 15.3353 22.1226 15.5729C21.842 16.2894 21.5351 16.988 21.2317 17.6913C21.1822 17.8302 21.0875 17.9484 20.9628 18.027C20.8381 18.1056 20.6905 18.1401 20.5439 18.1248C20.4023 18.1259 20.2646 18.0785 20.1536 17.9905C20.0426 17.9026 19.965 17.7793 19.9337 17.6412C19.8924 17.474 19.9032 17.2981 19.9647 17.1373C21.0705 14.491 22.1851 11.8475 23.3084 9.2068C23.3544 9.07365 23.4413 8.95844 23.5567 8.87759C23.672 8.79675 23.81 8.7544 23.9509 8.7566C24.098 8.74972 24.2433 8.79101 24.3649 8.87419C24.4864 8.95737 24.5775 9.07792 24.6244 9.21754C25.7389 11.8495 26.8471 14.4822 27.9489 17.1158C27.978 17.1997 27.9996 17.286 28.0134 17.3737ZM23.9532 11.25L22.8534 13.8652H25.059L23.9532 11.25Z" fill="#FCFAFF"/>
<path d="M15.1427 10.1583V12.4117H15.5296C16.6116 12.4117 17.6935 12.4117 18.7742 12.4117C19.2733 12.4117 19.6029 12.6983 19.6017 13.1139C19.6005 13.5295 19.2769 13.8053 18.7658 13.8065C17.592 13.8065 16.4169 13.8065 15.243 13.8125C15.2075 13.8189 15.1727 13.8289 15.1391 13.8423C15.1391 13.951 15.1224 14.074 15.1224 14.2006C15.1224 15.2753 15.1224 16.3405 15.1224 17.4105C15.1256 17.5611 15.1099 17.7116 15.0759 17.8583C15.0335 18.0113 14.9383 18.1444 14.8071 18.2338C14.6759 18.3232 14.5173 18.3632 14.3594 18.3467C14.2023 18.3351 14.0542 18.2691 13.9404 18.1602C13.8267 18.0512 13.7544 17.9061 13.736 17.7497C13.7268 17.6456 13.7236 17.5412 13.7264 17.4368C13.7264 14.8542 13.7264 12.272 13.7264 9.69023C13.7264 8.98209 13.9366 8.76953 14.634 8.76953C16.0057 8.76953 17.3778 8.76953 18.7503 8.76953C19.271 8.76953 19.5862 9.02508 19.597 9.44424C19.6077 9.86339 19.2733 10.1607 18.7503 10.1607C17.6756 10.1607 16.6104 10.1607 15.5416 10.1607L15.1427 10.1583Z" fill="#FCFAFF"/>
<path d="M19.5205 22.5472C19.4309 22.5472 19.3422 22.5295 19.2595 22.495C19.1768 22.4605 19.1018 22.41 19.0387 22.3464C18.9757 22.2828 18.9258 22.2073 18.8921 22.1243C18.8584 22.0414 18.8414 21.9525 18.8422 21.8629C18.8419 21.7703 18.86 21.6786 18.8955 21.5931C18.931 21.5076 18.9832 21.43 19.049 21.3648C19.1148 21.2997 19.1929 21.2483 19.2788 21.2137C19.3646 21.1791 19.4566 21.1619 19.5491 21.1632C19.7295 21.1712 19.9001 21.247 20.027 21.3754C20.1538 21.5038 20.2276 21.6754 20.2334 21.8558C20.2336 21.9485 20.2151 22.0402 20.1791 22.1256C20.1431 22.211 20.0902 22.2883 20.0237 22.3528C19.9572 22.4173 19.8783 22.4678 19.7919 22.5012C19.7054 22.5346 19.6131 22.5502 19.5205 22.5472Z" fill="#FCFAFF"/>
</svg>
