<svg width="14" height="13" viewBox="0 0 14 13" fill="none" xmlns="http://www.w3.org/2000/svg">
<path d="M9.05602 7.31448C9.35788 7.31448 9.60751 7.21579 9.80488 7.01841C10.0023 6.82104 10.1009 6.57142 10.1009 6.26955C10.1009 5.96768 10.0023 5.71806 9.80488 5.52069C9.60751 5.32331 9.35788 5.22463 9.05602 5.22463C8.75415 5.22463 8.50453 5.32331 8.30715 5.52069C8.10978 5.71806 8.01109 5.96768 8.01109 6.26955C8.01109 6.57142 8.10978 6.82104 8.30715 7.01841C8.50453 7.21579 8.75415 7.31448 9.05602 7.31448ZM1.39323 12.5391C1.01009 12.5391 0.681988 12.4028 0.408914 12.1302C0.136305 11.8571 0 11.529 0 11.1459V1.39323C0 1.01009 0.136305 0.681988 0.408914 0.408914C0.681988 0.136305 1.01009 0 1.39323 0H11.1459C11.529 0 11.8571 0.136305 12.1302 0.408914C12.4028 0.681988 12.5391 1.01009 12.5391 1.39323V3.13478H11.1459V1.39323H1.39323V11.1459H11.1459V9.40433H12.5391V11.1459C12.5391 11.529 12.4028 11.8571 12.1302 12.1302C11.8571 12.4028 11.529 12.5391 11.1459 12.5391H1.39323ZM6.96617 9.75264C6.58303 9.75264 6.25515 9.61633 5.98254 9.34372C5.70947 9.07065 5.57293 8.74254 5.57293 8.3594V4.1797C5.57293 3.79656 5.70947 3.46845 5.98254 3.19538C6.25515 2.92277 6.58303 2.78647 6.96617 2.78647H11.8425C12.2256 2.78647 12.5537 2.92277 12.8268 3.19538C13.0994 3.46845 13.2357 3.79656 13.2357 4.1797V8.3594C13.2357 8.74254 13.0994 9.07065 12.8268 9.34372C12.5537 9.61633 12.2256 9.75264 11.8425 9.75264H6.96617ZM11.8425 8.3594V4.1797H6.96617V8.3594H11.8425Z" fill="white"/>
</svg>
