<svg width="26" height="26" viewBox="0 0 26 26" fill="none" xmlns="http://www.w3.org/2000/svg">
<path d="M18.5734 11.4298V7.1436H14.2872V4.28616H18.5734V0H21.4308V4.28616H25.717V7.1436H21.4308V11.4298H18.5734ZM24.2168 25.717C21.1451 25.717 18.1509 25.0321 15.2344 23.6625C12.317 22.2938 9.73339 20.484 7.48364 18.2333C5.23293 15.9836 3.42321 13.4 2.0545 10.4825C0.684833 7.56603 0 4.57191 0 1.50016C0 1.07154 0.142872 0.71436 0.428616 0.428616C0.71436 0.142872 1.07154 0 1.50016 0H7.28647C7.61984 0 7.91749 0.107154 8.17942 0.321462C8.44136 0.53577 8.59613 0.809608 8.64376 1.14298L9.57243 6.1435C9.62005 6.47687 9.61433 6.78023 9.55528 7.05359C9.49527 7.32791 9.35812 7.57222 9.14381 7.78653L5.71488 11.2869C6.71499 13.0014 7.96512 14.6087 9.46527 16.1088C10.9654 17.609 12.6204 18.9067 14.4301 20.0021L17.7876 16.6446C18.0019 16.4303 18.2819 16.2693 18.6277 16.1617C18.9725 16.055 19.3115 16.0255 19.6449 16.0731L24.574 17.0732C24.9074 17.1446 25.1812 17.3051 25.3955 17.5547C25.6098 17.8052 25.717 18.0971 25.717 18.4305V24.2168C25.717 24.6454 25.5741 25.0026 25.2883 25.2883C25.0026 25.5741 24.6454 25.717 24.2168 25.717Z" fill="white"/>
</svg>
