<svg width="20" height="20" viewBox="0 0 20 20" fill="none" xmlns="http://www.w3.org/2000/svg">
<path d="M3.95399 11.862H11.862V9.88498H3.95399V11.862ZM3.95399 8.89648H15.816V6.91949H3.95399V8.89648ZM3.95399 5.93099H15.816V3.95399H3.95399V5.93099ZM0 19.77V1.977C0 1.43332 0.193746 0.967739 0.581237 0.580248C0.968069 0.193416 1.43332 0 1.977 0H17.793C18.3366 0 18.8022 0.193416 19.1897 0.580248C19.5765 0.967739 19.77 1.43332 19.77 1.977V13.839C19.77 14.3826 19.5765 14.8482 19.1897 15.2357C18.8022 15.6226 18.3366 15.816 17.793 15.816H3.95399L0 19.77Z" fill="white"/>
</svg>
