<svg width="31" height="44" viewBox="0 0 31 44" fill="none" xmlns="http://www.w3.org/2000/svg">
<path d="M30.6628 15.337C30.6638 12.6976 29.9833 10.1027 28.6873 7.80337C27.3913 5.50406 25.5237 3.57827 23.2651 2.21242C21.0066 0.846576 18.4337 0.0869329 15.7955 0.00702848C13.1573 -0.0728759 10.5432 0.529665 8.20616 1.75632C5.86912 2.98298 3.88833 4.79221 2.45556 7.00888C1.02278 9.22554 0.18653 11.7746 0.0277649 14.4092C-0.131 17.0438 0.393094 19.6748 1.54932 22.0475C2.70554 24.4202 4.45472 26.4542 6.62755 27.9526L2.4209e-06 39.4292L4.94109 39.6329L7.58685 43.8096L15.1781 30.6597C15.2307 30.6597 15.2788 30.6684 15.3314 30.6684C15.384 30.6684 15.4321 30.6619 15.4847 30.6597L23.0759 43.8096L25.7743 39.7227L30.6628 39.4292L24.0353 27.9526C26.08 26.5447 27.7518 24.6607 28.9064 22.463C30.061 20.2652 30.6637 17.8196 30.6628 15.337ZM4.3804 15.337C4.3804 13.1711 5.02267 11.0539 6.22598 9.253C7.42929 7.45212 9.1396 6.0485 11.1406 5.21965C13.1417 4.39079 15.3435 4.17392 17.4678 4.59647C19.5921 5.01902 21.5434 6.062 23.0749 7.59352C24.6065 9.12505 25.6494 11.0763 26.072 13.2006C26.4945 15.3249 26.2777 17.5268 25.4488 19.5278C24.62 21.5288 23.2163 23.2392 21.4155 24.4425C19.6146 25.6458 17.4973 26.288 15.3314 26.288C12.427 26.288 9.64159 25.1343 7.58788 23.0806C5.53416 21.0269 4.3804 18.2414 4.3804 15.337Z" fill="#6019EB"/>
<path d="M15.3318 21.9068C18.9607 21.9068 21.9024 18.9651 21.9024 15.3362C21.9024 11.7074 18.9607 8.76562 15.3318 8.76562C11.703 8.76562 8.76123 11.7074 8.76123 15.3362C8.76123 18.9651 11.703 21.9068 15.3318 21.9068Z" fill="#6019EB"/>
</svg>
