<svg width="339" height="382" viewBox="0 0 339 382" fill="none" xmlns="http://www.w3.org/2000/svg">
<path d="M43.2043 322.518H249.838C257.268 322.518 263.292 316.494 263.292 309.064L263.292 40.0376C263.292 32.6075 257.268 26.5842 249.838 26.5842H43.2043C35.7743 26.5842 29.751 32.6075 29.751 40.0376L29.751 309.064C29.751 316.494 35.7743 322.518 43.2043 322.518Z" fill="url(#paint0_linear_1279_6690)"/>
<path d="M249.854 8.2168H43.1797V293.584H249.854V8.2168Z" fill="white"/>
<path d="M43.1797 0V27.7928C43.1797 27.7928 48.7248 35.6205 55.3307 27.7928H67.4951C67.4951 27.7928 73.0402 35.6205 79.5789 27.7928H91.7433C91.7433 27.7928 97.275 35.6205 103.894 27.7928H116.059C116.059 27.7928 121.59 35.6205 128.143 27.7928H140.307C140.307 27.7928 145.839 35.6205 152.458 27.7928H164.622C164.622 27.7928 170.154 35.6205 176.706 27.7928H188.857C188.857 27.7928 194.402 35.6205 201.022 27.7928H213.173C213.173 27.7928 218.718 35.6205 225.337 27.7928H237.421C237.421 27.7928 242.966 35.6205 249.585 27.7928V0H43.1797Z" fill="#FF9C30"/>
<path d="M55.3335 27.7794C55.3335 27.7794 60.8786 35.6071 67.4979 27.7794V0H55.3335V27.7794Z" fill="#691EDE"/>
<path d="M79.6465 27.7794C79.6465 27.7794 85.1916 35.6071 91.8109 27.7794V0H79.6465V27.7794Z" fill="#691EDE"/>
<path d="M103.962 27.7794C103.962 27.7794 109.508 35.6071 116.127 27.7794V0H103.962V27.7794Z" fill="#691EDE"/>
<path d="M128.275 27.7794C128.275 27.7794 133.821 35.6071 140.44 27.7794V0H128.275V27.7794Z" fill="#691EDE"/>
<path d="M152.594 27.7794C152.594 27.7794 158.139 35.6071 164.758 27.7794V0H152.594V27.7794Z" fill="#691EDE"/>
<path d="M176.907 27.7794C176.907 27.7794 182.452 35.6071 189.058 27.7794V0H176.907V27.7794Z" fill="#691EDE"/>
<path d="M201.221 27.7794C201.221 27.7794 206.766 35.6071 213.372 27.7794V0H201.221V27.7794Z" fill="#691EDE"/>
<path d="M225.564 0V27.7928C225.564 27.7928 231.11 35.6205 237.648 27.7928V0H225.564Z" fill="#691EDE"/>
<path d="M154.068 307.239C154.068 308.734 153.625 310.195 152.794 311.438C151.964 312.681 150.783 313.65 149.402 314.222C148.021 314.795 146.501 314.944 145.035 314.653C143.568 314.361 142.221 313.641 141.164 312.584C140.107 311.527 139.387 310.18 139.095 308.713C138.804 307.247 138.953 305.727 139.526 304.346C140.098 302.965 141.067 301.784 142.31 300.954C143.553 300.123 145.014 299.68 146.509 299.68C148.514 299.68 150.437 300.476 151.854 301.894C153.272 303.311 154.068 305.234 154.068 307.239Z" fill="#A1A1A1"/>
<path d="M182.25 262.541H107.048C106.455 262.541 105.974 263.022 105.974 263.615V265.146C105.974 265.739 106.455 266.22 107.048 266.22H182.25C182.843 266.22 183.324 265.739 183.324 265.146V263.615C183.324 263.022 182.843 262.541 182.25 262.541Z" fill="#BFE2FF"/>
<path d="M154.954 272.074H107.048C106.455 272.074 105.974 272.555 105.974 273.148V274.679C105.974 275.272 106.455 275.753 107.048 275.753H154.954C155.547 275.753 156.028 275.272 156.028 274.679V273.148C156.028 272.555 155.547 272.074 154.954 272.074Z" fill="#BFE2FF"/>
<path d="M175.536 179.512H60.5786V184.063H175.536V179.512Z" fill="#BFE2FF"/>
<path d="M161.72 191.676H60.5786V196.227H161.72V191.676Z" fill="#BFE2FF"/>
<path d="M227.094 179.512H190.373V196.241H227.094V179.512Z" fill="#EB4747"/>
<path d="M204.351 189.313C204.359 189.607 204.295 189.897 204.164 190.159C204.032 190.422 203.839 190.648 203.6 190.817C203.36 190.999 203.086 191.132 202.794 191.207C202.476 191.3 202.145 191.345 201.814 191.341H198.014V183.486H202.23C202.486 183.488 202.739 183.548 202.969 183.661C203.183 183.783 203.373 183.942 203.532 184.131C203.684 184.322 203.807 184.534 203.895 184.762C203.974 184.995 204.015 185.24 204.016 185.487C204.018 185.868 203.921 186.243 203.734 186.574C203.537 186.904 203.241 187.162 202.888 187.313C203.324 187.429 203.707 187.691 203.973 188.055C204.239 188.419 204.373 188.863 204.351 189.313ZM199.545 184.789V186.776H201.586C201.832 186.776 202.068 186.679 202.243 186.507C202.412 186.303 202.503 186.047 202.503 185.782C202.503 185.518 202.412 185.261 202.243 185.057C202.168 184.972 202.075 184.903 201.971 184.857C201.866 184.811 201.753 184.787 201.639 184.789H199.545ZM202.807 189.031C202.806 188.895 202.783 188.759 202.74 188.629C202.697 188.504 202.629 188.39 202.539 188.293C202.461 188.199 202.365 188.121 202.257 188.065C202.144 188.01 202.02 187.982 201.894 187.984H199.545V190.052H201.814C201.948 190.054 202.081 190.026 202.203 189.971C202.323 189.92 202.432 189.848 202.525 189.756C202.612 189.663 202.681 189.553 202.727 189.434C202.781 189.302 202.808 189.161 202.807 189.018V189.031Z" fill="white"/>
<path d="M208.864 190.038C209.184 190.045 209.499 189.966 209.777 189.809C210.018 189.667 210.221 189.469 210.368 189.232C210.534 188.991 210.645 188.716 210.69 188.427C210.756 188.113 210.788 187.793 210.784 187.473V183.445H212.302V187.473C212.304 187.985 212.241 188.495 212.114 188.99C211.99 189.443 211.781 189.867 211.496 190.239C211.214 190.598 210.85 190.883 210.435 191.072C209.947 191.292 209.414 191.398 208.878 191.38C208.328 191.398 207.781 191.287 207.28 191.058C206.86 190.859 206.492 190.565 206.206 190.199C205.93 189.825 205.729 189.401 205.615 188.95C205.491 188.468 205.428 187.972 205.427 187.473V183.445H206.958V187.473C206.961 187.798 206.993 188.121 207.052 188.44C207.11 188.726 207.219 188.999 207.374 189.246C207.522 189.483 207.724 189.681 207.965 189.823C208.241 189.971 208.551 190.045 208.864 190.038Z" fill="white"/>
<path d="M214.73 183.474L216.664 187.26L218.624 183.474H220.275L217.429 188.589V191.274H215.912V188.509L213.065 183.42L214.73 183.474Z" fill="white"/>
<path d="M99.6273 256.204C99.6273 257.397 99.2737 258.562 98.6113 259.554C97.9489 260.545 97.0074 261.318 95.9058 261.774C94.8043 262.23 93.5921 262.35 92.4227 262.117C91.2533 261.884 90.1791 261.31 89.336 260.467C88.4929 259.624 87.9188 258.55 87.6862 257.38C87.4535 256.211 87.5729 254.999 88.0292 253.897C88.4855 252.796 89.2582 251.854 90.2496 251.192C91.2409 250.529 92.4065 250.176 93.5988 250.176C94.3905 250.176 95.1744 250.332 95.9058 250.635C96.6372 250.938 97.3018 251.382 97.8616 251.941C98.4214 252.501 98.8655 253.166 99.1684 253.897C99.4714 254.629 99.6273 255.413 99.6273 256.204Z" fill="#FF8080"/>
<path d="M227.094 262.232H192.588V279.056H227.094V262.232Z" fill="#BFE2FF"/>
<path d="M86.9082 212.139H72.6358C69.996 212.139 67.856 214.279 67.856 216.919V231.191C67.856 233.831 69.996 235.971 72.6358 235.971H86.9082C89.548 235.971 91.688 233.831 91.688 231.191V216.919C91.688 214.279 89.548 212.139 86.9082 212.139Z" fill="#BFE2FF"/>
<path d="M120.301 212.139H106.028C103.389 212.139 101.249 214.279 101.249 216.919V231.191C101.249 233.831 103.389 235.971 106.028 235.971H120.301C122.941 235.971 125.081 233.831 125.081 231.191V216.919C125.081 214.279 122.941 212.139 120.301 212.139Z" fill="#BFE2FF"/>
<path d="M153.506 212.139H139.234C136.594 212.139 134.454 214.279 134.454 216.919V231.191C134.454 233.831 136.594 235.971 139.234 235.971H153.506C156.146 235.971 158.286 233.831 158.286 231.191V216.919C158.286 214.279 156.146 212.139 153.506 212.139Z" fill="#BFE2FF"/>
<path d="M220.396 212.139H206.124C203.484 212.139 201.344 214.279 201.344 216.919V231.191C201.344 233.831 203.484 235.971 206.124 235.971H220.396C223.036 235.971 225.176 233.831 225.176 231.191V216.919C225.176 214.279 223.036 212.139 220.396 212.139Z" fill="#BFE2FF"/>
<path d="M186.898 212.139H172.626C169.986 212.139 167.846 214.279 167.846 216.919V231.191C167.846 233.831 169.986 235.971 172.626 235.971H186.898C189.538 235.971 191.678 233.831 191.678 231.191V216.919C191.678 214.279 189.538 212.139 186.898 212.139Z" fill="#BFE2FF"/>
<path d="M98.8737 95.086H65.0121C63.1971 95.0824 61.4574 94.3598 60.1741 93.0764C58.8907 91.793 58.1681 90.0534 58.1646 88.2384V54.3768C58.1681 52.5618 58.8907 50.8222 60.1741 49.5388C61.4574 48.2554 63.1971 47.5328 65.0121 47.5293H98.8737C100.689 47.5328 102.428 48.2554 103.712 49.5388C104.995 50.8222 105.718 52.5618 105.721 54.3768V88.2384C105.718 90.0534 104.995 91.793 103.712 93.0764C102.428 94.3598 100.689 95.0824 98.8737 95.086ZM65.0121 49.4359C63.7146 49.4359 62.4702 49.9503 61.5515 50.8665C60.6328 51.7827 60.1149 53.0257 60.1114 54.3231V88.1847C60.1149 89.4834 60.6324 90.7278 61.5507 91.6461C62.469 92.5644 63.7134 93.0819 65.0121 93.0854H98.8737C100.171 93.0819 101.414 92.564 102.33 91.6453C103.246 90.7266 103.761 89.4821 103.761 88.1847V54.3768C103.761 53.0806 103.246 51.8376 102.329 50.921C101.413 50.0045 100.17 49.4896 98.8737 49.4896L65.0121 49.4359Z" fill="#FF9C30"/>
<path d="M59.0762 81.1895H104.726V87.9027C104.726 89.5621 104.067 91.1535 102.894 92.3269C101.72 93.5003 100.129 94.1595 98.4695 94.1595H65.4001C63.7407 94.1595 62.1492 93.5003 60.9759 92.3269C59.8025 91.1535 59.1433 89.5621 59.1433 87.9027V81.1895H59.0762Z" fill="#FF9C30"/>
<path d="M173.297 58.9414H111.696V61.9489H173.297V58.9414Z" fill="#BFE2FF"/>
<path d="M191.637 72.4902H111.696V75.4978H191.637V72.4902Z" fill="#BFE2FF"/>
<path d="M143.275 65.709H111.696V68.7165H143.275V65.709Z" fill="#BFE2FF"/>
<path d="M98.8737 157.936H65.0121C63.196 157.936 61.4543 157.214 60.1701 155.93C58.886 154.646 58.1646 152.904 58.1646 151.088V117.227C58.1681 115.413 58.8911 113.675 60.1749 112.393C61.4587 111.112 63.1983 110.393 65.0121 110.393H98.8737C100.687 110.393 102.427 111.112 103.711 112.393C104.995 113.675 105.718 115.413 105.721 117.227V151.088C105.721 152.904 105 154.646 103.716 155.93C102.431 157.214 100.69 157.936 98.8737 157.936ZM65.0121 112.286C63.7146 112.286 62.4702 112.8 61.5515 113.716C60.6328 114.632 60.1149 115.876 60.1114 117.173V151.035C60.1149 152.333 60.6324 153.578 61.5507 154.496C62.469 155.414 63.7134 155.932 65.0121 155.935H98.8737C100.171 155.932 101.414 155.414 102.33 154.495C103.246 153.576 103.761 152.332 103.761 151.035V117.227C103.761 115.93 103.246 114.687 102.329 113.771C101.413 112.854 100.17 112.339 98.8737 112.339L65.0121 112.286Z" fill="#FF9C30"/>
<path d="M186.011 121.791H111.696V124.799H186.011V121.791Z" fill="#BFE2FF"/>
<path d="M158.407 135.338H111.696V138.345H158.407V135.338Z" fill="#BFE2FF"/>
<path d="M140.227 128.559H111.696V131.566H140.227V128.559Z" fill="#BFE2FF"/>
<path d="M59.0762 144.039H104.726V150.752C104.726 152.412 104.067 154.003 102.894 155.177C101.72 156.35 100.129 157.009 98.4695 157.009H65.4001C63.7407 157.009 62.1492 156.35 60.9759 155.177C59.8025 154.003 59.1433 152.412 59.1433 150.752V144.039H59.0762Z" fill="#FF9C30"/>
<path d="M124.142 82.9767C123.389 82.708 122.574 82.6693 121.799 82.8653C121.024 83.0614 120.326 83.4834 119.792 84.0777C119.258 83.486 118.562 83.0656 117.79 82.8696C117.018 82.6737 116.206 82.7109 115.455 82.9767C112.769 83.93 113.307 85.9171 113.307 85.9171C113.508 89.9451 119.792 94.1073 119.792 94.1073C119.792 94.1073 125.914 89.9048 126.29 85.9171C126.29 85.9305 126.746 83.93 124.142 82.9767Z" fill="#FF9C30"/>
<path d="M142.321 82.9767C141.569 82.708 140.753 82.6693 139.978 82.8653C139.204 83.0614 138.505 83.4834 137.971 84.0777C137.438 83.486 136.741 83.0656 135.969 82.8696C135.198 82.6737 134.385 82.7109 133.634 82.9767C131.016 83.93 131.486 85.9171 131.486 85.9171C131.687 89.9451 137.971 94.1073 137.971 94.1073C137.971 94.1073 144.093 89.9048 144.469 85.9171C144.51 85.9305 145.006 83.93 142.321 82.9767Z" fill="#FF9C30"/>
<path d="M160.233 82.9767C159.48 82.708 158.665 82.6693 157.89 82.8653C157.116 83.0614 156.417 83.4834 155.883 84.0777C155.35 83.486 154.653 83.0656 153.881 82.8696C153.109 82.6737 152.297 82.7109 151.546 82.9767C148.861 83.93 149.398 85.9171 149.398 85.9171C149.599 89.9451 155.883 94.1073 155.883 94.1073C155.883 94.1073 162.005 89.9048 162.381 85.9171C162.381 85.9305 162.838 83.93 160.233 82.9767Z" fill="#FF9C30"/>
<path d="M178.102 82.9767C177.349 82.708 176.534 82.6693 175.759 82.8653C174.984 83.0614 174.286 83.4834 173.751 84.0777C173.217 83.4834 172.518 83.0614 171.744 82.8653C170.969 82.6693 170.154 82.708 169.401 82.9767C166.797 83.93 167.266 85.9171 167.266 85.9171C167.468 89.9451 173.751 94.1073 173.751 94.1073C173.751 94.1073 179.914 89.9585 180.236 85.9305C180.236 85.9305 180.706 83.93 178.102 82.9767Z" fill="#FF9C30"/>
<path d="M196.108 82.9767C195.356 82.708 194.541 82.6693 193.766 82.8653C192.991 83.0614 192.292 83.4834 191.758 84.0777C191.224 83.4834 190.525 83.0614 189.751 82.8653C188.976 82.6693 188.161 82.708 187.408 82.9767C184.803 83.93 185.273 85.9171 185.273 85.9171C185.475 89.9451 191.758 94.1073 191.758 94.1073C191.758 94.1073 197.881 89.9048 198.243 85.9171C198.243 85.9305 198.713 83.93 196.108 82.9767Z" fill="#FF9C30"/>
<path d="M124.142 146.71C123.39 146.44 122.576 146.399 121.801 146.593C121.027 146.787 120.327 147.206 119.792 147.798C119.257 147.209 118.56 146.791 117.788 146.597C117.016 146.404 116.204 146.443 115.455 146.71C112.769 147.65 113.307 149.651 113.307 149.651C113.508 153.679 119.792 157.841 119.792 157.841C119.792 157.841 125.914 153.625 126.29 149.651C126.29 149.651 126.746 147.691 124.142 146.71Z" fill="#FF9C30"/>
<path d="M142.321 146.71C141.57 146.44 140.755 146.399 139.981 146.593C139.206 146.787 138.507 147.206 137.971 147.798C137.436 147.209 136.739 146.791 135.967 146.597C135.195 146.404 134.384 146.443 133.634 146.71C131.016 147.65 131.486 149.651 131.486 149.651C131.687 153.679 137.971 157.841 137.971 157.841C137.971 157.841 144.093 153.625 144.469 149.651C144.51 149.651 145.006 147.691 142.321 146.71Z" fill="#FF9C30"/>
<path d="M160.233 146.71C159.482 146.44 158.667 146.399 157.893 146.593C157.118 146.787 156.419 147.206 155.883 147.798C155.348 147.209 154.651 146.791 153.879 146.597C153.107 146.404 152.296 146.443 151.546 146.71C148.861 147.65 149.398 149.651 149.398 149.651C149.599 153.679 155.883 157.841 155.883 157.841C155.883 157.841 162.005 153.625 162.381 149.651C162.381 149.651 162.838 147.691 160.233 146.71Z" fill="#FF9C30"/>
<path d="M225.822 134.815H208.864V133.513H224.52V69.361H208.864V68.0586H225.822V134.815Z" fill="#BFE2FF"/>
<path d="M238.037 214.541C238.037 214.541 236.547 235.312 240.601 237.796C243.152 239.353 253.276 244.603 252.981 245.583C252.685 246.563 247.261 254.337 247.261 254.337C247.261 254.337 227.792 241.528 227.121 237.487C226.45 233.445 228.074 207.089 230.746 205.867C232.747 204.954 233.807 205.72 236.332 207.586C239.93 210.218 238.037 214.541 238.037 214.541Z" fill="#EB4747"/>
<path d="M235.769 365.631C235.769 365.631 235.165 369.834 235.084 370.465C235.004 371.096 228.371 370.089 228.371 370.089L227.834 365.081C227.834 365.081 234.963 365.04 235.769 365.631Z" fill="#691EDE"/>
<path d="M235.167 369.926C236.355 371.341 237.754 372.564 239.316 373.552C241.357 374.666 244.552 375.096 245.76 376.237C246.633 377.069 248.929 380.614 240.39 380.547C231.851 380.48 227.836 381.044 226.963 379.688C226.091 378.331 228.306 369.645 228.306 369.645C230.555 370.171 232.883 370.267 235.167 369.926Z" fill="#691EDE"/>
<path d="M269.078 365.631C269.078 365.631 268.474 369.834 268.407 370.465C268.34 371.096 261.694 370.089 261.694 370.089L261.157 365.081C261.157 365.081 268.246 365.04 269.078 365.631Z" fill="#691EDE"/>
<path d="M268.532 369.926C269.72 371.341 271.12 372.564 272.681 373.552C274.722 374.666 282.227 375.566 283.422 376.707C284.281 377.539 285.732 380.856 273.809 380.547C265.35 380.319 261.255 381.044 260.382 379.688C259.51 378.331 261.725 369.645 261.725 369.645C261.725 369.645 263.511 370.41 268.532 369.926Z" fill="#691EDE"/>
<path d="M238.159 257.695C238.159 257.695 231.902 267.631 232.372 276.613C232.842 285.596 231.808 295.196 230.868 304.567C229.821 315.04 226.975 336.791 226.84 342.403C226.706 348.015 227.042 369.055 227.042 369.055L237.904 368.974C237.904 368.974 241.744 326.439 243.61 321.981C245.476 317.524 253.143 285.609 253.452 282.078C253.76 278.547 238.159 257.695 238.159 257.695Z" fill="#691EDE"/>
<path d="M271.08 259.038C271.08 259.038 273.551 283.461 274.168 288.952C274.786 294.443 274.37 318.275 274.678 321.713C274.987 325.15 272.597 361.495 271.993 368.41L260.07 368.329C260.07 368.329 259.238 338.939 259.238 324.653C259.238 310.367 255.573 293.772 251.37 284.374C247.168 274.975 237.648 274.666 234.963 257.185C234.963 257.185 267.589 253.493 271.08 259.038Z" fill="#691EDE"/>
<path d="M244.765 173.913C244.765 173.913 252.217 168.932 257.453 174.262C262.69 179.592 265.254 192.133 261.481 194.63C257.709 197.127 251.358 197.799 248.323 194.402C245.289 191.005 242.067 185.822 241.275 182.049C240.482 178.276 242.872 175.497 244.765 173.913Z" fill="#EEA886"/>
<path d="M258.97 195.476C258.97 195.476 258.863 200.713 259.44 201.84C260.017 202.968 248.564 202.982 248.564 202.982C247.955 199.182 247.057 195.434 245.879 191.771C244.107 186.628 258.97 195.476 258.97 195.476Z" fill="#EEA886"/>
<path d="M246.16 191.69C246.16 191.69 247.234 192.778 250.255 191.543C253.276 190.307 256.123 185.232 257.331 184.467C258.539 183.702 258.365 182.923 258.365 182.923L259.466 183.93L260.876 183.688C260.876 183.688 258.727 180.251 260.285 178.318C261.842 176.384 255.451 166.69 246.201 172.584C246.201 172.584 238.964 176.532 240.293 180.869C241.622 185.205 243.918 189.905 246.16 191.69Z" fill="#754836"/>
<path d="M260.125 201.692C260.125 201.692 260.125 199.571 259.118 199.356C258.111 199.141 248.444 198.228 247.263 198.685V201.169C247.263 201.169 249.545 202.578 260.125 201.692Z" fill="#E2D2CA"/>
<path d="M257.79 181.366C257.441 180.681 255.104 179.016 254.876 181.366C254.648 183.716 257.212 186.414 258.166 185.918C259.119 185.421 258.662 183.138 257.79 181.366Z" fill="#EEA886"/>
<path d="M242.615 175.189C242.615 175.189 231.954 178.049 245.73 191.301L242.615 175.189Z" fill="#754836"/>
<path d="M320.115 231.432C320.648 231.551 321.204 231.509 321.713 231.312C322.908 230.748 323.673 228.895 325.472 229.418C327.271 229.942 326.936 235.823 326.264 236.816C325.593 237.81 322.934 237.837 319.336 236.32C315.738 234.802 320.115 231.432 320.115 231.432Z" fill="#EEA886"/>
<path d="M324.827 229.325C326.81 229.09 328.804 228.96 330.802 228.936C333.581 228.936 336.843 229.352 337.018 229.889C337.407 231.084 334.333 230.708 331.553 230.909C330.851 230.901 330.15 230.959 329.459 231.084C329.459 231.084 329.311 230.963 332.144 231.272C334.977 231.581 338.173 232.225 338.347 232.87C338.441 233.192 338.441 234.212 337.3 233.729C337.944 233.823 337.877 233.729 337.85 233.957C337.703 235.3 333.205 235.488 331.406 235.555C332.748 235.555 333.796 235.622 333.138 236.414C332.48 237.206 326.008 237.3 323.739 237.488C321.175 237.716 324.827 229.325 324.827 229.325Z" fill="#EEA886"/>
<path d="M274.302 204.661C267.387 203.439 260.123 201.694 260.123 201.694L247.261 201.17C247.261 201.17 235.445 203.775 230.8 205.869C230.357 206.071 230.357 216.409 229.148 219.121L233.002 227.244C233.002 227.244 235.231 243.356 235.687 250.526C235.902 253.815 231.095 281.407 231.095 281.407C235.667 282.604 240.328 283.435 245.032 283.891C253.813 284.857 275.738 283.542 275.913 282.548C276.087 281.554 271.657 243.933 271.469 241.987C271.173 238.992 272.328 225.203 272.328 225.203C273.979 227.419 283.553 235.757 288.212 238.402C291.541 240.295 299.638 239.597 302.041 239.355C307.237 238.818 321.657 238.133 321.939 237.623C322.221 237.113 321.08 231.286 320.475 231.084C319.871 230.883 301.437 229.997 296.791 230.238C294.898 230.332 288.735 223.525 288.735 223.525C288.735 223.525 278.115 206.366 274.302 204.661Z" fill="#EB4747"/>
<path d="M69.2382 253.545C70.5382 254.035 71.8894 254.378 73.2661 254.565C75.1227 255 76.8148 255.96 78.1399 257.331C78.7844 258.123 84.0207 263.736 84.1147 264.461C84.2087 265.186 82.772 264.931 82.2887 264.367C81.8053 263.803 77.2403 259.278 77.2403 259.278C77.2403 259.278 82.3693 264.971 82.329 265.642C82.2887 266.314 81.5234 266.877 80.5835 266.287C80.5035 266.487 80.3703 266.661 80.1983 266.791C80.0264 266.921 79.8222 267.001 79.6079 267.023C79.3936 267.045 79.1773 267.008 78.9825 266.916C78.7876 266.824 78.6216 266.681 78.5024 266.501L75.8171 263.816C75.8171 263.816 76.945 265.427 75.4681 264.971C74.6759 264.716 72.0443 261.359 71.3058 260.862C69.9973 259.356 68.8034 257.754 67.7344 256.069L69.2382 253.545Z" fill="#EEA886"/>
<path d="M51.0202 364.006C51.0202 364.006 52.967 367.9 54.1485 368.665C55.3301 369.43 61.9493 375.861 63.3054 376.452C64.6615 377.043 69.0251 377.875 68.9714 379.943C68.9177 382.011 57.6931 381.286 55.5449 380.588C53.3966 379.889 49.7044 374.868 48.2274 374.922C46.7505 374.975 47.2876 381.004 47.2876 381.004H45.6496C45.6496 381.004 43.649 374.626 43.7027 372.384C44.0001 369.569 44.4483 366.773 45.0454 364.006H51.0202Z" fill="#691EDE"/>
<path d="M23.6973 361.576C23.6973 361.576 24.5566 365.443 25.9664 366.786C27.3762 368.128 32.6797 373.821 34.0223 374.439C35.365 375.056 37.9294 375.473 38.7216 376.453C39.5137 377.433 39.0438 380.32 34.0223 380.011C29.0008 379.702 27.3091 379.742 26.1544 378.735C24.9997 377.728 21.106 374.237 19.9648 374.143V379.702H18.6221C18.6221 379.702 16.1919 372.398 17.0647 369.323C17.6264 366.948 17.9013 364.514 17.8837 362.073L23.6973 361.576Z" fill="#691EDE"/>
<path d="M25.7 196.389C25.7 196.389 23.404 202.283 25.1897 206.848C25.1897 206.848 16.7848 206.324 16.4625 205.371C16.1403 204.418 16.7982 195.57 15.6435 192.952C14.4888 190.333 25.7 196.389 25.7 196.389Z" fill="#EEA886"/>
<path d="M10.4732 275.552C10.7409 276.27 10.8818 277.028 10.8895 277.794C10.9432 278.708 11.1147 279.61 11.3997 280.48C11.6753 281.905 11.8236 283.352 11.8428 284.803C11.448 285.673 11.1159 286.571 10.8492 287.488C10.8492 288.106 10.97 289.341 10.433 289.314C9.89591 289.287 9.46626 288.186 9.46626 288.186C9.46626 288.186 9.46625 288.75 8.95605 288.858C8.73223 288.943 8.48972 288.967 8.25364 288.926C8.01756 288.886 7.79651 288.784 7.6134 288.629C7.6134 288.629 7.19718 289.153 6.78096 289.153C6.54741 289.167 6.31347 289.133 6.09392 289.052C5.87437 288.971 5.674 288.845 5.50545 288.683C5.18587 288.844 4.81968 288.887 4.4716 288.804C4.23944 288.749 4.02623 288.632 3.85395 288.467C3.68168 288.302 3.55655 288.094 3.49146 287.864C3.49146 287.864 2.48448 287.864 2.26966 287.327C2.15684 286.853 2.12058 286.363 2.16224 285.877C2.46007 283.486 3.29052 281.192 4.59244 279.164C5.1019 278.34 5.44051 277.422 5.58813 276.465C5.73575 275.508 5.68937 274.531 5.45173 273.592L10.4732 275.552Z" fill="#EEA886"/>
<path d="M9.66616 287.758C9.66616 287.758 10.3375 284.361 9.58561 283.434C8.83372 282.508 8.51148 283.73 8.51148 283.73C8.51148 283.73 8.84715 282.535 7.9073 282.172C6.96744 281.81 6.68548 283.233 6.68548 283.233C6.68379 283.099 6.65516 282.966 6.60126 282.842C6.54735 282.719 6.46929 282.608 6.37166 282.515C6.27403 282.423 6.15881 282.35 6.03284 282.303C5.90687 282.256 5.77268 282.234 5.63822 282.24C4.60438 282.24 4.63123 283.461 4.63123 283.461C4.63123 283.461 3.86592 282.119 3.0469 283.072C2.6386 283.673 2.36074 284.352 2.23123 285.067C2.10173 285.781 2.12346 286.515 2.29502 287.221C2.29502 287.221 2.50985 287.812 3.51684 287.758C3.56747 287.964 3.66618 288.155 3.8049 288.315C3.94362 288.476 4.11839 288.601 4.31489 288.681C4.51139 288.761 4.72403 288.793 4.93538 288.775C5.14673 288.757 5.35077 288.689 5.5308 288.577C5.5308 288.577 6.87346 289.732 7.63877 288.577C7.80701 288.733 8.01608 288.837 8.24159 288.879C8.46709 288.92 8.69972 288.896 8.9123 288.81C9.12488 288.725 9.30865 288.58 9.44214 288.394C9.57562 288.207 9.65332 287.987 9.66616 287.758Z" fill="#DB9C7C"/>
<path d="M26.5035 204.863C26.5035 204.863 31.4713 206.581 33.7135 207.051C35.9557 207.521 40.655 209.736 40.2791 217.792C39.873 224.074 39.1064 230.328 37.9831 236.522C37.5419 242.109 37.7582 247.729 38.6276 253.265C30.0739 255.014 21.2548 255.014 12.7011 253.265C12.7011 253.265 15.1849 245.88 15.1178 243.974C15.0507 242.067 6.84709 226.332 6.45773 223.834C6.06836 221.337 4.43032 210.408 8.17632 207.977C11.9223 205.547 14.997 205.87 16.5947 204.795C18.1925 203.721 24.1673 204.084 26.5035 204.863Z" fill="#691EDE"/>
<path d="M32.884 206.85C32.884 206.85 38.3754 206.702 42.2825 215.295C46.1897 223.888 47.1295 228.923 48.0156 230.145C48.9018 231.367 52.0436 236.066 55.078 238.348C58.1124 240.631 70.8675 253.561 70.8675 253.561L67.3766 258.032C67.3766 258.032 49.0361 245.035 47.1295 242.806C45.2229 240.577 33.5687 223.713 32.884 221.162C32.1992 218.611 26.8555 209.455 32.884 206.85Z" fill="#691EDE"/>
<path d="M0 249.559C0 252.996 3.53117 276.412 3.53117 276.412L10.2444 276.707C10.2444 276.707 8.08275 253.426 7.31744 248.069C7.14825 245.825 7.26557 243.569 7.66654 241.355C7.89479 239.65 8.21701 237.864 8.55267 236.159C9.49253 231.447 10.5666 227.338 10.5666 227.338C10.5666 227.338 16.6489 207.292 7.30402 208.769C5.10546 211.668 3.63644 215.052 3.02096 218.638C1.96027 224.653 0.913001 233.635 1.10097 237.166C1.28894 240.697 0 247.048 0 249.559Z" fill="#691EDE"/>
<path d="M38.6272 253.318C39.5397 255.408 40.3243 257.551 40.9769 259.736C41.1648 261.079 47.9586 277.929 48.4286 282.87C48.8985 287.811 50.3351 301.21 50.8453 303.117C51.3555 305.023 49.7041 313.563 49.5027 315.469C49.3013 317.376 49.3818 348.592 51.6643 364.006C51.6643 364.006 46.2937 366.288 42.2658 364.006C42.2658 364.006 35.5526 339.932 35.9016 326.049C36.2507 312.166 38.0499 306.299 35.9016 300.7C33.7534 295.101 21.1325 278.278 19.8704 276.532C18.6083 274.787 10.6195 264.892 18.1652 254.218C25.7109 243.543 38.6272 253.318 38.6272 253.318Z" fill="#691EDE"/>
<path d="M12.5543 298.914C13.2256 303.372 12.5543 309.226 11.1177 325.539C9.68103 341.852 13.5613 361.576 13.5613 361.576C16.9699 362.521 20.5717 362.521 23.9802 361.576C23.846 360.434 23.9802 321.847 23.9802 318.396C23.9802 314.945 24.9604 311.065 25.2155 307.118C25.8131 302.809 26.7605 298.557 28.0485 294.403C28.4781 292.886 28.9078 291.355 29.3911 289.878C29.6328 289.059 29.8611 288.24 30.0893 287.448C32.0764 280.573 34.7349 254.016 34.7349 254.016C34.7349 254.016 19.9657 242.107 12.7557 253.318C5.54567 264.529 9.25139 272.679 9.50649 274.075C9.76159 275.471 11.883 294.456 12.5543 298.914Z" fill="#691EDE"/>
<path d="M39.7845 232.466C39.7845 232.466 38.7909 252.525 43.5573 264.085C43.5573 264.085 27.7946 269.335 7.45344 264.085C7.45344 264.085 11.8171 249.705 11.4814 247.504C11.1457 245.302 3.51948 219.966 5.85569 214.004C8.1919 208.043 37.4348 213.655 39.7845 232.466Z" fill="#691EDE"/>
<path d="M20.9861 173.202C24.5307 172.799 33.7144 173.51 33.07 187.326C32.4255 201.142 27.3369 200.323 22.3288 198.86C17.3207 197.396 11.3056 186.695 11.3056 183.835C11.3056 180.975 10.8625 174.289 20.9861 173.202Z" fill="#EEA886"/>
<path d="M32.5072 180.948C32.5072 180.948 28.4792 186.05 24.4513 187.271C24.4513 187.271 21.3632 192.803 15.9657 194.213C15.9657 194.213 4.44578 183.203 14.1263 174.919C23.8068 166.635 32.5743 176.718 32.5072 180.948Z" fill="#691EDE"/>
<path d="M25.2549 185.366C25.1753 185.043 25.0042 184.75 24.7622 184.521C24.5201 184.293 24.2174 184.139 23.8902 184.078C23.563 184.017 23.2252 184.052 22.9172 184.178C22.6092 184.304 22.344 184.516 22.1534 184.789C20.8108 186.521 23.2141 190.522 24.1003 190.522C24.9864 190.522 25.7651 188.24 25.2549 185.366Z" fill="#EEA886"/>
<path d="M12.5537 177.417C12.2583 176.974 3.53106 173.04 1.71849 181.257C-0.0940907 189.474 8.74054 199.034 10.298 203.129C11.8555 207.224 10.298 216.985 10.298 216.985C12.9831 214.02 15.0954 210.583 16.5279 206.848C18.2868 201.223 18.891 187.031 12.5537 177.417Z" fill="#691EDE"/>
<path d="M18.6768 274.961C18.7976 275.216 26.1553 291.569 28.0753 294.402C28.505 292.885 28.9346 291.355 29.418 289.878C29.418 289.878 18.9184 275.323 18.6768 274.961Z" fill="#691EDE"/>
<path d="M6.16455 224.732C6.2822 230.325 6.79821 235.902 7.70861 241.422C7.93686 239.716 8.25908 237.931 8.59474 236.225C8.54104 235.997 6.41965 226.357 6.16455 224.732Z" fill="#691EDE"/>
<defs>
<linearGradient id="paint0_linear_1279_6690" x1="-22.0887" y1="174.544" x2="40.3177" y2="174.544" gradientUnits="userSpaceOnUse">
<stop stop-color="#C2C2C2"/>
<stop offset="1" stop-color="#DEDEDE"/>
</linearGradient>
</defs>
</svg>
