<svg width="343" height="347" viewBox="0 0 343 347" fill="none" xmlns="http://www.w3.org/2000/svg">
<path d="M121.402 31.8448C122.175 36.8995 121.432 42.0702 119.266 46.7024C117.1 51.3346 113.608 55.2199 109.233 57.8667C104.858 60.5135 99.7953 61.8027 94.6869 61.5711C89.5786 61.3396 84.6537 59.5976 80.5358 56.5658C76.4179 53.5341 73.292 49.3487 71.5538 44.5395C69.8157 39.7304 69.5433 34.5137 70.7714 29.5497C71.9994 24.5857 74.6726 20.0977 78.4525 16.6536C82.2324 13.2096 86.9491 10.9644 92.0056 10.2022C98.7735 9.1757 105.672 10.8789 111.184 14.9374C116.697 18.9959 120.372 25.0774 121.402 31.8448Z" fill="#F5F5F5"/>
<path d="M115.32 32.761C115.914 36.6148 115.351 40.5582 113.702 44.0917C112.053 47.6253 109.393 50.59 106.058 52.6103C102.723 54.6306 98.8629 55.6156 94.9675 55.4406C91.0722 55.2656 87.3164 53.9385 84.1758 51.6272C81.0353 49.316 78.6514 46.1247 77.3261 42.4575C76.0007 38.7904 75.7936 34.8124 76.7308 31.0274C77.6681 27.2424 79.7076 23.8207 82.5911 21.1958C85.4745 18.5708 89.0721 16.8607 92.9283 16.282C98.0822 15.5022 103.335 16.7996 107.533 19.8892C111.731 22.9789 114.532 27.6083 115.32 32.761Z" fill="#ECECEC"/>
<path d="M115.242 32.1463C115.122 32.1463 114.907 31.3494 114.373 29.8832C113.616 27.8532 112.548 25.9527 111.209 24.2494C109.242 21.7433 106.692 19.7548 103.783 18.4563C102.948 18.0838 102.088 17.7722 101.209 17.524C100.296 17.2587 99.3633 17.0669 98.4199 16.9502C97.4427 16.8208 96.4569 16.7676 95.4715 16.7908C93.4399 16.8354 91.4282 17.2012 89.511 17.8746C88.5807 18.1987 87.6775 18.5957 86.8097 19.0619C85.973 19.5068 85.1735 20.0184 84.4191 20.5918C83.6827 21.1315 82.99 21.7284 82.3473 22.3768C81.1451 23.5664 80.1007 24.9055 79.2395 26.3611C77.4 29.5264 76.4527 33.1312 76.4984 36.7919C76.4984 38.3299 76.6099 39.1825 76.4984 39.1825C76.3868 39.1825 76.1159 38.3856 75.9246 36.7919C75.6756 34.5463 75.8458 32.2739 76.4266 30.0904C77.2863 26.7916 78.9857 23.7718 81.3592 21.325C82.0376 20.6533 82.7647 20.0327 83.5346 19.4683C85.1883 18.1886 87.0366 17.1824 89.009 16.488C90.0486 16.1245 91.1141 15.8395 92.1964 15.6354C93.2757 15.4442 94.3678 15.335 95.4635 15.3087C96.5294 15.2874 97.5953 15.3513 98.6509 15.4999C100.64 15.7836 102.577 16.3609 104.396 17.2132C106.01 17.9884 107.513 18.9745 108.867 20.1456C110.064 21.1722 111.134 22.3387 112.054 23.6199C113.377 25.4529 114.345 27.518 114.907 29.7079C115.297 31.2538 115.313 32.1383 115.242 32.1463Z" fill="#E1E1E1"/>
<path d="M99.7965 46.9757L100.354 50.3624L97.3342 50.8644L96.7924 47.5734C93.7723 47.8841 90.7442 47.422 88.8637 46.402L89.9155 42.4177C91.8447 43.343 93.9801 43.7548 96.1151 43.613L95.3182 38.5928C91.828 38.3378 87.8915 37.8358 87.1743 33.5168C86.6484 30.3294 88.521 27.142 93.2065 25.8431L92.6487 22.4883L95.6688 21.9863L96.2187 25.2853C98.3977 25.0318 100.606 25.3051 102.657 26.0822L101.757 30.0665C100.197 29.4807 98.537 29.2098 96.8721 29.2696L97.7088 34.3774C101.191 34.6085 105.064 35.1185 105.773 39.3737C106.291 42.5213 104.442 45.6211 99.7965 46.9757ZM94.5612 34.1224L93.852 29.8274C92.3141 30.4489 91.82 31.4211 91.9873 32.4331C92.1547 33.4451 93.1667 33.9232 94.5612 34.1224ZM100.936 40.5451C100.761 39.4853 99.7886 39.055 98.418 38.8159L99.1033 42.9915C100.593 42.4097 101.127 41.5093 100.968 40.5451H100.936Z" fill="#E1E1E1"/>
<path d="M276.341 172.035C276.817 175.139 276.362 178.314 275.032 181.158C273.703 184.003 271.559 186.389 268.873 188.015C266.187 189.64 263.078 190.432 259.942 190.29C256.805 190.148 253.781 189.078 251.252 187.217C248.724 185.355 246.805 182.785 245.738 179.832C244.671 176.879 244.504 173.675 245.259 170.628C246.014 167.58 247.656 164.824 249.977 162.71C252.299 160.596 255.196 159.219 258.301 158.752C262.454 158.125 266.686 159.172 270.068 161.662C273.451 164.153 275.707 167.883 276.341 172.035Z" fill="#F5F5F5"/>
<path d="M272.604 172.601C272.965 174.964 272.617 177.381 271.604 179.546C270.591 181.711 268.959 183.527 266.914 184.763C264.868 186 262.502 186.603 260.115 186.494C257.727 186.386 255.425 185.572 253.5 184.154C251.575 182.737 250.114 180.781 249.302 178.533C248.489 176.286 248.361 173.847 248.935 171.527C249.509 169.207 250.758 167.109 252.524 165.499C254.291 163.888 256.495 162.838 258.858 162.481C260.425 162.243 262.024 162.315 263.563 162.694C265.103 163.074 266.552 163.753 267.828 164.693C269.105 165.633 270.184 166.815 271.003 168.172C271.823 169.529 272.367 171.034 272.604 172.601Z" fill="#ECECEC"/>
<path d="M272.548 172.226C272.324 171.783 272.145 171.318 272.014 170.839C271.554 169.594 270.904 168.427 270.086 167.381C269.521 166.668 268.879 166.018 268.173 165.445C267.362 164.805 266.473 164.269 265.528 163.851C265.012 163.62 264.479 163.428 263.934 163.277C263.372 163.118 262.8 163.001 262.221 162.927C261.621 162.846 261.016 162.814 260.412 162.831C259.789 162.848 259.168 162.912 258.555 163.022C257.943 163.134 257.341 163.294 256.754 163.5C256.185 163.701 255.631 163.944 255.097 164.225C254.579 164.499 254.083 164.814 253.615 165.166C253.162 165.496 252.738 165.864 252.348 166.265C250.957 167.638 249.925 169.332 249.344 171.198C248.945 172.463 248.749 173.784 248.762 175.11C248.811 175.606 248.811 176.105 248.762 176.601C248.538 176.143 248.415 175.643 248.403 175.134C248.251 173.754 248.357 172.357 248.714 171.015C248.968 170.085 249.326 169.186 249.782 168.337C250.602 166.83 251.729 165.511 253.089 164.464C253.594 164.08 254.126 163.734 254.682 163.429C255.256 163.116 255.852 162.85 256.467 162.632C257.101 162.407 257.751 162.231 258.412 162.106C259.073 161.992 259.741 161.926 260.412 161.907C261.065 161.894 261.718 161.934 262.364 162.026C262.987 162.115 263.603 162.25 264.205 162.432C264.781 162.605 265.343 162.821 265.886 163.078C266.893 163.553 267.831 164.161 268.675 164.887C269.405 165.517 270.058 166.231 270.62 167.014C271.429 168.141 272.02 169.408 272.365 170.752C272.533 171.224 272.596 171.727 272.548 172.226Z" fill="#E1E1E1"/>
<path d="M263.081 181.326L263.423 183.406L261.575 183.709L261.24 181.693C259.581 181.912 257.894 181.66 256.371 180.968L257.017 178.537C258.205 179.104 259.52 179.353 260.833 179.262L260.324 176.162C258.18 176.003 255.765 175.7 255.327 173.047C255 171.079 256.124 169.158 259.025 168.337L258.682 166.281L260.539 165.971L260.873 167.995C262.223 167.841 263.59 168.016 264.858 168.505L264.308 170.935C263.352 170.573 262.333 170.405 261.312 170.441L261.83 173.628C263.973 173.764 266.348 174.083 266.778 176.696C267.065 178.593 265.933 180.489 263.081 181.326ZM259.893 173.437L259.455 170.8C258.515 171.19 258.212 171.788 258.315 172.393C258.419 172.999 259.009 173.31 259.869 173.437H259.893ZM263.822 177.382C263.718 176.728 263.12 176.465 262.276 176.322L262.698 178.88C263.567 178.521 263.901 177.971 263.798 177.382H263.822Z" fill="#E1E1E1"/>
<path d="M52.2884 187.517C52.9332 191.725 52.3148 196.03 50.5116 199.887C48.7084 203.744 45.8014 206.979 42.1586 209.183C38.5158 211.387 34.301 212.461 30.0477 212.268C25.7945 212.075 21.694 210.625 18.2655 208.101C14.8369 205.577 12.2343 202.092 10.7872 198.088C9.34011 194.083 9.11356 189.74 10.1362 185.607C11.1589 181.474 13.3848 177.738 16.5322 174.87C19.6796 172.003 23.6069 170.134 27.817 169.5C33.4502 168.651 39.19 170.072 43.7775 173.449C48.365 176.827 51.4257 181.886 52.2884 187.517Z" fill="#F5F5F5"/>
<path d="M47.2218 188.283C47.7138 191.49 47.243 194.772 45.8691 197.712C44.4951 200.652 42.2797 203.118 39.5033 204.799C36.7269 206.479 33.5144 207.298 30.2724 207.151C27.0305 207.005 23.9048 205.9 21.2912 203.976C18.6775 202.053 16.6934 199.397 15.5899 196.345C14.4864 193.293 14.3133 189.982 15.0923 186.832C15.8714 183.682 17.5677 180.833 19.9664 178.647C22.3651 176.461 25.3584 175.036 28.5674 174.553C32.8616 173.901 37.2389 174.981 40.7369 177.556C44.235 180.13 46.5675 183.989 47.2218 188.283Z" fill="#ECECEC"/>
<path d="M47.1423 187.774C46.8326 187.175 46.5895 186.545 46.4171 185.893C45.789 184.214 44.9047 182.641 43.7955 181.232C43.0317 180.265 42.1631 179.386 41.2057 178.61C40.1067 177.729 38.8988 176.992 37.6119 176.419C36.9212 176.1 36.2073 175.833 35.4763 175.622C34.7149 175.4 33.9367 175.24 33.1495 175.144C32.3362 175.034 31.5156 174.989 30.6952 175.008C29.8505 175.034 29.0088 175.121 28.1771 175.271C27.3474 175.428 26.5299 175.644 25.7308 175.917C24.9579 176.189 24.2067 176.519 23.4836 176.905C22.1162 177.633 20.8604 178.553 19.7543 179.638C18.7547 180.63 17.887 181.747 17.1725 182.961C16.5513 184.026 16.049 185.157 15.6744 186.332C15.1421 188.053 14.8734 189.845 14.8776 191.647C14.9442 192.317 14.9442 192.992 14.8776 193.663C14.5679 193.044 14.4018 192.363 14.3915 191.671C14.1857 189.801 14.3289 187.91 14.8138 186.093C15.1528 184.827 15.6368 183.605 16.2561 182.451C16.9804 181.132 17.8812 179.917 18.9336 178.841C19.5 178.264 20.1101 177.731 20.7584 177.247C21.4337 176.729 22.1477 176.263 22.894 175.853C23.6602 175.428 24.4597 175.065 25.2845 174.769C26.1431 174.462 27.0252 174.225 27.9221 174.06C28.8195 173.899 29.728 173.809 30.6394 173.789C31.5241 173.769 32.409 173.823 33.285 173.948C34.1299 174.064 34.964 174.248 35.7791 174.498C36.5644 174.727 37.3293 175.02 38.0661 175.375C40.6137 176.578 42.8089 178.417 44.4409 180.714C45.5421 182.242 46.3524 183.96 46.8315 185.782C47.0709 186.417 47.1767 187.096 47.1423 187.774Z" fill="#E1E1E1"/>
<path d="M34.294 200.124L34.7641 202.937L32.246 203.351L31.7918 200.61C29.5449 200.912 27.2583 200.575 25.1939 199.638L26.0704 196.371C27.6835 197.139 29.4678 197.476 31.25 197.351L30.5487 193.144C27.6482 192.928 24.3731 192.514 23.7755 188.92C23.3372 186.251 24.8911 183.637 28.7956 182.545L28.3335 179.756L30.8515 179.334L31.3057 182.075C33.1204 181.879 34.9558 182.116 36.6606 182.768L35.9195 186.012C34.6192 185.524 33.2357 185.296 31.8476 185.342L32.5568 189.621C35.4574 189.813 38.6846 190.235 39.2743 193.781C39.7046 196.411 38.1667 198.992 34.294 200.124ZM29.975 189.414L29.3774 185.844C28.0944 186.37 27.688 187.183 27.8235 188.012C27.959 188.84 28.7717 189.247 29.975 189.414ZM35.2741 194.777C35.1227 193.901 34.3179 193.542 33.1704 193.343L33.7441 196.817C34.9633 196.315 35.4016 195.574 35.2741 194.777Z" fill="#E1E1E1"/>
<path d="M305.928 134.583L174.534 93.6882C173.729 93.4421 172.98 93.0388 172.332 92.5016C171.683 91.9645 171.147 91.3042 170.755 90.5588C170.364 89.8134 170.123 88.9978 170.048 88.159C169.973 87.3202 170.065 86.4749 170.319 85.6719L195.587 4.5041C195.834 3.69947 196.238 2.95172 196.776 2.30399C197.313 1.65626 197.974 1.12138 198.719 0.730225C199.464 0.339066 200.279 0.0993661 201.118 0.0249588C201.956 -0.0494486 202.801 0.0429097 203.604 0.296703L334.997 41.1993C336.611 41.6988 337.961 42.8186 338.75 44.3128C339.539 45.807 339.703 47.5532 339.205 49.1679L313.936 130.375C313.689 131.179 313.286 131.926 312.749 132.573C312.212 133.22 311.552 133.755 310.808 134.146C310.063 134.537 309.249 134.777 308.411 134.852C307.574 134.927 306.73 134.835 305.928 134.583Z" fill="#E1E1E1"/>
<path d="M191.612 62.1083L189.134 70.0769L188.337 69.8219L190.592 62.5785L188.711 61.9968L188.935 61.2637L191.612 62.1083Z" fill="white"/>
<path d="M197.555 71.9029L197.332 72.628L191.754 70.8909L191.937 70.3092L196.256 68.0939C197.436 67.4883 197.77 67.0022 197.945 66.5002C198.232 65.5758 197.754 64.8029 196.543 64.4284C196.145 64.2756 195.717 64.2149 195.292 64.2508C194.867 64.2867 194.456 64.4182 194.089 64.6356L193.658 63.9582C194.137 63.6807 194.671 63.5132 195.222 63.4677C195.774 63.4222 196.328 63.5 196.846 63.6953C198.44 64.1973 199.236 65.3368 198.822 66.6675C198.583 67.4644 198.129 68.0381 196.734 68.7553L193.196 70.5801L197.555 71.9029Z" fill="white"/>
<path d="M206.379 73.1454L204.785 72.6513L204.132 74.7471L203.335 74.4921L203.988 72.3963L199.486 70.9939L199.669 70.4042L205.542 66.4199L206.45 66.6988L200.777 70.5795L204.235 71.6553L204.809 69.8145L205.606 70.0616L205.032 71.9103L206.626 72.4043L206.379 73.1454Z" fill="white"/>
<path d="M218.592 76.9541L216.999 76.4521L216.345 78.5478L215.548 78.2929L216.202 76.1971L211.66 74.8026L211.843 74.205L217.708 70.2207L218.624 70.5076L212.943 74.3803L216.401 75.464L216.975 73.6153L217.772 73.8623L217.238 75.727L218.831 76.221L218.592 76.9541Z" fill="white"/>
<path d="M225.637 78.8659C225.214 80.2206 223.939 80.9856 221.995 80.38C220.934 80.0913 220.024 79.4068 219.453 78.4675L220.059 77.9416C220.53 78.7651 221.305 79.3714 222.218 79.6309C223.573 80.0453 224.497 79.6309 224.8 78.6428C225.103 77.6547 224.673 76.7861 222.649 76.1486L220.951 75.6227L222.609 71.75L226.967 73.1126L226.744 73.8378L223.095 72.7062L222.019 75.1605L223.039 75.4793C225.461 76.2283 226.075 77.4555 225.637 78.8659Z" fill="white"/>
<path d="M233.525 81.29C233.063 82.7801 231.597 83.3698 230.043 82.8837C227.923 82.2223 227.23 80.3975 228.019 77.8794C228.864 75.1701 230.784 74.2139 232.944 74.8912C233.61 75.0658 234.216 75.4184 234.697 75.9112L234.163 76.469C233.778 76.0534 233.284 75.7551 232.737 75.6084C231.015 75.0745 229.549 75.8395 228.888 77.999C228.832 78.1822 228.776 78.4133 228.72 78.6603C229.088 78.2922 229.555 78.039 230.065 77.9315C230.574 77.824 231.104 77.8668 231.589 78.0547C233.175 78.5568 233.972 79.8317 233.525 81.29ZM232.729 81.0589C233.055 80.015 232.489 79.0986 231.262 78.7161C231.02 78.6096 230.758 78.5539 230.494 78.5525C230.229 78.551 229.967 78.6038 229.724 78.7076C229.48 78.8114 229.261 78.964 229.078 79.156C228.896 79.3479 228.755 79.5752 228.665 79.8238C228.394 80.7003 228.864 81.7522 230.258 82.2143C230.494 82.3135 230.748 82.3619 231.004 82.3565C231.26 82.3512 231.511 82.2921 231.743 82.1831C231.974 82.0742 232.18 81.9178 232.347 81.7241C232.514 81.5304 232.639 81.3038 232.713 81.0589H232.729Z" fill="white"/>
<path d="M244.411 84.8104C243.997 86.1491 242.706 86.8663 240.785 86.2686C239.721 85.9791 238.808 85.2916 238.235 84.3482L238.833 83.8302C239.313 84.6564 240.096 85.2625 241.016 85.5196C242.339 85.9339 243.256 85.5196 243.566 84.5474C243.877 83.5752 243.391 82.7625 241.909 82.3003L241.335 82.125L241.526 81.5194L244.594 79.4396L240.522 78.1726L240.745 77.4395L245.869 79.0332L245.694 79.6149L242.554 81.7504C244.236 82.3322 244.809 83.4956 244.411 84.8104Z" fill="white"/>
<path d="M252.428 87.2009C252.317 87.5436 252.136 87.8594 251.897 88.1285C251.657 88.3975 251.365 88.6138 251.037 88.7636C250.71 88.9135 250.355 88.9937 249.995 88.999C249.634 89.0043 249.277 88.9347 248.945 88.7946C246.826 88.1333 246.133 86.3085 246.921 83.7904C247.766 81.0811 249.687 80.1328 251.846 80.8022C252.514 80.9787 253.122 81.3309 253.607 81.8222L253.065 82.38C252.683 81.9623 252.187 81.6659 251.639 81.5273C249.918 80.9934 248.451 81.7504 247.798 83.9179C247.728 84.1324 247.669 84.3505 247.623 84.5713C247.991 84.2032 248.458 83.95 248.967 83.8425C249.476 83.7349 250.006 83.7778 250.491 83.9657C252.069 84.4358 252.882 85.7108 252.428 87.2009ZM251.631 86.9699C251.958 85.926 251.392 85.0096 250.165 84.6271C249.923 84.5219 249.662 84.4672 249.398 84.4664C249.135 84.4656 248.873 84.5187 248.631 84.6224C248.388 84.7261 248.17 84.8783 247.988 85.0696C247.806 85.2608 247.666 85.4872 247.575 85.7347C247.296 86.6113 247.766 87.6711 249.169 88.1253C249.406 88.2226 249.661 88.2687 249.918 88.2606C250.174 88.2525 250.426 88.1904 250.657 88.0783C250.888 87.9663 251.093 87.8068 251.258 87.6103C251.423 87.4138 251.544 87.1847 251.615 86.938L251.631 86.9699Z" fill="white"/>
<path d="M261.503 83.8634L261.328 84.4451L255.686 90.8199L254.794 90.541L260.332 84.3176L256.236 83.0426L255.766 84.5407L254.969 84.2857L255.663 82.0625L261.503 83.8634Z" fill="white"/>
<path d="M272.907 87.4083L272.724 87.99L267.082 94.3649L266.197 94.0939L271.735 87.8705L267.632 86.5955L267.169 88.0856L266.373 87.8306L267.066 85.6074L272.907 87.4083Z" fill="white"/>
<path d="M278.954 95.6003C278.515 97.0187 277.049 97.5207 275.145 96.931C273.24 96.3414 272.348 95.0903 272.754 93.6799C272.889 93.2255 273.175 92.831 273.565 92.5614C273.955 92.2919 274.425 92.1636 274.898 92.1977C274.564 91.9651 274.315 91.6301 274.188 91.2433C274.062 90.8566 274.065 90.4391 274.197 90.0542C274.595 88.7633 275.958 88.2931 277.639 88.819C279.32 89.345 280.205 90.5004 279.798 91.7993C279.683 92.1934 279.442 92.5393 279.113 92.785C278.784 93.0307 278.384 93.163 277.974 93.1619C278.392 93.3945 278.717 93.7637 278.895 94.2075C279.074 94.6514 279.094 95.1431 278.954 95.6003ZM278.117 95.3293C278.42 94.3492 277.774 93.4727 276.356 93.0344C274.938 92.5961 273.926 92.9467 273.623 93.9269C273.32 94.907 273.949 95.7915 275.36 96.2298C276.77 96.6681 277.798 96.3174 278.117 95.3293ZM276.563 92.381C277.806 92.7714 278.715 92.4447 278.954 91.5841C279.193 90.7235 278.619 89.8948 277.424 89.5203C276.228 89.1457 275.28 89.4565 275.033 90.3171C274.786 91.1777 275.32 91.9826 276.563 92.381Z" fill="white"/>
<path d="M287.275 96.1814C286.43 98.8907 284.51 99.839 282.342 99.1696C281.677 98.9932 281.072 98.6409 280.589 98.1496L281.123 97.5918C281.51 98.0079 282.008 98.3039 282.558 98.4445C284.279 98.9784 285.745 98.2213 286.398 96.0539C286.466 95.8392 286.521 95.6211 286.566 95.4005C286.199 95.7679 285.733 96.0208 285.225 96.1283C284.717 96.2358 284.189 96.1934 283.705 96.0061C282.111 95.512 281.314 94.2371 281.761 92.7788C281.872 92.4362 282.052 92.1203 282.292 91.8513C282.531 91.5823 282.824 91.366 283.151 91.2161C283.479 91.0662 283.834 90.9861 284.194 90.9808C284.554 90.9754 284.911 91.045 285.243 91.1851C287.363 91.8385 288.056 93.6633 287.275 96.1814ZM286.637 94.245C286.908 93.3685 286.438 92.3087 285.044 91.8545C284.808 91.7508 284.552 91.6981 284.295 91.6999C284.037 91.7016 283.782 91.7577 283.548 91.8645C283.313 91.9713 283.104 92.1263 282.933 92.3196C282.762 92.5129 282.634 92.7399 282.558 92.986C282.231 94.0299 282.797 94.9463 284.032 95.3287C284.273 95.4371 284.534 95.4949 284.798 95.4987C285.063 95.5024 285.325 95.4519 285.569 95.3504C285.813 95.2489 286.034 95.0984 286.218 94.9083C286.401 94.7182 286.544 94.4925 286.637 94.245Z" fill="white"/>
<path d="M296.572 94.7802L294.094 102.749L293.297 102.494L295.552 95.2504L293.671 94.6687L293.902 93.9355L296.572 94.7802Z" fill="white"/>
<path d="M302.501 104.572L302.278 105.306L296.7 103.56L296.883 102.979L301.202 100.763C302.382 100.158 302.716 99.6798 302.892 99.1299C303.179 98.2056 302.701 97.4326 301.489 97.0581C301.091 96.9054 300.663 96.8447 300.238 96.8806C299.813 96.9164 299.402 97.048 299.035 97.2653L298.613 96.588C299.091 96.3099 299.625 96.1421 300.177 96.0966C300.728 96.0511 301.283 96.1291 301.8 96.325C303.394 96.827 304.191 97.9665 303.768 99.3052C303.529 100.062 303.083 100.676 301.681 101.385L298.143 103.21L302.501 104.572Z" fill="white"/>
<path d="M310.159 105.242C309.744 106.573 308.453 107.298 306.525 106.7C305.465 106.406 304.556 105.72 303.983 104.78L304.581 104.254C305.058 105.082 305.842 105.689 306.764 105.943C308.087 106.358 309.003 105.943 309.314 104.979C309.625 104.015 309.131 103.186 307.656 102.724L307.083 102.549L307.274 101.943L310.342 99.8634L306.262 98.5964L306.493 97.8633L311.617 99.457L311.434 100.039L308.302 102.174C309.983 102.796 310.549 103.935 310.159 105.242Z" fill="white"/>
<path d="M246.393 94.376L245.315 97.8379L309.173 117.715L310.251 114.253L246.393 94.376Z" fill="white"/>
<path d="M275.651 112.872L274.563 116.316L307.153 126.608L308.241 123.163L275.651 112.872Z" fill="white"/>
<g opacity="0.5">
<path d="M216.997 41.3136L197.451 35.1411C195.486 34.5206 193.39 35.6105 192.769 37.5755L188.727 50.3766C188.107 52.3416 189.196 54.4376 191.161 55.0582L210.708 61.2306C212.673 61.8511 214.769 60.7612 215.389 58.7962L219.432 45.9951C220.052 44.0301 218.962 41.9341 216.997 41.3136Z" fill="#ECECEC"/>
</g>
<path d="M190.615 48.1556L191.013 46.8726L204.807 51.1677C205.562 51.3709 206.367 51.2737 207.053 50.8966C207.738 50.5195 208.251 49.8916 208.484 49.1447C208.717 48.3977 208.652 47.5897 208.302 46.8898C207.952 46.1899 207.345 45.6526 206.608 45.3905L192.806 41.0954L193.213 39.8125L207.006 44.1713C207.554 44.3419 208.063 44.6187 208.504 44.9859C208.944 45.3531 209.309 45.8036 209.575 46.3116C209.842 46.8195 210.006 47.3751 210.058 47.9465C210.11 48.5179 210.049 49.0939 209.879 49.6417C209.708 50.1895 209.431 50.6984 209.064 51.1392C208.697 51.5801 208.246 51.9443 207.738 52.211C207.231 52.4778 206.675 52.6419 206.104 52.6939C205.532 52.746 204.956 52.685 204.408 52.5144L190.615 48.1556Z" fill="#E1E1E1"/>
<path d="M209.585 49.9843L209.181 51.2637L218.605 54.2399L219.009 52.9606L209.585 49.9843Z" fill="#E1E1E1"/>
<path d="M272.334 39.6511L203.424 18.2012L201.584 24.113L270.494 45.5629L272.334 39.6511Z" fill="white"/>
<path d="M320.667 50.3343L311.332 47.4284C310.08 47.0386 308.748 47.7378 308.359 48.99L305.453 58.3256C305.063 59.5778 305.762 60.9089 307.014 61.2987L316.35 64.2046C317.602 64.5944 318.933 63.8953 319.323 62.643L322.229 53.3074C322.619 52.0552 321.92 50.7241 320.667 50.3343Z" fill="white"/>
<path d="M342.043 334.299C342.043 334.402 265.465 334.49 171.029 334.49C76.5938 334.49 0 334.402 0 334.299C0 334.195 76.5619 334.1 171.029 334.1C265.497 334.1 342.043 334.227 342.043 334.299Z" fill="#FF9C30"/>
<path d="M238.674 334.076L136.517 333.606C130.615 333.579 124.966 331.208 120.812 327.017C116.658 322.825 114.339 317.155 114.364 311.254L115.448 55.1446C115.479 49.2467 117.852 43.6028 122.043 39.4533C126.234 35.3038 131.902 32.9883 137.8 33.0159L239.964 33.486C245.858 33.5134 251.5 35.8783 255.652 40.0615C259.804 44.2446 262.126 49.9043 262.109 55.798L261.065 311.915C261.054 314.842 260.465 317.737 259.333 320.436C258.201 323.134 256.547 325.583 254.467 327.642C252.387 329.7 249.922 331.328 247.211 332.432C244.501 333.536 241.6 334.095 238.674 334.076Z" fill="#691EDE"/>
<path d="M239.813 42.29L220.011 42.2024L162.159 41.9315H155.195L137.863 41.8518C135.815 41.8413 133.786 42.2346 131.89 43.0094C129.994 43.7841 128.27 44.9249 126.816 46.3667C125.361 47.8084 124.206 49.5227 123.414 51.4116C122.623 53.3004 122.212 55.3267 122.205 57.3745L121.145 307.356C121.128 311.489 122.753 315.459 125.662 318.393C128.572 321.328 132.528 322.988 136.66 323.007L238.658 323.477C240.703 323.481 242.73 323.082 244.622 322.303C246.513 321.524 248.233 320.38 249.683 318.936C251.132 317.493 252.283 315.778 253.07 313.889C253.857 312.001 254.264 309.976 254.268 307.93L255.328 57.9403C255.345 53.8079 253.72 49.8378 250.811 46.9031C247.901 43.9683 243.945 42.309 239.813 42.29Z" fill="#FAFAFA"/>
<path d="M240.57 65.0094C240.57 65.2619 240.495 65.5087 240.355 65.7185C240.215 65.9284 240.015 66.0918 239.782 66.188C239.548 66.2843 239.291 66.3091 239.044 66.2592C238.796 66.2094 238.569 66.0872 238.391 65.9081C238.213 65.7289 238.092 65.501 238.044 65.2532C237.996 65.0053 238.022 64.7487 238.12 64.5159C238.218 64.2831 238.382 64.0845 238.593 63.9454C238.804 63.8063 239.051 63.7328 239.303 63.7344C239.64 63.7365 239.962 63.8718 240.2 64.1106C240.437 64.3495 240.57 64.6726 240.57 65.0094Z" fill="#FF9C30"/>
<path d="M240.555 69.5992C240.555 69.8517 240.48 70.0985 240.339 70.3084C240.199 70.5182 239.999 70.6816 239.766 70.7779C239.532 70.8741 239.276 70.8989 239.028 70.8491C238.781 70.7992 238.553 70.677 238.375 70.4979C238.197 70.3188 238.077 70.0909 238.028 69.843C237.98 69.5952 238.007 69.3386 238.104 69.1058C238.202 68.8729 238.367 68.6744 238.577 68.5352C238.788 68.3961 239.035 68.3227 239.288 68.3242C239.625 68.3263 239.947 68.4616 240.184 68.7005C240.422 68.9394 240.555 69.2625 240.555 69.5992Z" fill="#FF9C30"/>
<path d="M240.536 74.1892C240.535 74.441 240.459 74.6867 240.318 74.8953C240.176 75.104 239.977 75.2661 239.744 75.3614C239.511 75.4567 239.254 75.4808 239.008 75.4307C238.761 75.3806 238.534 75.2586 238.357 75.0799C238.179 74.9013 238.059 74.6741 238.01 74.427C237.962 74.1799 237.987 73.924 238.084 73.6915C238.181 73.459 238.344 73.2603 238.554 73.1206C238.763 72.9808 239.009 72.9063 239.261 72.9063C239.429 72.9062 239.596 72.9395 239.751 73.0041C239.906 73.0686 240.047 73.1633 240.166 73.2825C240.284 73.4017 240.378 73.5432 240.441 73.6988C240.505 73.8544 240.537 74.0211 240.536 74.1892Z" fill="#FF9C30"/>
<path d="M245.056 108.574H142.867C141.076 108.574 139.624 110.026 139.624 111.817V174.275C139.624 176.066 141.076 177.518 142.867 177.518H245.056C246.847 177.518 248.299 176.066 248.299 174.275V111.817C248.299 110.026 246.847 108.574 245.056 108.574Z" fill="#ECECEC"/>
<path d="M242.068 104.104H139.879C138.088 104.104 136.636 105.556 136.636 107.347V169.804C136.636 171.595 138.088 173.047 139.879 173.047H242.068C243.859 173.047 245.311 171.595 245.311 169.804V107.347C245.311 105.556 243.859 104.104 242.068 104.104Z" fill="#E1E1E1"/>
<path d="M238.625 100.381H136.436C134.645 100.381 133.193 101.833 133.193 103.624V166.082C133.193 167.873 134.645 169.325 136.436 169.325H238.625C240.416 169.325 241.868 167.873 241.868 166.082V103.624C241.868 101.833 240.416 100.381 238.625 100.381Z" fill="#FF735D"/>
<path d="M151.098 116.127C151.098 117.012 150.397 117.522 149.058 117.522H146.413V112.422H148.907C150.182 112.422 150.843 112.948 150.843 113.745C150.847 113.977 150.786 114.205 150.666 114.404C150.546 114.603 150.373 114.763 150.166 114.868C150.44 114.943 150.681 115.108 150.85 115.336C151.019 115.565 151.106 115.843 151.098 116.127ZM147.592 113.306V114.51H148.763C149.337 114.51 149.656 114.302 149.656 113.904C149.656 113.506 149.337 113.306 148.763 113.306H147.592ZM149.911 116.008C149.911 115.577 149.576 115.37 148.971 115.37H147.592V116.629H148.971C149.568 116.629 149.903 116.438 149.903 116.008H149.911Z" fill="white"/>
<path d="M155.338 116.43H152.948L152.493 117.522H151.282L153.561 112.422H154.725L157.004 117.522H155.769L155.338 116.43ZM154.972 115.53L154.175 113.577L153.378 115.53H154.972Z" fill="white"/>
<path d="M162.256 112.422V117.522H161.284L158.742 114.422V117.522H157.579V112.422H158.551L161.093 115.514V112.422H162.256Z" fill="white"/>
<path d="M165.299 115.514L164.614 116.231V117.522H163.442V112.422H164.646V114.812L166.909 112.422H168.224L166.104 114.693L168.343 117.522H166.964L165.299 115.514Z" fill="white"/>
<path d="M150.135 137.339H149.195V138.574H148.709V137.339H146.063V136.996L148.549 133.889H149.083L146.693 136.909H148.709V135.809H149.171V136.893H150.111L150.135 137.339Z" fill="white"/>
<path d="M153.568 137.228C153.568 138.025 153.002 138.615 151.87 138.615C151.251 138.633 150.648 138.416 150.181 138.009L150.42 137.627C150.615 137.816 150.846 137.964 151.099 138.062C151.353 138.161 151.623 138.208 151.894 138.2C152.691 138.2 153.098 137.842 153.098 137.26C153.098 136.678 152.707 136.328 151.831 136.328H151.504V135.977L152.795 134.383H150.404V133.953H153.416V134.216L152.086 135.882C153.066 135.953 153.568 136.479 153.568 137.228Z" fill="white"/>
<path d="M157.354 137.196C157.354 137.992 156.804 138.614 155.657 138.614C155.042 138.635 154.442 138.418 153.983 138.008L154.214 137.626C154.602 137.989 155.118 138.184 155.649 138.168C156.446 138.168 156.868 137.785 156.868 137.212C156.868 136.638 156.494 136.239 155.274 136.239H154.286L154.525 133.889H157.083V134.319H154.948L154.788 135.809H155.386C156.82 135.809 157.354 136.367 157.354 137.196Z" fill="white"/>
<path d="M161.457 137.172C161.456 137.374 161.413 137.574 161.33 137.758C161.248 137.943 161.128 138.108 160.978 138.244C160.828 138.379 160.652 138.482 160.46 138.546C160.268 138.61 160.065 138.633 159.864 138.614C158.621 138.614 157.943 137.746 157.943 136.272C157.943 134.678 158.812 133.881 160.079 133.881C160.467 133.863 160.853 133.952 161.195 134.136L160.995 134.527C160.722 134.363 160.405 134.285 160.087 134.303C159.075 134.303 158.429 134.949 158.429 136.224C158.423 136.351 158.423 136.479 158.429 136.606C158.563 136.348 158.769 136.135 159.023 135.994C159.277 135.852 159.566 135.788 159.856 135.81C160.052 135.784 160.252 135.8 160.442 135.856C160.632 135.912 160.808 136.007 160.959 136.136C161.11 136.264 161.232 136.423 161.318 136.601C161.404 136.78 161.451 136.974 161.457 137.172ZM160.987 137.172C160.987 136.559 160.533 136.16 159.808 136.16C159.661 136.144 159.511 136.158 159.369 136.201C159.228 136.245 159.096 136.317 158.983 136.413C158.871 136.51 158.779 136.628 158.714 136.761C158.649 136.895 158.611 137.04 158.605 137.188C158.605 137.698 159.035 138.184 159.84 138.184C159.984 138.206 160.131 138.196 160.271 138.156C160.411 138.116 160.541 138.047 160.652 137.953C160.763 137.858 160.853 137.741 160.915 137.609C160.976 137.477 161.009 137.334 161.011 137.188L160.987 137.172Z" fill="white"/>
<path d="M171.602 138.575L170.487 137.101L169.363 138.575H168.829L170.224 136.766L168.893 135.053H169.427L170.479 136.431L171.538 135.053H172.056L170.734 136.766L172.136 138.575H171.602Z" fill="white"/>
<path d="M175.18 138.575L174.056 137.101L172.933 138.575H172.399L173.793 136.766L172.471 135.053H173.005L174.056 136.431L175.116 135.053H175.642L174.311 136.766L175.722 138.575H175.18Z" fill="white"/>
<path d="M178.752 138.575L177.636 137.101L176.513 138.575H175.971L177.397 136.766L176.074 135.053H176.6L177.66 136.431L178.712 135.053H179.238L177.915 136.766L179.318 138.575H178.752Z" fill="white"/>
<path d="M182.319 138.575L181.203 137.101L180.08 138.575H179.546L180.932 136.766L179.61 135.053H180.144L181.203 136.431L182.263 135.053H182.781L181.458 136.766L182.861 138.575H182.319Z" fill="white"/>
<path d="M194.656 138.575L193.54 137.101L192.417 138.575H191.883L193.269 136.766L191.947 135.053H192.48L193.54 136.431L194.592 135.053H195.118L193.795 136.766L195.198 138.575H194.656Z" fill="white"/>
<path d="M198.225 138.575L197.11 137.101L195.986 138.575H195.452L196.839 136.766L195.516 135.053H196.05L197.11 136.431L198.169 135.053H198.687L197.365 136.766L198.767 138.575H198.225Z" fill="white"/>
<path d="M201.795 138.575L200.679 137.101L199.556 138.575H199.022L200.416 136.766L199.094 135.053H199.628L200.679 136.431L201.739 135.053H202.257L200.934 136.766L202.345 138.575H201.795Z" fill="white"/>
<path d="M205.373 138.575L204.257 137.101L203.134 138.575H202.592L203.986 136.766L202.664 135.053H203.197L204.257 136.431L205.309 135.053H205.835L204.488 136.766L205.899 138.575H205.373Z" fill="white"/>
<path d="M216.441 133.889V138.574H215.955V134.319H214.847V133.889H216.441Z" fill="white"/>
<path d="M220.665 137.229C220.665 138.026 220.092 138.615 218.96 138.615C218.343 138.634 217.742 138.417 217.279 138.01L217.51 137.627C217.903 137.991 218.424 138.186 218.96 138.169C219.757 138.169 220.171 137.811 220.171 137.229C220.171 136.647 219.773 136.297 218.904 136.297H218.57V135.946L219.869 134.352H217.478V133.922H220.49V134.217L219.167 135.882C220.163 135.954 220.665 136.48 220.665 137.229Z" fill="white"/>
<path d="M225.318 137.339H224.41V138.574H223.931V137.339H221.222V136.996L223.708 133.889H224.242L221.852 136.909H223.892V135.809H224.41V136.893H225.35L225.318 137.339Z" fill="white"/>
<path d="M228.927 138.145V138.575H225.644V138.2L227.589 136.296C228.123 135.77 228.218 135.459 228.218 135.132C228.218 134.591 227.836 134.256 227.127 134.256C226.887 134.241 226.647 134.281 226.425 134.372C226.203 134.463 226.004 134.603 225.844 134.782L225.501 134.487C225.713 134.26 225.972 134.083 226.259 133.967C226.547 133.852 226.857 133.801 227.166 133.818C228.115 133.818 228.712 134.296 228.712 135.085C228.698 135.373 228.619 135.655 228.481 135.908C228.343 136.162 228.15 136.382 227.915 136.551L226.322 138.145H228.927Z" fill="white"/>
<path d="M143.665 148.288C143.663 148.131 143.694 147.976 143.755 147.831C143.816 147.687 143.906 147.556 144.02 147.448C144.133 147.34 144.268 147.256 144.415 147.202C144.562 147.147 144.719 147.124 144.876 147.133C145.05 147.126 145.223 147.159 145.383 147.227C145.543 147.296 145.685 147.4 145.8 147.531L145.465 147.842C145.397 147.759 145.31 147.692 145.212 147.646C145.114 147.601 145.008 147.578 144.9 147.579C144.724 147.598 144.561 147.681 144.442 147.812C144.324 147.944 144.258 148.115 144.258 148.292C144.258 148.469 144.324 148.64 144.442 148.772C144.561 148.903 144.724 148.987 144.9 149.005C145.008 149.006 145.114 148.983 145.212 148.938C145.31 148.892 145.397 148.825 145.465 148.742L145.8 149.045C145.635 149.227 145.42 149.355 145.181 149.413C144.943 149.471 144.692 149.456 144.462 149.37C144.233 149.284 144.034 149.132 143.891 148.932C143.749 148.732 143.67 148.494 143.665 148.248V148.288Z" fill="white"/>
<path d="M147.576 148.935H146.54L146.341 149.413H145.807L146.803 147.174H147.313L148.317 149.413H147.775L147.576 148.935ZM147.408 148.536L147.058 147.684L146.699 148.536H147.408Z" fill="white"/>
<path d="M149.976 149.413L149.546 148.791H149.068V149.413H148.55V147.174H149.506C150.104 147.174 150.478 147.485 150.478 147.971C150.483 148.121 150.442 148.269 150.359 148.395C150.276 148.521 150.156 148.617 150.016 148.672L150.518 149.397L149.976 149.413ZM149.49 147.596H149.068V148.393H149.506C149.825 148.393 149.984 148.242 149.984 148.003C149.984 147.764 149.809 147.596 149.506 147.596H149.49Z" fill="white"/>
<path d="M150.724 149.189L150.899 148.799C151.118 148.947 151.376 149.028 151.641 149.03C151.943 149.03 152.071 148.934 152.071 148.791C152.071 148.376 150.772 148.663 150.772 147.835C150.772 147.452 151.075 147.133 151.712 147.133C151.991 147.126 152.267 147.195 152.509 147.333L152.358 147.731C152.169 147.618 151.956 147.555 151.736 147.548C151.425 147.548 151.306 147.667 151.306 147.811C151.306 148.217 152.613 147.938 152.613 148.751C152.613 149.126 152.302 149.444 151.664 149.444C151.332 149.459 151.003 149.37 150.724 149.189Z" fill="white"/>
<path d="M155.879 147.174V149.413H155.361V148.497H154.365V149.413H153.847V147.174H154.365V148.058H155.377V147.174H155.879Z" fill="white"/>
<path d="M156.286 148.289C156.272 148.044 156.332 147.8 156.457 147.589C156.583 147.378 156.769 147.21 156.992 147.106C157.215 147.002 157.463 146.967 157.706 147.006C157.948 147.045 158.174 147.156 158.353 147.324C158.531 147.492 158.656 147.711 158.709 147.95C158.763 148.19 158.743 148.44 158.652 148.669C158.562 148.897 158.405 149.093 158.202 149.232C157.999 149.37 157.759 149.444 157.513 149.445C157.356 149.453 157.199 149.43 157.05 149.376C156.902 149.322 156.767 149.238 156.652 149.13C156.537 149.022 156.446 148.892 156.383 148.747C156.32 148.603 156.287 148.447 156.286 148.289ZM158.215 148.289C158.212 148.151 158.168 148.017 158.089 147.904C158.01 147.791 157.899 147.703 157.771 147.653C157.643 147.602 157.502 147.59 157.367 147.619C157.232 147.648 157.109 147.716 157.012 147.815C156.916 147.913 156.851 148.038 156.825 148.174C156.799 148.31 156.814 148.45 156.867 148.577C156.921 148.704 157.011 148.813 157.126 148.889C157.241 148.965 157.375 149.006 157.513 149.006C157.608 149.01 157.702 148.993 157.79 148.958C157.877 148.923 157.957 148.87 158.023 148.803C158.089 148.735 158.14 148.655 158.173 148.566C158.206 148.478 158.22 148.383 158.215 148.289Z" fill="white"/>
<path d="M159.131 147.174H159.649V148.991H160.765V149.413H159.171L159.131 147.174Z" fill="white"/>
<path d="M161.06 147.174H162.072C162.227 147.161 162.383 147.18 162.53 147.23C162.677 147.281 162.812 147.361 162.926 147.466C163.041 147.571 163.132 147.699 163.195 147.842C163.257 147.984 163.29 148.138 163.29 148.293C163.29 148.449 163.257 148.603 163.195 148.745C163.132 148.888 163.041 149.015 162.926 149.121C162.812 149.226 162.677 149.306 162.53 149.357C162.383 149.407 162.227 149.426 162.072 149.413H161.06V147.174ZM162.048 148.983C162.144 148.993 162.242 148.983 162.335 148.953C162.427 148.923 162.513 148.874 162.585 148.809C162.658 148.744 162.715 148.665 162.755 148.576C162.795 148.487 162.815 148.391 162.815 148.293C162.815 148.196 162.795 148.1 162.755 148.011C162.715 147.922 162.658 147.843 162.585 147.778C162.513 147.713 162.427 147.664 162.335 147.634C162.242 147.604 162.144 147.594 162.048 147.604H161.578V148.983H162.048Z" fill="white"/>
<path d="M165.443 148.999V149.413H163.713V147.174H165.395V147.588H164.223V148.074H165.259V148.481H164.223V148.999H165.443Z" fill="white"/>
<path d="M167.267 149.413L166.836 148.791H166.366V149.413H165.848V147.174H166.812C167.41 147.174 167.785 147.485 167.785 147.971C167.792 148.122 167.752 148.271 167.668 148.397C167.585 148.523 167.464 148.619 167.322 148.672L167.824 149.397L167.267 149.413ZM166.78 147.596H166.366V148.393H166.78C167.099 148.393 167.259 148.242 167.259 148.003C167.259 147.764 167.099 147.596 166.78 147.596Z" fill="white"/>
<path d="M175.108 154.967H144.349C143.689 154.967 143.154 155.502 143.154 156.162V156.64C143.154 157.3 143.689 157.835 144.349 157.835H175.108C175.768 157.835 176.303 157.3 176.303 156.64V156.162C176.303 155.502 175.768 154.967 175.108 154.967Z" fill="white"/>
<path d="M229.893 154.967H213.868C213.208 154.967 212.673 155.502 212.673 156.162V156.64C212.673 157.3 213.208 157.835 213.868 157.835H229.893C230.553 157.835 231.088 157.3 231.088 156.64V156.162C231.088 155.502 230.553 154.967 229.893 154.967Z" fill="white"/>
<g opacity="0.2">
<path d="M238.266 100.381H136.795C135.839 100.381 134.923 100.76 134.248 101.436C133.572 102.111 133.193 103.027 133.193 103.983V122.183C139.608 126.653 148.405 127.442 156.222 125.809C165.434 123.88 173.753 119.171 182.351 115.314C190.949 111.457 200.352 108.357 209.627 109.943C218.393 111.449 225.835 116.9 233.748 120.932C236.348 122.268 239.067 123.362 241.868 124.199V103.983C241.868 103.027 241.489 102.111 240.813 101.436C240.138 100.76 239.222 100.381 238.266 100.381Z" fill="white"/>
</g>
<path d="M157.052 196.188H142.087C138.43 196.188 135.465 199.152 135.465 202.809V217.774C135.465 221.431 138.43 224.396 142.087 224.396H157.052C160.709 224.396 163.674 221.431 163.674 217.774V202.809C163.674 199.152 160.709 196.188 157.052 196.188Z" fill="#FF735D"/>
<path d="M152.35 214.612H146.19C146.109 214.612 146.03 214.584 145.966 214.534C145.902 214.483 145.857 214.412 145.839 214.333L143.552 205.256H141.417C141.369 205.257 141.322 205.249 141.277 205.231C141.233 205.214 141.192 205.188 141.158 205.154C141.124 205.121 141.097 205.081 141.078 205.037C141.06 204.993 141.05 204.946 141.05 204.898C141.05 204.85 141.06 204.802 141.078 204.758C141.097 204.713 141.124 204.673 141.158 204.639C141.192 204.605 141.232 204.578 141.277 204.559C141.321 204.541 141.369 204.531 141.417 204.531H143.807C143.889 204.531 143.968 204.559 144.032 204.609C144.095 204.66 144.14 204.731 144.158 204.81L146.469 213.902H152.35C152.447 213.902 152.54 213.941 152.609 214.01C152.678 214.078 152.716 214.172 152.716 214.269C152.716 214.366 152.678 214.459 152.609 214.528C152.54 214.597 152.447 214.635 152.35 214.635V214.612Z" fill="white"/>
<path d="M147.354 217.504C147.992 217.504 148.51 216.987 148.51 216.349C148.51 215.711 147.992 215.193 147.354 215.193C146.716 215.193 146.199 215.711 146.199 216.349C146.199 216.987 146.716 217.504 147.354 217.504Z" fill="#FF735D"/>
<path d="M147.355 217.886C147.053 217.886 146.759 217.797 146.509 217.629C146.259 217.462 146.064 217.224 145.948 216.946C145.833 216.668 145.803 216.362 145.862 216.067C145.92 215.772 146.065 215.5 146.278 215.288C146.491 215.075 146.762 214.93 147.058 214.871C147.353 214.812 147.659 214.842 147.937 214.958C148.215 215.073 148.453 215.268 148.62 215.518C148.787 215.769 148.877 216.063 148.877 216.364C148.878 216.564 148.839 216.762 148.763 216.947C148.687 217.133 148.575 217.301 148.433 217.442C148.292 217.584 148.123 217.696 147.938 217.772C147.753 217.848 147.555 217.887 147.355 217.886ZM147.355 215.575C147.197 215.575 147.043 215.622 146.912 215.709C146.781 215.797 146.679 215.921 146.618 216.067C146.558 216.212 146.542 216.373 146.573 216.527C146.604 216.682 146.68 216.824 146.791 216.935C146.903 217.047 147.044 217.123 147.199 217.153C147.354 217.184 147.514 217.168 147.659 217.108C147.805 217.048 147.93 216.946 148.017 216.814C148.105 216.683 148.151 216.529 148.151 216.372C148.153 216.266 148.134 216.16 148.095 216.062C148.056 215.963 147.998 215.874 147.924 215.798C147.849 215.722 147.761 215.662 147.663 215.621C147.565 215.58 147.461 215.559 147.355 215.559V215.575Z" fill="white"/>
<path d="M153.769 217.504C154.407 217.504 154.925 216.987 154.925 216.349C154.925 215.711 154.407 215.193 153.769 215.193C153.131 215.193 152.614 215.711 152.614 216.349C152.614 216.987 153.131 217.504 153.769 217.504Z" fill="#FF735D"/>
<path d="M153.769 217.886C153.468 217.886 153.173 217.797 152.923 217.629C152.673 217.462 152.478 217.224 152.362 216.946C152.247 216.668 152.217 216.362 152.276 216.067C152.335 215.772 152.48 215.5 152.692 215.288C152.905 215.075 153.176 214.93 153.472 214.871C153.767 214.812 154.073 214.842 154.351 214.958C154.629 215.073 154.867 215.268 155.034 215.518C155.201 215.769 155.291 216.063 155.291 216.364C155.291 216.564 155.251 216.762 155.175 216.946C155.098 217.131 154.986 217.299 154.845 217.44C154.703 217.581 154.536 217.693 154.351 217.77C154.166 217.846 153.968 217.886 153.769 217.886ZM153.769 215.575C153.611 215.575 153.457 215.622 153.326 215.709C153.195 215.797 153.093 215.921 153.032 216.067C152.972 216.212 152.956 216.373 152.987 216.527C153.018 216.682 153.094 216.824 153.205 216.935C153.317 217.047 153.459 217.123 153.613 217.153C153.768 217.184 153.928 217.168 154.074 217.108C154.219 217.048 154.344 216.946 154.431 216.814C154.519 216.683 154.565 216.529 154.565 216.372C154.568 216.266 154.549 216.16 154.509 216.062C154.47 215.963 154.412 215.874 154.338 215.798C154.264 215.722 154.175 215.662 154.077 215.621C153.98 215.58 153.875 215.559 153.769 215.559V215.575Z" fill="white"/>
<path d="M154.766 212.938H146C145.903 212.938 145.81 212.899 145.741 212.83C145.672 212.762 145.634 212.668 145.634 212.571C145.634 212.474 145.672 212.381 145.741 212.312C145.81 212.243 145.903 212.205 146 212.205H154.487L155.451 206.77H144.375C144.322 206.778 144.269 206.774 144.219 206.76C144.168 206.745 144.121 206.72 144.081 206.685C144.041 206.651 144.009 206.608 143.987 206.56C143.965 206.512 143.954 206.46 143.954 206.408C143.954 206.355 143.965 206.303 143.987 206.255C144.009 206.207 144.041 206.164 144.081 206.13C144.121 206.096 144.168 206.07 144.219 206.055C144.269 206.041 144.322 206.037 144.375 206.045H155.881C155.934 206.044 155.987 206.055 156.035 206.077C156.083 206.099 156.126 206.132 156.16 206.172C156.196 206.213 156.222 206.262 156.236 206.314C156.249 206.367 156.251 206.422 156.24 206.475L155.148 212.635C155.133 212.724 155.085 212.803 155.014 212.859C154.944 212.915 154.855 212.943 154.766 212.938Z" fill="white"/>
<path d="M227.415 201.145H175.874C174.303 201.145 173.029 202.418 173.029 203.989V205.113C173.029 206.684 174.303 207.958 175.874 207.958H227.415C228.986 207.958 230.259 206.684 230.259 205.113V203.989C230.259 202.418 228.986 201.145 227.415 201.145Z" fill="#E1E1E1"/>
<path d="M199.118 214.531H175.874C174.303 214.531 173.029 215.805 173.029 217.376V218.5C173.029 220.071 174.303 221.344 175.874 221.344H199.118C200.689 221.344 201.963 220.071 201.963 218.5V217.376C201.963 215.805 200.689 214.531 199.118 214.531Z" fill="#E1E1E1"/>
<path d="M254.045 185.566C254.045 185.67 224.267 185.758 187.532 185.758C150.797 185.758 121.018 185.67 121.018 185.566C121.018 185.463 150.789 185.367 187.532 185.367C224.275 185.367 254.045 185.455 254.045 185.566Z" fill="#E1E1E1"/>
<path d="M219.398 235.711H157.084C150.333 235.711 144.86 241.184 144.86 247.935V252.74C144.86 259.491 150.333 264.964 157.084 264.964H219.398C226.149 264.964 231.622 259.491 231.622 252.74V247.935C231.622 241.184 226.149 235.711 219.398 235.711Z" fill="#FF735D"/>
<path d="M186.527 248.963C186.527 250.429 185.419 251.353 183.658 251.353H182.534V253.043H180.702V246.572H183.658C185.419 246.572 186.527 247.473 186.527 248.963ZM184.686 248.963C184.686 248.357 184.303 248.007 183.546 248.007H182.534V249.903H183.546C184.303 249.895 184.686 249.545 184.686 248.963Z" fill="white"/>
<path d="M191.42 251.768H188.686L188.184 253.019H186.32L189.165 246.564H190.942L193.802 253.019H191.906L191.42 251.768ZM190.886 250.421L190.089 248.349L189.252 250.421H190.886Z" fill="white"/>
<path d="M197.404 250.708V253.019H195.572V250.676L193.109 246.572H195.038L196.568 249.138L198.114 246.572H199.883L197.404 250.708Z" fill="white"/>
<path d="M142.681 72.9537C143.398 69.9261 141.525 66.8902 138.498 66.1728C135.47 65.4555 132.434 67.3283 131.717 70.3559C131 73.3835 132.872 76.4194 135.9 77.1368C138.928 77.8542 141.963 75.9814 142.681 72.9537Z" fill="#FF735D"/>
<path d="M206.56 68.7539H168.502C167.362 68.7539 166.438 69.6779 166.438 70.8178V71.6306C166.438 72.7704 167.362 73.6944 168.502 73.6944H206.56C207.7 73.6944 208.624 72.7704 208.624 71.6306V70.8178C208.624 69.6779 207.7 68.7539 206.56 68.7539Z" fill="#E1E1E1"/>
<path d="M235.565 273.395H149.449V279.148H235.565V273.395Z" fill="#FF9C30"/>
<path d="M153.489 276.271C154.286 276.526 164.334 276.526 164.334 296.448C164.334 316.369 163.832 341.072 174.423 341.869C185.013 342.666 240.737 341.869 240.737 341.869V291.842C240.737 287.839 239.152 283.999 236.328 281.162C233.504 278.324 229.671 276.721 225.668 276.702L153.489 276.271Z" fill="#FAFAFA"/>
<path d="M153.489 276.272L195.372 276.399L216.632 276.479H222.457C224.468 276.403 226.481 276.504 228.474 276.782C230.53 277.175 232.484 277.988 234.211 279.173C235.981 280.386 237.479 281.955 238.61 283.778C239.77 285.651 240.512 287.752 240.785 289.938C240.902 291.042 240.947 292.152 240.92 293.261V296.608C240.92 301.091 240.92 305.668 240.92 310.338V342.029H240.729C221.238 342.26 202.703 342.435 185.866 342.307C183.762 342.307 181.682 342.252 179.626 342.204C177.595 342.199 175.566 342.09 173.546 341.877C172.551 341.658 171.617 341.22 170.813 340.594C170.053 339.955 169.392 339.205 168.853 338.371C167.856 336.732 167.099 334.958 166.606 333.104C165.678 329.605 165.078 326.028 164.813 322.418C164.502 318.952 164.366 315.621 164.295 312.449C164.127 306.074 164.255 300.345 164.183 295.309C164.111 290.273 163.299 285.93 161.745 282.75C161.071 281.336 160.16 280.048 159.051 278.941C158.213 278.158 157.252 277.517 156.207 277.045C155.326 276.693 154.413 276.426 153.481 276.248L154.199 276.36C154.898 276.482 155.582 276.679 156.239 276.949C157.301 277.414 158.278 278.052 159.131 278.838C160.26 279.943 161.19 281.234 161.88 282.655C163.474 285.842 164.271 290.241 164.398 295.277C164.526 300.313 164.398 306.066 164.566 312.417C164.653 315.605 164.797 318.912 165.108 322.362C165.383 325.951 165.988 329.507 166.916 332.984C167.399 334.809 168.145 336.554 169.132 338.164C169.652 338.968 170.288 339.69 171.02 340.307C171.787 340.897 172.674 341.31 173.618 341.519C175.546 341.781 177.602 341.758 179.634 341.829C181.666 341.901 183.762 341.909 185.866 341.917C202.703 342.036 221.238 341.845 240.721 341.614L240.53 341.805V310.322C240.53 305.663 240.53 301.086 240.53 296.592V293.245C240.56 292.152 240.517 291.058 240.403 289.97C240.019 286.833 238.649 283.899 236.491 281.591C234.333 279.283 231.498 277.719 228.394 277.125C226.427 276.853 224.441 276.752 222.457 276.822L216.656 276.782L195.508 276.615L153.489 276.272Z" fill="#FF9C30"/>
<path d="M174.71 341.829C174.71 341.829 183.428 341.829 185.293 328.976C187.524 313.652 185.293 300.225 197.142 299.723C208.991 299.221 240.77 299.723 240.77 299.723V341.829H174.71Z" fill="#E1E1E1"/>
<path d="M195.66 299.875C195.66 299.875 205.222 298.712 205.222 314.601C205.222 330.49 205.477 340.993 216.067 342.172C226.657 343.352 291.705 342.172 291.705 342.172C291.705 342.172 281.346 337.296 280.612 322.92C279.879 308.545 276.827 299.812 266.492 299.501C256.157 299.19 195.66 299.875 195.66 299.875Z" fill="#FAFAFA"/>
<path d="M195.66 299.875H196.297L198.178 299.835L205.421 299.723L232.084 299.428L250.516 299.301H260.795C262.564 299.301 264.357 299.301 266.174 299.349C268.042 299.363 269.892 299.72 271.632 300.4C273.396 301.179 274.923 302.408 276.063 303.962C277.207 305.55 278.091 307.309 278.684 309.174C279.806 313.019 280.472 316.983 280.669 320.983C280.74 321.995 280.788 323.023 280.9 324.027L281.051 325.549L281.338 327.063L281.481 327.82L281.689 328.561L282.111 330.051C282.454 331.027 282.853 331.982 283.306 332.912C285.132 336.745 288.092 339.925 291.785 342.02L292.446 342.387H291.705H289.904C272.445 342.674 255.807 342.865 240.682 342.857C233.112 342.857 225.925 342.857 219.167 342.538C217.506 342.499 215.85 342.32 214.219 342.004C212.635 341.646 211.163 340.904 209.932 339.845C208.779 338.799 207.87 337.512 207.27 336.076C206.69 334.717 206.262 333.298 205.995 331.844C205.525 329.159 205.259 326.442 205.198 323.716C205.095 321.143 205.095 318.704 205.087 316.433C205.087 315.302 205.087 314.202 205.039 313.15C205.039 312.624 205.039 312.106 204.967 311.604C204.896 311.102 204.848 310.616 204.784 310.13C204.784 309.891 204.728 309.652 204.696 309.421C204.664 309.19 204.593 308.959 204.545 308.736C204.441 308.281 204.346 307.835 204.242 307.405L203.828 306.186C203.756 305.986 203.692 305.787 203.621 305.596L203.35 305.054C202.785 303.761 201.928 302.615 200.848 301.707C199.57 300.614 197.968 299.97 196.289 299.875C196.074 299.875 195.915 299.875 195.803 299.875H195.644C195.644 299.875 195.692 299.875 195.803 299.875C195.965 299.865 196.128 299.865 196.289 299.875C196.933 299.889 197.572 299.993 198.186 300.185C199.194 300.472 200.129 300.972 200.927 301.651C202.027 302.569 202.904 303.725 203.493 305.03C204.991 307.923 205.334 311.955 205.31 316.473C205.31 318.744 205.31 321.174 205.445 323.748C205.506 326.461 205.772 329.164 206.242 331.836C206.512 333.265 206.937 334.66 207.509 335.996C208.098 337.39 208.984 338.639 210.107 339.654C211.302 340.678 212.73 341.395 214.267 341.741C215.881 342.043 217.517 342.213 219.159 342.251C225.877 342.522 233.064 342.53 240.627 342.538C255.767 342.538 272.381 342.323 289.84 342.036H291.641L291.562 342.411C287.79 340.274 284.767 337.031 282.9 333.119C282.44 332.171 282.036 331.197 281.689 330.203L281.258 328.689L281.043 327.94L280.9 327.143L280.613 325.613L280.461 324.075C280.35 323.039 280.302 322.027 280.23 321.015C280.04 317.044 279.382 313.11 278.27 309.293C277.695 307.469 276.834 305.748 275.72 304.193C274.614 302.69 273.137 301.498 271.433 300.735C269.734 300.079 267.931 299.731 266.11 299.707C264.293 299.667 262.5 299.659 260.739 299.651H250.524L232.092 299.731L205.421 299.898L198.178 299.938H196.297L195.66 299.875Z" fill="#FF9C30"/>
<path d="M198.178 299.85C198.178 299.898 197.381 299.85 196.067 300.001C194.158 300.268 192.384 301.133 190.999 302.472C189.214 304.129 187.891 306.83 187.229 309.962C186.568 313.094 186.504 316.688 186.345 320.417C186.295 323.947 185.886 327.464 185.126 330.911C184.73 332.408 184.196 333.864 183.532 335.262C182.994 336.499 182.304 337.664 181.476 338.729C180.775 339.605 179.909 340.336 178.926 340.88C178.172 341.26 177.367 341.529 176.536 341.677C176.01 341.775 175.477 341.823 174.942 341.82C174.759 341.843 174.575 341.843 174.392 341.82C174.571 341.787 174.752 341.766 174.934 341.757C175.457 341.724 175.976 341.652 176.488 341.542C177.292 341.363 178.067 341.074 178.791 340.681C179.732 340.131 180.56 339.406 181.229 338.545C182.026 337.489 182.69 336.338 183.205 335.119C183.834 333.732 184.338 332.292 184.711 330.816C185.448 327.389 185.843 323.898 185.891 320.393C186.05 316.672 186.098 313.078 186.815 309.882C187.532 306.687 188.887 303.938 190.744 302.265C192.181 300.917 194.019 300.077 195.979 299.874C196.283 299.835 196.589 299.814 196.895 299.81C197.118 299.798 197.342 299.798 197.565 299.81C197.77 299.801 197.976 299.814 198.178 299.85Z" fill="#FF9C30"/>
<path d="M229.908 287.818C229.908 287.922 217.692 288.01 202.623 288.01C187.555 288.01 175.331 287.922 175.331 287.818C175.331 287.715 187.547 287.619 202.623 287.619C217.7 287.619 229.908 287.707 229.908 287.818Z" fill="#E1E1E1"/>
<path d="M231.031 295.979C231.031 296.082 219.222 296.17 204.647 296.17C190.073 296.17 178.263 296.082 178.263 295.979C178.263 295.875 190.073 295.779 204.647 295.779C219.222 295.779 231.031 295.827 231.031 295.979Z" fill="#E1E1E1"/>
<path d="M268.238 311.725C268.238 311.828 256.022 311.916 240.953 311.916C225.885 311.916 213.661 311.828 213.661 311.725C213.661 311.621 225.877 311.525 240.953 311.525C256.03 311.525 268.238 311.613 268.238 311.725Z" fill="#E1E1E1"/>
<path d="M268.922 321.191C268.922 321.303 257.71 321.39 243.893 321.39C230.075 321.39 218.855 321.303 218.855 321.191C218.855 321.08 230.059 321 243.893 321C257.726 321 268.922 321.088 268.922 321.191Z" fill="#E1E1E1"/>
<path d="M223.319 109.936H218.004C216.692 109.936 215.629 110.999 215.629 112.31V117.625C215.629 118.937 216.692 120 218.004 120H223.319C224.63 120 225.693 118.937 225.693 117.625V112.31C225.693 110.999 224.63 109.936 223.319 109.936Z" fill="white"/>
<path d="M37.4186 98.8914L32.4303 98.2858C28.4617 100.939 23.6444 102.011 18.9251 101.293C14.2058 100.575 9.92572 98.1179 6.92586 94.4046C3.926 90.6913 2.42329 85.9904 2.71301 81.2256C3.00274 76.4607 5.06394 71.9765 8.4916 68.6541C11.9193 65.3316 16.4655 63.4112 21.2371 63.2701C26.0086 63.129 30.6604 64.7775 34.2784 67.8916C37.8964 71.0057 40.2189 75.3603 40.7897 80.0997C41.3604 84.8391 40.1381 89.6206 37.3628 93.5046L37.4186 98.8914Z" fill="white"/>
<path d="M37.4204 98.8912C37.4204 98.8912 37.4204 98.7637 37.4204 98.5246C37.4204 98.2856 37.4204 97.935 37.4204 97.4887C37.4204 96.5644 37.3806 95.2336 37.3487 93.5045L37.4603 93.5602C37.4543 93.567 37.4469 93.5724 37.4387 93.5762C37.4304 93.5799 37.4215 93.5818 37.4125 93.5818C37.4034 93.5818 37.3945 93.5799 37.3862 93.5762C37.378 93.5724 37.3706 93.567 37.3646 93.5602C37.355 93.5477 37.3497 93.5323 37.3497 93.5164C37.3497 93.5005 37.355 93.4851 37.3646 93.4726C39.1624 90.947 40.3142 88.0196 40.7194 84.9462C40.9819 82.9368 40.9281 80.8988 40.56 78.906C40.1277 76.6495 39.2908 74.4898 38.0898 72.5312C36.7463 70.3705 34.992 68.4943 32.9262 67.009C30.6986 65.3844 28.1371 64.2765 25.4277 63.7658C22.5463 63.2389 19.5832 63.3669 16.7579 64.1403C13.7925 64.9617 11.0785 66.509 8.8611 68.6425C7.71941 69.7166 6.71323 70.9262 5.86493 72.2443C5.48244 72.9137 5.06807 73.5751 4.75729 74.2604L4.30309 75.3202L4.07997 75.8381L3.91263 76.388C2.97401 79.2091 2.70127 82.2092 3.11577 85.1534C3.50687 87.8798 4.50044 90.4849 6.0243 92.7793C7.43915 94.9203 9.26465 96.7593 11.3951 98.19C13.3355 99.4789 15.4964 100.4 17.77 100.907L19.3637 101.186C19.8816 101.266 20.3996 101.274 20.9096 101.322C21.884 101.386 22.8622 101.37 23.834 101.274C26.8816 100.957 29.8085 99.9135 32.3684 98.2298L36.0498 98.7159L37.014 98.8434L37.3487 98.8992H37.0379L36.0817 98.7956L32.4241 98.3573H32.4719C29.8906 100.116 26.9155 101.21 23.8101 101.545C22.8262 101.657 21.8341 101.681 20.8458 101.616C20.3358 101.616 19.8099 101.569 19.2521 101.489L17.6584 101.218C15.3646 100.704 13.183 99.7778 11.2198 98.4848C9.05204 97.0386 7.19157 95.1782 5.7454 93.0104C4.16439 90.6616 3.13219 87.9872 2.72531 85.1853C2.30914 82.2016 2.58173 79.1623 3.52217 76.3003L3.69748 75.7505L3.9206 75.2086C4.072 74.858 4.23137 74.4994 4.38277 74.1408C4.71745 73.4396 5.12385 72.7623 5.51431 72.077C6.38057 70.7392 7.40237 69.5087 8.5583 68.4114C10.8184 66.2447 13.5811 64.673 16.5986 63.8375C19.4757 63.0468 22.495 62.9215 25.4277 63.4709C28.1824 63.9897 30.7856 65.1198 33.0457 66.7779C35.142 68.2902 36.9186 70.2021 38.2731 72.4037C39.4868 74.4029 40.3265 76.6062 40.7513 78.906C41.1137 80.9241 41.1567 82.9865 40.8788 85.0179C40.4479 88.1105 39.263 91.0496 37.4284 93.5762L37.3248 93.4805C37.3308 93.4738 37.3381 93.4683 37.3464 93.4646C37.3546 93.4609 37.3636 93.459 37.3726 93.459C37.3817 93.459 37.3906 93.4609 37.3988 93.4646C37.4071 93.4683 37.4144 93.4738 37.4204 93.4805C37.4204 95.2257 37.4204 96.5723 37.4204 97.5047V98.5326C37.4284 98.7796 37.4204 98.8912 37.4204 98.8912Z" fill="#FF9C30"/>
<path d="M13.3701 83.544L15.7687 80.9782L20.7012 85.066L29.7854 75.7109L32.1759 78.1095L20.5099 89.8631L13.3701 83.544Z" fill="#FF735D"/>
<path d="M55.564 74.4928C56.1192 70.8964 58.0082 67.6409 60.8551 65.3743C63.702 63.1077 67.2981 61.9962 70.9274 62.2611L71.6685 62.3169C79.7008 63.3767 83.2867 70.7795 82.0276 78.7799L79.2068 107.124L79.0713 112.989L59.9467 114.726L60.3611 102.343C60.3611 102.343 52.6953 100.574 53.1894 92.8205C53.4045 89.0992 54.4962 81.4255 55.564 74.4928Z" fill="#FFC19D"/>
<path d="M60.3062 102.343C63.9017 102.607 67.4975 101.833 70.6653 100.111C70.6653 100.111 67.9719 105.689 60.3062 104.446V102.343Z" fill="#FF9C6A"/>
<path d="M58.5684 82.2125C58.5439 82.5014 58.6336 82.7885 58.8184 83.0119C59.0031 83.2354 59.2682 83.3776 59.5565 83.4078C59.6965 83.4291 59.8393 83.4222 59.9765 83.3874C60.1138 83.3526 60.2426 83.2907 60.3555 83.2053C60.4684 83.1198 60.5631 83.0127 60.6339 82.8901C60.7047 82.7674 60.7502 82.6319 60.7678 82.4914C60.7923 82.2025 60.7025 81.9155 60.5178 81.692C60.333 81.4685 60.068 81.3264 59.7797 81.2961C59.6398 81.2759 59.4974 81.2837 59.3606 81.3189C59.2238 81.3541 59.0953 81.4162 58.9827 81.5014C58.87 81.5866 58.7754 81.6934 58.7043 81.8155C58.6332 81.9375 58.587 82.0725 58.5684 82.2125Z" fill="#FF9C30"/>
<path d="M56.9572 78.4364C57.0768 78.5878 57.9613 78.03 59.1566 78.1176C60.3518 78.2053 61.1726 78.8667 61.316 78.7312C61.4595 78.5957 61.2603 78.3965 60.9017 78.0937C60.4117 77.702 59.8142 77.4685 59.1884 77.4244C58.5681 77.3776 57.9489 77.5282 57.4194 77.8547C57.0688 78.0778 56.8935 78.3328 56.9572 78.4364Z" fill="#FF9C30"/>
<path d="M69.7231 83.282C69.7006 83.5705 69.7911 83.8564 69.9755 84.0794C70.1598 84.3024 70.4236 84.4451 70.7112 84.4773C70.851 84.4975 70.9934 84.4897 71.1303 84.4545C71.2671 84.4193 71.3955 84.3572 71.5082 84.272C71.6208 84.1868 71.7154 84.08 71.7865 83.958C71.8577 83.8359 71.9038 83.7009 71.9224 83.5609C71.9469 83.272 71.8572 82.9849 71.6725 82.7615C71.4877 82.538 71.2227 82.3958 70.9343 82.3656C70.7944 82.3443 70.6515 82.3512 70.5143 82.386C70.3771 82.4208 70.2482 82.4827 70.1353 82.5682C70.0224 82.6536 69.9278 82.7608 69.857 82.8834C69.7862 83.006 69.7406 83.1415 69.7231 83.282Z" fill="#FF9C30"/>
<path d="M68.6396 79.4717C68.7671 79.6311 69.6516 79.0733 70.8389 79.1609C72.0262 79.2486 72.8629 79.91 72.9984 79.7745C73.1338 79.639 72.9506 79.4398 72.592 79.137C72.1009 78.742 71.4997 78.5082 70.8708 78.4677C70.2529 78.4198 69.6359 78.5706 69.1097 78.898C68.7193 79.153 68.5758 79.408 68.6396 79.4717Z" fill="#FF9C30"/>
<path d="M63.6772 87.9991C63.0661 87.7538 62.4261 87.5878 61.7728 87.505C61.4699 87.4572 61.1831 87.3775 61.1512 87.1624C61.1486 86.8467 61.2432 86.5379 61.4221 86.2779C61.7568 85.5607 62.1154 84.8117 62.4899 84.0228C63.9721 80.8354 65.0797 78.1739 64.9442 78.1181C64.8088 78.0623 63.5019 80.6122 62.0198 83.8156C61.6532 84.6125 61.3106 85.3615 60.9839 86.0787C60.7676 86.4342 60.683 86.8544 60.7448 87.266C60.7798 87.3759 60.8398 87.4762 60.9199 87.5591C61.0001 87.6421 61.0983 87.7054 61.207 87.7441C61.3726 87.7991 61.5435 87.8365 61.717 87.8557C62.362 87.9842 63.0204 88.0324 63.6772 87.9991Z" fill="#FF9C30"/>
<path d="M67.1182 89.0664C66.9269 89.0664 66.8313 90.3334 65.6599 91.1701C64.4885 92.0068 63.1179 91.7677 63.094 91.967C63.0701 92.1662 63.3889 92.2459 63.9706 92.3016C64.7254 92.3694 65.4797 92.166 66.0982 91.7279C66.6944 91.3081 67.1054 90.6744 67.2456 89.9589C67.3333 89.4011 67.2138 89.0664 67.1182 89.0664Z" fill="#FF9C30"/>
<path d="M68.6717 74.7865C68.7673 75.1212 69.9706 75.0494 71.3492 75.3204C72.7277 75.5913 73.8354 76.0535 74.0425 75.7826C74.1382 75.6471 73.9629 75.3283 73.5325 74.9857C72.9549 74.5535 72.2832 74.2641 71.5723 74.141C70.8637 73.9987 70.1313 74.0288 69.4367 74.2287C68.9108 74.396 68.6319 74.6271 68.6717 74.7865Z" fill="#FF9C30"/>
<path d="M57.6436 74.985C57.8348 75.2719 58.6715 75.0488 59.6596 75.1125C60.6477 75.1763 61.4685 75.4233 61.6836 75.1125C61.7793 74.985 61.6836 74.7061 61.3171 74.4192C60.8567 74.0722 60.2997 73.8772 59.7234 73.8614C59.1426 73.823 58.5647 73.971 58.0739 74.2838C57.6993 74.5786 57.5639 74.8495 57.6436 74.985Z" fill="#FF9C30"/>
<path d="M80.1793 86.2296C80.2086 85.9481 80.2944 85.6753 80.4317 85.4277C80.5689 85.1801 80.7546 84.9628 80.9778 84.7887C81.201 84.6146 81.4571 84.4873 81.7307 84.4145C82.0042 84.3417 82.2896 84.3249 82.5699 84.365C84.0042 84.604 85.5581 85.5443 85.2393 88.5246C84.6895 93.8077 79.494 92.1582 79.502 92.0068C79.5099 91.8554 79.9562 88.4369 80.1793 86.2296Z" fill="#FFC19D"/>
<path d="M80.9195 90.1412C80.9195 90.1412 80.9992 90.2129 81.1506 90.3005C81.3591 90.4172 81.6047 90.4487 81.8359 90.3882C82.2018 90.2093 82.5126 89.935 82.7356 89.5942C82.9586 89.2534 83.0855 88.8587 83.1029 88.4518C83.1664 88.0023 83.1255 87.5443 82.9834 87.1131C82.9544 86.9401 82.8833 86.7769 82.7763 86.6379C82.6693 86.499 82.5297 86.3885 82.3698 86.3163C82.2668 86.2771 82.1534 86.2748 82.0489 86.3097C81.9443 86.3445 81.855 86.4144 81.7961 86.5075C81.7084 86.6509 81.7323 86.7625 81.7084 86.7625C81.6845 86.7625 81.6048 86.6669 81.7084 86.4517C81.7491 86.3233 81.8338 86.2133 81.9475 86.141C82.1064 86.0487 82.2943 86.0203 82.4734 86.0613C82.6853 86.1271 82.8769 86.2457 83.0303 86.406C83.1836 86.5663 83.2936 86.7631 83.3499 86.9777C83.5246 87.4621 83.5793 87.9815 83.5093 88.4917C83.4856 88.9656 83.3214 89.4218 83.0376 89.8021C82.7538 90.1824 82.3632 90.4697 81.9156 90.6273C81.7746 90.6478 81.6308 90.6386 81.4935 90.6001C81.3563 90.5617 81.2286 90.4949 81.1187 90.4041C80.9116 90.2687 80.8956 90.1491 80.9195 90.1412Z" fill="#FF9C6A"/>
<path d="M84.4422 80.8275C84.0039 82.3495 84.1633 84.8596 82.8485 84.517C80.1631 83.8396 80.8085 89.3539 79.5176 88.812C78.2267 88.2702 77.127 86.7083 77.0394 83.3217C76.9358 79.0187 78.6729 75.9109 76.9756 70.9864C76.4343 70.0038 75.6493 69.177 74.6962 68.5853C73.7431 67.9936 72.6539 67.657 71.5331 67.6077C70.4026 67.5826 69.2845 67.8477 68.2856 68.3778C67.2867 68.908 66.4404 69.6854 65.8276 70.6357C65.5886 69.1297 64.8555 66.8666 63.5167 66.1415C62.8477 65.7724 62.0844 65.6096 61.3229 65.6734C60.5615 65.7372 59.8359 66.0248 59.2376 66.5001C58.6711 67.0056 58.3037 67.6967 58.2014 68.449C58.0991 69.2014 58.2688 69.9655 58.6798 70.6039C58.3705 70.6975 58.0393 70.6892 57.7351 70.5802C57.4309 70.4711 57.1698 70.2671 56.9905 69.9983C56.964 70.3496 57.0098 70.7027 57.1249 71.0357C57.24 71.3687 57.422 71.6746 57.6598 71.9346C57.1069 71.7914 56.6236 71.4551 56.2972 70.9864C56.4327 71.6079 56.5682 72.2295 56.6956 72.851C54.4326 72.9068 52.2173 70.7154 51.5878 68.7631C50.6316 65.7988 51.3647 62.8186 53.0221 60.181C53.8337 58.8518 54.9659 57.7475 56.3149 56.9692C57.664 56.191 59.1867 55.7637 60.7437 55.7266C63.8594 55.7266 66.4571 57.2247 67.6604 60.0933C69.6764 58.667 73.7643 58.1729 76.0194 59.1929C77.1423 59.7185 78.1115 60.5234 78.8342 61.5308C79.5569 62.5381 80.009 63.7141 80.1471 64.9462C80.8683 64.6876 81.6452 64.6251 82.3984 64.7651C83.1516 64.9051 83.8541 65.2426 84.4342 65.743L84.7211 65.998C85.513 66.7514 86.101 67.6934 86.4299 68.7358C86.7588 69.7782 86.8179 70.887 86.6017 71.9585C86.4343 72.8191 86.1395 73.7116 85.9642 74.4049C85.3984 76.5006 84.4422 80.8275 84.4422 80.8275Z" fill="#691EDE"/>
<path d="M56.5988 69.8699C56.5334 69.8279 56.4721 69.7799 56.4155 69.7265C56.2526 69.5752 56.1032 69.4099 55.9693 69.2324C55.4753 68.5779 55.1695 67.8009 55.0848 66.9853C55.0098 66.3773 55.0648 65.7602 55.2461 65.175C55.4274 64.5898 55.731 64.0498 56.1366 63.5907C56.6378 63.0283 57.268 62.596 57.9731 62.3309C58.6782 62.0658 59.4371 61.9758 60.1847 62.0687C60.9516 62.188 61.6832 62.4736 62.3282 62.9054C62.9304 63.3046 63.4678 63.7937 63.9219 64.3557C64.6769 65.2907 65.2206 66.3781 65.5156 67.5431C65.7218 68.3224 65.8104 69.1282 65.7786 69.9337C65.7717 70.1527 65.7504 70.3709 65.7148 70.5871C65.7097 70.6634 65.6936 70.7385 65.667 70.8102C65.7462 69.7194 65.6411 68.623 65.3563 67.567C65.0497 66.4281 64.5067 65.3665 63.7625 64.4513C62.8735 63.3053 61.5946 62.5255 60.1687 62.26C59.4586 62.175 58.7384 62.2616 58.0687 62.5125C57.399 62.7635 56.7993 63.1715 56.3199 63.7023C55.9332 64.1316 55.64 64.6367 55.4589 65.1854C55.2778 65.7341 55.2128 66.3145 55.2681 66.8897C55.3449 67.683 55.6188 68.4445 56.0649 69.105C56.3677 69.6707 56.6147 69.846 56.5988 69.8699Z" fill="#375A64"/>
<path d="M55.563 72.2369C55.4999 72.1541 55.4439 72.0662 55.3956 71.974C55.3 71.8066 55.1566 71.5516 54.9813 71.1771C54.4739 70.2334 54.0576 69.2435 53.7382 68.2208C53.5272 67.5088 53.412 66.7719 53.3955 66.0294C53.3666 65.1674 53.5214 64.309 53.8497 63.5114C54.2293 62.6282 54.8613 61.8769 55.6665 61.3519C56.5267 60.7899 57.5178 60.4604 58.5432 60.3957C59.5643 60.3453 60.5847 60.5081 61.5394 60.8738C62.4206 61.2159 63.2453 61.6886 63.9857 62.2762C65.2847 63.2363 66.2267 64.6018 66.6632 66.1569C66.9393 67.2099 66.8865 68.3223 66.5118 69.3443C66.4052 69.6223 66.2718 69.8892 66.1133 70.1412C66.0627 70.2284 66.0011 70.3087 65.9301 70.3803C66.1235 70.0439 66.2888 69.6921 66.4241 69.3284C66.7584 68.3233 66.7861 67.2416 66.5038 66.2207C66.0571 64.7135 65.1276 63.3948 63.8582 62.4675C62.366 61.2485 60.4853 60.6065 58.5591 60.6586C57.5741 60.7158 56.6211 61.029 55.794 61.567C55.0222 62.0651 54.415 62.7804 54.0489 63.6229C53.7331 64.3798 53.5758 65.1934 53.5868 66.0135C53.5977 66.7436 53.7021 67.4694 53.8975 68.173C54.201 69.1881 54.5929 70.1747 55.0689 71.1213L55.4434 71.9182C55.5231 72.1333 55.563 72.229 55.563 72.2369Z" fill="#375A64"/>
<path d="M82.5693 77.4167C82.5693 77.4167 83.0554 77.0183 83.7009 76.2533C84.5455 75.2615 85.127 74.073 85.3916 72.7974C85.6562 71.5218 85.5954 70.2001 85.2149 68.9541C84.928 67.9979 84.5933 67.464 84.6332 67.4401C84.673 67.4162 84.7447 67.5596 84.8802 67.8066C85.0786 68.156 85.2414 68.5244 85.3663 68.9063C85.8015 70.1721 85.8895 71.5314 85.6213 72.8428C85.3416 74.1549 84.7204 75.3699 83.8204 76.3649C83.5521 76.6585 83.2559 76.9254 82.9359 77.1617C82.8255 77.2625 82.7022 77.3482 82.5693 77.4167Z" fill="#375A64"/>
<path d="M77.7881 77.2657C77.7881 77.2657 78.051 77.1461 78.4734 76.8593C79.0524 76.4576 79.5122 75.9069 79.8041 75.2655L80.0272 74.7635L79.9794 75.3134C79.9077 76.0544 79.836 76.9071 79.7484 77.8474L79.581 77.7438C80.2522 77.2834 80.8374 76.7089 81.3102 76.0465C81.905 75.2186 82.3079 74.2686 82.4895 73.2654C82.6384 72.4407 82.6384 71.596 82.4895 70.7713C82.3316 70.0152 82.08 69.2817 81.7405 68.5879C81.7405 68.5879 81.7405 68.5879 81.8441 68.7154C81.9298 68.8458 82.0069 68.9815 82.0752 69.1218C82.3376 69.6254 82.5331 70.1612 82.6569 70.7155C82.833 71.5572 82.8546 72.424 82.7206 73.2734C82.5636 74.2097 82.2159 75.1037 81.6991 75.9001C81.1824 76.6965 80.5075 77.3783 79.7165 77.9031L79.5173 78.0386V77.7995C79.6209 76.8752 79.7085 76.0146 79.7882 75.2735H79.9635C79.6465 75.9327 79.1456 76.4862 78.5212 76.8672C78.3493 76.9718 78.1679 77.0598 77.9793 77.1302C77.9259 77.1884 77.8607 77.2346 77.7881 77.2657Z" fill="#375A64"/>
<path d="M76.2815 66.1164C75.9825 65.5294 75.5678 65.009 75.0624 64.5864C74.5061 64.1456 73.8535 63.8425 73.1579 63.7019C72.3027 63.5457 71.4211 63.6256 70.6079 63.933C69.7894 64.233 69.0564 64.7281 68.4723 65.3753C67.9949 65.9036 67.6073 66.5066 67.3249 67.1603C67.0845 67.7772 66.89 68.4111 66.7432 69.0568C66.7236 68.8794 66.7236 68.7003 66.7432 68.5229C66.8198 68.0344 66.9508 67.5559 67.1336 67.0965C67.4047 66.4147 67.7901 65.7841 68.2731 65.2319C68.8765 64.5516 69.637 64.0291 70.4884 63.7099C71.3406 63.3907 72.2645 63.3135 73.1579 63.4868C73.8839 63.6441 74.5599 63.978 75.1261 64.4589C75.5043 64.7793 75.818 65.1687 76.0505 65.6064C76.1145 65.7263 76.1678 65.8516 76.2098 65.9809C76.2815 66.0686 76.2895 66.1084 76.2815 66.1164Z" fill="#375A64"/>
<path d="M75.0457 62.076C74.5826 61.833 74.0934 61.6432 73.5875 61.5103C72.3533 61.2417 71.0638 61.4255 69.9538 62.0282C68.8567 62.6516 67.9629 63.5785 67.38 64.6977C66.9178 65.5583 66.7744 66.148 66.7266 66.14C66.7393 65.9963 66.7688 65.8546 66.8142 65.7177C66.9178 65.3416 67.0565 64.9761 67.2286 64.626C67.7914 63.445 68.7039 62.4657 69.8423 61.821C70.9992 61.1917 72.3516 61.0237 73.6273 61.3509C74.0067 61.4511 74.3692 61.6069 74.7031 61.8131C74.9422 61.9645 75.0537 62.0601 75.0457 62.076Z" fill="#375A64"/>
<path d="M58.027 311.811L58.5609 326.314C58.5609 326.314 43.9943 331.724 43.835 334.418H71.9959L72.0915 311.787L58.027 311.811Z" fill="#FF9C30"/>
<path d="M67.2627 325.088C67.5347 325.169 67.7667 325.349 67.9139 325.592C68.0611 325.835 68.113 326.123 68.0596 326.402C67.9879 326.676 67.8139 326.911 67.5735 327.059C67.3332 327.207 67.045 327.258 66.7687 327.199C66.4884 327.104 66.2527 326.91 66.1059 326.653C65.9591 326.396 65.9114 326.094 65.9718 325.805C66.0761 325.528 66.2841 325.302 66.5518 325.176C66.8195 325.049 67.1259 325.032 67.4062 325.127" fill="#E1E1E1"/>
<path d="M71.9946 334.394L71.9149 332.115L44.9413 332.992C44.9413 332.992 43.6903 333.534 43.8337 334.418L71.9946 334.394Z" fill="#FF9C30"/>
<path d="M58.0977 326.171C58.0977 326.306 58.7909 326.37 59.4683 326.816C60.1456 327.262 60.5122 327.836 60.6317 327.78C60.7512 327.724 60.552 326.928 59.7233 326.41C58.8945 325.892 58.0738 326.043 58.0977 326.171Z" fill="white"/>
<path d="M55.1504 327.398C55.1504 327.533 55.7162 327.765 56.1783 328.346C56.6405 328.928 56.7839 329.542 56.9194 329.534C57.0549 329.526 57.1425 328.737 56.5529 328.036C55.9632 327.334 55.1504 327.263 55.1504 327.398Z" fill="white"/>
<path d="M53.4762 330.936C53.6037 330.936 53.7869 330.274 53.4762 329.525C53.1654 328.776 52.4801 328.473 52.4243 328.585C52.3685 328.697 52.759 329.103 53.0459 329.724C53.3327 330.346 53.3407 330.92 53.4762 330.936Z" fill="white"/>
<path d="M58.3442 322.855C58.4079 322.975 59.0375 322.791 59.8104 322.855C60.5834 322.919 61.1969 323.15 61.2686 323.038C61.3404 322.927 60.7587 322.425 59.8423 322.377C58.9259 322.329 58.2804 322.743 58.3442 322.855Z" fill="white"/>
<path d="M90.3393 313.143L91.4629 330.673L88.3472 344.786C88.2942 345.027 88.2913 345.276 88.3386 345.518C88.3859 345.76 88.4823 345.989 88.6221 346.193C88.7618 346.396 88.9417 346.568 89.1508 346.699C89.3598 346.83 89.5935 346.916 89.8373 346.953C90.1257 347.001 90.4215 346.979 90.6992 346.887C90.9768 346.796 91.228 346.638 91.431 346.427C94.0049 343.75 103.384 333.853 103.264 332.57C103.081 331.096 103.264 314.011 103.264 314.011L90.3393 313.143Z" fill="#FF9C30"/>
<path d="M89.8364 346.977L103.184 331.414V332.155C103.218 332.797 103.017 333.428 102.618 333.932C101.558 335.295 98.5461 338.968 91.462 346.443C91.2594 346.654 91.0085 346.813 90.7309 346.906C90.4533 346.999 90.1573 347.023 89.8683 346.977H89.8364Z" fill="#FF9C30"/>
<g opacity="0.6">
<path d="M99.3507 325.868C99.1386 326.034 98.9964 326.273 98.9521 326.539C98.9079 326.804 98.9648 327.077 99.1117 327.302C99.2712 327.518 99.5074 327.664 99.7715 327.71C100.036 327.756 100.307 327.698 100.53 327.549C100.75 327.371 100.895 327.118 100.939 326.838C100.984 326.559 100.923 326.273 100.769 326.035C100.582 325.826 100.32 325.698 100.04 325.68C99.7593 325.662 99.4831 325.755 99.271 325.94" fill="white"/>
</g>
<path d="M93.5341 339.112C93.0869 338.585 92.5466 338.144 91.9403 337.813C91.2865 337.58 90.5936 337.477 89.9004 337.51C89.9004 337.47 90.1076 337.319 90.514 337.247C91.0548 337.162 91.6087 337.237 92.1077 337.462C92.606 337.678 93.0299 338.035 93.3269 338.49C93.542 338.841 93.5739 339.096 93.5341 339.112Z" fill="white"/>
<path d="M92.3794 341.519C91.8631 341.255 91.3308 341.024 90.7857 340.826C90.2154 340.742 89.6407 340.691 89.0645 340.675C89.3277 340.496 89.6298 340.382 89.9459 340.343C90.2619 340.304 90.5825 340.341 90.8813 340.452C91.9411 340.714 92.475 341.464 92.3794 341.519Z" fill="white"/>
<path d="M95.7336 336.013C94.9727 335.535 94.173 335.122 93.343 334.778C92.4797 334.548 91.6008 334.38 90.7134 334.276C91.6168 333.993 92.5913 334.041 93.4625 334.411C94.3891 334.651 95.1965 335.221 95.7336 336.013Z" fill="white"/>
<path d="M95.8458 330.65C95.7979 330.761 94.8178 330.395 93.5508 330.403C92.2838 330.411 91.3037 330.753 91.2559 330.642C91.9495 330.227 92.7426 330.008 93.5508 330.008C94.359 330.008 95.1522 330.227 95.8458 330.642V330.65Z" fill="white"/>
<path d="M95.6456 325.501C94.8669 325.286 94.0629 325.176 93.2551 325.174C92.4605 325.296 91.686 325.524 90.9521 325.852C90.9521 325.852 91.1036 325.589 91.502 325.342C92.0233 325.023 92.6136 324.834 93.2232 324.792C93.8344 324.743 94.4486 324.838 95.0161 325.071C95.4544 325.262 95.6695 325.461 95.6456 325.501Z" fill="white"/>
<path d="M93.2543 324.194C93.1875 323.98 93.1711 323.754 93.2065 323.533C93.2374 322.921 93.3919 322.322 93.6607 321.772C93.8261 321.348 94.1291 320.991 94.5213 320.76C94.6518 320.7 94.7972 320.68 94.9391 320.702C95.081 320.725 95.2129 320.79 95.3181 320.887C95.5185 321.104 95.6295 321.389 95.6289 321.684C95.6124 322.276 95.39 322.843 95.0002 323.288C94.6104 323.733 94.0775 324.028 93.4933 324.123C92.9155 324.205 92.3261 324.115 91.7998 323.862C91.2735 323.61 90.834 323.207 90.537 322.704C90.4627 322.576 90.4171 322.434 90.4034 322.287C90.3896 322.139 90.408 321.991 90.4573 321.851C90.52 321.716 90.6239 321.604 90.7541 321.531C90.8843 321.458 91.0342 321.428 91.1825 321.445C91.6185 321.522 92.0258 321.715 92.3618 322.003C92.8536 322.363 93.2773 322.809 93.6129 323.318C93.8519 323.676 93.9316 323.899 93.9077 323.907C93.4252 323.266 92.8506 322.699 92.2024 322.226C91.8992 321.991 91.5439 321.833 91.1665 321.764C91.0849 321.753 91.0021 321.769 90.9304 321.809C90.8586 321.85 90.8017 321.912 90.7681 321.987C90.7429 322.08 90.7377 322.177 90.7528 322.271C90.7679 322.366 90.803 322.457 90.8557 322.537C91.1247 322.965 91.5111 323.307 91.9688 323.521C92.4266 323.736 92.9364 323.815 93.4376 323.748C93.929 323.663 94.3773 323.414 94.7099 323.043C95.0425 322.671 95.24 322.198 95.2703 321.7C95.2723 321.498 95.2048 321.301 95.0791 321.142C95.021 321.084 94.9461 321.044 94.8647 321.03C94.7833 321.016 94.6995 321.027 94.6249 321.063C94.3035 321.265 94.0507 321.559 93.8997 321.907C93.5535 322.626 93.3351 323.4 93.2543 324.194Z" fill="white"/>
<path d="M45.6822 189.198C44.1881 195.186 43.5892 201.363 43.9052 207.526C44.1124 211.423 56.6549 324.194 56.6549 324.194L72.592 322.759L69.8189 217.327L70.4803 217.925C70.4803 217.925 79.9868 262.278 80.6164 269.29C81.1821 275.594 88.7602 326.234 88.7602 326.234L104.243 325.493L100.737 261.489L96.0355 203.374L94.1629 186.449L45.6822 189.198Z" fill="#691EDE"/>
<path d="M72.9119 208.236C72.6769 208.399 72.4226 208.533 72.1549 208.634C71.4527 208.975 70.7075 209.219 69.9396 209.359C69.3992 209.454 68.8464 209.454 68.3061 209.359C67.6704 209.245 67.0827 208.946 66.6167 208.499C66.13 207.986 65.7865 207.354 65.6206 206.666C65.4294 205.973 65.3258 205.248 65.1903 204.522C64.6963 201.582 64.3935 198.905 64.1943 196.96C64.1066 195.988 64.0508 195.199 64.019 194.657C63.9885 194.374 63.9885 194.088 64.019 193.805C64.0996 194.077 64.1504 194.358 64.1704 194.641C64.2501 195.263 64.3457 196.028 64.4572 196.928C64.7043 198.865 65.0708 201.526 65.5649 204.459C65.8199 205.901 65.9792 207.375 66.8637 208.26C67.2752 208.621 67.7617 208.886 68.2881 209.036C68.8145 209.186 69.3677 209.218 69.9077 209.128C70.6593 209.017 71.395 208.816 72.0991 208.531C72.3592 208.405 72.6316 208.306 72.9119 208.236Z" fill="#375A64"/>
<path d="M67.8838 194.379C67.8838 194.379 68.0033 194.283 68.2504 194.275C68.6084 194.278 68.9555 194.399 69.2385 194.618C69.4531 194.782 69.6288 194.991 69.7528 195.231C69.8768 195.471 69.9461 195.735 69.9556 196.005C69.9225 196.34 69.7941 196.659 69.5858 196.924C69.3774 197.189 69.0977 197.389 68.7796 197.5C68.4614 197.612 68.1181 197.63 67.79 197.552C67.4619 197.475 67.1627 197.306 66.9276 197.064C66.7639 196.848 66.6517 196.597 66.5992 196.33C66.5467 196.064 66.5555 195.789 66.6248 195.526C66.7076 195.18 66.9039 194.872 67.1826 194.65C67.3898 194.499 67.5252 194.483 67.5332 194.499C67.2072 194.781 66.9809 195.161 66.8877 195.582C66.8447 195.802 66.8502 196.029 66.9039 196.246C66.9576 196.464 67.0581 196.667 67.1985 196.841C67.3903 197.018 67.6266 197.139 67.882 197.191C68.1374 197.244 68.4023 197.226 68.6481 197.139C68.8939 197.052 69.1114 196.9 69.2772 196.698C69.443 196.497 69.5508 196.255 69.5891 195.997C69.5864 195.775 69.5376 195.556 69.4457 195.355C69.3537 195.153 69.2207 194.973 69.0552 194.825C68.7247 194.551 68.3128 194.394 67.8838 194.379Z" fill="#375A64"/>
<path d="M95.8457 202.332C95.6468 202.392 95.4396 202.418 95.2321 202.412C94.6803 202.451 94.1264 202.451 93.5746 202.412C89.869 202.114 86.3807 200.543 83.7016 197.965C83.301 197.581 82.9257 197.171 82.578 196.738C82.4412 196.585 82.3259 196.413 82.2354 196.228C82.2911 196.188 82.841 196.85 83.8848 197.774C86.6052 200.178 89.9936 201.696 93.5985 202.125C94.9771 202.292 95.8377 202.268 95.8457 202.332Z" fill="#375A64"/>
<path d="M52.8554 194.355C52.6184 194.995 52.2939 195.598 51.8912 196.148C50.9812 197.519 49.9112 198.776 48.7037 199.894C47.4969 201.01 46.159 201.976 44.7195 202.77C44.1392 203.118 43.5147 203.386 42.8628 203.567C42.8628 203.511 43.5322 203.169 44.584 202.515C45.9598 201.662 47.2512 200.681 48.4408 199.583C49.6135 198.479 50.6806 197.268 51.6282 195.965C52.0038 195.404 52.4136 194.866 52.8554 194.355Z" fill="#375A64"/>
<path d="M37.0291 130.654C34.6386 137.571 34.9254 136.981 30.4869 157.644C29.6901 161.453 31.1165 167.413 34.5509 169.254C37.9854 171.095 44.1132 169.079 46.1452 165.756L49.4362 134.567L37.0291 130.654Z" fill="#FFC19D"/>
<path d="M94.196 168.131L94.1084 151.7L94.1721 150.107L110.85 146.17C110.85 146.17 107.575 135.389 104.571 123.794C102.834 117.101 97.0647 113.738 95.6702 113.013L95.3674 112.869L79.3187 106.072C76.0835 109.531 71.3502 112.304 66.8081 110.973C64.2223 110.136 61.9318 108.574 60.2101 106.471L49.3888 110.184C46.261 111.263 43.6179 113.418 41.9302 116.264C39.6592 120.248 32.4317 138.632 32.3042 139.038L45.6994 140.241C45.6994 140.241 43.3088 183.694 44.1694 191.455C44.1694 191.455 47.4206 193.703 55.6282 194.093C72.2745 194.89 97.0647 193.695 97.0647 193.695C96.6822 191.192 96.2678 187.001 96.0447 184.881L94.196 168.131Z" fill="#FF735D"/>
<path d="M46.1292 124.057C46.2009 124.057 45.8423 134.416 45.3323 147.165C44.8223 159.915 44.3601 170.274 44.2884 170.274C44.2167 170.274 44.5753 159.915 45.0853 147.165C45.5953 134.416 46.0654 124.057 46.1292 124.057Z" fill="#FF9C30"/>
<path d="M92.3625 126.957C92.2429 126.957 92.5776 136.153 93.1593 147.492C93.741 158.831 94.2191 168.011 94.3387 168.011C94.4582 168.011 94.1235 158.807 93.5896 147.468C93.0557 136.129 92.482 126.949 92.3625 126.957Z" fill="#FF9C30"/>
<path d="M110.92 154.019C110.378 149.939 109.924 146.329 109.924 146.329L96.5926 149.429L97.1583 151.572L86.855 141.102L85.2613 141.245L80.0737 146.64C80.0737 146.64 84.5919 156.202 87.2454 159.915C90.6719 164.752 96.0507 172.131 103.422 171.51C110.171 170.944 111.892 161.31 110.92 154.019Z" fill="#FFC19D"/>
<path d="M103.694 156.456C102.883 155.395 101.894 154.483 100.77 153.762C99.7279 152.927 98.5499 152.277 97.2876 151.842C97.2238 151.945 98.7538 152.838 100.515 154.113C102.276 155.388 103.615 156.527 103.694 156.456Z" fill="#FF9C6A"/>
<path d="M68.8535 127.442L73.4354 125.1L79.38 126.988L82.3204 129.705L86.8545 141.1L90.4802 145.69L84.1053 154.033L80.0573 146.639C80.0573 146.639 76.6149 145.141 75.2762 142.973C73.9375 140.806 73.284 139.626 73.284 139.626C73.284 139.626 71.2999 138.67 70.8935 137.762C70.6822 137.256 70.5634 136.716 70.5429 136.168L71.5549 134.702C71.4883 134.065 71.5899 133.422 71.8497 132.837C72.0513 132.557 72.3274 132.339 72.6466 132.208C72.6466 132.208 72.3517 130.972 72.8139 130.526C73.6796 130.009 74.5986 129.587 75.5551 129.267L73.555 128.136C73.555 128.136 69.1005 129.435 68.8535 127.442Z" fill="#FFC19D"/>
<path d="M75.661 131.579C75.661 131.635 74.9598 131.659 74.1151 131.834C73.2704 132.009 72.625 132.28 72.6011 132.224C73.0423 131.922 73.5463 131.723 74.0753 131.643C74.5925 131.504 75.1343 131.482 75.661 131.579Z" fill="#FF9C6A"/>
<path d="M74.2812 134.136C74.2812 134.191 73.6835 134.191 72.9584 134.303C72.5248 134.405 72.0858 134.482 71.6436 134.534C72.0325 134.295 72.4718 134.151 72.9265 134.112C73.3739 134.015 73.8375 134.023 74.2812 134.136Z" fill="#FF9C6A"/>
<path d="M72.3465 138.144C72.2907 138.144 72.2509 137.881 72.2588 137.562C72.2668 137.243 72.3146 136.98 72.3704 136.98C72.4262 136.98 72.466 137.243 72.458 137.562C72.4501 137.881 72.4023 138.144 72.3465 138.144Z" fill="#FF9C6A"/>
<path d="M73.2231 139.379C73.1556 139.004 73.0119 138.646 72.8008 138.328C72.5406 138.045 72.2263 137.817 71.8765 137.658C71.8765 137.658 72.0199 137.658 72.243 137.658C72.5233 137.761 72.769 137.94 72.9522 138.176C73.1376 138.404 73.2513 138.681 73.2789 138.973C73.2949 139.252 73.2471 139.387 73.2231 139.379Z" fill="#FF9C6A"/>
<path d="M76.8078 135.73C76.752 135.73 76.5608 135.244 76.011 134.933C75.6682 134.781 75.3015 134.689 74.9272 134.663C74.9272 134.663 75.0468 134.583 75.2699 134.567C75.5487 134.56 75.8241 134.629 76.0667 134.766C76.323 134.908 76.5353 135.117 76.6803 135.372C76.8158 135.579 76.8238 135.722 76.8078 135.73Z" fill="#FF9C6A"/>
<path d="M78.8973 133.188C78.8415 133.188 78.6582 132.742 78.1642 132.391C77.8502 132.223 77.5111 132.108 77.1602 132.048C77.1602 132.048 77.2797 131.977 77.4948 131.977C77.7777 131.987 78.0527 132.072 78.2917 132.224C78.5221 132.374 78.7112 132.579 78.8415 132.821C78.9053 133.052 78.9132 133.188 78.8973 133.188Z" fill="#FF9C6A"/>
<path d="M80.2909 131.946C80.2909 131.946 80.2909 131.795 80.2431 131.556C80.197 131.267 80.0822 130.994 79.9084 130.759C79.7227 130.514 79.4789 130.32 79.1992 130.193C78.9841 130.097 78.8327 130.066 78.8406 130.034C78.8486 130.002 79 130.034 79.247 130.034C79.565 130.139 79.843 130.339 80.0439 130.607C80.2463 130.882 80.3552 131.214 80.3547 131.556C80.3786 131.827 80.3148 131.954 80.2909 131.946Z" fill="#FF9C6A"/>
<path d="M78.3542 128.965C78.3542 129.037 77.39 129.053 76.2346 129.228C75.0792 129.403 74.2026 129.818 74.1787 129.754C74.7924 129.369 75.4835 129.124 76.2027 129.037C76.7063 128.959 77.2152 128.922 77.7247 128.925C77.9354 128.908 78.1474 128.922 78.3542 128.965Z" fill="#FF9C6A"/>
<g opacity="0.3">
<path d="M65.3025 154.719C65.2407 153.379 64.8523 152.074 64.171 150.918C62.8322 149.03 60.1867 148.623 57.8838 148.743C55.5808 148.862 53.1743 149.308 50.991 148.52L44.4966 167.811C46.9327 167.205 49.0365 165.673 50.3614 163.54C51.0308 162.465 51.5089 161.213 52.513 160.441C53.8995 159.373 55.8199 159.532 57.565 159.516C59.3906 159.491 61.2048 159.223 62.9597 158.719C63.7239 158.567 64.4177 158.17 64.9359 157.588C65.4185 156.713 65.5495 155.687 65.3025 154.719Z" fill="black"/>
</g>
<path d="M48.5671 132.137L50.5831 153.604C50.5865 154.093 50.7095 154.574 50.9415 155.005C51.1734 155.435 51.5073 155.803 51.9139 156.074L64.9345 155.804C65.7207 154.759 66.0771 153.453 65.9306 152.154L64.4883 131.603C64.4006 130.368 63.9385 129.475 63.3807 129.459L49.6668 129.141C48.9655 129.125 48.4237 130.607 48.5671 132.137Z" fill="#691EDE"/>
<path d="M46.7111 136.455C46.455 136.117 46.3197 135.704 46.3269 135.28C46.3342 134.857 46.4835 134.448 46.751 134.12C47.0266 133.8 47.3697 133.546 47.7556 133.375C48.1414 133.204 48.5603 133.121 48.9822 133.132C49.825 133.153 50.6547 133.345 51.4205 133.698C52.3839 134.091 53.3072 134.577 54.1777 135.148C54.5044 135.316 54.7928 135.55 55.0245 135.836C55.2563 136.121 55.4265 136.451 55.5243 136.805C55.6279 137.53 54.8231 138.335 54.1936 137.961C54.6366 138.16 55.0258 138.463 55.3292 138.842C55.6326 139.222 55.8415 139.668 55.9387 140.144C56.0582 141.06 55.5562 141.539 54.6637 141.786C55.0054 141.918 55.2809 142.179 55.4302 142.514C55.5795 142.848 55.5904 143.228 55.4606 143.571C55.2489 143.887 54.9308 144.118 54.5638 144.22C54.1969 144.322 53.8055 144.29 53.4605 144.128C52.7783 143.782 52.1945 143.27 51.7632 142.638C52.191 143.674 52.2721 144.82 51.9943 145.905C50.0499 145.196 48.1375 143.037 48.7192 140.981C48.2344 140.595 47.8926 140.059 47.7481 139.457C47.6037 138.854 47.665 138.221 47.9223 137.658C47.4709 137.453 47.0839 137.129 46.8031 136.72C46.5222 136.311 46.3582 135.834 46.3286 135.339" fill="#FFC19D"/>
<path d="M46.4568 134.582L46.3054 143.778L43.9148 147.356L33.0059 157.093C33.0059 157.093 34.5996 170.361 39.556 168.911C44.5125 167.46 45.6759 166.52 48.5844 161.165C50.1781 158.304 51.1104 153.643 52.0109 150.965C52.5368 149.372 52.0746 144.344 52.0746 144.344L46.4568 134.582Z" fill="#FFC19D"/>
<path d="M54.6077 141.795C54.3304 141.586 54.0644 141.362 53.8109 141.125C53.1725 140.57 52.4185 140.165 51.6036 139.938C51.1579 139.835 50.6946 139.835 50.2489 139.938C49.8828 140.016 49.5393 140.177 49.2449 140.408C48.9836 140.637 48.7603 140.906 48.5835 141.205C48.5835 141.205 48.5835 141.101 48.6632 140.926C48.7828 140.684 48.9479 140.468 49.1493 140.289C49.453 140.029 49.8132 139.843 50.2011 139.747C50.6804 139.631 51.1801 139.631 51.6594 139.747C52.5044 139.983 53.2769 140.427 53.9065 141.038C54.1752 141.255 54.4114 141.51 54.6077 141.795Z" fill="#FF9C6A"/>
<path d="M54.481 138.056C54.1232 137.949 53.7804 137.796 53.461 137.602C53.1091 137.415 52.7474 137.248 52.3773 137.1C51.9227 136.934 51.4567 136.801 50.9828 136.702C50.511 136.604 50.0258 136.587 49.5485 136.654C49.1643 136.719 48.7995 136.868 48.4807 137.092C48.1907 137.305 47.9491 137.576 47.7715 137.889C47.7715 137.889 47.7715 137.778 47.8591 137.594C47.9897 137.346 48.1717 137.129 48.393 136.957C48.7198 136.697 49.1058 136.522 49.5166 136.447C50.014 136.351 50.5252 136.351 51.0227 136.447C51.5127 136.543 51.9928 136.685 52.457 136.869C52.8287 137.029 53.1882 137.215 53.5328 137.427C53.8641 137.613 54.1811 137.823 54.481 138.056Z" fill="#FF9C6A"/>
<path d="M34.1836 162.37C33.9198 161.249 33.8738 160.089 34.0481 158.951C34.267 157.728 34.7042 156.554 35.339 155.485C36.1331 154.178 37.1038 152.988 38.2236 151.947C39.395 150.815 40.6142 149.827 41.682 148.895C42.6476 148.077 43.568 147.207 44.4391 146.289C45.0231 145.666 45.556 144.997 46.0328 144.289C46.2169 144.043 46.3694 143.776 46.487 143.492C46.2768 143.724 46.0849 143.972 45.9133 144.233C45.4027 144.906 44.8491 145.545 44.2558 146.146C43.5068 146.943 42.5506 147.739 41.4668 148.672C40.3831 149.604 39.156 150.568 37.9686 151.716C36.8263 152.78 35.844 154.004 35.0521 155.349C34.4144 156.451 33.9875 157.661 33.7931 158.919C33.6668 159.776 33.6965 160.648 33.8808 161.493C33.9308 161.721 33.9974 161.945 34.08 162.163C34.1358 162.298 34.1676 162.378 34.1836 162.37Z" fill="#FF9C6A"/>
</svg>
