<svg width="256" height="288" viewBox="0 0 256 288" fill="none" xmlns="http://www.w3.org/2000/svg">
<path d="M32.6079 243.41L188.558 243.41C194.166 243.41 198.711 238.864 198.711 233.257L198.711 30.2177C198.711 24.6101 194.166 20.0642 188.558 20.0642L32.6079 20.0642C27.0003 20.0642 22.4545 24.6101 22.4545 30.2177L22.4545 233.257C22.4545 238.864 27.0003 243.41 32.6079 243.41Z" fill="url(#paint0_linear_1279_6598)"/>
<path d="M188.569 6.20117H32.5884V221.572H188.569V6.20117Z" fill="white"/>
<path d="M32.5884 0V20.9757C32.5884 20.9757 36.7734 26.8834 41.7589 20.9757H50.9396C50.9396 20.9757 55.1246 26.8834 60.0595 20.9757H69.2402C69.2402 20.9757 73.4151 26.8834 78.4107 20.9757H87.5914C87.5914 20.9757 91.7663 26.8834 96.7113 20.9757H105.892C105.892 20.9757 110.067 26.8834 115.063 20.9757H124.243C124.243 20.9757 128.418 26.8834 133.363 20.9757H142.534C142.534 20.9757 146.719 26.8834 151.714 20.9757H160.885C160.885 20.9757 165.07 26.8834 170.066 20.9757H179.185C179.185 20.9757 183.37 26.8834 188.366 20.9757V0H32.5884Z" fill="#FF9C30"/>
<path d="M41.7603 20.9656C41.7603 20.9656 45.9453 26.8733 50.9409 20.9656V0H41.7603V20.9656Z" fill="#691EDE"/>
<path d="M60.1104 20.9656C60.1104 20.9656 64.2954 26.8733 69.291 20.9656V0H60.1104V20.9656Z" fill="#691EDE"/>
<path d="M78.4619 20.9656C78.4619 20.9656 82.6469 26.8733 87.6426 20.9656V0H78.4619V20.9656Z" fill="#691EDE"/>
<path d="M96.8115 20.9656C96.8115 20.9656 100.997 26.8733 105.992 20.9656V0H96.8115V20.9656Z" fill="#691EDE"/>
<path d="M115.165 20.9656C115.165 20.9656 119.35 26.8733 124.346 20.9656V0H115.165V20.9656Z" fill="#691EDE"/>
<path d="M133.515 20.9656C133.515 20.9656 137.7 26.8733 142.685 20.9656V0H133.515V20.9656Z" fill="#691EDE"/>
<path d="M151.865 20.9656C151.865 20.9656 156.05 26.8733 161.035 20.9656V0H151.865V20.9656Z" fill="#691EDE"/>
<path d="M170.237 0V20.9757C170.237 20.9757 174.422 26.8834 179.357 20.9757V0H170.237Z" fill="#691EDE"/>
<path d="M116.279 231.879C116.279 233.007 115.944 234.11 115.317 235.048C114.69 235.987 113.799 236.718 112.757 237.15C111.714 237.581 110.567 237.694 109.461 237.474C108.354 237.254 107.337 236.711 106.54 235.913C105.742 235.115 105.198 234.098 104.978 232.992C104.758 231.885 104.871 230.738 105.303 229.696C105.735 228.653 106.466 227.762 107.404 227.135C108.342 226.508 109.445 226.174 110.574 226.174C112.087 226.174 113.538 226.775 114.608 227.845C115.678 228.915 116.279 230.366 116.279 231.879Z" fill="#A1A1A1"/>
<path d="M137.547 198.145H80.7906C80.3429 198.145 79.98 198.507 79.98 198.955V200.11C79.98 200.558 80.3429 200.921 80.7906 200.921H137.547C137.994 200.921 138.357 200.558 138.357 200.11V198.955C138.357 198.507 137.994 198.145 137.547 198.145Z" fill="#BFE2FF"/>
<path d="M116.946 205.34H80.7906C80.3429 205.34 79.98 205.703 79.98 206.15V207.306C79.98 207.753 80.3429 208.116 80.7906 208.116H116.946C117.394 208.116 117.757 207.753 117.757 207.306V206.15C117.757 205.703 117.394 205.34 116.946 205.34Z" fill="#BFE2FF"/>
<path d="M132.481 135.48H45.7202V138.916H132.481V135.48Z" fill="#BFE2FF"/>
<path d="M122.054 144.662H45.7202V148.097H122.054V144.662Z" fill="#BFE2FF"/>
<path d="M171.392 135.48H143.678V148.106H171.392V135.48Z" fill="#EB4747"/>
<path d="M154.227 142.878C154.233 143.099 154.184 143.319 154.085 143.517C153.986 143.715 153.84 143.885 153.66 144.013C153.479 144.151 153.272 144.251 153.052 144.307C152.812 144.377 152.562 144.412 152.312 144.408H149.444V138.48H152.626C152.819 138.482 153.01 138.527 153.183 138.612C153.345 138.705 153.489 138.825 153.609 138.967C153.724 139.111 153.816 139.271 153.883 139.443C153.942 139.619 153.973 139.804 153.974 139.99C153.976 140.278 153.902 140.561 153.761 140.811C153.613 141.06 153.389 141.255 153.123 141.368C153.452 141.456 153.741 141.654 153.942 141.928C154.142 142.203 154.243 142.538 154.227 142.878ZM150.6 139.463V140.963H152.14C152.325 140.963 152.504 140.89 152.636 140.76C152.763 140.606 152.832 140.413 152.832 140.213C152.832 140.014 152.763 139.82 152.636 139.666C152.579 139.601 152.509 139.55 152.43 139.515C152.352 139.48 152.266 139.462 152.18 139.463H150.6ZM153.062 142.665C153.061 142.562 153.044 142.46 153.011 142.361C152.979 142.267 152.927 142.181 152.859 142.108C152.801 142.037 152.728 141.979 152.646 141.936C152.561 141.895 152.468 141.874 152.373 141.875H150.6V143.436H152.312C152.413 143.437 152.514 143.416 152.606 143.375C152.696 143.336 152.779 143.281 152.849 143.213C152.915 143.142 152.966 143.059 153.001 142.969C153.042 142.87 153.063 142.763 153.062 142.655V142.665Z" fill="white"/>
<path d="M157.633 143.425C157.874 143.43 158.112 143.371 158.322 143.252C158.504 143.145 158.657 142.996 158.768 142.817C158.894 142.635 158.977 142.427 159.011 142.209C159.061 141.972 159.085 141.731 159.082 141.489V138.449H160.227V141.489C160.229 141.875 160.181 142.26 160.085 142.634C159.992 142.976 159.834 143.296 159.619 143.577C159.407 143.847 159.132 144.063 158.819 144.205C158.45 144.371 158.048 144.451 157.643 144.438C157.228 144.451 156.815 144.368 156.437 144.195C156.12 144.045 155.843 143.823 155.627 143.546C155.418 143.264 155.267 142.944 155.181 142.604C155.087 142.24 155.039 141.865 155.039 141.489V138.449H156.194V141.489C156.197 141.734 156.22 141.978 156.265 142.219C156.309 142.434 156.391 142.64 156.508 142.827C156.62 143.006 156.773 143.155 156.954 143.262C157.163 143.374 157.397 143.43 157.633 143.425Z" fill="white"/>
<path d="M162.06 138.47L163.519 141.328L164.999 138.47H166.245L164.097 142.331V144.358H162.952V142.27L160.804 138.43L162.06 138.47Z" fill="white"/>
<path d="M75.1899 193.362C75.1899 194.262 74.9231 195.142 74.4232 195.89C73.9232 196.638 73.2127 197.221 72.3813 197.566C71.5499 197.91 70.6351 198 69.7525 197.825C68.8699 197.649 68.0592 197.216 67.4229 196.58C66.7866 195.943 66.3533 195.133 66.1778 194.25C66.0022 193.367 66.0923 192.453 66.4367 191.621C66.781 190.79 67.3642 190.079 68.1124 189.579C68.8606 189.079 69.7403 188.812 70.6401 188.812C71.2376 188.812 71.8293 188.93 72.3813 189.159C72.9333 189.387 73.4348 189.723 73.8573 190.145C74.2798 190.568 74.615 191.069 74.8436 191.621C75.0723 192.173 75.1899 192.765 75.1899 193.362Z" fill="#FF8080"/>
<path d="M171.391 197.912H145.349V210.609H171.391V197.912Z" fill="#BFE2FF"/>
<path d="M65.5904 160.105H54.8189C52.8265 160.105 51.2114 161.721 51.2114 163.713V174.484C51.2114 176.477 52.8265 178.092 54.8189 178.092H65.5904C67.5828 178.092 69.1979 176.477 69.1979 174.484V163.713C69.1979 161.721 67.5828 160.105 65.5904 160.105Z" fill="#BFE2FF"/>
<path d="M90.7931 160.105H80.0215C78.0292 160.105 76.4141 161.721 76.4141 163.713V174.484C76.4141 176.477 78.0292 178.092 80.0215 178.092H90.7931C92.7854 178.092 94.4005 176.477 94.4005 174.484V163.713C94.4005 161.721 92.7854 160.105 90.7931 160.105Z" fill="#BFE2FF"/>
<path d="M115.854 160.105H105.083C103.09 160.105 101.475 161.721 101.475 163.713V174.484C101.475 176.477 103.09 178.092 105.083 178.092H115.854C117.846 178.092 119.462 176.477 119.462 174.484V163.713C119.462 161.721 117.846 160.105 115.854 160.105Z" fill="#BFE2FF"/>
<path d="M166.337 160.105H155.565C153.573 160.105 151.958 161.721 151.958 163.713V174.484C151.958 176.477 153.573 178.092 155.565 178.092H166.337C168.329 178.092 169.944 176.477 169.944 174.484V163.713C169.944 161.721 168.329 160.105 166.337 160.105Z" fill="#BFE2FF"/>
<path d="M141.055 160.105H130.283C128.291 160.105 126.676 161.721 126.676 163.713V174.484C126.676 176.477 128.291 178.092 130.283 178.092H141.055C143.047 178.092 144.662 176.477 144.662 174.484V163.713C144.662 161.721 143.047 160.105 141.055 160.105Z" fill="#BFE2FF"/>
<path d="M74.6213 71.7629H49.0654C47.6956 71.7602 46.3827 71.2149 45.4141 70.2463C44.4455 69.2777 43.9001 67.9648 43.8975 66.595V41.039C43.9001 39.6692 44.4455 38.3563 45.4141 37.3877C46.3827 36.4191 47.6956 35.8738 49.0654 35.8711H74.6213C75.9911 35.8738 77.3041 36.4191 78.2727 37.3877C79.2413 38.3563 79.7866 39.6692 79.7893 41.039V66.595C79.7866 67.9648 79.2413 69.2777 78.2727 70.2463C77.3041 71.2149 75.9911 71.7602 74.6213 71.7629ZM49.0654 37.31C48.0862 37.31 47.147 37.6983 46.4536 38.3897C45.7603 39.0812 45.3695 40.0193 45.3668 40.9985V66.5544C45.3694 67.5345 45.76 68.4738 46.453 69.1668C47.1461 69.8599 48.0853 70.2504 49.0654 70.2531H74.6213C75.6005 70.2504 76.5387 69.8595 77.2301 69.1662C77.9215 68.4729 78.3098 67.5336 78.3098 66.5544V41.039C78.3098 40.0608 77.9212 39.1226 77.2295 38.4309C76.5378 37.7392 75.5996 37.3505 74.6213 37.3505L49.0654 37.31Z" fill="#FF9C30"/>
<path d="M44.5859 61.2754H79.0388V66.342C79.0388 67.5944 78.5413 68.7954 77.6558 69.681C76.7702 70.5666 75.5691 71.0641 74.3168 71.0641H49.3587C48.1063 71.0641 46.9052 70.5666 46.0197 69.681C45.1341 68.7954 44.6366 67.5944 44.6366 66.342V61.2754H44.5859Z" fill="#FF9C30"/>
<path d="M130.789 44.4844H84.2983V46.7542H130.789V44.4844Z" fill="#BFE2FF"/>
<path d="M144.631 54.709H84.2983V56.9788H144.631V54.709Z" fill="#BFE2FF"/>
<path d="M108.132 49.5918H84.2983V51.8616H108.132V49.5918Z" fill="#BFE2FF"/>
<path d="M74.6213 119.198H49.0654C47.6948 119.198 46.3803 118.654 45.4111 117.684C44.4419 116.715 43.8975 115.401 43.8975 114.03V88.4742C43.9001 87.1053 44.4458 85.7935 45.4147 84.8265C46.3836 83.8595 47.6965 83.3164 49.0654 83.3164H74.6213C75.9902 83.3164 77.3031 83.8595 78.272 84.8265C79.2409 85.7935 79.7866 87.1053 79.7893 88.4742V114.03C79.7893 115.401 79.2448 116.715 78.2756 117.684C77.3064 118.654 75.992 119.198 74.6213 119.198ZM49.0654 84.7452C48.0862 84.7452 47.147 85.1335 46.4536 85.8249C45.7603 86.5163 45.3695 87.4545 45.3668 88.4337V113.99C45.3694 114.97 45.76 115.909 46.453 116.602C47.1461 117.295 48.0853 117.686 49.0654 117.688H74.6213C75.6005 117.686 76.5387 117.295 77.2301 116.601C77.9215 115.908 78.3098 114.969 78.3098 113.99V88.4742C78.3098 87.496 77.9212 86.5578 77.2295 85.8661C76.5378 85.1743 75.5996 84.7857 74.6213 84.7857L49.0654 84.7452Z" fill="#FF9C30"/>
<path d="M140.386 91.918H84.2983V94.1878H140.386V91.918Z" fill="#BFE2FF"/>
<path d="M119.552 102.143H84.2983V104.412H119.552V102.143Z" fill="#BFE2FF"/>
<path d="M105.831 97.0254H84.2983V99.2952H105.831V97.0254Z" fill="#BFE2FF"/>
<path d="M44.5859 108.709H79.0388V113.776C79.0388 115.028 78.5413 116.229 77.6558 117.115C76.7702 118 75.5691 118.498 74.3168 118.498H49.3587C48.1063 118.498 46.9052 118 46.0197 117.115C45.1341 116.229 44.6366 115.028 44.6366 113.776V108.709H44.5859Z" fill="#FF9C30"/>
<path d="M93.692 62.6243C93.1241 62.4215 92.5087 62.3922 91.924 62.5402C91.3394 62.6881 90.812 63.0066 90.4089 63.4552C90.0066 63.0086 89.4809 62.6914 88.8983 62.5435C88.3158 62.3956 87.7024 62.4237 87.1359 62.6243C85.1092 63.3437 85.5145 64.8434 85.5145 64.8434C85.6665 67.8834 90.4089 71.0247 90.4089 71.0247C90.4089 71.0247 95.0296 67.853 95.3133 64.8434C95.3133 64.8536 95.6579 63.3437 93.692 62.6243Z" fill="#FF9C30"/>
<path d="M107.413 62.6243C106.845 62.4215 106.229 62.3922 105.645 62.5402C105.06 62.6881 104.533 63.0066 104.13 63.4552C103.727 63.0086 103.202 62.6914 102.619 62.5435C102.036 62.3956 101.423 62.4237 100.857 62.6243C98.8805 63.3437 99.2352 64.8434 99.2352 64.8434C99.3872 67.8834 104.13 71.0247 104.13 71.0247C104.13 71.0247 108.75 67.853 109.034 64.8434C109.064 64.8536 109.439 63.3437 107.413 62.6243Z" fill="#FF9C30"/>
<path d="M120.93 62.6243C120.362 62.4215 119.747 62.3922 119.162 62.5402C118.578 62.6881 118.05 63.0066 117.647 63.4552C117.245 63.0086 116.719 62.6914 116.137 62.5435C115.554 62.3956 114.941 62.4237 114.374 62.6243C112.347 63.3437 112.753 64.8434 112.753 64.8434C112.905 67.8834 117.647 71.0247 117.647 71.0247C117.647 71.0247 122.268 67.853 122.552 64.8434C122.552 64.8536 122.896 63.3437 120.93 62.6243Z" fill="#FF9C30"/>
<path d="M134.417 62.6243C133.849 62.4215 133.233 62.3922 132.649 62.5402C132.064 62.6881 131.537 63.0066 131.134 63.4552C130.731 63.0066 130.203 62.6881 129.618 62.5402C129.034 62.3922 128.418 62.4215 127.85 62.6243C125.885 63.3437 126.239 64.8434 126.239 64.8434C126.391 67.8834 131.134 71.0247 131.134 71.0247C131.134 71.0247 135.785 67.8935 136.028 64.8536C136.028 64.8536 136.383 63.3437 134.417 62.6243Z" fill="#FF9C30"/>
<path d="M148.006 62.6243C147.438 62.4215 146.822 62.3922 146.238 62.5402C145.653 62.6881 145.126 63.0066 144.723 63.4552C144.319 63.0066 143.792 62.6881 143.207 62.5402C142.623 62.3922 142.007 62.4215 141.439 62.6243C139.473 63.3437 139.828 64.8434 139.828 64.8434C139.98 67.8834 144.723 71.0247 144.723 71.0247C144.723 71.0247 149.343 67.853 149.617 64.8434C149.617 64.8536 149.972 63.3437 148.006 62.6243Z" fill="#FF9C30"/>
<path d="M93.692 110.726C93.1251 110.522 92.5102 110.491 91.9257 110.638C91.3411 110.784 90.8132 111.1 90.4089 111.547C90.0054 111.102 89.4792 110.787 88.8967 110.641C88.3142 110.495 87.7015 110.525 87.1359 110.726C85.1092 111.436 85.5145 112.946 85.5145 112.946C85.6665 115.985 90.4089 119.127 90.4089 119.127C90.4089 119.127 95.0296 115.945 95.3133 112.946C95.3133 112.946 95.6579 111.466 93.692 110.726Z" fill="#FF9C30"/>
<path d="M107.413 110.726C106.846 110.522 106.231 110.491 105.646 110.638C105.062 110.784 104.534 111.1 104.13 111.547C103.726 111.102 103.2 110.787 102.617 110.641C102.035 110.495 101.422 110.525 100.857 110.726C98.8805 111.436 99.2352 112.946 99.2352 112.946C99.3872 115.985 104.13 119.127 104.13 119.127C104.13 119.127 108.75 115.945 109.034 112.946C109.064 112.946 109.439 111.466 107.413 110.726Z" fill="#FF9C30"/>
<path d="M120.93 110.726C120.363 110.522 119.749 110.491 119.164 110.638C118.579 110.784 118.051 111.1 117.647 111.547C117.244 111.102 116.717 110.787 116.135 110.641C115.552 110.495 114.94 110.525 114.374 110.726C112.347 111.436 112.753 112.946 112.753 112.946C112.905 115.985 117.647 119.127 117.647 119.127C117.647 119.127 122.268 115.945 122.552 112.946C122.552 112.946 122.896 111.466 120.93 110.726Z" fill="#FF9C30"/>
<path d="M170.432 101.748H157.633V100.765H169.449V52.3482H157.633V51.3652H170.432V101.748Z" fill="#BFE2FF"/>
<path d="M179.651 161.919C179.651 161.919 178.526 177.595 181.586 179.469C183.512 180.645 191.152 184.607 190.929 185.347C190.706 186.086 186.612 191.953 186.612 191.953C186.612 191.953 171.919 182.286 171.413 179.236C170.906 176.186 172.132 156.295 174.149 155.373C175.658 154.684 176.459 155.261 178.364 156.67C181.08 158.656 179.651 161.919 179.651 161.919Z" fill="#EB4747"/>
<path d="M177.938 275.947C177.938 275.947 177.482 279.119 177.422 279.595C177.361 280.071 172.355 279.311 172.355 279.311L171.95 275.532C171.95 275.532 177.33 275.501 177.938 275.947Z" fill="#691EDE"/>
<path d="M177.484 279.189C178.381 280.257 179.437 281.18 180.615 281.925C182.156 282.766 184.567 283.091 185.479 283.952C186.138 284.58 187.871 287.255 181.426 287.205C174.981 287.154 171.951 287.58 171.293 286.556C170.634 285.533 172.306 278.977 172.306 278.977C174.003 279.374 175.76 279.446 177.484 279.189Z" fill="#691EDE"/>
<path d="M203.079 275.947C203.079 275.947 202.623 279.119 202.572 279.595C202.521 280.071 197.505 279.311 197.505 279.311L197.1 275.532C197.1 275.532 202.45 275.501 203.079 275.947Z" fill="#691EDE"/>
<path d="M202.666 279.189C203.562 280.257 204.619 281.18 205.797 281.925C207.337 282.766 213.002 283.445 213.904 284.307C214.552 284.935 215.646 287.438 206.648 287.205C200.264 287.032 197.174 287.58 196.515 286.556C195.856 285.533 197.528 278.977 197.528 278.977C197.528 278.977 198.876 279.554 202.666 279.189Z" fill="#691EDE"/>
<path d="M179.742 194.486C179.742 194.486 175.02 201.985 175.375 208.764C175.73 215.543 174.949 222.788 174.24 229.861C173.45 237.765 171.302 254.181 171.2 258.417C171.099 262.652 171.352 278.531 171.352 278.531L179.55 278.47C179.55 278.47 182.448 246.368 183.857 243.004C185.265 239.64 191.051 215.553 191.284 212.888C191.517 210.223 179.742 194.486 179.742 194.486Z" fill="#691EDE"/>
<path d="M204.589 195.501C204.589 195.501 206.453 213.933 206.92 218.077C207.386 222.222 207.072 240.208 207.305 242.803C207.538 245.397 205.734 272.827 205.278 278.046L196.28 277.985C196.28 277.985 195.651 255.803 195.651 245.022C195.651 234.24 192.885 221.715 189.713 214.622C186.542 207.529 179.357 207.296 177.331 194.102C177.331 194.102 201.954 191.316 204.589 195.501Z" fill="#691EDE"/>
<path d="M184.729 131.256C184.729 131.256 190.353 127.496 194.305 131.519C198.257 135.542 200.193 145.006 197.345 146.891C194.498 148.776 189.705 149.283 187.415 146.719C185.125 144.155 182.693 140.244 182.095 137.396C181.497 134.549 183.301 132.451 184.729 131.256Z" fill="#EEA886"/>
<path d="M195.45 147.529C195.45 147.529 195.369 151.481 195.805 152.332C196.241 153.183 187.597 153.193 187.597 153.193C187.137 150.325 186.46 147.497 185.57 144.732C184.233 140.851 195.45 147.529 195.45 147.529Z" fill="#EEA886"/>
<path d="M185.782 144.672C185.782 144.672 186.592 145.493 188.872 144.561C191.152 143.629 193.301 139.798 194.213 139.221C195.125 138.643 194.993 138.055 194.993 138.055L195.824 138.815L196.888 138.633C196.888 138.633 195.266 136.039 196.442 134.58C197.617 133.121 192.794 125.804 185.812 130.253C185.812 130.253 180.35 133.232 181.353 136.505C182.357 139.778 184.089 143.325 185.782 144.672Z" fill="#754836"/>
<path d="M196.321 152.221C196.321 152.221 196.321 150.619 195.561 150.457C194.801 150.295 187.505 149.606 186.613 149.951V151.825C186.613 151.825 188.336 152.889 196.321 152.221Z" fill="#E2D2CA"/>
<path d="M194.559 136.879C194.295 136.362 192.532 135.106 192.36 136.879C192.188 138.652 194.123 140.689 194.843 140.314C195.562 139.939 195.217 138.216 194.559 136.879Z" fill="#EEA886"/>
<path d="M183.106 132.219C183.106 132.219 175.06 134.377 185.457 144.379L183.106 132.219Z" fill="#754836"/>
<path d="M241.596 174.666C241.998 174.756 242.417 174.724 242.802 174.575C243.703 174.149 244.281 172.751 245.639 173.146C246.997 173.541 246.743 177.979 246.237 178.729C245.73 179.479 243.724 179.499 241.008 178.354C238.292 177.209 241.596 174.666 241.596 174.666Z" fill="#EEA886"/>
<path d="M245.152 173.075C246.649 172.898 248.154 172.8 249.661 172.781C251.759 172.781 254.221 173.095 254.353 173.501C254.647 174.403 252.326 174.119 250.229 174.271C249.699 174.265 249.169 174.309 248.648 174.403C248.648 174.403 248.536 174.311 250.675 174.544C252.813 174.777 255.224 175.264 255.356 175.75C255.427 175.993 255.427 176.764 254.566 176.399C255.052 176.47 255.001 176.399 254.981 176.571C254.87 177.584 251.475 177.726 250.117 177.777C251.131 177.777 251.921 177.828 251.424 178.425C250.928 179.023 246.044 179.094 244.331 179.236C242.396 179.408 245.152 173.075 245.152 173.075Z" fill="#EEA886"/>
<path d="M207.02 154.461C201.802 153.539 196.32 152.221 196.32 152.221L186.612 151.826C186.612 151.826 177.695 153.792 174.189 155.373C173.854 155.525 173.854 163.327 172.942 165.374L175.851 171.505C175.851 171.505 177.533 183.665 177.877 189.076C178.039 191.558 174.412 212.382 174.412 212.382C177.862 213.286 181.38 213.913 184.93 214.257C191.557 214.986 208.105 213.993 208.236 213.244C208.368 212.494 205.024 184.1 204.882 182.631C204.659 180.371 205.531 169.965 205.531 169.965C206.777 171.637 214.002 177.929 217.518 179.926C220.031 181.354 226.142 180.827 227.956 180.645C231.877 180.24 242.76 179.723 242.973 179.338C243.186 178.953 242.324 174.555 241.868 174.403C241.412 174.251 227.5 173.582 223.993 173.765C222.565 173.836 217.914 168.698 217.914 168.698C217.914 168.698 209.898 155.748 207.02 154.461Z" fill="#EB4747"/>
<path d="M52.2555 191.355C53.2367 191.726 54.2564 191.984 55.2955 192.126C56.6967 192.454 57.9738 193.178 58.9738 194.213C59.4602 194.811 63.4122 199.047 63.4831 199.594C63.554 200.141 62.4698 199.948 62.105 199.523C61.7402 199.097 58.2949 195.682 58.2949 195.682C58.2949 195.682 62.1658 199.979 62.1354 200.485C62.105 200.992 61.5274 201.418 60.8181 200.972C60.7577 201.123 60.6571 201.254 60.5274 201.352C60.3976 201.45 60.2435 201.511 60.0818 201.528C59.92 201.544 59.7568 201.516 59.6097 201.447C59.4627 201.378 59.3374 201.269 59.2474 201.134L57.2208 199.107C57.2208 199.107 58.072 200.323 56.9573 199.979C56.3595 199.786 54.3734 197.253 53.816 196.878C52.8284 195.741 51.9274 194.532 51.1206 193.261L52.2555 191.355Z" fill="#EEA886"/>
<path d="M38.5053 274.721C38.5053 274.721 39.9746 277.659 40.8664 278.237C41.7581 278.815 46.7538 283.668 47.7772 284.114C48.8007 284.56 52.094 285.188 52.0534 286.749C52.0129 288.309 43.5415 287.762 41.9202 287.235C40.2989 286.708 37.5123 282.918 36.3976 282.959C35.283 283 35.6883 287.549 35.6883 287.549H34.452C34.452 287.549 32.9422 282.736 32.9827 281.044C33.2072 278.92 33.5454 276.809 33.9961 274.721H38.5053Z" fill="#691EDE"/>
<path d="M17.8844 272.887C17.8844 272.887 18.5329 275.805 19.5969 276.818C20.6609 277.832 24.6635 282.128 25.6768 282.594C26.6902 283.06 28.6256 283.375 29.2235 284.114C29.8213 284.854 29.4666 287.033 25.6768 286.8C21.887 286.567 20.6102 286.597 19.7388 285.837C18.8673 285.077 15.9287 282.442 15.0674 282.371V286.567H14.054C14.054 286.567 12.2199 281.054 12.8786 278.734C13.3025 276.941 13.5101 275.104 13.4967 273.262L17.8844 272.887Z" fill="#691EDE"/>
<path d="M19.3959 148.219C19.3959 148.219 17.6631 152.667 19.0108 156.112C19.0108 156.112 12.6675 155.717 12.4243 154.998C12.1811 154.278 12.6776 147.601 11.8061 145.625C10.9347 143.649 19.3959 148.219 19.3959 148.219Z" fill="#EEA886"/>
<path d="M7.90423 207.964C8.10625 208.505 8.21254 209.078 8.21835 209.656C8.25888 210.345 8.38831 211.027 8.60342 211.683C8.81147 212.758 8.92338 213.85 8.93782 214.946C8.63988 215.602 8.38928 216.28 8.18796 216.972C8.18796 217.438 8.27916 218.371 7.87383 218.35C7.4685 218.33 7.14424 217.499 7.14424 217.499C7.14424 217.499 7.14423 217.925 6.75917 218.006C6.59025 218.07 6.40723 218.088 6.22905 218.058C6.05088 218.027 5.88404 217.95 5.74585 217.834C5.74585 217.834 5.43172 218.229 5.1176 218.229C4.94133 218.239 4.76477 218.213 4.59908 218.152C4.43338 218.091 4.28215 217.997 4.15494 217.874C3.91375 217.996 3.63739 218.028 3.37468 217.965C3.19946 217.924 3.03855 217.836 2.90853 217.711C2.77851 217.586 2.68408 217.429 2.63496 217.256C2.63496 217.256 1.87497 217.256 1.71284 216.851C1.62769 216.493 1.60032 216.123 1.63177 215.756C1.85655 213.952 2.4833 212.22 3.46588 210.69C3.85038 210.068 4.10594 209.375 4.21735 208.653C4.32876 207.93 4.29375 207.193 4.1144 206.484L7.90423 207.964Z" fill="#EEA886"/>
<path d="M7.29522 217.174C7.29522 217.174 7.80188 214.61 7.23442 213.911C6.66696 213.212 6.42376 214.134 6.42376 214.134C6.42376 214.134 6.67709 213.232 5.96777 212.959C5.25845 212.685 5.04565 213.759 5.04565 213.759C5.04437 213.658 5.02276 213.557 4.98208 213.464C4.9414 213.371 4.88248 213.287 4.8088 213.217C4.73512 213.147 4.64816 213.093 4.55309 213.057C4.45801 213.022 4.35674 213.005 4.25526 213.009C3.475 213.009 3.49527 213.931 3.49527 213.931C3.49527 213.931 2.91767 212.918 2.29955 213.638C1.9914 214.091 1.78169 214.604 1.68395 215.143C1.58621 215.682 1.60261 216.236 1.73209 216.769C1.73209 216.769 1.89423 217.215 2.65422 217.174C2.69243 217.33 2.76693 217.474 2.87162 217.595C2.97631 217.716 3.10822 217.811 3.25652 217.871C3.40482 217.931 3.56531 217.956 3.72482 217.942C3.88433 217.928 4.03832 217.877 4.17419 217.792C4.17419 217.792 5.18752 218.664 5.76511 217.792C5.89208 217.91 6.04987 217.989 6.22006 218.02C6.39026 218.051 6.56582 218.033 6.72626 217.969C6.8867 217.904 7.0254 217.795 7.12614 217.654C7.22689 217.513 7.28552 217.347 7.29522 217.174Z" fill="#DB9C7C"/>
<path d="M20.0024 154.613C20.0024 154.613 23.7517 155.91 25.4439 156.265C27.1362 156.62 30.6828 158.292 30.3991 164.372C30.0926 169.113 29.514 173.832 28.6663 178.507C28.3333 182.724 28.4965 186.965 29.1527 191.143C22.697 192.463 16.0411 192.463 9.58548 191.143C9.58548 191.143 11.4601 185.57 11.4094 184.131C11.3588 182.692 5.1674 170.816 4.87353 168.931C4.57967 167.047 3.34342 158.798 6.17058 156.964C8.99775 155.13 11.3183 155.373 12.5241 154.563C13.73 153.752 18.2392 154.026 20.0024 154.613Z" fill="#691EDE"/>
<path d="M24.8177 156.111C24.8177 156.111 28.9622 156 31.911 162.485C34.8597 168.97 35.5691 172.77 36.2378 173.693C36.9066 174.615 39.2778 178.161 41.5679 179.884C43.858 181.607 53.4846 191.365 53.4846 191.365L50.8499 194.739C50.8499 194.739 37.008 184.93 35.5691 183.248C34.1302 181.566 25.3345 168.839 24.8177 166.913C24.3009 164.988 20.2679 158.077 24.8177 156.111Z" fill="#691EDE"/>
<path d="M0 188.345C0 190.939 2.66503 208.612 2.66503 208.612L7.73164 208.835C7.73164 208.835 6.10019 191.264 5.52259 187.221C5.3949 185.527 5.48345 183.825 5.78607 182.154C5.95833 180.867 6.20152 179.519 6.45485 178.232C7.16417 174.676 7.97483 171.575 7.97483 171.575C7.97483 171.575 12.5652 156.446 5.51247 157.561C3.85318 159.748 2.74448 162.303 2.27997 165.009C1.47945 169.548 0.689058 176.327 0.830922 178.992C0.972787 181.657 0 186.45 0 188.345Z" fill="#691EDE"/>
<path d="M29.1533 191.182C29.842 192.759 30.4341 194.377 30.9266 196.026C31.0685 197.039 36.1959 209.756 36.5506 213.485C36.9052 217.214 37.9895 227.327 38.3745 228.766C38.7596 230.205 37.5132 236.65 37.3612 238.089C37.2092 239.528 37.27 263.087 38.9927 274.72C38.9927 274.72 34.9394 276.443 31.8994 274.72C31.8994 274.72 26.8328 256.551 27.0963 246.074C27.3597 235.596 28.7176 231.168 27.0963 226.942C25.475 222.717 15.9498 210.02 14.9972 208.702C14.0447 207.385 8.01546 199.917 13.7103 191.861C19.4052 183.805 29.1533 191.182 29.1533 191.182Z" fill="#691EDE"/>
<path d="M9.47546 225.596C9.98212 228.96 9.47545 233.378 8.3912 245.69C7.30694 258.002 10.2354 272.887 10.2354 272.887C12.808 273.601 15.5263 273.601 18.0988 272.887C17.9975 272.026 18.0988 242.903 18.0988 240.299C18.0988 237.695 18.8385 234.766 19.0311 231.787C19.4821 228.536 20.1971 225.326 21.1692 222.191C21.4934 221.046 21.8177 219.891 22.1825 218.776C22.3649 218.158 22.5372 217.54 22.7094 216.942C24.2091 211.754 26.2155 191.71 26.2155 191.71C26.2155 191.71 15.069 182.722 9.62745 191.183C4.18592 199.645 6.98268 205.795 7.17522 206.849C7.36775 207.903 8.9688 222.231 9.47546 225.596Z" fill="#691EDE"/>
<path d="M30.0257 175.446C30.0257 175.446 29.2759 190.585 32.8732 199.309C32.8732 199.309 20.9768 203.272 5.62498 199.309C5.62498 199.309 8.91827 188.457 8.66494 186.795C8.41161 185.133 2.65595 166.012 4.41913 161.513C6.18231 157.013 28.2524 161.249 30.0257 175.446Z" fill="#691EDE"/>
<path d="M15.8385 130.718C18.5137 130.414 25.4448 130.951 24.9584 141.378C24.472 151.805 20.6315 151.187 16.8518 150.082C13.0721 148.978 8.53244 140.902 8.53244 138.743C8.53244 136.585 8.19805 131.539 15.8385 130.718Z" fill="#EEA886"/>
<path d="M24.5337 136.564C24.5337 136.564 21.4937 140.415 18.4538 141.337C18.4538 141.337 16.1231 145.512 12.0496 146.576C12.0496 146.576 3.35528 138.267 10.6613 132.014C17.9674 125.762 24.5843 133.372 24.5337 136.564Z" fill="#691EDE"/>
<path d="M19.0604 139.899C19.0002 139.655 18.8711 139.433 18.6885 139.261C18.5058 139.088 18.2774 138.972 18.0304 138.926C17.7835 138.88 17.5285 138.907 17.296 139.002C17.0636 139.097 16.8635 139.257 16.7196 139.463C15.7063 140.77 17.5201 143.79 18.1889 143.79C18.8577 143.79 19.4454 142.067 19.0604 139.899Z" fill="#EEA886"/>
<path d="M9.47484 133.9C9.25191 133.566 2.66532 130.597 1.29734 136.799C-0.0706432 143 6.597 150.215 7.77246 153.306C8.94791 156.396 7.77246 163.763 7.77246 163.763C9.79896 161.525 11.3932 158.931 12.4743 156.112C13.8017 151.867 14.2577 141.156 9.47484 133.9Z" fill="#691EDE"/>
<path d="M14.0952 207.518C14.1864 207.71 19.7394 220.052 21.1885 222.19C21.5127 221.045 21.837 219.89 22.2018 218.776C22.2018 218.776 14.2776 207.791 14.0952 207.518Z" fill="#691EDE"/>
<path d="M4.65186 169.609C4.74065 173.83 5.13009 178.039 5.81718 182.205C5.98945 180.918 6.23263 179.57 6.48596 178.283C6.44543 178.111 4.84439 170.835 4.65186 169.609Z" fill="#691EDE"/>
<defs>
<linearGradient id="paint0_linear_1279_6598" x1="-16.6698" y1="131.732" x2="30.4293" y2="131.732" gradientUnits="userSpaceOnUse">
<stop stop-color="#C2C2C2"/>
<stop offset="1" stop-color="#DEDEDE"/>
</linearGradient>
</defs>
</svg>
