<svg width="18" height="18" viewBox="0 0 18 18" fill="none" xmlns="http://www.w3.org/2000/svg">
<path d="M0.755682 2.74294L3.06161 0.439476C3.34308 0.158038 3.71982 0 4.11822 0C4.51661 0 4.89335 0.155873 5.17483 0.439476L7.6583 2.9183C7.93977 3.19973 8.09783 3.57859 8.09783 3.97694C8.09783 4.37744 7.94194 4.75197 7.6583 5.03558L5.71829 6.9775C6.16024 8.0071 6.79525 8.94258 7.58901 9.73343C8.38364 10.5323 9.3125 11.1623 10.3431 11.6082L12.2831 9.66631C12.5646 9.38488 12.9414 9.22684 13.3398 9.22684C13.5363 9.22611 13.7309 9.26461 13.9124 9.34007C14.0938 9.41554 14.2583 9.52645 14.3964 9.66631L16.882 12.1451C17.1635 12.4266 17.3215 12.8054 17.3215 13.2038C17.3215 13.6043 17.1656 13.9788 16.882 14.2624L14.5782 16.5659C14.0976 17.0465 13.435 17.3214 12.7552 17.3214C12.6144 17.3214 12.478 17.3106 12.3394 17.2868C9.47273 16.8148 6.62767 15.2886 4.33041 12.9938C2.03531 10.6946 0.511013 7.84996 0.0346718 4.98145C-0.101734 4.16745 0.17108 3.32963 0.755682 2.74294ZM1.56979 4.72383C1.992 7.27626 3.36473 9.82219 5.43249 11.8897C7.50024 13.9572 10.0443 15.3297 12.5971 15.7519C12.9175 15.806 13.2466 15.6977 13.4805 15.4661L15.7431 13.2038L13.3441 10.8029L10.7502 13.4008L10.7307 13.4203L10.263 13.2471C8.84498 12.7258 7.55726 11.9024 6.48912 10.834C5.42097 9.76564 4.59795 8.47781 4.07708 7.05976L3.90386 6.59214L6.51941 3.9791L4.12038 1.57822L1.85776 3.84055C1.62392 4.07436 1.51566 4.40342 1.56979 4.72383Z" fill="#6019EB"/>
</svg>
