<svg width="22" height="17" viewBox="0 0 22 17" fill="none" xmlns="http://www.w3.org/2000/svg">
<path d="M14.9286 11.55C14.7202 11.55 14.5203 11.6369 14.373 11.7916C14.2256 11.9464 14.1429 12.1562 14.1429 12.375C14.1429 12.5938 14.2256 12.8036 14.373 12.9584C14.5203 13.1131 14.7202 13.2 14.9286 13.2H18.0714C18.2798 13.2 18.4797 13.1131 18.627 12.9584C18.7744 12.8036 18.8571 12.5938 18.8571 12.375C18.8571 12.1562 18.7744 11.9464 18.627 11.7916C18.4797 11.6369 18.2798 11.55 18.0714 11.55H14.9286ZM0 3.3C0 2.42479 0.331122 1.58542 0.920522 0.966547C1.50992 0.347677 2.30932 0 3.14286 0H18.8571C19.6907 0 20.4901 0.347677 21.0795 0.966547C21.6689 1.58542 22 2.42479 22 3.3V13.2C22 14.0752 21.6689 14.9146 21.0795 15.5335C20.4901 16.1523 19.6907 16.5 18.8571 16.5H3.14286C2.30932 16.5 1.50992 16.1523 0.920522 15.5335C0.331122 14.9146 0 14.0752 0 13.2V3.3ZM20.4286 3.3C20.4286 2.86239 20.263 2.44271 19.9683 2.13327C19.6736 1.82384 19.2739 1.65 18.8571 1.65H3.14286C2.72609 1.65 2.32639 1.82384 2.03169 2.13327C1.73699 2.44271 1.57143 2.86239 1.57143 3.3V4.95H20.4286V3.3ZM1.57143 13.2C1.57143 13.6376 1.73699 14.0573 2.03169 14.3667C2.32639 14.6762 2.72609 14.85 3.14286 14.85H18.8571C19.2739 14.85 19.6736 14.6762 19.9683 14.3667C20.263 14.0573 20.4286 13.6376 20.4286 13.2V6.6H1.57143V13.2Z" fill="#6019EB"/>
</svg>
