<svg width="19" height="16" viewBox="0 0 19 16" fill="none" xmlns="http://www.w3.org/2000/svg">
<path d="M18.3003 5.54651H7.83774C7.67999 5.54651 7.55615 5.67297 7.55615 5.82809V13.59C7.55615 13.748 7.67999 13.8716 7.83774 13.8716H14.0347L16.8193 15.3443C16.8614 15.3668 16.9066 15.3781 16.9519 15.3781C17.0023 15.3781 17.0529 15.3636 17.0984 15.3359C17.1825 15.2851 17.2335 15.1952 17.2335 15.0967V13.8716H18.3006C18.4584 13.8716 18.5822 13.748 18.5822 13.59L18.582 5.82809C18.582 5.67296 18.4582 5.54669 18.3004 5.54669L18.3003 5.54651ZM16.5766 11.8126H9.56187C9.40637 11.8126 9.28029 11.6867 9.28029 11.531C9.28029 11.3753 9.40637 11.2494 9.56187 11.2494H16.5766C16.7321 11.2494 16.8582 11.3753 16.8582 11.531C16.8582 11.6869 16.7321 11.8126 16.5768 11.8126H16.5766ZM16.5766 9.89956H9.56187C9.40637 9.89956 9.28029 9.77366 9.28029 9.61798C9.28029 9.46229 9.40637 9.3364 9.56187 9.3364H16.5766C16.7321 9.3364 16.8582 9.46229 16.8582 9.61798C16.8582 9.77366 16.7321 9.89956 16.5768 9.89956H16.5766ZM16.5766 7.98636H9.56187C9.40637 7.98636 9.28029 7.86047 9.28029 7.70478C9.28029 7.5491 9.40637 7.4232 9.56187 7.4232H16.5766C16.7321 7.4232 16.8582 7.5491 16.8582 7.70478C16.8582 7.86065 16.7321 7.98636 16.5768 7.98636H16.5766Z" fill="white"/>
<path d="M11.0282 4.9834V0.281582C11.0282 0.126645 10.9043 0 10.7466 0L0.281581 0.000187346C0.126645 0.000187346 0 0.126832 0 0.281769V8.04372C0 8.19884 0.126645 8.3253 0.281581 8.3253H1.35154V9.54753C1.35154 9.6457 1.40231 9.73862 1.48661 9.78939C1.53158 9.81787 1.58235 9.82911 1.63312 9.82911C1.67808 9.82911 1.72323 9.82031 1.76538 9.79782L4.54993 8.32529H6.99367V5.82836C6.99367 5.36356 7.37379 4.98382 7.83821 4.98382L11.0282 4.9834ZM5.79711 6.23038C5.79711 6.38813 5.67046 6.51196 5.51553 6.51196C5.35778 6.51196 5.23394 6.38813 5.23394 6.23038V6.19666C5.23394 6.04209 5.35778 5.91508 5.51553 5.91508C5.67046 5.91508 5.79711 6.04209 5.79711 6.19666V6.23038ZM6.47565 4.2651C6.06743 4.59164 5.82521 5.02254 5.79711 5.47893C5.78868 5.62806 5.66484 5.74328 5.51834 5.74328H5.50147C5.34373 5.73503 5.22832 5.59958 5.23676 5.44483C5.27329 4.82547 5.58859 4.25104 6.12364 3.82333C6.35727 3.63748 6.49253 3.35853 6.49253 3.06028C6.49253 2.80418 6.38836 2.56173 6.19971 2.3731C6.01105 2.18444 5.769 2.08027 5.5155 2.08027C5.24516 2.08027 5.00031 2.19043 4.8229 2.36766C4.64548 2.54508 4.5357 2.78994 4.5357 3.0571C4.5357 3.21503 4.40905 3.33868 4.25411 3.33868C4.09918 3.33868 3.97253 3.21503 3.97253 3.0571C3.97253 2.20676 4.66513 1.51713 5.5125 1.51713H5.51531C5.91792 1.51713 6.30369 1.68049 6.59932 1.97332C6.89214 2.26895 7.0555 2.65469 7.0555 3.0603C7.0555 3.53072 6.84436 3.96966 6.47565 4.2651Z" fill="white"/>
</svg>
