<svg width="16" height="9" viewBox="0 0 16 9" fill="none" xmlns="http://www.w3.org/2000/svg">
<path d="M7.52661 4.0136C8.63998 4.0136 9.53497 3.11346 9.53497 2.00719C9.53626 0.897684 8.63998 0.00012207 7.52661 0.00012207C6.42097 0.00012207 5.52344 0.897684 5.52344 2.00719C5.52344 3.11478 6.421 4.0136 7.52661 4.0136Z" fill="white"/>
<path d="M9.1379 4.34076H5.92118C5.34607 4.34076 4.875 4.86806 4.875 5.51488V8.74583C4.875 8.78136 4.89309 8.81302 4.89504 8.84987H10.1621C10.166 8.81305 10.1809 8.78139 10.1809 8.74583V5.51488C10.1828 4.86806 9.71172 4.34076 9.1379 4.34076Z" fill="white"/>
<path d="M12.9289 4.97136C13.8225 4.97136 14.5392 4.25216 14.5392 3.36364C14.5392 2.47513 13.8225 1.75464 12.9289 1.75464C12.0416 1.75464 11.3237 2.47513 11.3237 3.36364C11.3218 4.25153 12.0417 4.97136 12.9289 4.97136Z" fill="white"/>
<path d="M14.2201 5.23395H11.6425C11.1798 5.23395 10.8018 5.65655 10.8018 6.17675V8.76539C10.8018 8.79319 10.8153 8.81967 10.8173 8.85005H15.0421C15.044 8.81967 15.0569 8.79319 15.0569 8.76539V6.17675C15.0589 5.65655 14.6815 5.23395 14.2201 5.23395Z" fill="white"/>
<path d="M2.12676 4.97136C3.01914 4.97136 3.73643 4.25216 3.73643 3.36364C3.73643 2.47513 3.01914 1.75464 2.12676 1.75464C1.23891 1.75464 0.520996 2.47513 0.520996 3.36364C0.520996 4.25216 1.23891 4.97136 2.12676 4.97136Z" fill="white"/>
<path d="M3.41833 5.23395H0.838098C0.376735 5.23395 0 5.65655 0 6.17675V8.76539C0 8.79319 0.0135704 8.81967 0.0161467 8.85005H4.24094C4.24289 8.81967 4.25517 8.79319 4.25517 8.76539V6.17675C4.25646 5.65655 3.87906 5.23395 3.41833 5.23395Z" fill="white"/>
</svg>
