<svg width="26" height="26" viewBox="0 0 26 26" fill="none" xmlns="http://www.w3.org/2000/svg">
<path d="M12.8104 0C5.74672 0 0 5.74672 0 12.8104V18.1177C0 19.4295 1.14909 20.4966 2.56207 20.4966H3.84311C4.18286 20.4966 4.50869 20.3616 4.74893 20.1214C4.98917 19.8811 5.12414 19.5553 5.12414 19.2155V12.6272C5.12414 12.2874 4.98917 11.9616 4.74893 11.7213C4.50869 11.4811 4.18286 11.3461 3.84311 11.3461H2.67993C3.39218 6.38852 7.65803 2.56207 12.8104 2.56207C17.9627 2.56207 22.2285 6.38852 22.9408 11.3461H21.7776C21.4378 11.3461 21.112 11.4811 20.8718 11.7213C20.6315 11.9616 20.4966 12.2874 20.4966 12.6272V20.4966C20.4966 21.9095 19.3475 23.0586 17.9345 23.0586H15.3724V21.7776H10.2483V25.6207H17.9345C20.7605 25.6207 23.0586 23.3225 23.0586 20.4966C24.4716 20.4966 25.6207 19.4295 25.6207 18.1177V12.8104C25.6207 5.74672 19.874 0 12.8104 0Z" fill="#6019EB"/>
</svg>
