<svg width="15" height="22" viewBox="0 0 15 22" fill="none" xmlns="http://www.w3.org/2000/svg">
<path d="M8.81451 21.4096C10.9615 19.4923 14.7812 11.0936 14.7812 7.49904C14.7812 5.51017 14.0025 3.60276 12.6165 2.19642C11.2305 0.790075 9.35069 0 7.39059 0C5.43048 0 3.55066 0.790075 2.16465 2.19642C0.778649 3.60276 2.92079e-08 5.51017 0 7.49904C0 11.0936 3.81847 19.4923 5.96667 21.4096C6.35851 21.7645 6.86536 21.9606 7.39059 21.9606C7.91581 21.9606 8.42267 21.7645 8.81451 21.4096ZM4.92706 7.49904C4.92706 6.83608 5.18661 6.20028 5.64861 5.7315C6.11061 5.26272 6.73722 4.99936 7.39059 4.99936C8.04396 4.99936 8.67056 5.26272 9.13257 5.7315C9.59457 6.20028 9.85412 6.83608 9.85412 7.49904C9.85412 8.162 9.59457 8.7978 9.13257 9.26658C8.67056 9.73536 8.04396 9.99872 7.39059 9.99872C6.73722 9.99872 6.11061 9.73536 5.64861 9.26658C5.18661 8.7978 4.92706 8.162 4.92706 7.49904Z" fill="#6019EB"/>
</svg>
