<svg width="34" height="34" viewBox="0 0 34 34" fill="none" xmlns="http://www.w3.org/2000/svg">
<path d="M33.8248 1.38874V27.3509C33.8003 27.4093 33.7726 27.4707 33.7511 27.5322C33.6478 27.8893 33.4287 28.2019 33.1284 28.421C32.8281 28.6401 32.4636 28.7533 32.092 28.7427C31.9291 28.7427 31.7694 28.7427 31.5727 28.7427V32.9673C31.5727 33.5327 31.3884 33.8123 31.0135 33.8184C30.6387 33.8246 30.4482 33.5511 30.4482 32.9858C30.4482 30.8842 30.4482 28.7816 30.4482 26.678C30.4721 26.1327 30.2788 25.6001 29.9105 25.1971C29.7605 25.0094 29.5481 24.8816 29.3119 24.8371C29.0757 24.7926 28.8313 24.8342 28.6232 24.9544C28.3139 25.0929 28.0531 25.3208 27.8746 25.6089C27.6961 25.897 27.6079 26.2319 27.6216 26.5705C27.6216 27.2864 27.6216 28.0023 27.6216 28.7212C27.6253 28.7953 27.6143 28.8694 27.5892 28.9393C27.5642 29.0091 27.5255 29.0733 27.4756 29.1281C27.4256 29.183 27.3652 29.2274 27.298 29.2588C27.2308 29.2902 27.158 29.308 27.0839 29.3111C26.9328 29.3112 26.7877 29.252 26.6797 29.1463C26.5718 29.0406 26.5095 28.8969 26.5063 28.7458C26.5063 28.6475 26.5063 28.5492 26.5063 28.4386V24.3215C26.516 24.0284 26.4575 23.7371 26.3354 23.4705C26.2133 23.2039 26.0309 22.9693 25.8027 22.7853C25.6694 22.6692 25.5056 22.5938 25.3308 22.5682C25.1559 22.5426 24.9774 22.5678 24.8164 22.6408C24.5223 22.7415 24.2632 22.9244 24.0699 23.1678C23.8766 23.4112 23.7571 23.705 23.7257 24.0142C23.6643 24.6011 23.6858 25.2002 23.6796 25.7932C23.6735 26.3862 23.6796 27.0222 23.6796 27.6366C23.6757 27.7717 23.622 27.9005 23.5287 27.9983C23.4355 28.0961 23.3094 28.1559 23.1747 28.1662C23.04 28.1765 22.9062 28.1365 22.7992 28.0541C22.6922 27.9716 22.6194 27.8525 22.595 27.7196C22.5725 27.5898 22.5622 27.4581 22.5643 27.3263C22.5643 25.5873 22.5643 23.8483 22.5643 22.1032C22.5852 21.5801 22.3986 21.0699 22.0451 20.6837C21.8945 20.4899 21.6781 20.3582 21.4368 20.3135C21.1955 20.2687 20.9462 20.3141 20.7362 20.441C20.4202 20.5896 20.1569 20.8309 19.9813 21.1327C19.8057 21.4345 19.7261 21.7827 19.753 22.1308C19.753 23.667 19.753 25.2033 19.753 26.7395C19.7561 26.8828 19.7438 27.0259 19.7162 27.1666C19.6847 27.288 19.6124 27.395 19.5115 27.4695C19.4105 27.544 19.287 27.5815 19.1616 27.5758C19.0363 27.57 18.9167 27.5213 18.823 27.4379C18.7293 27.3544 18.6671 27.2413 18.647 27.1174C18.6305 26.9746 18.6233 26.831 18.6254 26.6873C18.6254 23.3117 18.6254 19.932 18.6254 16.5482C18.6428 16.2682 18.6029 15.9876 18.5084 15.7235C18.4139 15.4594 18.2666 15.2173 18.0755 15.012C17.9294 14.8281 17.7217 14.7032 17.4908 14.6603C17.2599 14.6173 17.0213 14.6593 16.8188 14.7785C16.496 14.9255 16.2261 15.1682 16.0458 15.4738C15.8655 15.7794 15.7836 16.133 15.8111 16.4867C15.8111 21.0667 15.8111 25.6467 15.8111 30.2267C15.8111 30.6968 15.6329 30.9426 15.2857 30.9672C14.9385 30.9918 14.7388 30.7705 14.6712 30.3035C14.3943 28.2547 13.5287 26.3303 12.1795 24.7639C11.9302 24.4732 11.5955 24.2685 11.2231 24.1792C10.8507 24.0898 10.4596 24.1202 10.1056 24.2662C10.0047 24.2898 9.91047 24.3358 9.82988 24.4009C9.74929 24.4659 9.68443 24.5483 9.64013 24.642C9.59583 24.7356 9.57323 24.838 9.57402 24.9416C9.57481 25.0451 9.59896 25.1472 9.64469 25.2401C9.77131 25.5784 9.93624 25.9011 10.1363 26.2018C11.5435 28.3157 11.9797 30.7429 12.3915 33.1732C12.4192 33.3174 12.3884 33.4668 12.306 33.5883C12.2236 33.7099 12.0963 33.7938 11.9521 33.8215C11.8079 33.8492 11.6585 33.8185 11.537 33.7361C11.4154 33.6537 11.3315 33.5264 11.3038 33.3821C11.2393 33.1394 11.2209 32.8844 11.1625 32.6386C10.8552 31.3359 10.548 30.0332 10.2407 28.7335H1.86525C0.685436 28.7335 0.00335302 28.0484 0.000280576 26.8685C0.000280576 18.534 0.000280576 10.2005 0.000280576 1.86805C-0.0023171 1.69486 0.0131289 1.52187 0.0463677 1.35188C0.196918 0.611416 0.710016 0.221216 1.38903 0H32.4207C32.7583 0.083226 33.0671 0.256262 33.3143 0.50076C33.5615 0.745257 33.7379 1.0521 33.8248 1.38874ZM22.6903 19.7558C22.8202 19.5527 23.0037 19.3895 23.2206 19.2843C23.4376 19.1791 23.6794 19.136 23.9193 19.1598C26.0331 19.1598 28.1439 19.1598 30.2577 19.1598C31.118 19.1598 31.5727 19.6083 31.5758 20.4533C31.5758 21.2337 31.5758 22.0171 31.5758 22.7975C31.5758 23.9098 31.5512 25.0189 31.542 26.1311C31.542 26.6197 31.542 27.1113 31.542 27.5936C32.559 27.6674 32.7003 27.5383 32.7003 26.6227V1.95715C32.7003 1.30579 32.5252 1.12759 31.883 1.12759H1.95743C1.303 1.12759 1.12787 1.29964 1.12787 1.94179V26.8102C1.12787 27.4431 1.29993 27.6182 1.9267 27.6182H9.66927C9.46649 27.2925 9.28521 27.0191 9.12852 26.7364C9.08887 26.6535 9.02437 26.5849 8.94398 26.5403C8.86359 26.4957 8.7713 26.4773 8.67994 26.4876C6.98702 26.4876 5.30025 26.4876 3.59504 26.4876C2.67331 26.4876 2.25238 26.0605 2.25238 25.1603V20.5086C2.25238 19.5868 2.68867 19.1628 3.61348 19.1628H9.92428C10.846 19.1628 11.2762 19.5961 11.2792 20.5178C11.2792 21.2767 11.2792 22.0356 11.2792 22.7945C11.2792 22.8928 11.31 23.0495 11.3714 23.0771C11.7002 23.2123 12.0412 23.3137 12.4007 23.4366C12.4007 22.4135 12.4007 21.4119 12.4007 20.4103C12.4007 19.6145 12.8523 19.1813 13.6542 19.1628H14.6251V18.0383H13.6727C12.8431 18.0383 12.4007 17.6051 12.4007 16.7817C12.4007 15.1758 12.4007 13.5689 12.4007 11.961C12.3829 11.7926 12.403 11.6223 12.4593 11.4626C12.5156 11.3029 12.6068 11.1577 12.7263 11.0376C12.8458 10.9176 12.9905 10.8256 13.1499 10.7685C13.3094 10.7114 13.4796 10.6906 13.6481 10.7075C14.5176 10.7075 15.3871 10.7075 16.2566 10.7075C17.5685 10.7075 18.8774 10.7075 20.1893 10.7075C20.9083 10.7075 21.3937 11.1468 21.3999 11.8228C21.4122 13.529 21.4122 15.2352 21.3999 16.9415C21.4007 17.2286 21.2883 17.5045 21.0869 17.7093C20.8856 17.9141 20.6116 18.0312 20.3245 18.0353C20.1402 18.0353 19.9558 18.0353 19.7715 18.0353V19.6606C20.7792 18.9908 21.747 19.0031 22.6903 19.7558ZM10.1516 20.3181H3.39226V25.3507H8.46794C8.43414 24.0726 8.77518 23.5718 9.98265 23.1109C10.0275 23.0819 10.0653 23.043 10.0929 22.9972C10.1206 22.9514 10.1375 22.9 10.1424 22.8467C10.1609 22.3735 10.1424 21.9004 10.1424 21.4272L10.1516 20.3181ZM14.6712 16.8954C14.577 16.0539 14.8115 15.2085 15.3256 14.5357C16.0415 13.614 17.2152 13.2637 18.2014 13.7707C18.6143 13.9851 18.9668 14.2997 19.2266 14.6856C19.4864 15.0716 19.6452 15.5166 19.6885 15.9798C19.7315 16.287 19.7346 16.5943 19.7561 16.9015H20.2631V11.8596H13.5651V16.8954H14.6712ZM30.4236 24.1279V20.3089H23.7042V21.925C25.5661 20.6284 27.4618 22.0694 27.64 24.1832C28.5494 23.5626 29.4742 23.5011 30.4236 24.1279ZM13.5252 20.3058C13.5252 21.4764 13.5498 22.6101 13.5252 23.7408C13.4715 24.3292 13.6464 24.9156 14.0137 25.3784C14.1938 25.6437 14.352 25.9232 14.4869 26.2141C14.5314 26.2869 14.5806 26.3567 14.6343 26.423V20.3058H13.5252Z" fill="#6019EB"/>
<path d="M6.747 9.58268H3.51172C2.71595 9.58268 2.25509 9.13103 2.25202 8.3537C2.25202 6.73349 2.25202 5.11534 2.25202 3.49923C2.24012 3.33479 2.26376 3.16971 2.32132 3.01521C2.37887 2.86071 2.469 2.72041 2.58559 2.60383C2.70217 2.48724 2.84247 2.39711 2.99697 2.33956C3.15147 2.282 3.31655 2.25837 3.48099 2.27026H10.0345C10.1994 2.25624 10.3654 2.27841 10.5209 2.33522C10.6764 2.39202 10.8176 2.48209 10.9346 2.59914C11.0517 2.71618 11.1417 2.85737 11.1985 3.01284C11.2553 3.16831 11.2775 3.33431 11.2635 3.49923C11.2635 5.11841 11.2635 6.73452 11.2635 8.3537C11.2635 9.15253 10.8026 9.58268 10.0038 9.58268H6.747ZM3.40418 3.38863V8.43973H10.1236V3.38863H3.40418Z" fill="#6019EB"/>
<path d="M16.9082 9.58268H13.6729C12.8464 9.58268 12.4132 9.1464 12.4102 8.31684C12.4102 6.72326 12.4102 5.12764 12.4102 3.52997C12.4102 2.68812 12.8526 2.25183 13.6975 2.25183H20.1496C20.9884 2.25183 21.4247 2.69426 21.4278 3.53919C21.4278 5.12457 21.4278 6.70893 21.4278 8.29226C21.4278 9.16176 20.9976 9.57961 20.122 9.58268H16.9082ZM20.2603 8.44588V3.39478H13.5654V8.44588H20.2603Z" fill="#6019EB"/>
<path d="M27.0441 9.58268H23.8088C23.01 9.58268 22.5522 9.14024 22.5461 8.3537C22.5461 6.73452 22.5461 5.11841 22.5461 3.49923C22.5321 3.33431 22.5542 3.16831 22.611 3.01284C22.6678 2.85737 22.7579 2.71618 22.875 2.59914C22.992 2.48209 23.1332 2.39202 23.2887 2.33522C23.4441 2.27841 23.6101 2.25624 23.7751 2.27026H30.3132C30.4779 2.25732 30.6434 2.28023 30.7984 2.33741C30.9534 2.3946 31.0941 2.4847 31.2109 2.60151C31.3278 2.71832 31.4179 2.85906 31.475 3.01404C31.5322 3.16902 31.5551 3.33455 31.5422 3.49923C31.5422 5.12763 31.5422 6.7591 31.5422 8.38749C31.554 8.55095 31.5301 8.71501 31.4722 8.86832C31.4143 9.02163 31.3238 9.16052 31.2069 9.27537C31.09 9.39022 30.9495 9.47829 30.7952 9.53348C30.6409 9.58866 30.4764 9.60964 30.3132 9.59497C29.2348 9.58575 28.1441 9.58268 27.0441 9.58268ZM30.4238 8.43973V3.40092H23.7044V8.43973H30.4238Z" fill="#6019EB"/>
<path d="M6.76894 18.0382C5.68129 18.0382 4.59057 18.0382 3.50293 18.0382C3.3333 18.0559 3.16188 18.0352 3.00129 17.9778C2.84071 17.9204 2.69505 17.8277 2.57505 17.7065C2.45505 17.5853 2.36377 17.4388 2.30794 17.2776C2.2521 17.1165 2.23314 16.9449 2.25244 16.7754C2.25244 15.1696 2.25244 13.5627 2.25244 11.9548C2.23731 11.7861 2.25946 11.6162 2.31731 11.457C2.37515 11.2978 2.46729 11.1533 2.58719 11.0337C2.70709 10.9141 2.85181 10.8223 3.01113 10.7649C3.17044 10.7074 3.34043 10.6857 3.50907 10.7012C5.67412 10.7012 7.84224 10.7012 10.0134 10.7012C10.8092 10.7012 11.2731 11.1529 11.2762 11.9302C11.2762 13.5494 11.2762 15.1655 11.2762 16.7847C11.2762 17.5804 10.8123 18.0136 10.0073 18.0136L6.76894 18.0382ZM10.121 16.8953V11.8595H3.39539V16.8983L10.121 16.8953Z" fill="#6019EB"/>
<path d="M27.0501 18.0382H23.8148C23.0006 18.0382 22.549 17.5927 22.5459 16.7693C22.5459 15.1716 22.5459 13.575 22.5459 11.9793C22.5459 11.1621 23.0068 10.7104 23.8179 10.7073C25.9747 10.7073 28.1316 10.7073 30.2885 10.7073C31.1149 10.7073 31.5697 11.1682 31.5727 11.9978C31.5727 13.5831 31.5727 15.1685 31.5727 16.7539C31.5727 17.5896 31.1242 18.0351 30.2854 18.0382H27.0501ZM30.4298 11.8595H23.7042V16.8891H30.439L30.4298 11.8595Z" fill="#6019EB"/>
</svg>
