<svg width="14" height="14" viewBox="0 0 14 14" fill="none" xmlns="http://www.w3.org/2000/svg">
<mask id="path-1-inside-1_128_6195" fill="white">
<path d="M0.746047 1.29184e-05H5.37562C5.48617 -3.55247e-05 5.59534 0.0246662 5.6951 0.0723061C5.79486 0.119946 5.8827 0.189315 5.95215 0.275326C6.0073 0.340675 6.04977 0.415735 6.07739 0.496655C6.1069 0.576484 6.12189 0.660948 6.12166 0.746056V5.35511C6.12125 5.45588 6.1007 5.55555 6.06121 5.64826C6.02171 5.74096 5.96408 5.82484 5.89169 5.89494C5.75261 6.02791 5.56803 6.10282 5.37562 6.1044H0.746047C0.651717 6.10295 0.558573 6.08315 0.471814 6.04609C0.380591 6.01074 0.29738 5.95747 0.227098 5.88941C0.156816 5.82135 0.10089 5.7399 0.0626234 5.64986C0.0210415 5.55718 -0.000306208 5.4567 3.31835e-06 5.35511V0.746056C0.00114803 0.565884 0.0666234 0.392049 0.184625 0.255892L0.215935 0.225661C0.280058 0.160252 0.355385 0.106864 0.438344 0.0680313C0.534993 0.023989 0.639839 0.000812425 0.746047 1.29184e-05ZM7.89122 7.04586H12.524C12.6361 7.0452 12.7468 7.06993 12.8479 7.11819C12.9474 7.16626 13.0351 7.23554 13.1049 7.32117C13.1587 7.38543 13.2011 7.45847 13.2301 7.5371C13.2596 7.6173 13.2746 7.70212 13.2744 7.78758V12.3966C13.2741 12.4965 13.2536 12.5954 13.2139 12.6871C13.1744 12.7796 13.1167 12.8633 13.0444 12.9332C12.9753 12.9998 12.8939 13.0522 12.8047 13.0876C12.7171 13.1239 12.6232 13.1426 12.5283 13.1427H7.89122C7.79688 13.142 7.7035 13.1237 7.61591 13.0887C7.5277 13.0537 7.44705 13.002 7.37838 12.9365C7.30548 12.8665 7.24714 12.7829 7.20672 12.6903C7.16609 12.5977 7.14513 12.4977 7.14518 12.3966V7.79298C7.14489 7.70326 7.16136 7.61428 7.19376 7.53062C7.22488 7.44696 7.27057 7.36946 7.32872 7.30174L7.35895 7.2715C7.42333 7.20619 7.49906 7.15315 7.58244 7.11495C7.67915 7.06985 7.7845 7.04628 7.89122 7.04586ZM12.524 7.78974H7.89122V12.402C8.28853 12.402 12.5219 12.402 12.5262 12.402C12.5262 12.0134 12.5262 7.7919 12.5262 7.78974H12.524ZM0.746047 7.04586H5.37562C5.48617 7.04581 5.59534 7.07051 5.6951 7.11815C5.79486 7.16579 5.8827 7.23516 5.95215 7.32117C6.00672 7.3849 6.04917 7.45809 6.07739 7.5371C6.10692 7.6173 6.12191 7.70212 6.12166 7.78758V12.3966C6.12142 12.4965 6.10085 12.5954 6.0612 12.6871C6.02248 12.78 5.96474 12.8639 5.89169 12.9332C5.75261 13.0662 5.56803 13.1411 5.37562 13.1427H0.746047C0.652054 13.1421 0.559015 13.1238 0.471814 13.0887C0.383145 13.0539 0.3021 13.0022 0.233209 12.9365C0.160293 12.8668 0.102262 12.783 0.0626234 12.6903C0.0219016 12.5996 0.000572676 12.5014 3.31835e-06 12.402V7.79298C0.000253892 7.70331 0.0167135 7.61443 0.0485879 7.53062C0.0801331 7.44693 0.126183 7.36945 0.184625 7.30174L0.215935 7.2715C0.27982 7.2061 0.355217 7.15303 0.438344 7.11495C0.534718 7.06997 0.639692 7.0464 0.746047 7.04586ZM5.37562 7.78974H0.746047V12.402C1.14228 12.402 5.3767 12.402 5.37994 12.402C5.37994 12.0134 5.37994 7.7919 5.37994 7.78974H5.37562ZM7.89122 1.29184e-05H12.524C12.6361 -0.000648319 12.7468 0.024083 12.8479 0.07235C12.9474 0.120417 13.0351 0.189701 13.1049 0.275326C13.1592 0.341217 13.2016 0.416127 13.2301 0.496655C13.2596 0.576484 13.2746 0.660948 13.2744 0.746056V5.35511C13.2743 5.45538 13.2537 5.55457 13.2139 5.64662C13.1742 5.73902 13.1166 5.82266 13.0444 5.89278C12.9727 5.95942 12.8887 6.01148 12.7972 6.04609C12.7094 6.08184 12.6156 6.10053 12.5208 6.10116H7.89122C7.79675 6.10074 7.70326 6.08204 7.61591 6.04609C7.52796 6.01103 7.44739 5.95976 7.37838 5.89494C7.30548 5.82502 7.24714 5.74136 7.20672 5.64878C7.166 5.55586 7.14504 5.45549 7.14518 5.35403V0.746056C7.145 0.656702 7.16147 0.568096 7.19376 0.484779C7.22469 0.401022 7.2704 0.323497 7.32872 0.255892L7.35895 0.225661C7.42353 0.160306 7.4992 0.106934 7.58244 0.0680313C7.67942 0.0238406 7.78465 0.000660605 7.89122 1.29184e-05ZM12.524 0.743897H7.89122V5.35835C8.28853 5.35835 12.5219 5.35835 12.5262 5.35835C12.5262 4.96968 12.5262 0.747136 12.5262 0.746056L12.524 0.743897ZM5.37886 0.743897H0.746047V5.35619C1.14228 5.35619 5.3767 5.35619 5.37994 5.35619C5.37994 4.96752 5.37994 0.744976 5.37994 0.743897H5.37886Z"/>
</mask>
<path d="M0.746047 1.29184e-05H5.37562C5.48617 -3.55247e-05 5.59534 0.0246662 5.6951 0.0723061C5.79486 0.119946 5.8827 0.189315 5.95215 0.275326C6.0073 0.340675 6.04977 0.415735 6.07739 0.496655C6.1069 0.576484 6.12189 0.660948 6.12166 0.746056V5.35511C6.12125 5.45588 6.1007 5.55555 6.06121 5.64826C6.02171 5.74096 5.96408 5.82484 5.89169 5.89494C5.75261 6.02791 5.56803 6.10282 5.37562 6.1044H0.746047C0.651717 6.10295 0.558573 6.08315 0.471814 6.04609C0.380591 6.01074 0.29738 5.95747 0.227098 5.88941C0.156816 5.82135 0.10089 5.7399 0.0626234 5.64986C0.0210415 5.55718 -0.000306208 5.4567 3.31835e-06 5.35511V0.746056C0.00114803 0.565884 0.0666234 0.392049 0.184625 0.255892L0.215935 0.225661C0.280058 0.160252 0.355385 0.106864 0.438344 0.0680313C0.534993 0.023989 0.639839 0.000812425 0.746047 1.29184e-05ZM7.89122 7.04586H12.524C12.6361 7.0452 12.7468 7.06993 12.8479 7.11819C12.9474 7.16626 13.0351 7.23554 13.1049 7.32117C13.1587 7.38543 13.2011 7.45847 13.2301 7.5371C13.2596 7.6173 13.2746 7.70212 13.2744 7.78758V12.3966C13.2741 12.4965 13.2536 12.5954 13.2139 12.6871C13.1744 12.7796 13.1167 12.8633 13.0444 12.9332C12.9753 12.9998 12.8939 13.0522 12.8047 13.0876C12.7171 13.1239 12.6232 13.1426 12.5283 13.1427H7.89122C7.79688 13.142 7.7035 13.1237 7.61591 13.0887C7.5277 13.0537 7.44705 13.002 7.37838 12.9365C7.30548 12.8665 7.24714 12.7829 7.20672 12.6903C7.16609 12.5977 7.14513 12.4977 7.14518 12.3966V7.79298C7.14489 7.70326 7.16136 7.61428 7.19376 7.53062C7.22488 7.44696 7.27057 7.36946 7.32872 7.30174L7.35895 7.2715C7.42333 7.20619 7.49906 7.15315 7.58244 7.11495C7.67915 7.06985 7.7845 7.04628 7.89122 7.04586ZM12.524 7.78974H7.89122V12.402C8.28853 12.402 12.5219 12.402 12.5262 12.402C12.5262 12.0134 12.5262 7.7919 12.5262 7.78974H12.524ZM0.746047 7.04586H5.37562C5.48617 7.04581 5.59534 7.07051 5.6951 7.11815C5.79486 7.16579 5.8827 7.23516 5.95215 7.32117C6.00672 7.3849 6.04917 7.45809 6.07739 7.5371C6.10692 7.6173 6.12191 7.70212 6.12166 7.78758V12.3966C6.12142 12.4965 6.10085 12.5954 6.0612 12.6871C6.02248 12.78 5.96474 12.8639 5.89169 12.9332C5.75261 13.0662 5.56803 13.1411 5.37562 13.1427H0.746047C0.652054 13.1421 0.559015 13.1238 0.471814 13.0887C0.383145 13.0539 0.3021 13.0022 0.233209 12.9365C0.160293 12.8668 0.102262 12.783 0.0626234 12.6903C0.0219016 12.5996 0.000572676 12.5014 3.31835e-06 12.402V7.79298C0.000253892 7.70331 0.0167135 7.61443 0.0485879 7.53062C0.0801331 7.44693 0.126183 7.36945 0.184625 7.30174L0.215935 7.2715C0.27982 7.2061 0.355217 7.15303 0.438344 7.11495C0.534718 7.06997 0.639692 7.0464 0.746047 7.04586ZM5.37562 7.78974H0.746047V12.402C1.14228 12.402 5.3767 12.402 5.37994 12.402C5.37994 12.0134 5.37994 7.7919 5.37994 7.78974H5.37562ZM7.89122 1.29184e-05H12.524C12.6361 -0.000648319 12.7468 0.024083 12.8479 0.07235C12.9474 0.120417 13.0351 0.189701 13.1049 0.275326C13.1592 0.341217 13.2016 0.416127 13.2301 0.496655C13.2596 0.576484 13.2746 0.660948 13.2744 0.746056V5.35511C13.2743 5.45538 13.2537 5.55457 13.2139 5.64662C13.1742 5.73902 13.1166 5.82266 13.0444 5.89278C12.9727 5.95942 12.8887 6.01148 12.7972 6.04609C12.7094 6.08184 12.6156 6.10053 12.5208 6.10116H7.89122C7.79675 6.10074 7.70326 6.08204 7.61591 6.04609C7.52796 6.01103 7.44739 5.95976 7.37838 5.89494C7.30548 5.82502 7.24714 5.74136 7.20672 5.64878C7.166 5.55586 7.14504 5.45549 7.14518 5.35403V0.746056C7.145 0.656702 7.16147 0.568096 7.19376 0.484779C7.22469 0.401022 7.2704 0.323497 7.32872 0.255892L7.35895 0.225661C7.42353 0.160306 7.4992 0.106934 7.58244 0.0680313C7.67942 0.0238406 7.78465 0.000660605 7.89122 1.29184e-05ZM12.524 0.743897H7.89122V5.35835C8.28853 5.35835 12.5219 5.35835 12.5262 5.35835C12.5262 4.96968 12.5262 0.747136 12.5262 0.746056L12.524 0.743897ZM5.37886 0.743897H0.746047V5.35619C1.14228 5.35619 5.3767 5.35619 5.37994 5.35619C5.37994 4.96752 5.37994 0.744976 5.37994 0.743897H5.37886Z" fill="white" stroke="white" strokeWidth="11.7995" mask="url(#path-1-inside-1_128_6195)"/>
</svg>
