<svg width="16" height="16" viewBox="0 0 16 16" fill="none" xmlns="http://www.w3.org/2000/svg">
<path d="M14.6149 12.1332C14.6149 12.3787 14.5603 12.6309 14.4444 12.8764C14.3285 13.1218 14.1785 13.3536 13.9808 13.5718C13.6468 13.9399 13.2786 14.2058 12.8627 14.3762C12.4537 14.5467 12.0105 14.6353 11.5333 14.6353C10.8379 14.6353 10.0948 14.4717 9.31073 14.1376C8.5267 13.8036 7.74266 13.3536 6.96545 12.7877C6.17331 12.2083 5.42581 11.5702 4.72926 10.8788C4.03984 10.1848 3.40397 9.4395 2.82713 8.64941C2.26808 7.8722 1.81812 7.09499 1.49087 6.32459C1.16362 5.54738 1 4.80425 1 4.09522C1 3.63162 1.08181 3.18847 1.24544 2.77941C1.40906 2.36353 1.66813 1.98174 2.02947 1.64086C2.4658 1.21135 2.94303 1 3.44754 1C3.63843 1 3.82933 1.04091 3.99977 1.12272C4.17703 1.20453 4.33384 1.32725 4.45655 1.50451L6.03825 3.73388C6.16097 3.90432 6.2496 4.06113 6.31096 4.21112C6.37232 4.35429 6.4064 4.49746 6.4064 4.62699C6.4064 4.79062 6.35868 4.95424 6.26323 5.11105C6.1746 5.26785 6.04507 5.43148 5.88144 5.5951L5.3633 6.1337C5.28831 6.20869 5.25422 6.29732 5.25422 6.4064C5.25422 6.46094 5.26104 6.50867 5.27467 6.56321C5.29513 6.61775 5.31558 6.65866 5.32921 6.69956C5.45193 6.92455 5.66328 7.2177 5.96326 7.57222C6.27005 7.92674 6.5973 8.28808 6.95182 8.64941C7.31997 9.01075 7.67449 9.34481 8.03582 9.65161C8.39034 9.95159 8.6835 10.1561 8.9153 10.2788C8.94939 10.2925 8.9903 10.3129 9.03802 10.3334C9.09256 10.3538 9.1471 10.3606 9.20846 10.3606C9.32436 10.3606 9.41299 10.3197 9.48799 10.2447L10.0061 9.73342C10.1766 9.56298 10.3402 9.43344 10.497 9.35163C10.6538 9.25618 10.8106 9.20846 10.9811 9.20846C11.1106 9.20846 11.2469 9.23573 11.3969 9.29709C11.5469 9.35845 11.7037 9.44708 11.8742 9.56298L14.1308 11.1651C14.3081 11.2878 14.4308 11.431 14.5058 11.6015C14.574 11.7719 14.6149 11.9423 14.6149 12.1332Z" stroke="#6019EB" strokeWidth="1.5" stroke-miterlimit="10"/>
<path d="M10.2039 3.72688H13.6127M11.9083 5.43129V2.02246" stroke="#6019EB" strokeWidth="1.5" strokeLinecap="round" stroke-linejoin="round"/>
</svg>
