<svg width="14" height="10" viewBox="0 0 14 10" fill="none" xmlns="http://www.w3.org/2000/svg">
<mask id="path-1-inside-1_1_1740" fill="white">
<path d="M5.17287 0H7.47592C7.32245 0.144859 7.17145 0.292316 7.02298 0.442307L7.01547 0.449826H5.17287C5.03597 0.449826 4.91153 0.506086 4.82104 0.596311C4.73082 0.686535 4.67482 0.811242 4.67482 0.947875V3.28256C4.67482 3.41919 4.73108 3.54364 4.8213 3.63386C4.89623 3.70905 4.99501 3.76065 5.10416 3.77594V3.76765C5.10416 3.31341 5.30716 3.01992 5.56721 2.8877C5.67169 2.83429 5.78629 2.80785 5.9014 2.80785C6.016 2.80785 6.13059 2.83481 6.23534 2.8877C6.35382 2.94759 6.46064 3.04041 6.54205 3.16511C6.14433 2.49569 5.86925 2.05986 5.28539 1.60641L6.00303 1.44437C6.22108 1.57011 6.36315 1.67434 6.53219 1.86075C6.97087 1.15503 7.46581 0.74487 8.08468 0.189782L8.14534 0.166448H8.82255C7.9146 1.17473 7.23973 1.98027 6.56123 3.19597C6.64886 3.34323 6.70253 3.53171 6.70253 3.76065V3.78061H8.10153C8.23349 3.78061 8.35431 3.72824 8.44376 3.64346L8.45283 3.63386C8.54332 3.54338 8.59958 3.41893 8.59958 3.28256V1.14621C8.73517 0.986246 8.87181 0.828094 9.00818 0.672016C9.03573 0.761377 9.04971 0.854365 9.04966 0.947875V3.28256C9.04966 3.54312 8.94259 3.78009 8.77095 3.95198L8.75721 3.96469C8.58636 4.1288 8.35509 4.23043 8.10153 4.23043H6.70253V4.32662C6.71705 4.32273 6.73209 4.32066 6.74764 4.32066H6.98461C6.99835 4.32066 7.01158 4.32221 7.02428 4.32533C7.30869 4.37096 7.45051 4.56074 7.51766 4.80704C7.54528 4.78957 7.57729 4.78031 7.60996 4.78034H7.84693C7.86067 4.78034 7.87389 4.78189 7.8866 4.785C8.18942 4.83349 8.33046 5.04531 8.39191 5.31468C8.40668 5.31079 8.42198 5.30846 8.4378 5.30846H8.67476C8.68851 5.30846 8.70173 5.31028 8.71443 5.31313C9.36519 5.41735 9.3556 6.25556 9.34937 6.80235C9.34937 7.05539 9.36026 7.30688 9.3626 7.55966C9.33356 8.14975 9.06626 8.61021 8.79117 9.08492L8.76758 9.12563C8.64599 9.33822 8.5052 9.50052 8.34472 9.61149C8.18138 9.72427 8.00067 9.78235 7.80234 9.78442L7.78626 9.7852H5.75362C5.54932 9.78883 5.39039 9.69938 5.27346 9.52438C5.17961 9.38359 5.11712 9.18629 5.08342 8.93766L3.79487 6.98772C3.7189 6.88505 3.61831 6.72975 3.54364 6.56045C3.48582 6.42901 3.44175 6.28615 3.43268 6.14589C3.42179 5.97996 3.44486 5.84644 3.49205 5.74195C3.55064 5.61232 3.64398 5.5278 3.75676 5.48191C3.86202 5.43913 3.98128 5.43265 4.10106 5.4565C4.24469 5.48502 4.39299 5.55787 4.51952 5.66236L4.9639 6.02714L5.10416 6.14226V4.2281C4.87082 4.21125 4.65978 4.10858 4.50318 3.95198C4.33155 3.78035 4.22473 3.54338 4.22473 3.28256V0.947875C4.22473 0.687054 4.33155 0.449826 4.50318 0.278192C4.67482 0.106558 4.91179 0 5.17287 0ZM8.02038 7.43184C8.02038 7.35432 8.08338 7.29132 8.1609 7.29132C8.23842 7.29132 8.30116 7.35432 8.30116 7.43184V8.07405C8.30116 8.15157 8.23842 8.21431 8.1609 8.21431C8.08338 8.21431 8.02038 8.15157 8.02038 8.07405V7.43184ZM7.19021 7.14795C7.19021 7.07043 7.25321 7.00743 7.33073 7.00743C7.40825 7.00743 7.47125 7.07043 7.47125 7.14795V8.07379C7.47125 8.15131 7.40825 8.21431 7.33073 8.21431C7.25321 8.21431 7.19021 8.15131 7.19021 8.07379V7.14795ZM8.43261 5.65251C8.43987 5.83529 8.42898 6.02429 8.41939 6.19567C8.41368 6.29704 8.40824 6.39089 8.40824 6.47801C8.40824 6.57316 8.3315 6.65016 8.23635 6.65016C8.14146 6.65016 8.06445 6.57316 8.06445 6.47801C8.06445 6.39712 8.07042 6.29108 8.0769 6.17674C8.10101 5.75051 8.13316 5.18064 7.83552 5.12412H7.60996C7.59492 5.12412 7.58015 5.12231 7.5664 5.11868C7.5804 5.32402 7.56822 5.54128 7.55707 5.73599C7.55137 5.83736 7.54618 5.93148 7.54618 6.01859C7.54618 6.11348 7.46918 6.19048 7.37403 6.19048C7.27914 6.19048 7.20214 6.11348 7.20214 6.01859C7.20214 5.9377 7.20836 5.83166 7.21458 5.71732C7.23869 5.29109 7.27084 4.72096 6.97321 4.6647H6.74764C6.73209 4.6647 6.71705 4.66263 6.70253 4.65874V5.54621C6.70253 5.6411 6.62553 5.7181 6.53064 5.7181C6.43575 5.7181 6.35875 5.6411 6.35875 5.54621V3.76065C6.35875 3.46145 6.23663 3.27271 6.08081 3.19389C6.02377 3.16511 5.96207 3.15033 5.9014 3.15033C5.84099 3.15033 5.77981 3.16459 5.72277 3.19363C5.56825 3.27167 5.44821 3.46119 5.44821 3.76765V6.89672C5.44821 6.94234 5.43008 6.9861 5.39782 7.01836C5.36556 7.05062 5.32181 7.06874 5.27618 7.06874C5.23056 7.06874 5.1868 7.05062 5.15454 7.01836C5.12228 6.9861 5.10416 6.94234 5.10416 6.89672V6.57886C5.09481 6.57393 5.08596 6.56811 5.07771 6.56149C4.98982 6.49123 4.86771 6.39193 4.74689 6.29315L4.30044 5.92707C4.21747 5.85836 4.12336 5.81118 4.03521 5.79355C3.97869 5.7824 3.92658 5.78369 3.88587 5.80003C3.85269 5.81351 3.82417 5.84047 3.80498 5.88299C3.77983 5.93848 3.76816 6.01781 3.77517 6.12437C3.78113 6.21874 3.81431 6.32271 3.85813 6.42201C3.92372 6.57056 4.01084 6.70461 4.07488 6.79016L5.39194 8.7821C5.40724 8.80517 5.41632 8.83084 5.41917 8.85651C5.44535 9.0717 5.49098 9.2327 5.55839 9.33356C5.60714 9.40667 5.67066 9.44426 5.74973 9.44219C6.40049 9.43182 7.15677 9.41393 7.80104 9.44219C7.92808 9.44011 8.04449 9.40226 8.15001 9.32941C8.26642 9.24878 8.37298 9.12381 8.46943 8.95503L8.49406 8.91277C8.74788 8.47539 8.99418 8.05097 9.02011 7.5467L9.00688 6.96257C9.00563 6.95408 9.00502 6.9455 9.00507 6.93691L9.00688 6.79898C9.01181 6.37119 9.01907 5.71654 8.66336 5.65251H8.43261ZM0.947875 0H2.57554C2.83611 0 3.07333 0.106817 3.24497 0.278451L3.25767 0.292192C3.42179 0.462789 3.52342 0.694572 3.52342 0.947875V3.28256C3.52342 3.54312 3.4166 3.78009 3.24471 3.95198C3.07307 4.12362 2.83585 4.23043 2.57554 4.23043H0.947875C0.688091 4.23043 0.451122 4.12388 0.279229 3.95198H0.278451C0.106817 3.78035 0 3.54338 0 3.28256V0.947875C0 0.687054 0.106558 0.449826 0.278192 0.278192L0.291933 0.265747C0.46253 0.101373 0.694054 0 0.947875 0ZM2.57554 0.449826H0.947875C0.815649 0.449826 0.694832 0.501938 0.605385 0.586718L0.596311 0.596311C0.506086 0.686535 0.449826 0.811242 0.449826 0.947875V3.28256C0.449826 3.41919 0.506086 3.54364 0.59657 3.63386C0.686535 3.72461 0.811242 3.78061 0.947875 3.78061H2.57554C2.71166 3.78061 2.83636 3.72435 2.92659 3.63386C3.01707 3.54338 3.07359 3.41893 3.07359 3.28256V0.947875C3.07359 0.815908 3.02122 0.695091 2.93644 0.605385L2.92685 0.596311C2.83662 0.506086 2.71218 0.449826 2.57554 0.449826ZM10.6989 0H12.3265C12.5871 0 12.8243 0.106817 12.9959 0.278451L13.0086 0.292192C13.1728 0.462789 13.2744 0.694572 13.2744 0.947875V3.28256C13.2744 3.54286 13.1676 3.78009 12.9957 3.95198C12.824 4.12362 12.5868 4.23043 12.3265 4.23043H10.6989C10.4391 4.23043 10.2021 4.12388 10.0302 3.95198H10.0294C9.85779 3.78035 9.75098 3.54338 9.75098 3.28256V0.947875C9.75098 0.687054 9.85753 0.449826 10.0292 0.278192L10.0429 0.265747C10.2135 0.101373 10.445 0 10.6989 0ZM12.3265 0.449826H10.6989C10.5666 0.449826 10.4458 0.501938 10.3564 0.586718L10.3473 0.596311C10.2571 0.686535 10.2008 0.811242 10.2008 0.947875V3.28256C10.2008 3.41919 10.2571 3.54364 10.3475 3.63386C10.4375 3.72461 10.5622 3.78061 10.6989 3.78061H12.3265C12.4626 3.78061 12.5873 3.72435 12.6778 3.63386C12.768 3.54338 12.8246 3.41893 12.8246 3.28256V0.947875C12.8246 0.815908 12.7722 0.695091 12.6874 0.605385L12.6778 0.596311C12.5876 0.506086 12.4632 0.449826 12.3265 0.449826Z"/>
</mask>
<path d="M5.17287 0H7.47592C7.32245 0.144859 7.17145 0.292316 7.02298 0.442307L7.01547 0.449826H5.17287C5.03597 0.449826 4.91153 0.506086 4.82104 0.596311C4.73082 0.686535 4.67482 0.811242 4.67482 0.947875V3.28256C4.67482 3.41919 4.73108 3.54364 4.8213 3.63386C4.89623 3.70905 4.99501 3.76065 5.10416 3.77594V3.76765C5.10416 3.31341 5.30716 3.01992 5.56721 2.8877C5.67169 2.83429 5.78629 2.80785 5.9014 2.80785C6.016 2.80785 6.13059 2.83481 6.23534 2.8877C6.35382 2.94759 6.46064 3.04041 6.54205 3.16511C6.14433 2.49569 5.86925 2.05986 5.28539 1.60641L6.00303 1.44437C6.22108 1.57011 6.36315 1.67434 6.53219 1.86075C6.97087 1.15503 7.46581 0.74487 8.08468 0.189782L8.14534 0.166448H8.82255C7.9146 1.17473 7.23973 1.98027 6.56123 3.19597C6.64886 3.34323 6.70253 3.53171 6.70253 3.76065V3.78061H8.10153C8.23349 3.78061 8.35431 3.72824 8.44376 3.64346L8.45283 3.63386C8.54332 3.54338 8.59958 3.41893 8.59958 3.28256V1.14621C8.73517 0.986246 8.87181 0.828094 9.00818 0.672016C9.03573 0.761377 9.04971 0.854365 9.04966 0.947875V3.28256C9.04966 3.54312 8.94259 3.78009 8.77095 3.95198L8.75721 3.96469C8.58636 4.1288 8.35509 4.23043 8.10153 4.23043H6.70253V4.32662C6.71705 4.32273 6.73209 4.32066 6.74764 4.32066H6.98461C6.99835 4.32066 7.01158 4.32221 7.02428 4.32533C7.30869 4.37096 7.45051 4.56074 7.51766 4.80704C7.54528 4.78957 7.57729 4.78031 7.60996 4.78034H7.84693C7.86067 4.78034 7.87389 4.78189 7.8866 4.785C8.18942 4.83349 8.33046 5.04531 8.39191 5.31468C8.40668 5.31079 8.42198 5.30846 8.4378 5.30846H8.67476C8.68851 5.30846 8.70173 5.31028 8.71443 5.31313C9.36519 5.41735 9.3556 6.25556 9.34937 6.80235C9.34937 7.05539 9.36026 7.30688 9.3626 7.55966C9.33356 8.14975 9.06626 8.61021 8.79117 9.08492L8.76758 9.12563C8.64599 9.33822 8.5052 9.50052 8.34472 9.61149C8.18138 9.72427 8.00067 9.78235 7.80234 9.78442L7.78626 9.7852H5.75362C5.54932 9.78883 5.39039 9.69938 5.27346 9.52438C5.17961 9.38359 5.11712 9.18629 5.08342 8.93766L3.79487 6.98772C3.7189 6.88505 3.61831 6.72975 3.54364 6.56045C3.48582 6.42901 3.44175 6.28615 3.43268 6.14589C3.42179 5.97996 3.44486 5.84644 3.49205 5.74195C3.55064 5.61232 3.64398 5.5278 3.75676 5.48191C3.86202 5.43913 3.98128 5.43265 4.10106 5.4565C4.24469 5.48502 4.39299 5.55787 4.51952 5.66236L4.9639 6.02714L5.10416 6.14226V4.2281C4.87082 4.21125 4.65978 4.10858 4.50318 3.95198C4.33155 3.78035 4.22473 3.54338 4.22473 3.28256V0.947875C4.22473 0.687054 4.33155 0.449826 4.50318 0.278192C4.67482 0.106558 4.91179 0 5.17287 0ZM8.02038 7.43184C8.02038 7.35432 8.08338 7.29132 8.1609 7.29132C8.23842 7.29132 8.30116 7.35432 8.30116 7.43184V8.07405C8.30116 8.15157 8.23842 8.21431 8.1609 8.21431C8.08338 8.21431 8.02038 8.15157 8.02038 8.07405V7.43184ZM7.19021 7.14795C7.19021 7.07043 7.25321 7.00743 7.33073 7.00743C7.40825 7.00743 7.47125 7.07043 7.47125 7.14795V8.07379C7.47125 8.15131 7.40825 8.21431 7.33073 8.21431C7.25321 8.21431 7.19021 8.15131 7.19021 8.07379V7.14795ZM8.43261 5.65251C8.43987 5.83529 8.42898 6.02429 8.41939 6.19567C8.41368 6.29704 8.40824 6.39089 8.40824 6.47801C8.40824 6.57316 8.3315 6.65016 8.23635 6.65016C8.14146 6.65016 8.06445 6.57316 8.06445 6.47801C8.06445 6.39712 8.07042 6.29108 8.0769 6.17674C8.10101 5.75051 8.13316 5.18064 7.83552 5.12412H7.60996C7.59492 5.12412 7.58015 5.12231 7.5664 5.11868C7.5804 5.32402 7.56822 5.54128 7.55707 5.73599C7.55137 5.83736 7.54618 5.93148 7.54618 6.01859C7.54618 6.11348 7.46918 6.19048 7.37403 6.19048C7.27914 6.19048 7.20214 6.11348 7.20214 6.01859C7.20214 5.9377 7.20836 5.83166 7.21458 5.71732C7.23869 5.29109 7.27084 4.72096 6.97321 4.6647H6.74764C6.73209 4.6647 6.71705 4.66263 6.70253 4.65874V5.54621C6.70253 5.6411 6.62553 5.7181 6.53064 5.7181C6.43575 5.7181 6.35875 5.6411 6.35875 5.54621V3.76065C6.35875 3.46145 6.23663 3.27271 6.08081 3.19389C6.02377 3.16511 5.96207 3.15033 5.9014 3.15033C5.84099 3.15033 5.77981 3.16459 5.72277 3.19363C5.56825 3.27167 5.44821 3.46119 5.44821 3.76765V6.89672C5.44821 6.94234 5.43008 6.9861 5.39782 7.01836C5.36556 7.05062 5.32181 7.06874 5.27618 7.06874C5.23056 7.06874 5.1868 7.05062 5.15454 7.01836C5.12228 6.9861 5.10416 6.94234 5.10416 6.89672V6.57886C5.09481 6.57393 5.08596 6.56811 5.07771 6.56149C4.98982 6.49123 4.86771 6.39193 4.74689 6.29315L4.30044 5.92707C4.21747 5.85836 4.12336 5.81118 4.03521 5.79355C3.97869 5.7824 3.92658 5.78369 3.88587 5.80003C3.85269 5.81351 3.82417 5.84047 3.80498 5.88299C3.77983 5.93848 3.76816 6.01781 3.77517 6.12437C3.78113 6.21874 3.81431 6.32271 3.85813 6.42201C3.92372 6.57056 4.01084 6.70461 4.07488 6.79016L5.39194 8.7821C5.40724 8.80517 5.41632 8.83084 5.41917 8.85651C5.44535 9.0717 5.49098 9.2327 5.55839 9.33356C5.60714 9.40667 5.67066 9.44426 5.74973 9.44219C6.40049 9.43182 7.15677 9.41393 7.80104 9.44219C7.92808 9.44011 8.04449 9.40226 8.15001 9.32941C8.26642 9.24878 8.37298 9.12381 8.46943 8.95503L8.49406 8.91277C8.74788 8.47539 8.99418 8.05097 9.02011 7.5467L9.00688 6.96257C9.00563 6.95408 9.00502 6.9455 9.00507 6.93691L9.00688 6.79898C9.01181 6.37119 9.01907 5.71654 8.66336 5.65251H8.43261ZM0.947875 0H2.57554C2.83611 0 3.07333 0.106817 3.24497 0.278451L3.25767 0.292192C3.42179 0.462789 3.52342 0.694572 3.52342 0.947875V3.28256C3.52342 3.54312 3.4166 3.78009 3.24471 3.95198C3.07307 4.12362 2.83585 4.23043 2.57554 4.23043H0.947875C0.688091 4.23043 0.451122 4.12388 0.279229 3.95198H0.278451C0.106817 3.78035 0 3.54338 0 3.28256V0.947875C0 0.687054 0.106558 0.449826 0.278192 0.278192L0.291933 0.265747C0.46253 0.101373 0.694054 0 0.947875 0ZM2.57554 0.449826H0.947875C0.815649 0.449826 0.694832 0.501938 0.605385 0.586718L0.596311 0.596311C0.506086 0.686535 0.449826 0.811242 0.449826 0.947875V3.28256C0.449826 3.41919 0.506086 3.54364 0.59657 3.63386C0.686535 3.72461 0.811242 3.78061 0.947875 3.78061H2.57554C2.71166 3.78061 2.83636 3.72435 2.92659 3.63386C3.01707 3.54338 3.07359 3.41893 3.07359 3.28256V0.947875C3.07359 0.815908 3.02122 0.695091 2.93644 0.605385L2.92685 0.596311C2.83662 0.506086 2.71218 0.449826 2.57554 0.449826ZM10.6989 0H12.3265C12.5871 0 12.8243 0.106817 12.9959 0.278451L13.0086 0.292192C13.1728 0.462789 13.2744 0.694572 13.2744 0.947875V3.28256C13.2744 3.54286 13.1676 3.78009 12.9957 3.95198C12.824 4.12362 12.5868 4.23043 12.3265 4.23043H10.6989C10.4391 4.23043 10.2021 4.12388 10.0302 3.95198H10.0294C9.85779 3.78035 9.75098 3.54338 9.75098 3.28256V0.947875C9.75098 0.687054 9.85753 0.449826 10.0292 0.278192L10.0429 0.265747C10.2135 0.101373 10.445 0 10.6989 0ZM12.3265 0.449826H10.6989C10.5666 0.449826 10.4458 0.501938 10.3564 0.586718L10.3473 0.596311C10.2571 0.686535 10.2008 0.811242 10.2008 0.947875V3.28256C10.2008 3.41919 10.2571 3.54364 10.3475 3.63386C10.4375 3.72461 10.5622 3.78061 10.6989 3.78061H12.3265C12.4626 3.78061 12.5873 3.72435 12.6778 3.63386C12.768 3.54338 12.8246 3.41893 12.8246 3.28256V0.947875C12.8246 0.815908 12.7722 0.695091 12.6874 0.605385L12.6778 0.596311C12.5876 0.506086 12.4632 0.449826 12.3265 0.449826Z" fill="white" stroke="white" strokeWidth="26.5488" mask="url(#path-1-inside-1_1_1740)"/>
</svg>
