<svg width="30" height="36" viewBox="0 0 30 36" fill="none" xmlns="http://www.w3.org/2000/svg">
<path d="M24.1479 35.5578C24.0124 35.5578 23.8798 35.5183 23.7665 35.444C23.6531 35.3698 23.5638 35.2641 23.5096 35.1399C23.4157 34.965 23.3536 34.7748 23.3262 34.5782C23.3123 33.2064 23.3262 31.8369 23.3262 30.4673C23.3262 30.1052 23.3262 30.1052 22.9734 30.1029L22.5254 30.0913C22.5043 30.085 22.4846 30.0748 22.4674 30.0611C22.5625 29.4483 22.66 28.8425 22.7529 28.2343C22.79 28.0022 22.8109 27.7701 22.8573 27.538C22.9502 27.0505 23.0895 26.5677 23.1452 26.0756C23.1753 25.5267 23.1597 24.9762 23.0987 24.4299C23.0502 24.5544 23.0114 24.6824 22.9827 24.8129C22.9223 25.24 22.8782 25.6694 22.8225 26.0988C22.7971 26.3219 22.7599 26.5435 22.7111 26.7627C22.6788 26.8445 22.621 26.9137 22.5463 26.96C22.4363 27.0516 22.3115 27.1238 22.1772 27.1736C21.9033 27.2502 21.5458 26.9855 21.3973 26.7372C21.1791 26.3774 21.2557 26.0013 21.2928 25.6439C21.3357 25.0667 21.4455 24.4965 21.6201 23.9448C21.7919 23.455 21.8755 22.9048 22.2794 22.5149C22.3142 22.4824 22.3142 22.4151 22.3374 22.3663C22.7117 21.6485 23.2569 21.0338 23.9251 20.5767C24.1523 20.42 24.394 20.2855 24.647 20.1751C24.728 20.1387 24.8193 20.1324 24.9045 20.1576C24.9896 20.1827 25.063 20.2375 25.1112 20.3121C25.1391 20.3492 25.1623 20.391 25.1925 20.4258C25.3642 20.6301 25.4849 20.6161 25.7287 20.3701C25.8053 20.2912 25.8865 20.1635 25.9608 20.1612C26.1309 20.1666 26.2986 20.2036 26.4552 20.2703C26.5704 20.3225 26.6769 20.3922 26.7709 20.4769C27.1009 20.7162 27.4156 20.9759 27.7133 21.2545C28.0226 21.5728 28.3023 21.9185 28.5489 22.2874C28.7404 22.5905 28.905 22.9097 29.041 23.2414C29.1455 23.4735 29.1966 23.7451 29.301 23.9842C29.6794 24.8477 29.6283 25.7576 29.626 26.6652C29.6301 26.7745 29.6002 26.8824 29.5403 26.9739C29.4804 27.0654 29.3935 27.136 29.2917 27.1759C29.1667 27.241 29.0259 27.2694 28.8854 27.2579C28.745 27.2464 28.6106 27.1955 28.4979 27.1109C28.3898 27.0321 28.3044 26.9263 28.2502 26.8041C28.196 26.6818 28.1749 26.5475 28.1891 26.4145C28.1517 25.7742 28.0482 25.1395 27.8804 24.5204C27.8354 24.3629 27.782 24.2079 27.7203 24.0562L27.6576 24.0701C27.6452 24.1258 27.6374 24.1825 27.6344 24.2395C27.6344 24.6086 27.6205 24.98 27.6344 25.3491C27.6274 25.7321 27.6655 26.1147 27.7481 26.4888C27.895 27.1127 28.002 27.7454 28.0684 28.3829C28.1474 28.8657 28.2681 29.3439 28.3632 29.8244C28.3706 29.9101 28.3706 29.9963 28.3632 30.082H27.7412C27.4487 30.082 27.4278 30.1029 27.4278 30.3884C27.4278 31.7603 27.4278 33.1298 27.4278 34.4993C27.4278 34.8707 27.393 35.2073 27.0355 35.4278C26.9918 35.4687 26.9403 35.5003 26.884 35.5206C26.8278 35.541 26.7679 35.5497 26.7082 35.5462H26.1558C26.0722 35.5457 25.9901 35.5242 25.9171 35.4836C25.8441 35.4431 25.7825 35.3847 25.738 35.314C25.7031 35.2583 25.6335 35.2189 25.6173 35.1608C25.5355 34.9363 25.4824 34.7023 25.4594 34.4645C25.4455 33.1066 25.4594 31.7463 25.4594 30.3861C25.4504 30.3076 25.4349 30.2299 25.413 30.154L25.3085 30.1702V30.4395C25.3085 31.8322 25.3085 33.2319 25.3085 34.6386C25.3287 34.7865 25.307 34.9371 25.2458 35.0734C25.1847 35.2096 25.0866 35.3259 24.9627 35.4092C24.8381 35.4975 24.6905 35.5475 24.5379 35.5531L24.1479 35.5578Z" fill="#6019EB"/>
<path d="M9.54198 0.0269219C9.93576 0.0262624 10.3273 0.0865534 10.7026 0.205655C10.8526 0.251577 10.9986 0.309805 11.139 0.379745C11.5375 0.582847 11.8936 0.860166 12.1882 1.19681C12.508 1.56391 12.7582 1.98633 12.9263 2.4433C13.0936 2.9004 13.1632 3.3875 13.1306 3.87316C13.0933 4.50007 12.8898 5.10576 12.541 5.628C12.1191 6.24304 11.5316 6.72594 10.8465 7.02072C10.4264 7.1934 9.9716 7.26496 9.51877 7.22963C9.02866 7.26996 8.5358 7.19853 8.0773 7.02072C7.72133 6.88744 7.39999 6.6756 7.13721 6.40096C6.90509 6.12242 6.64976 5.87405 6.44085 5.5839C6.23194 5.29374 6.02535 5.05234 6.00214 4.69487C5.97196 4.14707 5.9209 3.61087 5.9209 3.07467C5.94779 2.52941 6.14873 2.00713 6.49424 1.58445C6.63663 1.38219 6.79169 1.18914 6.95848 1.00647C7.09307 0.866986 7.24431 0.74459 7.40879 0.642042C7.69062 0.426378 8.01625 0.27505 8.36281 0.198691L8.47655 0.175479C8.82211 0.0796975 9.17876 0.0297507 9.53734 0.0269219H9.54198Z" fill="#6019EB"/>
<path d="M20.2198 0.242879C20.3521 0.291624 20.4844 0.345012 20.6121 0.403042C20.7969 0.499374 20.9699 0.617009 21.1274 0.753545C21.2945 0.885854 21.4477 1.03905 21.6102 1.17833C21.8395 1.39675 22.0289 1.65364 22.1696 1.93736C22.3476 2.28784 22.4705 2.66364 22.534 3.05154C22.6085 3.29339 22.6415 3.54611 22.6315 3.79897C22.5905 4.07471 22.5355 4.34819 22.4667 4.61836C22.4442 4.72211 22.4132 4.82382 22.3739 4.92244C22.1199 5.54768 21.7061 6.0952 21.1738 6.51014C20.9811 6.65085 20.7803 6.78028 20.5726 6.89778C19.8577 7.36203 19.0035 7.239 18.2305 7.18561C17.871 7.13316 17.5245 7.01346 17.2092 6.83279C16.8291 6.61432 16.4898 6.33159 16.2064 5.99716C15.8747 5.62089 15.6263 5.17868 15.4776 4.6996C15.3654 4.34941 15.3021 3.98541 15.2896 3.61792C15.2588 3.32888 15.2913 3.03663 15.3847 2.76139C15.6168 2.1602 15.835 1.54972 16.355 1.08548C16.7047 0.757886 17.0994 0.481966 17.5272 0.266091C17.6178 0.225457 17.7108 0.19057 17.8057 0.161637C18.5973 -0.0787153 19.4462 -0.0501477 20.2198 0.242879Z" fill="#6019EB"/>
<path d="M5.65867 13.9843L5.33602 15.4838C4.43539 14.9639 3.52316 14.9384 2.50879 15.3446C2.59699 14.8989 2.67127 14.5089 2.74091 14.119C2.78037 13.9217 2.81519 13.722 2.87322 13.5294C3.01249 13.0651 3.14016 12.573 3.32121 12.1111C3.46133 11.786 3.63234 11.4751 3.83188 11.1826C3.9931 10.9469 4.16666 10.7199 4.35183 10.5025C4.44574 10.3787 4.5473 10.2609 4.65591 10.1497C4.96927 9.84098 5.28031 9.52994 5.61224 9.24443C5.94349 8.96079 6.28903 8.69428 6.6475 8.44593C6.89266 8.2894 7.14689 8.14756 7.40886 8.02115C7.68741 7.8726 7.96827 7.731 8.24682 7.58012C8.33342 7.54368 8.42905 7.53438 8.52106 7.55344C8.61307 7.57251 8.69713 7.61904 8.76213 7.6869C8.95711 7.90045 9.15673 8.10936 9.361 8.31363C9.48402 8.43433 9.59312 8.35309 9.67668 8.2556C9.87839 8.0143 10.0971 7.78779 10.3313 7.5778C10.3982 7.54832 10.4705 7.5331 10.5437 7.5331C10.6168 7.5331 10.6891 7.54832 10.756 7.5778C11.1506 7.73255 11.5375 7.91128 11.9166 8.114C12.1248 8.2389 12.3249 8.3769 12.5155 8.52718C12.5852 8.5736 12.6641 8.6061 12.7291 8.65716C13.0935 8.94732 13.4556 9.23747 13.8131 9.53458C13.9093 9.61845 13.9993 9.70922 14.0823 9.80616C14.1845 9.9199 14.2657 9.93615 14.3818 9.82937C14.6626 9.5592 14.957 9.30353 15.2638 9.06338C15.6213 8.79644 16.0089 8.5736 16.3803 8.32755C16.6473 8.15346 16.898 7.95616 17.1765 7.80064C17.3918 7.68975 17.6182 7.60183 17.852 7.53834C18.1189 7.4571 18.2327 7.68922 18.3789 7.83546C18.5251 7.98169 18.6574 8.16507 18.8176 8.2997C18.9778 8.43433 19.0938 8.2997 19.1867 8.19292C19.3572 7.97582 19.5384 7.76742 19.7298 7.56852C19.8157 7.49656 20.013 7.53138 20.1546 7.55459C20.2688 7.5858 20.3782 7.63267 20.4796 7.69386C20.7767 7.83546 21.0831 7.9608 21.3663 8.12329C21.6637 8.30584 21.9491 8.50743 22.2205 8.7268C22.513 8.95892 22.7985 9.19104 23.084 9.42316C23.2929 9.59493 23.5157 9.7551 23.7084 9.94544C23.9315 10.1603 24.1364 10.3932 24.3212 10.6418C24.6155 11.0333 24.8815 11.4451 25.1174 11.8744C25.3198 12.278 25.4875 12.6981 25.6187 13.1301C25.758 13.5549 25.8068 14.0145 25.9809 14.423C26.0592 14.6531 26.0976 14.8949 26.0946 15.138C25.6269 15.0182 25.1364 15.0199 24.6696 15.143C24.2028 15.2661 23.7753 15.5065 23.4275 15.8413C23.2302 15.0567 23.1397 14.2838 22.7637 13.541C22.7402 13.6038 22.7246 13.6693 22.7172 13.736C22.7172 14.5623 22.6963 15.391 22.7474 16.215C22.7635 16.5534 22.7385 16.8924 22.6731 17.2247C22.5325 17.8414 22.5977 18.4871 22.8588 19.0631C23.0346 19.3461 23.2434 19.6072 23.4809 19.8407C23.583 19.9591 23.5691 20.0427 23.4484 20.1379C23.1701 20.3539 22.905 20.5865 22.6546 20.8342C22.4224 21.0849 22.2112 21.3751 21.9953 21.649C21.9241 21.7415 21.8612 21.8401 21.8073 21.9438C21.668 22.2177 21.5265 22.4892 21.4058 22.7701C21.285 23.051 21.2061 23.3759 21.0645 23.6591C20.8138 24.1582 20.844 24.7106 20.7187 25.2283C20.6132 25.6743 20.5841 26.1351 20.6328 26.5908C20.6776 26.8705 20.8016 27.1316 20.9903 27.3429C21.1327 27.5099 21.3111 27.6424 21.5121 27.7305C21.7132 27.8185 21.9316 27.8598 22.1509 27.8512C22.0534 28.3341 21.9536 28.796 21.87 29.2625C21.8166 29.562 21.7934 29.8684 21.747 30.1678C21.7269 30.2866 21.691 30.4021 21.6402 30.5113C21.6256 30.5505 21.6211 30.5927 21.6272 30.6341C21.6333 30.6755 21.6497 30.7146 21.6749 30.748C21.7001 30.7813 21.7334 30.8077 21.7715 30.8248C21.8097 30.8418 21.8515 30.849 21.8932 30.8456C22.0859 30.8456 22.2808 30.8456 22.5014 30.8456V31.4654C22.5014 32.1617 22.5176 32.8581 22.5014 33.5544C22.4963 33.8232 22.4379 34.0883 22.3296 34.3344C22.1595 34.6551 21.8977 34.9177 21.5775 35.0888C21.3908 35.2048 21.1792 35.2749 20.9601 35.2935C20.7411 35.3121 20.5207 35.2785 20.3171 35.1955C19.9987 35.0772 19.7209 34.8702 19.5163 34.599C19.2099 34.2137 19.1983 33.7866 19.2006 33.3363C19.2006 31.6116 19.2006 29.8869 19.2006 28.1623V27.8652L18.9546 27.8303V32.937C18.9546 33.0415 18.9546 33.1436 18.9546 33.2457C18.9743 33.7107 18.8538 34.1709 18.6087 34.5665C18.4755 34.7531 18.2996 34.9051 18.0957 35.0098C17.8281 35.2187 17.4916 35.319 17.1533 35.2907C16.9028 35.2602 16.6612 35.1786 16.4436 35.0508C16.2259 34.923 16.0369 34.7518 15.8882 34.5479C15.666 34.2237 15.5634 33.8323 15.5981 33.4407C15.5981 31.559 15.5981 29.6773 15.5981 27.7955C15.5981 27.5356 15.4751 27.4241 15.229 27.3615C14.8287 27.2638 14.4336 27.1461 14.0452 27.0086C13.8793 26.9358 13.7233 26.8422 13.581 26.7301C13.1631 26.4423 13.0587 26.1846 13.1747 25.7343C13.1933 25.667 13.2212 25.5532 13.2328 25.4836C13.3117 25.0735 13.3891 24.6619 13.4649 24.2487C13.5554 23.7845 13.6367 23.297 13.7365 22.8235C13.7875 22.5775 13.8688 22.3384 13.9291 22.0923C13.9732 21.9113 14.0081 21.7279 14.0359 21.5445C14.08 21.2776 14.1032 21.0037 14.1589 20.7367C14.2146 20.4698 14.3098 20.2423 14.3493 19.9893C14.3613 19.857 14.3304 19.7243 14.2611 19.6109C14.2379 19.5692 14.0823 19.5738 14.0011 19.6109C13.9199 19.6481 13.8456 19.7386 13.755 19.7781C13.6088 19.8431 13.4533 19.8825 13.2908 19.9359C13.1283 19.9893 13.0587 20.0311 12.8962 20.0914V20.5394C12.8962 24.8399 12.8962 29.1395 12.8962 33.4384C12.9001 33.749 12.84 34.0572 12.7198 34.3437C12.5699 34.6849 12.2973 34.9574 11.9561 35.1073C11.7105 35.2526 11.4289 35.3258 11.1437 35.3186C10.3707 35.2327 9.5908 34.7034 9.58848 33.7773C9.58848 32.2561 9.58848 30.7365 9.58848 29.2184C9.58848 26.9181 9.58848 24.6201 9.58848 22.3198C9.56906 22.1957 9.53315 22.0747 9.4817 21.96H9.36564C9.3322 22.0586 9.30963 22.1606 9.29833 22.2641C9.29833 25.9579 9.29833 29.6509 9.29833 33.3432C9.29833 33.4523 9.29833 33.5637 9.29833 33.6728C9.29966 33.9131 9.24245 34.15 9.13163 34.3631C9.02081 34.5763 8.85972 34.7592 8.66231 34.8961C8.35465 35.1758 7.94977 35.3241 7.53421 35.3093C7.16931 35.2919 6.82586 35.1318 6.57787 34.8636C6.52419 34.7983 6.4954 34.716 6.49663 34.6315C6.49663 32.3567 6.49663 30.0811 6.49663 27.8048C6.49663 27.7514 6.49663 27.6957 6.49663 27.5889C6.62661 27.6307 6.72875 27.6609 6.84481 27.7004C7.15871 27.8017 7.49809 27.7906 7.80473 27.6691C8.11137 27.5475 8.36615 27.3231 8.52536 27.0342C8.64787 26.7855 8.71367 26.5128 8.71802 26.2357C8.70109 25.6314 8.61938 25.0306 8.4743 24.4437C8.36497 23.9378 8.21913 23.4406 8.03791 22.9558C7.89757 22.5636 7.70386 22.1926 7.46225 21.8532C7.09915 21.3577 6.69708 20.892 6.25986 20.4605C6.02774 20.2423 5.87918 20.045 5.93954 19.7386C5.97094 19.5876 6.036 19.4455 6.12988 19.3231C6.47648 18.896 6.64301 18.3506 6.59412 17.8027C6.59803 17.4837 6.55342 17.1659 6.46181 16.8603C6.29507 16.5271 6.10015 16.2087 5.87918 15.9086C5.82243 15.8288 5.78579 15.7364 5.77241 15.6394C5.77241 15.0869 5.77241 14.5345 5.77241 13.982L5.65867 13.9843Z" fill="#6019EB"/>
<path d="M3.95998 28.5082C3.93445 28.5476 3.89035 28.5848 3.8857 28.6266C3.8799 28.7286 3.8799 28.8309 3.8857 28.933C3.8857 30.7365 3.8857 32.5401 3.8857 34.3414C3.8857 35.2188 3.08489 35.5646 2.38852 35.2072C2.27483 35.1514 2.17723 35.0676 2.10494 34.9636C2.03265 34.8596 1.98805 34.7389 1.97535 34.613C1.95214 34.1766 1.91035 33.7402 1.90803 33.3038C1.90803 31.3192 1.90803 29.3368 1.90803 27.3522C1.90803 27.0319 1.79429 26.7116 1.78269 26.3889C1.75948 25.7924 1.78269 25.1935 1.78269 24.5946C1.78546 24.4925 1.76314 24.3913 1.71769 24.2998C1.66425 24.4783 1.62086 24.6596 1.58771 24.843C1.52736 25.3072 1.48789 25.7715 1.43219 26.2357C1.41885 26.3735 1.38359 26.5083 1.32773 26.635C1.20471 26.8903 0.830993 27.0156 0.48049 26.946C0.349767 26.907 0.233899 26.8294 0.148134 26.7234C0.062369 26.6173 0.010726 26.4878 0 26.3518C0.0232121 25.8736 -5.32666e-07 25.3908 0.0348176 24.9126C0.0662441 24.5725 0.129187 24.236 0.222836 23.9075C0.303356 23.6096 0.407362 23.3186 0.533878 23.0371C0.651942 22.782 0.790102 22.5367 0.947053 22.3036C1.17037 21.9141 1.42664 21.5444 1.71305 21.1987C2.01058 20.9048 2.33723 20.6419 2.68796 20.4141C2.86504 20.3067 3.05245 20.2172 3.24737 20.1472C3.34192 20.1004 3.45114 20.0929 3.55118 20.1264C3.65121 20.1599 3.73392 20.2316 3.78125 20.3259C3.95302 20.5789 4.04354 20.5836 4.21764 20.3259C4.30199 20.2047 4.43106 20.1219 4.57644 20.0958C4.72183 20.0696 4.87163 20.1023 4.99292 20.1866C5.38027 20.3826 5.73246 20.6415 6.03514 20.9526C6.28583 21.2149 6.57134 21.4494 6.79418 21.7326C6.99651 22.0011 7.17074 22.2896 7.31413 22.5937C7.52712 23.0024 7.7102 23.426 7.86193 23.8611C7.98643 24.2874 8.07724 24.7228 8.13351 25.1633C8.18297 25.5196 8.21164 25.8784 8.2194 26.238C8.24029 26.9344 7.64606 27.2524 7.0588 26.9599C6.94634 26.89 6.85239 26.794 6.78491 26.68C6.71744 26.5661 6.67841 26.4376 6.67115 26.3053C6.63866 26.0895 6.67115 25.8643 6.65026 25.6461C6.59687 25.2144 6.52956 24.7826 6.44832 24.3555C6.39936 24.224 6.33384 24.0992 6.25334 23.9841C6.23941 24.1002 6.21852 24.1954 6.2162 24.2882C6.2162 24.8871 6.20227 25.486 6.2162 26.0825C6.20619 26.4889 6.13659 26.8917 6.00961 27.2779C5.98902 27.3779 5.98122 27.4801 5.9864 27.582C5.9864 29.8011 5.9864 32.0209 5.9864 34.2416C5.99476 34.45 5.94517 34.6567 5.84314 34.8386C5.7411 35.0205 5.59062 35.1706 5.40842 35.2722C5.14612 35.4277 4.62849 35.2954 4.38244 35.1143C4.25359 35.0101 4.15309 34.875 4.0902 34.7217C4.02732 34.5683 4.00409 34.4016 4.02265 34.2369C4.02265 32.4728 4.02265 30.7087 4.02265 28.9469V28.5291L3.95998 28.5082Z" fill="#6019EB"/>
<path d="M25.431 19.9313C24.2309 20.0242 23.2769 18.9378 23.2862 17.8306C23.2886 17.2506 23.508 16.6925 23.9013 16.2661C24.1001 16.0575 24.3421 15.895 24.6104 15.7899C24.8786 15.6848 25.1667 15.6398 25.4542 15.658C25.8762 15.6459 26.2918 15.7633 26.645 15.9946C26.9109 16.1786 27.1334 16.4185 27.2968 16.6975C27.4603 16.9766 27.5608 17.2879 27.5913 17.6099C27.6219 17.9318 27.5816 18.2565 27.4735 18.5613C27.3654 18.8661 27.1919 19.1435 26.9653 19.3742C26.7601 19.5653 26.5184 19.7131 26.2548 19.8088C25.9912 19.9045 25.711 19.9462 25.431 19.9313Z" fill="#6019EB"/>
<path d="M3.99669 15.6928C5.21997 15.6023 6.08578 16.6213 6.11131 17.7215C6.1222 18.0035 6.07635 18.2848 5.97648 18.5487C5.87661 18.8127 5.72475 19.0539 5.52992 19.258C5.33509 19.4621 5.10124 19.6251 4.84225 19.7372C4.58327 19.8492 4.30441 19.9081 4.02222 19.9104C3.4684 19.91 2.93654 19.6938 2.53954 19.3077C2.14255 18.9215 1.9117 18.3958 1.896 17.8422C1.85189 16.6677 2.80823 15.593 3.99669 15.6928Z" fill="#6019EB"/>
</svg>
