<svg width="36" height="29" viewBox="0 0 36 29" fill="none" xmlns="http://www.w3.org/2000/svg">
<path d="M28.9622 0C29.2308 0.566842 29.4726 1.11219 29.7198 1.66023C31.5215 5.67379 33.3277 9.68735 35.1384 13.7009C35.3022 14.0609 35.2619 14.2382 34.9288 14.4585C32.252 16.2891 29.1222 17.3461 25.8835 17.513C23.7881 17.6204 21.6846 17.6151 19.5865 17.65C17.2009 17.6903 14.8503 17.9186 12.6017 18.7998C11.3681 19.2849 10.2017 19.9259 9.1308 20.7072C9.01528 20.7905 8.89708 20.8684 8.74126 20.9758L7.76071 18.8455C6.10048 15.208 4.43935 11.5715 2.77733 7.93578C2.69827 7.82014 2.66751 7.67818 2.6916 7.54018C2.71569 7.40218 2.79272 7.27904 2.90628 7.19701C5.48797 4.7792 8.52903 3.43597 12.0698 3.29091C14.1679 3.21031 16.2714 3.23449 18.3722 3.18882C22.0741 3.10554 25.5316 2.17334 28.6694 0.163873C28.75 0.110144 28.8386 0.0671613 28.9622 0ZM21.4186 15.1731V15.2994C22.0097 15.2994 22.6007 15.2994 23.189 15.2994C25.1636 15.2617 27.13 15.1731 29.0482 14.6412C29.1599 14.626 29.2634 14.5743 29.3426 14.4941C29.4218 14.4139 29.4723 14.3098 29.4861 14.1979C29.7198 12.9186 30.2579 11.7143 31.055 10.6867C31.1022 10.6156 31.1335 10.535 31.1464 10.4505C31.1594 10.3661 31.1539 10.2798 31.1302 10.1978C30.609 8.9441 30.0717 7.70385 29.5183 6.47704C29.48 6.40889 29.4276 6.34969 29.3646 6.30337C29.3016 6.25704 29.2294 6.22467 29.1529 6.20839C27.7477 6.01528 26.42 5.44841 25.3086 4.56697C25.2375 4.51716 25.157 4.48241 25.072 4.46485C24.987 4.4473 24.8993 4.44731 24.8143 4.46488C22.6249 5.09889 20.3817 5.29231 18.117 5.33261C16.2365 5.36753 14.3748 5.37022 12.505 5.43201C11.1659 5.47872 9.84011 5.71386 8.56664 6.13049C8.44098 6.15281 8.32737 6.21913 8.24615 6.31758C8.16493 6.41602 8.12141 6.54017 8.12338 6.66778C7.98561 8.05003 7.46871 9.36738 6.62971 10.4745C6.58007 10.5538 6.54877 10.6432 6.53808 10.7361C6.52739 10.8291 6.53759 10.9233 6.56792 11.0118C6.90641 11.8177 7.31207 12.5699 7.6425 13.3705C7.8816 13.9749 8.17979 14.3 8.89976 14.3725C10.2027 14.5015 11.3176 15.2053 12.3331 15.9844C12.4457 16.0873 12.5845 16.1572 12.7342 16.1866C12.8839 16.2159 13.0388 16.2036 13.182 16.151C13.85 15.9258 14.5383 15.7657 15.2371 15.6728C17.2896 15.4605 19.3554 15.3316 21.4186 15.1731Z" fill="#6019EB"/>
<path d="M6.5516 28.8392L4.86719 25.1131C3.28218 21.6028 1.6927 18.0916 0.0987341 14.5796C0.0579242 14.5219 0.0288846 14.4568 0.0132775 14.3879C-0.00232961 14.319 -0.0041977 14.2477 0.00777945 14.1781C0.0197566 14.1084 0.0453444 14.0419 0.0830782 13.9821C0.120812 13.9224 0.169951 13.8707 0.227684 13.83C0.832136 13.2927 1.42316 12.7232 2.02761 12.1591L7.59931 24.4281C7.78199 24.3072 7.92975 24.2105 8.07481 24.1057C10.5974 22.2843 13.3027 20.8309 16.4028 20.2963C17.8937 20.0651 19.3974 19.9251 20.9053 19.8772C22.6139 19.7966 24.3279 19.8423 26.0391 19.7966C28.7941 19.7283 31.5048 19.0879 33.9991 17.9161C34.1012 17.8678 34.2086 17.8221 34.3134 17.7791C34.3583 17.7687 34.4043 17.7633 34.4504 17.763C34.7432 18.4454 35.0522 19.1385 35.3235 19.845C35.3558 19.9283 35.2134 20.1459 35.1005 20.2104C33.4403 21.1746 31.6112 21.8128 29.7115 22.0909C28.0217 22.3139 26.3078 22.4079 24.6073 22.4965C22.5817 22.6013 20.548 22.561 18.5278 22.7195C14.7318 23.015 11.4329 24.5463 8.55838 27.0178C7.88139 27.5712 7.25276 28.1838 6.5516 28.8392Z" fill="#6019EB"/>
<path d="M18.3638 6.13059C19.3507 6.19796 20.3004 6.53393 21.1101 7.10214C21.9198 7.67035 22.5587 8.44918 22.9576 9.35434C24.0913 11.7721 22.6729 14.0449 20.0025 14.0932C17.7029 14.1335 15.9406 13.0697 14.8795 11.0387C13.5765 8.52422 15.132 6.10373 18.3638 6.13059ZM20.2443 12.1294C21.1416 11.5492 21.3028 10.9474 20.6903 10.3053C20.4282 10.0665 20.1201 9.88369 19.7849 9.76805C19.4572 9.63642 19.0838 9.61761 18.7453 9.49941C18.5587 9.40728 18.3853 9.29074 18.2295 9.15285C18.4158 9.04897 18.6143 8.96865 18.8205 8.91376C19.1031 8.89359 19.3868 8.89359 19.6694 8.91376C19.7043 8.08096 19.6264 8.00036 18.8447 7.99231C18.6996 7.99231 18.4551 7.99231 18.4256 7.90634C18.1972 7.35293 17.8453 7.63769 17.4907 7.6968L17.6304 8.15349C16.7707 8.81436 16.7009 9.59075 17.4585 10.1495C17.7208 10.3243 18.0104 10.4541 18.3154 10.5337C18.6002 10.617 18.9199 10.5955 19.2047 10.6814C19.3871 10.7677 19.5555 10.8809 19.7043 11.0173C19.5442 11.1436 19.362 11.2393 19.167 11.2993C18.785 11.3208 18.402 11.3208 18.0199 11.2993C17.934 12.0757 18.0495 12.2208 18.7963 12.2718C18.9253 12.2718 19.065 12.2718 19.1832 12.2853C19.3014 12.2987 19.4142 12.3282 19.4518 12.3873C19.6587 12.9246 20.016 12.6372 20.3625 12.5781L20.2443 12.1294Z" fill="#6019EB"/>
</svg>
