<svg width="32" height="32" viewBox="0 0 32 32" fill="none" xmlns="http://www.w3.org/2000/svg">
<path d="M4.51717 18.7976C5.38609 18.0502 6.24957 17.31 7.11124 16.5663C7.97291 15.8225 8.87993 15.6121 9.96109 15.9259C11.7479 16.4466 13.5547 16.9055 15.3343 17.4497C15.8484 17.6099 16.3214 17.8805 16.7202 18.2425C18.1007 19.5123 17.7215 21.3989 15.9746 22.0701C15.4712 22.2311 14.9595 22.365 14.4418 22.471C15.2962 23.4723 16.2104 23.9077 17.5383 23.5993C21.2825 22.7304 25.0521 21.9667 28.8071 21.1467C30.0261 20.8783 30.8896 21.3535 31.3776 22.6469C31.8238 23.8242 31.4864 24.8963 30.4361 25.4224C29.5781 25.8541 28.6838 26.2115 27.8039 26.5979C24.4208 28.0818 21.0321 29.5493 17.658 31.0532C16.5594 31.5617 15.319 31.6757 14.1461 31.3761C11.1408 30.6505 8.12771 29.9521 5.10673 29.2809C4.93468 29.2532 4.75881 29.2609 4.5898 29.3033C4.42078 29.3457 4.26215 29.422 4.12353 29.5276C3.16753 30.3602 2.07367 30.1951 1.05055 29.914C0.0818546 29.6473 -0.00521905 28.7294 0.000223056 27.8387C0.0165494 25.2519 0.000223056 22.6651 0.000223056 20.0764C0.000223056 18.7449 0.301353 18.179 1.15214 17.8742C2.25507 17.4787 3.5648 17.7817 4.27772 18.5998C4.35325 18.6708 4.43323 18.7368 4.51717 18.7976ZM4.55164 23.5667C4.55164 25.0977 4.59155 26.1226 4.53531 27.1421C4.50266 27.7752 4.71671 28.0237 5.33349 28.1634C8.43912 28.8582 11.5212 29.6509 14.634 30.2985C15.4271 30.4265 16.2398 30.3459 16.9923 30.0645C18.4598 29.5439 19.8657 28.8509 21.2952 28.2233C24.0973 26.9946 26.9006 25.7659 29.7051 24.5372C30.3799 24.2433 30.603 23.768 30.3472 23.0859C30.1205 22.4819 29.8248 22.0646 29.0139 22.2478C25.2371 23.0968 21.4457 23.8805 17.6653 24.7167C16.3664 25.0034 15.2563 24.7512 14.2331 23.875C13.3951 23.1585 12.4499 22.5653 11.5883 21.8796C11.2853 21.6365 10.8228 21.1703 10.8935 20.9563C11.0949 20.3377 11.6028 20.6624 12.011 20.842C13.1266 21.3299 14.2858 21.4515 15.4322 21.0415C15.795 20.9091 16.2757 20.5154 16.3229 20.1871C16.3773 19.8025 16.0871 19.3019 15.8132 18.9608C15.6118 18.7105 15.2055 18.598 14.8681 18.491C13.308 18.032 11.7207 17.671 10.1933 17.1432C9.07403 16.7568 8.31576 17.1069 7.39967 17.7509C5.15571 19.32 3.73895 21.1721 4.55164 23.5667ZM3.39428 23.9295C3.39428 22.5508 3.36526 21.1703 3.40517 19.7935C3.43056 18.8864 2.87547 18.8864 2.22786 18.8774C1.58025 18.8683 1.13944 18.9681 1.13944 19.7935C1.17088 22.5508 1.17088 25.3081 1.13944 28.0655C1.13037 28.8999 1.57662 28.9725 2.22786 28.9725C2.8791 28.9725 3.43238 28.9888 3.40517 28.0655C3.36344 26.6886 3.39428 25.3063 3.39428 23.9313V23.9295Z" fill="#6019EB"/>
<path d="M15.1895 13.0234C15.0281 11.9024 15.0898 11.291 14.8557 10.1845C13.8762 5.5333 17.0471 0.845829 21.7219 0.105703C26.5291 -0.654378 31.0986 2.77596 31.5177 7.4598C31.9712 12.521 28.3449 16.7477 23.4271 16.8783C22.9173 16.8928 22.3713 16.9563 21.9033 16.8075C20.0892 16.2288 18.2172 16.3903 16.3614 16.3722C15.2476 16.3613 15.2149 16.3322 15.2095 15.1894C15.2095 14.6452 15.2095 14.101 15.2095 13.5568C15.2566 13.5586 15.1424 13.0307 15.1895 13.0234ZM16.3342 15.0189C18.5382 15.2801 20.6026 15.5976 22.6833 15.7445C24.2171 15.8406 25.7423 15.4518 27.0429 14.6331C28.3434 13.8143 29.3535 12.6072 29.9299 11.1826C30.5064 9.75795 30.6201 8.18809 30.2549 6.69529C29.8897 5.2025 29.0641 3.86242 27.895 2.86485C26.7303 1.87628 25.2865 1.27519 23.7643 1.14515C22.2421 1.0151 20.7173 1.36257 19.4017 2.13924C16.6807 3.77187 15.3437 6.89927 15.9714 10.0339C16.1872 11.1096 16.2417 12.2108 16.3342 13.3173C16.3723 13.9214 16.3342 14.5218 16.3342 15.0225V15.0189Z" fill="#6019EB"/>
<path d="M21.8792 10.6128L26.1422 6.34258C26.3127 6.17206 26.4578 5.93442 26.6646 5.85823C26.7121 5.84062 26.7614 5.82845 26.8116 5.82195C26.9012 5.80634 26.9933 5.8119 27.0804 5.83816C27.1675 5.86442 27.2473 5.91067 27.3133 5.97322C27.3794 6.03577 27.4299 6.11289 27.4609 6.19843C27.4919 6.28397 27.5025 6.37557 27.4918 6.46593C27.4858 6.51959 27.4636 6.57017 27.4284 6.61105C25.7758 8.31443 24.1014 9.99423 22.3871 11.6323C22.2438 11.7702 21.6851 11.6885 21.4801 11.5162C20.7752 10.9083 20.1161 10.2493 19.5083 9.54435C19.4806 9.50931 19.4585 9.47013 19.443 9.42825C19.4103 9.32742 19.4073 9.21936 19.4341 9.11683C19.4609 9.01431 19.5166 8.92161 19.5944 8.84969C19.6722 8.77777 19.769 8.72963 19.8733 8.71096C19.9777 8.6923 20.0852 8.70389 20.1831 8.74436C20.2278 8.76319 20.2689 8.78958 20.3046 8.82236C20.8652 9.34299 21.335 9.97065 21.8792 10.6128Z" fill="#6019EB"/>
</svg>
