<svg width="16" height="12" viewBox="0 0 16 12" fill="none" xmlns="http://www.w3.org/2000/svg">
<path d="M10.8571 8.4C10.7056 8.4 10.5602 8.46321 10.4531 8.57574C10.3459 8.68826 10.2857 8.84087 10.2857 9C10.2857 9.15913 10.3459 9.31174 10.4531 9.42426C10.5602 9.53679 10.7056 9.6 10.8571 9.6H13.1429C13.2944 9.6 13.4398 9.53679 13.5469 9.42426C13.6541 9.31174 13.7143 9.15913 13.7143 9C13.7143 8.84087 13.6541 8.68826 13.5469 8.57574C13.4398 8.46321 13.2944 8.4 13.1429 8.4H10.8571ZM0 2.4C0 1.76348 0.240816 1.15303 0.66947 0.702944C1.09812 0.252856 1.67951 0 2.28571 0H13.7143C14.3205 0 14.9019 0.252856 15.3305 0.702944C15.7592 1.15303 16 1.76348 16 2.4V9.6C16 10.2365 15.7592 10.847 15.3305 11.2971C14.9019 11.7471 14.3205 12 13.7143 12H2.28571C1.67951 12 1.09812 11.7471 0.66947 11.2971C0.240816 10.847 0 10.2365 0 9.6V2.4ZM14.8571 2.4C14.8571 2.08174 14.7367 1.77652 14.5224 1.55147C14.3081 1.32643 14.0174 1.2 13.7143 1.2H2.28571C1.98261 1.2 1.69192 1.32643 1.47759 1.55147C1.26327 1.77652 1.14286 2.08174 1.14286 2.4V3.6H14.8571V2.4ZM1.14286 9.6C1.14286 9.91826 1.26327 10.2235 1.47759 10.4485C1.69192 10.6736 1.98261 10.8 2.28571 10.8H13.7143C14.0174 10.8 14.3081 10.6736 14.5224 10.4485C14.7367 10.2235 14.8571 9.91826 14.8571 9.6V4.8H1.14286V9.6Z" fill="#7B7B7B"/>
</svg>
