<svg width="14" height="13" viewBox="0 0 14 13" fill="none" xmlns="http://www.w3.org/2000/svg">
<path d="M5.03737 0.0616398C5.08668 0.090882 5.12968 0.129458 5.16393 0.175165C5.19818 0.220872 5.223 0.272814 5.23697 0.328024C5.25095 0.383234 5.25381 0.44063 5.24538 0.496934C5.23696 0.553238 5.21742 0.607346 5.18787 0.656168L2.96012 4.33341H11.0399L8.81125 0.656168C8.75161 0.557562 8.73396 0.439527 8.76218 0.328032C8.79041 0.216536 8.86219 0.120712 8.96175 0.0616398C9.06131 0.00256775 9.18048 -0.0149135 9.29305 0.0130417C9.40561 0.0409969 9.50236 0.112099 9.562 0.210705L12.0601 4.33341H13.125C13.3571 4.33341 13.5796 4.42471 13.7437 4.58724C13.9078 4.74977 14 4.97021 14 5.20006V6.06672C14 6.29658 13.9078 6.51701 13.7437 6.67954C13.5796 6.84208 13.3571 6.93338 13.125 6.93338V10.8334C13.125 11.408 12.8945 11.9591 12.4843 12.3654C12.0741 12.7717 11.5177 13 10.9375 13H3.0625C2.48234 13 1.92594 12.7717 1.5157 12.3654C1.10547 11.9591 0.875 11.408 0.875 10.8334V6.93338C0.642936 6.93338 0.420376 6.84208 0.256282 6.67954C0.0921873 6.51701 0 6.29658 0 6.06672V5.20006C0 4.97021 0.0921873 4.74977 0.256282 4.58724C0.420376 4.42471 0.642936 4.33341 0.875 4.33341H1.93988L4.43625 0.210705C4.46577 0.161872 4.50472 0.119279 4.55087 0.0853581C4.59701 0.0514371 4.64946 0.026853 4.7052 0.0130103C4.76094 -0.000832423 4.81889 -0.00366254 4.87573 0.00468143C4.93258 0.0130254 4.98808 0.03238 5.03737 0.0616398ZM1.75 6.93338V10.8334C1.75 11.1781 1.88828 11.5088 2.13442 11.7526C2.38056 11.9964 2.7144 12.1333 3.0625 12.1333H10.9375C11.2856 12.1333 11.6194 11.9964 11.8656 11.7526C12.1117 11.5088 12.25 11.1781 12.25 10.8334V6.93338H1.75ZM0.875 5.20006V6.06672H13.125V5.20006H0.875ZM3.5 7.80004C3.61603 7.80004 3.72731 7.8457 3.80936 7.92696C3.89141 8.00823 3.9375 8.11845 3.9375 8.23337V10.8334C3.9375 10.9483 3.89141 11.0585 3.80936 11.1398C3.72731 11.221 3.61603 11.2667 3.5 11.2667C3.38397 11.2667 3.27269 11.221 3.19064 11.1398C3.10859 11.0585 3.0625 10.9483 3.0625 10.8334V8.23337C3.0625 8.11845 3.10859 8.00823 3.19064 7.92696C3.27269 7.8457 3.38397 7.80004 3.5 7.80004ZM5.25 7.80004C5.36603 7.80004 5.47731 7.8457 5.55936 7.92696C5.64141 8.00823 5.6875 8.11845 5.6875 8.23337V10.8334C5.6875 10.9483 5.64141 11.0585 5.55936 11.1398C5.47731 11.221 5.36603 11.2667 5.25 11.2667C5.13397 11.2667 5.02269 11.221 4.94064 11.1398C4.85859 11.0585 4.8125 10.9483 4.8125 10.8334V8.23337C4.8125 8.11845 4.85859 8.00823 4.94064 7.92696C5.02269 7.8457 5.13397 7.80004 5.25 7.80004ZM7 7.80004C7.11603 7.80004 7.22731 7.8457 7.30936 7.92696C7.39141 8.00823 7.4375 8.11845 7.4375 8.23337V10.8334C7.4375 10.9483 7.39141 11.0585 7.30936 11.1398C7.22731 11.221 7.11603 11.2667 7 11.2667C6.88397 11.2667 6.77269 11.221 6.69064 11.1398C6.60859 11.0585 6.5625 10.9483 6.5625 10.8334V8.23337C6.5625 8.11845 6.60859 8.00823 6.69064 7.92696C6.77269 7.8457 6.88397 7.80004 7 7.80004ZM8.75 7.80004C8.86603 7.80004 8.97731 7.8457 9.05936 7.92696C9.14141 8.00823 9.1875 8.11845 9.1875 8.23337V10.8334C9.1875 10.9483 9.14141 11.0585 9.05936 11.1398C8.97731 11.221 8.86603 11.2667 8.75 11.2667C8.63397 11.2667 8.52269 11.221 8.44064 11.1398C8.35859 11.0585 8.3125 10.9483 8.3125 10.8334V8.23337C8.3125 8.11845 8.35859 8.00823 8.44064 7.92696C8.52269 7.8457 8.63397 7.80004 8.75 7.80004ZM10.5 7.80004C10.616 7.80004 10.7273 7.8457 10.8094 7.92696C10.8914 8.00823 10.9375 8.11845 10.9375 8.23337V10.8334C10.9375 10.9483 10.8914 11.0585 10.8094 11.1398C10.7273 11.221 10.616 11.2667 10.5 11.2667C10.384 11.2667 10.2727 11.221 10.1906 11.1398C10.1086 11.0585 10.0625 10.9483 10.0625 10.8334V8.23337C10.0625 8.11845 10.1086 8.00823 10.1906 7.92696C10.2727 7.8457 10.384 7.80004 10.5 7.80004Z" fill="#7B7B7B"/>
</svg>
