<svg width="14" height="16" viewBox="0 0 14 16" fill="none" xmlns="http://www.w3.org/2000/svg">
<path d="M7.09409 4.0411V6.32193M7.10779 1C4.58724 1 2.54614 3.0411 2.54614 5.56165V7.00001C2.54614 7.46576 2.35436 8.1644 2.11463 8.56166L1.24477 10.0137C0.710519 10.911 1.08038 11.911 2.06669 12.2397C5.34154 13.3288 8.88089 13.3288 12.1557 12.2397C12.3718 12.1677 12.569 12.0479 12.7326 11.8894C12.8962 11.7309 13.0221 11.5377 13.101 11.324C13.1799 11.1103 13.2098 10.8816 13.1884 10.6548C13.1671 10.428 13.0951 10.2089 12.9777 10.0137L12.1078 8.56166C11.8681 8.1644 11.6763 7.45892 11.6763 7.00001V5.56165C11.6694 3.0548 9.61465 1 7.10779 1Z" stroke="#7B7B7B" stroke-width="1.0274" stroke-miterlimit="10" stroke-linecap="round"/>
<path d="M9.37488 12.5206C9.37488 13.7741 8.34749 14.8015 7.09406 14.8015C6.47077 14.8015 5.89543 14.5412 5.48447 14.1302C5.07351 13.7193 4.81323 13.1439 4.81323 12.5206" stroke="#7B7B7B" stroke-width="1.0274" stroke-miterlimit="10"/>
</svg>
