<svg width="16" height="14" viewBox="0 0 16 14" fill="none" xmlns="http://www.w3.org/2000/svg">
<path fill-rule="evenodd" clipRule="evenodd" d="M1.96118 1.85086C1.45517 2.32073 1.11628 3.08313 1.11628 4.27907V9.48837C1.11628 10.6843 1.45517 11.4467 1.96118 11.9166C2.47468 12.3934 3.24835 12.6512 4.27907 12.6512H11.7209C12.7516 12.6512 13.5253 12.3934 14.0388 11.9166C14.5448 11.4467 14.8837 10.6843 14.8837 9.48837V4.27907C14.8837 3.08313 14.5448 2.32073 14.0388 1.85086C13.5253 1.37404 12.7516 1.11628 11.7209 1.11628H4.27907C3.24835 1.11628 2.47468 1.37404 1.96118 1.85086ZM1.20161 1.03286C1.99043 0.300379 3.07723 0 4.27907 0H11.7209C12.9228 0 14.0096 0.300379 14.7984 1.03286C15.5947 1.77229 16 2.87036 16 4.27907V9.48837C16 10.8971 15.5947 11.9951 14.7984 12.7346C14.0096 13.4671 12.9228 13.7674 11.7209 13.7674H4.27907C3.07723 13.7674 1.99043 13.4671 1.20161 12.7346C0.405295 11.9951 0 10.8971 0 9.48837V4.27907C0 2.87036 0.405295 1.77229 1.20161 1.03286Z" fill="#7B7B7B"/>
<path fill-rule="evenodd" clipRule="evenodd" d="M2.56887 2.56874C3.02244 2.11517 3.63762 1.86035 4.27908 1.86035H5.39536C5.70361 1.86035 5.9535 2.11024 5.9535 2.41849C5.9535 2.72674 5.70361 2.97663 5.39536 2.97663H4.27908C3.93368 2.97663 3.60243 3.11384 3.3582 3.35807C3.11396 3.60231 2.97675 3.93356 2.97675 4.27896V5.39524C2.97675 5.70349 2.72687 5.95337 2.41861 5.95337C2.11036 5.95337 1.86047 5.70349 1.86047 5.39524V4.27896C1.86047 3.6375 2.11529 3.02232 2.56887 2.56874ZM10.0465 2.41849C10.0465 2.11024 10.2964 1.86035 10.6047 1.86035H11.7209C12.3624 1.86035 12.9776 2.11517 13.4312 2.56874C13.8847 3.02232 14.1395 3.6375 14.1395 4.27896V5.39524C14.1395 5.70349 13.8897 5.95337 13.5814 5.95337C13.2732 5.95337 13.0233 5.70349 13.0233 5.39524V4.27896C13.0233 3.93356 12.8861 3.60231 12.6418 3.35807C12.3976 3.11384 12.0663 2.97663 11.7209 2.97663H10.6047C10.2964 2.97663 10.0465 2.72674 10.0465 2.41849ZM6.02669 4.91029C6.55004 4.38693 7.25987 4.09291 8.00001 4.09291C8.74015 4.09291 9.44997 4.38693 9.97333 4.91029C10.4967 5.43364 10.7907 6.14347 10.7907 6.88361C10.7907 7.62375 10.4967 8.33357 9.97333 8.85693C9.44997 9.38029 8.74015 9.67431 8.00001 9.67431C7.25987 9.67431 6.55004 9.38029 6.02669 8.85693C5.50333 8.33357 5.20931 7.62375 5.20931 6.88361C5.20931 6.14347 5.50333 5.43364 6.02669 4.91029ZM8.00001 5.20919C7.55592 5.20919 7.13003 5.3856 6.81602 5.69961C6.502 6.01363 6.32559 6.43952 6.32559 6.88361C6.32559 7.32769 6.502 7.75359 6.81602 8.0676C7.13003 8.38161 7.55592 8.55803 8.00001 8.55803C8.44409 8.55803 8.86999 8.38161 9.184 8.0676C9.49802 7.75359 9.67443 7.32769 9.67443 6.88361C9.67443 6.43952 9.49802 6.01363 9.184 5.69961C8.86999 5.3856 8.44409 5.20919 8.00001 5.20919ZM2.41861 7.81384C2.72687 7.81384 2.97675 8.06373 2.97675 8.37198V9.48826C2.97675 9.83366 3.11396 10.1649 3.3582 10.4091C3.60243 10.6534 3.93368 10.7906 4.27908 10.7906H5.39536C5.70361 10.7906 5.9535 11.0405 5.9535 11.3487C5.9535 11.657 5.70361 11.9069 5.39536 11.9069H4.27908C3.63762 11.9069 3.02244 11.652 2.56887 11.1985C2.11529 10.7449 1.86047 10.1297 1.86047 9.48826V8.37198C1.86047 8.06373 2.11036 7.81384 2.41861 7.81384ZM13.5814 7.81384C13.8897 7.81384 14.1395 8.06373 14.1395 8.37198V9.48826C14.1395 10.1297 13.8847 10.7449 13.4312 11.1985C12.9776 11.652 12.3624 11.9069 11.7209 11.9069H10.6047C10.2964 11.9069 10.0465 11.657 10.0465 11.3487C10.0465 11.0405 10.2964 10.7906 10.6047 10.7906H11.7209C12.0663 10.7906 12.3976 10.6534 12.6418 10.4091C12.8861 10.1649 13.0233 9.83366 13.0233 9.48826V8.37198C13.0233 8.06373 13.2732 7.81384 13.5814 7.81384Z" fill="#7B7B7B"/>
</svg>
