<svg width="15" height="17" viewBox="0 0 15 17" fill="none" xmlns="http://www.w3.org/2000/svg">
<path d="M7.49975 9.61619C7.80861 9.61619 8.11444 9.55536 8.39979 9.43716C8.68514 9.31897 8.94441 9.14573 9.16281 8.92733C9.3812 8.70894 9.55444 8.44966 9.67264 8.16431C9.79083 7.87897 9.85167 7.57313 9.85167 7.26427C9.85167 6.95542 9.79083 6.64958 9.67264 6.36423C9.55444 6.07888 9.3812 5.81961 9.16281 5.60121C8.94441 5.38282 8.68514 5.20958 8.39979 5.09138C8.11444 4.97319 7.80861 4.91235 7.49975 4.91235C6.87598 4.91235 6.27776 5.16014 5.83669 5.60121C5.39562 6.04229 5.14783 6.64051 5.14783 7.26427C5.14783 7.88804 5.39562 8.48626 5.83669 8.92733C6.27776 9.3684 6.87598 9.61619 7.49975 9.61619Z" stroke="#7B7B7B" stroke-width="1.5"/>
<path d="M1.18299 5.8923C2.66802 -0.635789 12.3395 -0.628251 13.817 5.89984C14.6839 9.72924 12.3018 12.9707 10.2138 14.9758C9.48412 15.6796 8.50995 16.0728 7.49624 16.0728C6.48254 16.0728 5.50836 15.6796 4.77872 14.9758C2.69817 12.9707 0.316101 9.72171 1.18299 5.8923Z" stroke="#7B7B7B" stroke-width="1.5"/>
</svg>
