<svg width="14" height="14" viewBox="0 0 14 14" fill="none" xmlns="http://www.w3.org/2000/svg">
<path d="M13.03 10.8373C13.03 11.0541 12.9818 11.277 12.8794 11.4939C12.777 11.7107 12.6445 11.9156 12.4698 12.1083C12.1746 12.4336 11.8493 12.6686 11.4818 12.8192C11.1204 12.9698 10.7288 13.0481 10.3071 13.0481C9.69269 13.0481 9.03606 12.9035 8.3433 12.6083C7.65054 12.3131 6.95777 11.9156 6.27103 11.4156C5.5711 10.9036 4.91062 10.3397 4.29515 9.72883C3.68598 9.11559 3.12414 8.45708 2.61444 7.75897C2.12047 7.07223 1.72288 6.38549 1.43373 5.70477C1.14458 5.01803 1 4.36141 1 3.73491C1 3.32528 1.07229 2.93372 1.21687 2.57227C1.36144 2.20481 1.59036 1.86746 1.90963 1.56626C2.29517 1.18675 2.71685 1 3.16263 1C3.3313 1 3.49998 1.03614 3.65058 1.10843C3.8072 1.18072 3.94575 1.28915 4.05419 1.44578L5.45176 3.41564C5.5602 3.56624 5.63851 3.70479 5.69272 3.83732C5.74694 3.96383 5.77706 4.09033 5.77706 4.20479C5.77706 4.34936 5.73489 4.49394 5.65056 4.63249C5.57224 4.77105 5.45779 4.91562 5.31321 5.0602L4.85538 5.5361C4.78912 5.60236 4.759 5.68068 4.759 5.77706C4.759 5.82525 4.76502 5.86742 4.77707 5.91561C4.79514 5.96381 4.81322 5.99995 4.82526 6.03609C4.9337 6.23489 5.12044 6.49392 5.3855 6.80717C5.65658 7.12042 5.94573 7.4397 6.25898 7.75897C6.58428 8.07824 6.89753 8.37342 7.21681 8.6445C7.53006 8.90956 7.78909 9.09028 7.99391 9.19871C8.02403 9.21076 8.06017 9.22883 8.10234 9.24691C8.15053 9.26498 8.19872 9.271 8.25294 9.271C8.35535 9.271 8.43366 9.23486 8.49993 9.16859L8.95775 8.71679C9.10835 8.56619 9.25293 8.45173 9.39148 8.37944C9.53004 8.29511 9.66859 8.25294 9.81919 8.25294C9.93365 8.25294 10.0541 8.27704 10.1867 8.33125C10.3192 8.38547 10.4577 8.46378 10.6083 8.56619L12.6023 9.98184C12.7589 10.0903 12.8674 10.2168 12.9336 10.3674C12.9939 10.518 13.03 10.6686 13.03 10.8373Z" stroke="#7B7B7B" stroke-width="0.903606" stroke-miterlimit="10"/>
<path d="M9.13245 3.40945H12.1445M10.6385 4.91546V1.90344" stroke="#7B7B7B" stroke-width="0.903606" stroke-linecap="round" stroke-linejoin="round"/>
</svg>
