<svg width="34" height="34" viewBox="0 0 34 34" fill="none" xmlns="http://www.w3.org/2000/svg">
<path d="M16.6667 0C7.5 0 0 7.5 0 16.6667C0 25.8333 7.5 33.3333 16.6667 33.3333C25.8333 33.3333 33.3333 25.8333 33.3333 16.6667C33.3333 7.5 25.8333 0 16.6667 0ZM16.6667 30C9.35 30 3.33333 23.9833 3.33333 16.6667C3.33333 9.35 9.35 3.33333 16.6667 3.33333C23.9833 3.33333 30 9.35 30 16.6667C30 23.9833 23.9833 30 16.6667 30ZM18.3333 13.7833L23.05 11.05L24.7167 13.95L20 16.6667L24.7167 19.3833L23.05 22.2833L18.3333 19.55V25H15V19.55L10.2833 22.2833L8.61667 19.3833L13.3333 16.6667L8.61667 13.95L10.2833 11.05L15 13.7833V8.33333H18.3333V13.7833Z" fill="#6019EB"/>
</svg>
