<svg width="18" height="26" viewBox="0 0 18 26" fill="none" xmlns="http://www.w3.org/2000/svg">
<path d="M17.803 8.9048C17.8036 7.37234 17.4085 5.86569 16.6561 4.53069C15.9036 3.1957 14.8192 2.07757 13.5079 1.28455C12.1966 0.491528 10.7028 0.0504739 9.171 0.00408079C7.63925 -0.0423123 6.12146 0.307527 4.76455 1.01973C3.40765 1.73194 2.25759 2.78239 1.42571 4.06941C0.593831 5.35642 0.1083 6.83639 0.0161205 8.36608C-0.0760595 9.89576 0.228233 11.4233 0.899543 12.8009C1.57085 14.1785 2.58644 15.3595 3.848 16.2295L1.40559e-06 22.8929L2.86883 23.0112L4.40498 25.4362L8.8125 17.8012C8.84302 17.8012 8.871 17.8063 8.90152 17.8063C8.93204 17.8063 8.96001 17.8025 8.99053 17.8012L13.3981 25.4362L14.9647 23.0633L17.803 22.8929L13.955 16.2295C15.1423 15.4121 16.1129 14.3182 16.7832 13.0422C17.4536 11.7661 17.8036 10.3462 17.803 8.9048ZM2.54329 8.9048C2.54329 7.64726 2.9162 6.41796 3.61485 5.37236C4.3135 4.32675 5.30652 3.5118 6.46833 3.03056C7.63015 2.54932 8.90857 2.42341 10.1419 2.66874C11.3753 2.91408 12.5083 3.51964 13.3975 4.40885C14.2867 5.29807 14.8922 6.43099 15.1376 7.66437C15.3829 8.89775 15.257 10.1762 14.7758 11.338C14.2945 12.4998 13.4796 13.4928 12.434 14.1915C11.3884 14.8901 10.1591 15.263 8.90152 15.263C7.21521 15.263 5.59797 14.5931 4.40557 13.4007C3.21318 12.2083 2.54329 10.5911 2.54329 8.9048Z" fill="#6019EB"/>
<path d="M8.90148 12.7197C11.0084 12.7197 12.7164 11.0117 12.7164 8.90478C12.7164 6.79785 11.0084 5.08984 8.90148 5.08984C6.79455 5.08984 5.08655 6.79785 5.08655 8.90478C5.08655 11.0117 6.79455 12.7197 8.90148 12.7197Z" fill="#6019EB"/>
</svg>
