<svg width="76" height="58" viewBox="0 0 76 58" fill="none" xmlns="http://www.w3.org/2000/svg">
<path d="M54.7857 33.6C54.1606 33.6 53.561 33.8529 53.119 34.3029C52.6769 34.753 52.4286 35.3635 52.4286 36C52.4286 36.6365 52.6769 37.247 53.119 37.6971C53.561 38.1471 54.1606 38.4 54.7857 38.4H64.2143C64.8394 38.4 65.439 38.1471 65.881 37.6971C66.3231 37.247 66.5714 36.6365 66.5714 36C66.5714 35.3635 66.3231 34.753 65.881 34.3029C65.439 33.8529 64.8394 33.6 64.2143 33.6H54.7857ZM10 9.6C10 7.05392 10.9934 4.61212 12.7616 2.81177C14.5298 1.01143 16.928 0 19.4286 0H66.5714C69.072 0 71.4702 1.01143 73.2384 2.81177C75.0066 4.61212 76 7.05392 76 9.6V38.4C76 40.9461 75.0066 43.3879 73.2384 45.1882C71.4702 46.9886 69.072 48 66.5714 48H19.4286C16.928 48 14.5298 46.9886 12.7616 45.1882C10.9934 43.3879 10 40.9461 10 38.4V9.6ZM71.2857 9.6C71.2857 8.32696 70.789 7.10606 69.9049 6.20589C69.0208 5.30571 67.8217 4.8 66.5714 4.8H19.4286C18.1783 4.8 16.9792 5.30571 16.0951 6.20589C15.211 7.10606 14.7143 8.32696 14.7143 9.6V14.4H71.2857V9.6ZM14.7143 38.4C14.7143 39.673 15.211 40.8939 16.0951 41.7941C16.9792 42.6943 18.1783 43.2 19.4286 43.2H66.5714C67.8217 43.2 69.0208 42.6943 69.9049 41.7941C70.789 40.8939 71.2857 39.673 71.2857 38.4V19.2H14.7143V38.4Z" fill="#691EDE"/>
<circle cx="13" cy="45" r="12" fill="#D80027" stroke="#D80027" strokeWidth="2"/>
<path d="M14.6274 39.9141L14.3535 48.3062H12.3613L12.0791 39.9141H14.6274ZM12.0127 50.9043C12.0127 50.5501 12.1344 50.2568 12.3779 50.0244C12.627 49.7865 12.9535 49.6675 13.3574 49.6675C13.7669 49.6675 14.0934 49.7865 14.3369 50.0244C14.5804 50.2568 14.7021 50.5501 14.7021 50.9043C14.7021 51.2474 14.5804 51.5379 14.3369 51.7759C14.0934 52.0138 13.7669 52.1328 13.3574 52.1328C12.9535 52.1328 12.627 52.0138 12.3779 51.7759C12.1344 51.5379 12.0127 51.2474 12.0127 50.9043Z" fill="white"/>
</svg>
