<svg width="66" height="33" viewBox="0 0 66 33" fill="none" xmlns="http://www.w3.org/2000/svg">
<path d="M59.77 10.3287L56.9974 12.9082L56.9062 12.8384C57.2227 11.664 57.5391 10.4842 57.8608 9.30975C58.6652 6.38705 59.4696 3.46972 60.2794 0.547027C60.2794 0.536302 60.2794 0.525576 60.2794 0.520213C60.2794 0.375419 60.3545 0.241351 60.4832 0.171635C60.6763 0.139459 60.6709 0.359331 60.7406 0.482674C61.1535 1.24418 61.4646 2.05396 61.9472 2.77793C62.4031 3.88265 62.934 4.98202 63.5078 6.02775C63.5775 6.13501 63.6204 6.25835 63.6204 6.38705C63.6204 6.60693 63.5078 6.81607 63.3201 6.93405C62.1135 8.05487 60.9444 9.19713 59.77 10.3287Z" fill="#F07A25"/>
<path d="M59.7711 10.3287C60.9509 9.19712 62.12 8.05486 63.3159 6.93941C63.5036 6.82143 63.6162 6.61228 63.6162 6.39241C63.6162 6.2637 63.5787 6.13499 63.5036 6.0331C62.9244 4.98737 62.3989 3.88801 61.943 2.78328L62.7689 0.0107422C63.1121 0.67036 63.3963 1.212 63.6698 1.759C64.3616 3.13722 65.0373 4.52617 65.7559 5.89367C65.8525 6.02774 65.9007 6.18862 65.9007 6.35487C65.9007 6.62837 65.7613 6.88578 65.5253 7.03057C63.5626 8.84854 61.6373 10.7094 59.7014 12.5542C59.5781 12.7151 59.4118 12.8384 59.2188 12.9028C59.4654 12.0608 59.6531 11.1974 59.7711 10.3287Z" fill="#0C8D48"/>
<path fill-rule="evenodd" clip-rule="evenodd" d="M16.2888 6.52646C16.6964 6.71415 16.9591 7.12172 16.9591 7.56683C16.9591 7.74916 16.9162 7.9315 16.8304 8.09238C16.5087 9.13811 16.2459 10.1946 15.9563 11.251C15.8759 12.2485 15.0393 13.0154 14.0418 13.0154C13.9292 13.0154 13.8166 13.0047 13.704 12.9832C9.26897 12.9832 4.83935 12.9886 0.40436 12.9939C0.0557812 12.9939 -0.0729246 12.9618 0.039693 12.5703C1.18196 8.52676 2.30813 4.47789 3.42895 0.429019C3.45576 0.187696 3.65954 0 3.90087 0C3.92232 0 3.94913 0 3.97058 0.00536274C8.53428 0.0160882 13.1033 0.0107255 17.667 0.021451C17.7314 0.0107255 17.7957 0 17.8601 0C18.3695 0 18.7771 0.412931 18.7771 0.917029C18.7771 1.04573 18.7503 1.16908 18.6967 1.28706C18.3535 2.63847 17.9781 3.97916 17.5866 5.31984C17.3774 5.90974 16.8948 6.36021 16.2888 6.52646ZM45.7946 32.1443H43.199L46.8028 19.1343H49.393L45.7946 32.1443ZM24.2471 31.3291C24.1077 31.844 23.6304 32.2033 23.0995 32.2033H9.73553C9.37087 32.2033 9.09737 32.0799 8.9204 31.8332C8.74343 31.5866 8.70052 31.2755 8.80778 30.9109L12.0683 19.1664H14.6639L11.7519 29.656H22.1235L25.0354 19.1664H27.6256L24.2471 31.3291ZM44.4486 19.5418C44.2716 19.2951 43.9927 19.1718 43.6173 19.1718H29.3685L28.666 21.7245H41.6278L40.8716 24.4487H30.5001V24.4434H27.9099L25.7594 32.2086H28.3496L29.7922 27.0014H41.4454C41.8101 27.0014 42.1533 26.8781 42.4751 26.6314C42.7968 26.3847 43.006 26.0737 43.1079 25.709L44.5505 20.5018C44.6577 20.1049 44.6255 19.7885 44.4486 19.5418ZM27.0733 5.2394C28.5641 5.2394 30.055 5.21259 31.5458 5.25549C31.578 5.25549 31.6102 5.26085 31.6423 5.26085C32.0177 5.26085 32.3234 4.97126 32.3502 4.60123C32.6988 3.27127 33.0742 1.94668 33.4013 0.611353C33.412 0.268137 33.6909 0 34.0288 0C34.077 0 34.1199 0.00536274 34.1682 0.0160882C34.4149 0.0321765 34.6616 0.0429019 34.9136 0.0429019C35.1549 0.0429019 35.4016 0.0321765 35.6429 0.0160882C36.0398 -0.00536274 36.131 0.112618 36.0183 0.504098C35.4552 2.49904 34.919 4.5047 34.372 6.49964C33.8464 8.42487 33.3102 10.3501 32.8007 12.2807C32.79 12.6829 32.4628 13.0047 32.0606 13.0047C32.0016 13.0047 31.9427 12.9993 31.8837 12.9832C31.637 12.9617 31.3903 12.951 31.1436 12.951C30.9184 12.951 30.6931 12.9618 30.4679 12.9778C30.0871 12.9939 30.0282 12.8706 30.13 12.5166C30.5376 11.1223 30.9023 9.71729 31.3045 8.32298C31.4225 7.91541 31.3688 7.74916 30.8862 7.75453C27.8509 7.77598 24.8102 7.77598 21.7749 7.75989C21.7427 7.75453 21.7105 7.75453 21.6784 7.75453C21.3459 7.75453 21.0724 8.01194 21.0563 8.34443C20.7023 9.74947 20.2894 11.1438 19.9194 12.5435C19.8979 12.8009 19.6834 12.9939 19.426 12.9939C19.3938 12.9939 19.3617 12.9886 19.3295 12.9832C19.0721 12.9671 18.8039 12.9618 18.5465 12.9618C18.2784 12.9618 18.0102 12.9725 17.7475 12.9886C17.1951 13.0261 17.2863 12.7419 17.3828 12.3987C17.9781 10.2375 18.5733 8.07093 19.1632 5.90974C19.662 4.09177 20.1607 2.2738 20.6487 0.455833C20.6648 0.209147 20.8686 0.0160882 21.1153 0.0160882C21.1367 0.0160882 21.1635 0.0160882 21.185 0.021451C21.7481 0.0482647 22.3165 0.0482647 22.8796 0.021451C23.2711 0.00536274 23.314 0.150157 23.2175 0.493372C22.8153 1.92522 22.4452 3.3678 22.0323 4.79966C21.9197 5.18041 22.0162 5.25549 22.3755 5.25013C23.9414 5.22867 25.5074 5.2394 27.0733 5.2394ZM39.1502 0.0589902C39.3379 0.0589902 39.5256 0.0589902 39.7133 0.0589902C40.4641 0.0589902 40.4694 0.0589902 40.2764 0.750784C39.2253 4.55833 38.1742 8.37124 37.1177 12.1788C36.8817 13.0315 36.871 13.0315 35.9969 13.0315C35.584 13.0315 35.1657 13.0207 34.7527 13.0368C34.3827 13.0529 34.3076 12.9296 34.4095 12.5649C35.4123 8.99332 36.3991 5.41637 37.3858 1.83942C37.5092 1.46403 37.6111 1.08327 37.6861 0.697157C37.6861 0.686431 37.6861 0.681068 37.6861 0.670343C37.6861 0.311039 37.9757 0.0268137 38.335 0.0268137C38.3994 0.0268137 38.4691 0.0375392 38.5281 0.0589902C38.6407 0.0697157 38.7587 0.0697157 38.8767 0.0697157C38.9625 0.0643529 39.059 0.0643529 39.1502 0.0589902ZM53.6725 7.01983C53.2381 7.40595 52.8037 7.78134 52.3801 8.17282C50.7552 9.66366 49.141 11.1652 47.5214 12.6668C47.2533 12.9188 47.1139 12.9617 46.9047 12.5917C45.7088 10.4949 44.4915 8.41414 43.2795 6.32804C43.2419 6.27441 43.1937 6.22078 43.1454 6.17788C42.9631 6.40848 42.8451 6.6927 42.8183 6.98765C42.3088 8.80026 41.8155 10.6182 41.3328 12.4416C41.3221 12.7526 41.07 12.9939 40.759 12.9939C40.7215 12.9939 40.6839 12.9886 40.6464 12.9832C40.1047 12.9403 39.5524 12.9671 39.0054 12.9778C38.7533 12.9832 38.6139 12.9457 38.7051 12.6239C39.842 8.5214 40.9735 4.41354 42.0997 0.305676C42.1265 0.262774 42.1587 0.219872 42.1962 0.182333C42.4161 0.380755 42.5931 0.622078 42.7164 0.890215C44.2501 3.44288 45.7785 5.99555 47.3069 8.55358C47.6501 9.12739 47.6394 9.11666 48.1542 8.67692C50.9214 6.31731 53.6886 3.9577 56.4665 1.60882C57.0242 1.1369 57.5766 0.659617 58.1826 0.144794C58.1933 0.209147 58.1986 0.278863 58.1986 0.348578C58.1986 0.557725 58.145 0.766872 58.0485 0.949206C56.9974 4.80502 55.9302 8.65547 54.8845 12.5059C54.8684 12.7794 54.6378 12.9939 54.3643 12.9939C54.3321 12.9939 54.2999 12.9886 54.2731 12.9832C54.005 12.9671 53.7315 12.9618 53.4633 12.9618C53.2059 12.9618 52.9432 12.9671 52.6857 12.9832C52.2353 13.01 52.1977 12.8438 52.3103 12.4523C52.7876 10.7684 53.2435 9.07376 53.7047 7.3845C53.7315 7.33623 53.7476 7.2826 53.7476 7.22898C53.7476 7.14854 53.7208 7.07346 53.6725 7.01983ZM5.92798 2.55267C8.8185 2.59021 11.6983 2.5473 14.5835 2.5473C15.0929 2.5473 15.5058 2.96023 15.5058 3.46969C15.5058 3.5984 15.479 3.72711 15.4254 3.85045C15.2806 4.65486 14.5781 5.24476 13.7576 5.24476C10.9046 5.2394 8.04627 5.2394 5.18793 5.25549C4.716 5.25549 4.69992 5.06779 4.8179 4.70313C5.00559 4.16685 5.16111 3.62521 5.27909 3.07285C5.28446 2.7779 5.52578 2.5473 5.82073 2.5473C5.85827 2.54194 5.89045 2.5473 5.92798 2.55267ZM4.35134 7.75989C7.22041 7.75989 10.0948 7.76525 12.9693 7.77598C13.956 7.78134 14.3475 8.68764 13.7683 9.62076C13.4573 10.1463 12.8942 10.4681 12.2828 10.4681C9.4674 10.4681 6.65732 10.4359 3.84188 10.4734C3.4075 10.4788 3.20371 10.4198 3.38068 9.91571C3.5791 9.34726 3.71853 8.75736 3.86333 8.17818C3.90087 7.93686 4.11001 7.75989 4.35134 7.75989Z" fill="#66686C"/>
<path fill-rule="evenodd" clip-rule="evenodd" d="M53.8767 19.1556L57.1533 25.6767L50.2568 32.1978L51.0773 29.243L54.8473 25.6767L53.0562 22.1105L53.8767 19.1556Z" fill="#0E8635"/>
<path fill-rule="evenodd" clip-rule="evenodd" d="M51.571 19.1556L54.8477 25.6767L47.9512 32.1978L51.571 19.1556Z" fill="#E97208"/>
</svg>
