<svg width="20" height="20" viewBox="0 0 20 20" fill="none" xmlns="http://www.w3.org/2000/svg">
<path d="M1 1H2.60964C3.60873 1 4.39505 1.86033 4.31179 2.85016L3.54398 12.064C3.514 12.4209 3.55849 12.7802 3.67463 13.1191C3.79077 13.4579 3.97603 13.769 4.21867 14.0325C4.46132 14.296 4.75605 14.5062 5.08419 14.6499C5.41234 14.7935 5.76674 14.8675 6.12495 14.867H15.9771C17.3092 14.867 18.4748 13.7754 18.5766 12.4525L19.0761 5.5144C19.1871 3.97876 18.0215 2.7299 16.4766 2.7299H4.53381M7.47557 6.55049H18.5766M14.1824 19.5016C14.4891 19.5016 14.7832 19.3798 15.0001 19.163C15.2169 18.9461 15.3388 18.652 15.3388 18.3453C15.3388 18.0386 15.2169 17.7445 15.0001 17.5276C14.7832 17.3108 14.4891 17.1889 14.1824 17.1889C13.8757 17.1889 13.5816 17.3108 13.3648 17.5276C13.1479 17.7445 13.0261 18.0386 13.0261 18.3453C13.0261 18.652 13.1479 18.9461 13.3648 19.163C13.5816 19.3798 13.8757 19.5016 14.1824 19.5016ZM6.78176 19.5016C7.08845 19.5016 7.38257 19.3798 7.59943 19.163C7.81628 18.9461 7.93811 18.652 7.93811 18.3453C7.93811 18.0386 7.81628 17.7445 7.59943 17.5276C7.38257 17.3108 7.08845 17.1889 6.78176 17.1889C6.47508 17.1889 6.18096 17.3108 5.9641 17.5276C5.74724 17.7445 5.62541 18.0386 5.62541 18.3453C5.62541 18.652 5.74724 18.9461 5.9641 19.163C6.18096 19.3798 6.47508 19.5016 6.78176 19.5016V19.5016Z" stroke="white" strokeWidth="0.884105" stroke-miterlimit="10" strokeLinecap="round" stroke-linejoin="round"/>
</svg>
