<svg width="45" height="45" viewBox="0 0 45 45" fill="none" xmlns="http://www.w3.org/2000/svg">
<circle cx="22.0243" cy="22.0243" r="21.3662" stroke="url(#paint0_linear_452_8563)" stroke-width="1.31619"/>
<path d="M11.7788 36.358C11.1322 36.1077 10.9274 35.628 10.9312 34.951C10.9483 31.043 10.9483 27.135 10.9483 23.2213C10.9483 23.1284 10.9483 23.0317 10.9483 22.9425C10.9483 22.8319 10.9922 22.7258 11.0705 22.6476C11.1487 22.5693 11.2548 22.5254 11.3654 22.5254C11.4761 22.5254 11.5822 22.5693 11.6604 22.6476C11.7386 22.7258 11.7826 22.8319 11.7826 22.9425C11.7826 23.026 11.7826 23.1094 11.7826 23.1947C11.7826 27.1401 11.7826 31.086 11.7826 35.0326C11.7826 35.4744 11.8167 35.5104 12.2585 35.5104H31.7891C32.231 35.5104 32.2689 35.4706 32.2689 35.0326V23.1739C32.2689 22.7472 32.4035 22.5406 32.686 22.5387C32.9686 22.5368 33.1089 22.7453 33.1089 23.1682C33.1089 27.0971 33.0994 31.0241 33.1089 34.951C33.1089 35.628 32.9041 36.1058 32.2594 36.358H11.7788Z" fill="#691EDE"/>
<path d="M22.0372 7.69141H31.8632C32.6899 7.69141 33.1147 8.11994 33.1147 8.95236V20.8205C33.1185 20.8951 33.1185 20.9697 33.1147 21.0443C33.1125 21.0982 33.0996 21.1512 33.0769 21.2002C33.0541 21.2492 33.0219 21.2932 32.9821 21.3297C32.9422 21.3662 32.8956 21.3944 32.8448 21.4128C32.794 21.4312 32.7401 21.4393 32.6861 21.4368C32.5831 21.437 32.484 21.3978 32.4089 21.3273C32.3338 21.2568 32.2885 21.1603 32.2822 21.0576C32.2775 20.9647 32.2775 20.8717 32.2822 20.7788V9.02252C32.2822 8.57882 32.2443 8.54089 31.8082 8.54089H12.2776C11.832 8.54089 11.7979 8.57502 11.7979 9.01494C11.7979 12.9337 11.7979 16.8525 11.7979 20.7712C11.7979 20.866 11.7979 20.9608 11.7979 21.0519C11.7939 21.1607 11.747 21.2635 11.6674 21.3378C11.5877 21.4121 11.4819 21.4517 11.3731 21.4482C11.2695 21.4493 11.1694 21.4106 11.0935 21.34C11.0176 21.2694 10.9717 21.1724 10.9654 21.0689C10.9607 20.9944 10.9607 20.9197 10.9654 20.8452C10.9541 16.867 10.9484 12.8964 10.9484 8.9334C10.9484 8.12184 11.3769 7.69141 12.1904 7.69141H22.0372Z" fill="#691EDE"/>
<path d="M22.0485 16.8067H29.4436C29.5459 16.8001 29.6485 16.8001 29.7508 16.8067C29.8424 16.8192 29.9272 16.8622 29.9914 16.9287C30.0557 16.9953 30.0956 17.0815 30.1048 17.1735C30.114 17.2656 30.0919 17.358 30.0422 17.4359C29.9924 17.5139 29.9178 17.5728 29.8304 17.6031C29.7317 17.6305 29.6294 17.6426 29.527 17.6392H14.5226C14.4206 17.6422 14.3188 17.6288 14.2211 17.5993C14.1365 17.5674 14.0648 17.5084 14.0171 17.4315C13.9694 17.3547 13.9483 17.2642 13.9572 17.1742C13.966 17.0842 14.0043 16.9996 14.0661 16.9335C14.1278 16.8674 14.2096 16.8236 14.2989 16.8086C14.4011 16.801 14.5038 16.801 14.606 16.8086L22.0485 16.8067Z" fill="#691EDE"/>
<path d="M24.6008 19.2716H29.4417C29.5352 19.2668 29.6289 19.2668 29.7223 19.2716C29.8229 19.2716 29.9194 19.3115 29.9905 19.3827C30.0616 19.4538 30.1016 19.5503 30.1016 19.6508C30.1169 19.7499 30.0924 19.8509 30.0334 19.9319C29.9744 20.0129 29.8858 20.0673 29.7868 20.0832C29.6957 20.1008 29.6027 20.1071 29.51 20.1021H19.6821C19.5806 20.1058 19.479 20.0949 19.3806 20.0699C19.2923 20.0405 19.2166 19.982 19.1658 19.9041C19.115 19.8261 19.0922 19.7332 19.101 19.6406C19.1098 19.5479 19.1497 19.461 19.2143 19.394C19.2788 19.327 19.3642 19.2838 19.4564 19.2716C19.5492 19.2649 19.6424 19.2649 19.7352 19.2716H24.6008Z" fill="#691EDE"/>
<path d="M24.5743 24.5905H29.4437C29.5372 24.5857 29.6308 24.5857 29.7243 24.5905C29.8208 24.6004 29.9108 24.6439 29.9784 24.7134C30.046 24.783 30.0871 24.8741 30.0943 24.9709C30.1015 25.0676 30.0745 25.1638 30.018 25.2426C29.9614 25.3215 29.8789 25.3779 29.785 25.402C29.6845 25.4214 29.5819 25.4284 29.4797 25.4229C26.2246 25.4229 22.9689 25.4229 19.7125 25.4229C19.6016 25.4275 19.4905 25.4167 19.3826 25.3907C19.2943 25.3615 19.2185 25.3034 19.1675 25.2258C19.1165 25.1481 19.0933 25.0554 19.1016 24.9629C19.11 24.8704 19.1494 24.7834 19.2135 24.7161C19.2776 24.6488 19.3626 24.6052 19.4546 24.5924C19.5474 24.5857 19.6406 24.5857 19.7334 24.5924L24.5743 24.5905Z" fill="#691EDE"/>
<path d="M24.6007 29.9093H29.4739C29.5667 29.9026 29.6599 29.9026 29.7526 29.9093C29.8421 29.9176 29.9258 29.9574 29.9886 30.0217C30.0515 30.0859 30.0895 30.1704 30.0959 30.2601C30.1145 30.3526 30.0981 30.4487 30.0497 30.5297C30.0013 30.6107 29.9245 30.6707 29.8342 30.6981C29.7184 30.7311 29.598 30.7452 29.4777 30.7398H19.7105C19.5995 30.7438 19.4884 30.7323 19.3806 30.7057C19.2917 30.6771 19.2153 30.619 19.164 30.541C19.1127 30.4631 19.0896 30.3699 19.0984 30.277C19.1073 30.1841 19.1476 30.097 19.2127 30.0301C19.2778 29.9633 19.3638 29.9206 19.4564 29.9093C19.5492 29.9026 19.6424 29.9026 19.7351 29.9093H24.6007Z" fill="#691EDE"/>
<path d="M17.4409 26.0504C17.4409 26.3861 17.4409 26.7217 17.4409 27.0573C17.4489 27.1534 17.4362 27.2501 17.4037 27.3409C17.3711 27.4317 17.3196 27.5145 17.2524 27.5836C17.1852 27.6528 17.1039 27.7068 17.0141 27.7419C16.9243 27.7771 16.828 27.7925 16.7317 27.7873C16.0415 27.7873 15.3532 27.7873 14.663 27.7873C14.569 27.794 14.4748 27.7805 14.3865 27.7478C14.2981 27.7151 14.2178 27.6639 14.1509 27.5977C14.0839 27.5314 14.0319 27.4517 13.9982 27.3637C13.9646 27.2758 13.9501 27.1817 13.9557 27.0876C13.9456 26.3899 13.9456 25.6908 13.9557 24.9905C13.9482 24.8987 13.9605 24.8063 13.9918 24.7196C14.023 24.633 14.0725 24.554 14.1368 24.4881C14.2011 24.4221 14.2788 24.3707 14.3647 24.3374C14.4505 24.304 14.5426 24.2894 14.6345 24.2946C15.3412 24.2794 16.0497 24.2794 16.7601 24.2946C17.1925 24.2946 17.4333 24.5771 17.4428 25.017C17.4437 25.0353 17.4437 25.0537 17.4428 25.072L17.4409 26.0504ZM16.5895 25.1498H14.8128V26.9303H16.5895V25.1498Z" fill="#691EDE"/>
<path d="M13.9499 20.7183C13.9499 20.3732 13.9499 20.0281 13.9499 19.6849C13.9499 19.2545 14.1945 18.9871 14.6174 18.9776C15.3341 18.9606 16.0528 18.9606 16.7695 18.9776C16.8615 18.9743 16.9532 18.9906 17.0384 19.0255C17.1236 19.0604 17.2004 19.1131 17.2635 19.18C17.3267 19.247 17.3749 19.3267 17.4048 19.4137C17.4347 19.5008 17.4457 19.5933 17.437 19.6849C17.437 20.3751 17.437 21.0634 17.437 21.7536C17.443 21.8495 17.4284 21.9455 17.394 22.0352C17.3596 22.1248 17.3064 22.2061 17.2379 22.2733C17.1693 22.3406 17.0871 22.3924 16.9968 22.4251C16.9065 22.4577 16.8103 22.4706 16.7145 22.4628C16.0345 22.4628 15.3537 22.4628 14.6724 22.4628C14.5763 22.4704 14.4797 22.4572 14.3892 22.4241C14.2987 22.3909 14.2165 22.3386 14.1481 22.2707C14.0796 22.2029 14.0267 22.121 13.9928 22.0308C13.959 21.9406 13.945 21.8441 13.9518 21.748C13.9442 21.4085 13.9499 21.0634 13.9499 20.7183ZM16.578 21.6209V19.829H14.8127V21.6209H16.578Z" fill="#691EDE"/>
<path d="M13.9499 31.3459C13.9499 31.0008 13.9499 30.6557 13.9499 30.3106C13.9423 30.2188 13.9543 30.1264 13.9852 30.0396C14.016 29.9528 14.065 29.8736 14.1289 29.8072C14.1928 29.7409 14.27 29.6888 14.3556 29.6547C14.4411 29.6205 14.533 29.6049 14.625 29.609C15.3342 29.5926 16.0427 29.5926 16.7506 29.609C16.8449 29.6045 16.939 29.6203 17.0267 29.6554C17.1143 29.6905 17.1934 29.744 17.2585 29.8124C17.3236 29.8807 17.3733 29.9623 17.4041 30.0515C17.4349 30.1408 17.4461 30.2356 17.437 30.3296C17.437 31.0096 17.437 31.6904 17.437 32.3717C17.4454 32.4702 17.4321 32.5693 17.3982 32.6622C17.3643 32.755 17.3105 32.8393 17.2406 32.9092C17.1707 32.979 17.0864 33.0328 16.9936 33.0667C16.9008 33.1007 16.8017 33.1139 16.7032 33.1056C16.0319 33.1056 15.3607 33.1056 14.6895 33.1056C14.5911 33.1149 14.4918 33.1027 14.3986 33.0698C14.3054 33.0368 14.2206 32.9839 14.15 32.9147C14.0794 32.8456 14.0247 32.7618 13.9898 32.6693C13.955 32.5769 13.9407 32.4779 13.948 32.3793V31.3459H13.9499ZM14.8108 30.4528V32.2504H16.578V30.4528H14.8108Z" fill="#691EDE"/>
<path d="M18.7227 13.9694C18.7227 14.2937 18.7227 14.5592 18.7227 14.8265C18.7227 15.1261 18.5464 15.31 18.2942 15.3063C18.2355 15.3048 18.1779 15.2911 18.1248 15.2662C18.0717 15.2412 18.0244 15.2055 17.9859 15.1613C17.9474 15.117 17.9185 15.0653 17.901 15.0093C17.8836 14.9533 17.878 14.8943 17.8846 14.836C17.8846 13.7552 17.8846 12.6744 17.8846 11.5935C17.8764 11.5349 17.8809 11.4751 17.898 11.4184C17.9151 11.3616 17.9444 11.3093 17.9837 11.2649C18.023 11.2206 18.0714 11.1853 18.1257 11.1615C18.1799 11.1377 18.2387 11.126 18.298 11.1271C18.6608 11.1074 19.0246 11.1144 19.3864 11.1479C19.6673 11.1761 19.9307 11.2972 20.135 11.492C20.3394 11.6868 20.4729 11.9441 20.5145 12.2234C20.556 12.5026 20.5033 12.7877 20.3645 13.0335C20.2258 13.2794 20.009 13.472 19.7485 13.5807L19.5912 13.6585L20.3838 14.563C20.4578 14.6288 20.5067 14.7184 20.5219 14.8163C20.5371 14.9142 20.5178 15.0144 20.4672 15.0996C20.3155 15.365 19.9931 15.3783 19.7637 15.1261C19.4736 14.8095 19.1949 14.4833 18.9104 14.1629C18.8649 14.1192 18.8137 14.0605 18.7227 13.9694ZM18.7379 12.8621C19.0659 12.8355 19.4186 12.9664 19.6139 12.6213C19.6449 12.553 19.6599 12.4787 19.6579 12.4038C19.656 12.3289 19.637 12.2554 19.6025 12.1889C19.3958 11.8685 19.0564 11.9728 18.7379 11.9671V12.8621Z" fill="#691EDE"/>
<path d="M25.2113 15.3067C24.8956 15.2991 24.5858 15.2199 24.3053 15.0751C24.0247 14.9303 23.7806 14.7238 23.5915 14.4709C23.4024 14.2181 23.2731 13.9256 23.2135 13.6156C23.1538 13.3056 23.1653 12.986 23.2471 12.6811C23.329 12.3761 23.4789 12.0937 23.6858 11.8552C23.8926 11.6166 24.1509 11.4281 24.4411 11.3039C24.7314 11.1797 25.0461 11.123 25.3615 11.1381C25.6768 11.1532 25.9847 11.2397 26.2617 11.3911C26.5632 11.5618 26.6656 11.7931 26.5424 12.0263C26.4191 12.2596 26.1802 12.2994 25.8636 12.1325C25.6377 12.0022 25.3768 11.9458 25.1173 11.9712C24.8579 11.9966 24.6128 12.1025 24.4166 12.2741C24.2203 12.4458 24.0826 12.6745 24.0228 12.9282C23.963 13.182 23.9841 13.4481 24.083 13.6893C24.1758 13.9301 24.3443 14.1344 24.5632 14.2712C24.782 14.4079 25.0394 14.4699 25.2966 14.4478C25.5307 14.4051 25.7511 14.3069 25.9394 14.1614C26.1878 13.9851 26.4115 13.9415 26.586 14.1159C26.7604 14.2904 26.7585 14.5331 26.5424 14.7587C26.3725 14.9398 26.1658 15.0824 25.9362 15.1769C25.7066 15.2715 25.4594 15.3157 25.2113 15.3067Z" fill="#691EDE"/>
<path d="M15.2526 13.8501C15.2526 14.1971 15.2526 14.5119 15.2526 14.8267C15.2526 15.1414 15.0781 15.3121 14.824 15.3064C14.7654 15.3047 14.7077 15.2908 14.6547 15.2656C14.6018 15.2404 14.5546 15.2045 14.5162 15.1601C14.4779 15.1157 14.4492 15.0638 14.432 15.0077C14.4148 14.9516 14.4095 14.8925 14.4164 14.8343C14.4164 13.7534 14.4164 12.6707 14.4164 11.588C14.4091 11.5316 14.4139 11.4744 14.4303 11.4199C14.4468 11.3655 14.4745 11.3152 14.5118 11.2722C14.549 11.2293 14.5949 11.1947 14.6464 11.1707C14.6979 11.1467 14.7539 11.1338 14.8108 11.1329C15.2102 11.1066 15.6112 11.1155 16.0091 11.1595C16.3399 11.2095 16.64 11.3814 16.8505 11.6414C17.061 11.9013 17.1667 12.2306 17.1468 12.5645C17.1234 12.9031 16.976 13.2211 16.7329 13.4579C16.4899 13.6947 16.1681 13.8337 15.829 13.8482C15.6527 13.8558 15.4744 13.8501 15.2526 13.8501ZM15.2526 13.012C15.6318 12.9912 16.011 13.1144 16.231 12.7238C16.2839 12.64 16.3077 12.5411 16.2988 12.4424C16.2899 12.3437 16.2487 12.2507 16.1817 12.1777C15.9238 11.8667 15.5825 11.9881 15.2526 11.9653V13.012Z" fill="#691EDE"/>
<path d="M28.2528 11.9981V12.8173C28.5543 12.8173 28.8482 12.804 29.1402 12.8173C29.1926 12.8156 29.2448 12.8249 29.2934 12.8444C29.342 12.8639 29.3861 12.8933 29.4228 12.9308C29.4595 12.9682 29.488 13.0128 29.5066 13.0618C29.5252 13.1108 29.5335 13.1631 29.5308 13.2155C29.5369 13.2671 29.5322 13.3194 29.5172 13.3692C29.5022 13.4189 29.4771 13.4651 29.4435 13.5047C29.4099 13.5444 29.3685 13.5767 29.3218 13.5997C29.2752 13.6227 29.2244 13.6358 29.1724 13.6383C29.0705 13.6497 28.9678 13.6535 28.8653 13.6497H28.2642V14.4669C28.5581 14.4669 28.8463 14.4669 29.1326 14.4669C29.4531 14.4669 29.6465 14.6376 29.6408 14.8955C29.6351 15.1534 29.4512 15.3032 29.1421 15.3051C28.7325 15.3051 28.3211 15.3051 27.9115 15.3051C27.5645 15.3051 27.409 15.1553 27.4071 14.8158C27.4071 13.7616 27.4071 12.7079 27.4071 11.6549C27.4071 11.3079 27.5588 11.16 27.902 11.1581C28.3211 11.1581 28.742 11.1581 29.1611 11.1581C29.2201 11.1512 29.2799 11.1569 29.3365 11.1748C29.3932 11.1926 29.4454 11.2223 29.4898 11.2618C29.5341 11.3013 29.5697 11.3497 29.594 11.4039C29.6183 11.4581 29.6309 11.5168 29.6309 11.5762C29.6309 11.6356 29.6183 11.6944 29.594 11.7486C29.5697 11.8028 29.5341 11.8512 29.4898 11.8907C29.4454 11.9302 29.3932 11.9598 29.3365 11.9777C29.2799 11.9956 29.2201 12.0012 29.1611 11.9943C28.8691 12.0038 28.5827 11.9981 28.2528 11.9981Z" fill="#691EDE"/>
<path d="M22.0542 31.9717H24.5193C24.7715 31.9717 24.963 32.0513 25.0066 32.3263C25.0196 32.3841 25.0193 32.4441 25.0055 32.5018C24.9918 32.5595 24.9651 32.6132 24.9274 32.659C24.8897 32.7047 24.842 32.7412 24.7881 32.7657C24.7341 32.7902 24.6752 32.8021 24.616 32.8003C22.9081 32.8092 21.2016 32.8092 19.4963 32.8003C19.442 32.801 19.3882 32.7904 19.3383 32.7691C19.2883 32.7478 19.2434 32.7164 19.2063 32.6768C19.1692 32.6372 19.1407 32.5903 19.1227 32.5391C19.1048 32.4879 19.0977 32.4335 19.1019 32.3794C19.1008 32.3229 19.1117 32.2668 19.1339 32.2149C19.1561 32.163 19.1891 32.1163 19.2307 32.0781C19.2723 32.0399 19.3216 32.011 19.3752 31.9933C19.4288 31.9756 19.4856 31.9695 19.5418 31.9755C20.3818 31.9755 21.2218 31.9755 22.0599 31.9755L22.0542 31.9717Z" fill="#691EDE"/>
<path d="M22.0656 21.3377C22.8961 21.3377 23.7266 21.3377 24.5572 21.3377C24.625 21.3298 24.6936 21.339 24.7569 21.3645C24.8203 21.3899 24.8762 21.4308 24.9197 21.4833C24.9633 21.5359 24.9929 21.5985 25.0061 21.6654C25.0193 21.7324 25.0155 21.8016 24.9952 21.8667C24.9688 21.9625 24.9095 22.0458 24.8276 22.1021C24.7457 22.1583 24.6465 22.1837 24.5477 22.1739C22.8866 22.1739 21.2256 22.1739 19.5645 22.1739C19.5039 22.181 19.4423 22.1747 19.3844 22.1553C19.3265 22.1359 19.2735 22.104 19.2293 22.0618C19.1851 22.0196 19.1508 21.9682 19.1288 21.9112C19.1067 21.8542 19.0975 21.793 19.1019 21.7321C19.1019 21.4837 19.2782 21.3415 19.5797 21.3396C20.4064 21.3358 21.2351 21.3377 22.0656 21.3377Z" fill="#691EDE"/>
<path d="M22.0769 26.6535C22.879 26.6535 23.6811 26.6421 24.4832 26.6535C24.6532 26.6578 24.8155 26.7254 24.9383 26.8431C24.978 26.8932 25.0044 26.9524 25.0151 27.0154C25.0257 27.0784 25.0203 27.1431 24.9993 27.2034C24.9783 27.2638 24.9424 27.3178 24.895 27.3606C24.8475 27.4033 24.79 27.4334 24.7278 27.448C24.6287 27.4732 24.5266 27.484 24.4244 27.4802C22.8493 27.4802 21.273 27.4802 19.6953 27.4802C19.6209 27.486 19.5461 27.486 19.4716 27.4802C19.4171 27.4772 19.3639 27.4631 19.315 27.4389C19.2661 27.4147 19.2226 27.3809 19.1872 27.3394C19.1518 27.2979 19.1251 27.2497 19.1088 27.1977C19.0925 27.1456 19.0869 27.0908 19.0924 27.0365C19.0923 26.9846 19.1028 26.9332 19.1234 26.8855C19.144 26.8378 19.1741 26.7948 19.212 26.7593C19.2499 26.7237 19.2946 26.6963 19.3435 26.6788C19.3924 26.6612 19.4444 26.6539 19.4962 26.6573C19.9817 26.6573 20.4652 26.6573 20.9506 26.6573L22.0769 26.6535Z" fill="#691EDE"/>
<path d="M21.4437 13.2205C21.4437 12.699 21.4437 12.1776 21.4437 11.6561C21.4437 11.3224 21.5972 11.1328 21.8494 11.1252C22.1016 11.1176 22.2818 11.3148 22.2818 11.6618C22.2818 12.6952 22.2818 13.7287 22.2818 14.7621C22.2837 14.7993 22.2837 14.8367 22.2818 14.874C22.2833 14.9301 22.2735 14.986 22.253 15.0383C22.2325 15.0905 22.2017 15.1382 22.1625 15.1783C22.1232 15.2185 22.0763 15.2503 22.0244 15.272C21.9726 15.2936 21.917 15.3047 21.8608 15.3044C21.805 15.3058 21.7495 15.2956 21.6979 15.2745C21.6462 15.2534 21.5995 15.2218 21.5606 15.1817C21.5218 15.1416 21.4917 15.0939 21.4722 15.0416C21.4527 14.9893 21.4443 14.9335 21.4475 14.8777C21.438 14.3279 21.4475 13.778 21.4475 13.2281L21.4437 13.2205Z" fill="#691EDE"/>
<defs>
<linearGradient id="paint0_linear_452_8563" x1="22.0243" y1="0" x2="22.0243" y2="44.0486" gradientUnits="userSpaceOnUse">
<stop stop-color="#6019EB"/>
<stop offset="1" stop-color="#F16C19"/>
</linearGradient>
</defs>
</svg>
