<svg width="45" height="45" viewBox="0 0 45 45" fill="none" xmlns="http://www.w3.org/2000/svg">
<circle cx="22.0243" cy="22.0243" r="21.3662" stroke="url(#paint0_linear_452_8593)" stroke-width="1.31619"/>
<path d="M20.4996 8.92676C20.5566 8.92694 20.6132 8.93564 20.6676 8.9526C22.1774 9.46385 23.521 10.1837 24.3202 11.675C25.3926 13.6702 25.1508 15.6949 23.5487 17.716C23.5008 17.7763 23.4672 17.8467 23.4504 17.922C23.4337 17.9972 23.4342 18.0752 23.452 18.1502C23.4698 18.2252 23.5043 18.2951 23.553 18.3548C23.6018 18.4145 23.6634 18.4624 23.7333 18.4948C23.9105 18.5736 24.0794 18.67 24.2372 18.7828C24.4697 18.9721 24.6797 19.1876 24.8629 19.4251C24.9236 19.4969 25.0029 19.5506 25.092 19.5806C25.1812 19.6105 25.2768 19.6154 25.3686 19.5949C26.7104 19.2959 27.3047 19.4841 28.1242 20.4993C28.1849 20.5768 28.2665 20.6353 28.3594 20.668C28.4522 20.7007 28.5525 20.7062 28.6484 20.6838C28.8569 20.6282 29.069 20.5875 29.2833 20.562C30.5937 20.442 31.6255 21.3298 31.6421 22.6458C31.6698 24.7554 31.6919 26.8669 31.6329 28.9747C31.5424 32.1493 28.4675 35.0913 25.3151 35.0913C24.0563 35.0913 22.792 35.0175 21.5388 35.1079C19.6931 35.2408 18.3439 34.449 17.4413 32.954C16.428 31.2707 15.5476 29.497 14.6248 27.7639C13.9917 26.5642 13.4066 25.3387 12.7606 24.1427C12.1516 23.0131 12.2697 21.8577 13.1169 21.1895C14.0249 20.4697 15.2449 20.5657 16.1549 21.4886C16.2139 21.5458 16.2693 21.6067 16.3247 21.6731L17.5355 21.2191C17.5355 20.6118 17.5355 20.0065 17.5115 19.3992C17.4902 19.2752 17.443 19.157 17.373 19.0524C17.3031 18.9478 17.2119 18.8591 17.1054 18.792C15.0216 17.5185 14.0397 15.6968 14.4495 13.2863C14.8444 10.9644 16.3284 9.5949 18.6023 9.05596C18.6137 9.05335 18.6244 9.04831 18.6336 9.04119C18.727 8.97201 18.8388 8.93218 18.9548 8.92676H20.4996ZM18.5654 19.0209C18.5654 20.6211 18.5801 22.2231 18.5524 23.8197C18.5469 23.937 18.5213 24.0525 18.4768 24.1611C18.4294 24.2895 18.3331 24.394 18.209 24.4518C18.0848 24.5095 17.9429 24.5158 17.8142 24.4693C17.6697 24.4254 17.5355 24.3533 17.4192 24.2571C16.7455 23.6314 16.1124 22.9651 15.4886 22.2914C15.0179 21.7839 14.5011 21.5162 13.881 21.961C13.2055 22.4483 13.3882 23.0519 13.7167 23.6812C14.4089 25.0046 15.0493 26.3556 15.747 27.6753C16.5868 29.2663 17.4081 30.8702 18.3457 32.4058C19.036 33.5391 20.0474 34.174 21.5019 34.067C22.9563 33.9599 24.4273 34.0393 25.8835 34.0393C26.1869 34.0521 26.4901 34.0134 26.7805 33.9248C28.8809 33.1478 30.5642 30.8112 30.6011 28.5723C30.6343 26.7008 30.6011 24.8274 30.6159 22.9559C30.6159 22.3117 30.4535 21.7765 29.7687 21.6288C29.084 21.4812 28.6188 21.8134 28.3771 22.5037C28.3688 22.5268 28.3583 22.5491 28.3457 22.5701C28.2992 22.6446 28.2342 22.7058 28.157 22.7476C28.0799 22.7895 27.9932 22.8106 27.9054 22.8089C27.8176 22.8072 27.7318 22.7828 27.6563 22.7381C27.5807 22.6933 27.5181 22.6297 27.4745 22.5535C27.4237 22.469 27.3792 22.3808 27.3416 22.2896C27.2715 22.105 27.4044 21.8374 27.3121 21.6916C27.05 21.2781 26.7584 20.6469 26.4022 20.5952C26.046 20.5436 25.5495 21.0271 25.1563 21.3335C25.0971 21.3789 25.0416 21.4289 24.9902 21.483C24.9342 21.5415 24.8652 21.5859 24.7887 21.6125C24.7122 21.6391 24.6305 21.6471 24.5503 21.6359C24.4701 21.6247 24.3937 21.5947 24.3274 21.5482C24.2611 21.5017 24.2067 21.4402 24.1689 21.3686C24.1301 21.2966 24.0969 21.2246 24.0655 21.1508C23.9935 20.9754 24.132 20.6949 24.036 20.5528C23.7684 20.1357 23.4841 19.5543 23.0891 19.4583C22.7717 19.3808 22.2826 19.8754 21.9153 20.1726C21.8488 20.2229 21.7871 20.2791 21.7307 20.3405C21.6725 20.4043 21.5992 20.4525 21.5176 20.4807C21.4359 20.5089 21.3485 20.5161 21.2633 20.5018C21.1781 20.4875 21.0979 20.4521 21.0299 20.3987C20.962 20.3454 20.9085 20.2759 20.8743 20.1966C20.8367 20.1108 20.8154 20.0188 20.8116 19.9252C20.7673 18.0537 20.7673 16.1803 20.8005 14.3088C20.8153 13.5152 20.5919 12.9504 19.7466 12.8525C19.0434 12.7732 18.5783 13.3638 18.5709 14.3162C18.558 15.8887 18.5672 17.4557 18.5654 19.0209ZM16.6551 17.0404C16.7276 17.1129 16.82 17.1622 16.9206 17.1821C17.0212 17.2019 17.1254 17.1914 17.22 17.1518C17.3146 17.1122 17.3953 17.0454 17.4518 16.9598C17.5083 16.8743 17.538 16.7738 17.5373 16.6713V16.4037C17.5373 15.5546 17.5022 14.7019 17.5484 13.8548C17.5595 13.5741 17.626 13.2984 17.7441 13.0435C17.8621 12.7886 18.0294 12.5596 18.2362 12.3695C18.4431 12.1795 18.6854 12.0322 18.9494 11.9361C19.2133 11.8401 19.4937 11.7971 19.7743 11.8097C20.046 11.8114 20.3146 11.8668 20.5648 11.9726C20.8151 12.0785 21.0419 12.2328 21.2323 12.4266C21.4226 12.6204 21.5729 12.85 21.6742 13.102C21.7756 13.3541 21.8262 13.6237 21.823 13.8954C21.8415 14.785 21.8359 15.6746 21.823 16.6085C21.8217 16.7111 21.8511 16.8117 21.9074 16.8974C21.9636 16.9832 22.0442 17.0502 22.1388 17.0898C22.2334 17.1295 22.3376 17.14 22.4382 17.12C22.5388 17.1 22.6312 17.0505 22.7034 16.9777C23.7813 15.8869 24.156 14.4509 23.7536 13.0685C23.4954 12.1886 22.9618 11.4148 22.231 10.8608C21.5003 10.3068 20.6111 10.0019 19.6942 9.99099C18.7773 9.98004 17.881 10.2636 17.1373 10.8C16.3935 11.3363 15.8415 12.0972 15.5624 12.9707C15.1231 14.4288 15.496 15.8924 16.6551 17.0404Z" fill="#691EDE"/>
<defs>
<linearGradient id="paint0_linear_452_8593" x1="22.0243" y1="0" x2="22.0243" y2="44.0486" gradientUnits="userSpaceOnUse">
<stop stop-color="#6019EB"/>
<stop offset="1" stop-color="#F16C19"/>
</linearGradient>
</defs>
</svg>
