<svg width="45" height="45" viewBox="0 0 45 45" fill="none" xmlns="http://www.w3.org/2000/svg">
<circle cx="22.0243" cy="22.0243" r="21.3662" stroke="url(#paint0_linear_452_8557)" stroke-width="1.31619"/>
<path d="M26.5268 14.1199C28.4668 14.1199 30.0268 15.6899 30.0268 17.6199C30.0268 19.5099 28.5268 21.0499 26.6568 21.1199C26.5704 21.1099 26.4832 21.1099 26.3968 21.1199M28.4568 30.1199C29.1768 29.9699 29.8568 29.6799 30.4168 29.2499C31.9768 28.0799 31.9768 26.1499 30.4168 24.9799C29.8668 24.5599 29.1968 24.2799 28.4868 24.1199M19.2768 20.9899C19.1768 20.9799 19.0568 20.9799 18.9468 20.9899C17.799 20.9509 16.7114 20.4667 15.9144 19.6398C15.1174 18.8129 14.6735 17.7083 14.6768 16.5599C14.6768 14.1099 16.6568 12.1199 19.1168 12.1199C20.293 12.0986 21.4295 12.5456 22.2762 13.3623C23.123 14.179 23.6106 15.2986 23.6318 16.4749C23.653 17.6511 23.2061 18.7876 22.3894 19.6343C21.5727 20.481 20.453 20.9686 19.2768 20.9899ZM14.2768 24.6799C11.8568 26.2999 11.8568 28.9399 14.2768 30.5499C17.0268 32.3899 21.5368 32.3899 24.2868 30.5499C26.7068 28.9299 26.7068 26.2899 24.2868 24.6799C21.5468 22.8499 17.0368 22.8499 14.2768 24.6799Z" stroke="#691EDE" stroke-width="1.5" stroke-linecap="round" stroke-linejoin="round"/>
<defs>
<linearGradient id="paint0_linear_452_8557" x1="22.0243" y1="0" x2="22.0243" y2="44.0486" gradientUnits="userSpaceOnUse">
<stop stop-color="#6019EB"/>
<stop offset="1" stop-color="#F16C19"/>
</linearGradient>
</defs>
</svg>
