<svg width="45" height="45" viewBox="0 0 45 45" fill="none" xmlns="http://www.w3.org/2000/svg">
<circle cx="22.0243" cy="22.0243" r="21.3662" stroke="url(#paint0_linear_452_8599)" stroke-width="1.31619"/>
<path d="M34.1682 18.1936C34.0581 18.6808 33.9391 19.1666 33.8379 19.6563C33.3875 21.8369 32.9391 24.0171 32.4929 26.1968C32.3474 26.9041 31.9058 27.242 31.1326 27.242H16.5599L16.9078 28.94H30.953C31.0801 28.9363 31.2073 28.9456 31.3326 28.9679C31.467 28.9969 31.5869 29.0723 31.6713 29.1809C31.7557 29.2895 31.7993 29.4243 31.7943 29.5617C31.7893 29.6991 31.7361 29.8305 31.6441 29.9326C31.552 30.0348 31.427 30.1013 31.2908 30.1206C31.1893 30.1341 31.087 30.14 30.9846 30.1383H17.1052C16.2726 30.1383 15.8715 29.8093 15.7045 28.9995C14.7724 24.4696 13.8407 19.9402 12.9094 15.4112C12.8988 15.335 12.8669 15.2634 12.8175 15.2045C12.768 15.1456 12.703 15.1019 12.6298 15.0784C11.844 14.7481 11.0633 14.4078 10.2826 14.0661C10.1547 14.0208 10.0458 13.9337 9.97351 13.8189C9.9012 13.7042 9.86966 13.5684 9.88399 13.4334C9.89492 13.3097 9.94635 13.1931 10.0303 13.1016C10.1143 13.0101 10.2261 12.9488 10.3484 12.9273C10.4872 12.9083 10.6286 12.9262 10.7583 12.9792C11.6162 13.3411 12.4703 13.7131 13.3232 14.0876C13.4999 14.1597 13.6559 14.2748 13.777 14.4224C13.898 14.57 13.9804 14.7454 14.0166 14.9329C14.1266 15.439 14.2506 15.9325 14.3253 16.4399C14.3658 16.717 14.4835 16.7663 14.7365 16.7663C20.746 16.7604 26.7533 16.7575 32.7586 16.7575C33.1977 16.7575 33.6026 16.8283 33.8809 17.1953C33.9706 17.3266 34.046 17.4669 34.1062 17.6141L34.1682 18.1936ZM31.3035 26.0475C31.8615 23.3422 32.4132 20.6648 32.9661 17.9785H14.6644C14.6707 18.0481 14.672 18.0962 14.6809 18.1417C15.2047 20.685 15.7323 23.2283 16.2473 25.7729C16.2929 25.9969 16.3739 26.0538 16.6016 26.0538C21.4099 26.0462 26.2181 26.0462 31.0264 26.0538L31.3035 26.0475Z" fill="#691EDE"/>
<path d="M17.9301 33.2408C17.9287 32.9604 17.983 32.6824 18.0896 32.4231C18.1963 32.1637 18.3533 31.9281 18.5515 31.7297C18.7497 31.5314 18.9853 31.3743 19.2446 31.2675C19.5039 31.1607 19.7817 31.1063 20.0622 31.1074C20.4845 31.1069 20.8975 31.2317 21.2489 31.466C21.6003 31.7003 21.8743 32.0336 22.0362 32.4237C22.1981 32.8138 22.2407 33.2431 22.1585 33.6574C22.0763 34.0717 21.8731 34.4523 21.5745 34.751C21.276 35.0497 20.8955 35.2532 20.4813 35.3356C20.0671 35.418 19.6377 35.3757 19.2475 35.214C18.8573 35.0524 18.5239 34.7786 18.2894 34.4273C18.0549 34.0761 17.9298 33.6631 17.9301 33.2408ZM19.1208 33.2408C19.1214 33.4248 19.1761 33.6046 19.278 33.7578C19.3798 33.9111 19.5245 34.031 19.6939 34.1029C19.8633 34.1747 20.0501 34.1952 20.231 34.1619C20.412 34.1286 20.5792 34.0429 20.712 33.9155C20.8447 33.7881 20.9371 33.6245 20.9778 33.445C21.0184 33.2655 21.0055 33.0781 20.9407 32.9059C20.8758 32.7337 20.7618 32.5843 20.6128 32.4763C20.4639 32.3682 20.2865 32.3063 20.1026 32.2981C19.9759 32.2935 19.8495 32.3145 19.731 32.3598C19.6125 32.4051 19.5044 32.4737 19.413 32.5617C19.3216 32.6497 19.2489 32.7551 19.1991 32.8718C19.1493 32.9885 19.1235 33.1139 19.1233 33.2408H19.1208Z" fill="#691EDE"/>
<path d="M25.4235 33.2432C25.4357 32.6862 25.6652 32.156 26.063 31.7658C26.4608 31.3757 26.9953 31.1566 27.5525 31.1553C28.1097 31.154 28.6453 31.3705 29.045 31.7588C29.4446 32.147 29.6766 32.6761 29.6914 33.2331C29.699 33.5177 29.6496 33.8009 29.5461 34.0661C29.4426 34.3313 29.287 34.5731 29.0887 34.7773C28.8903 34.9814 28.6531 35.1439 28.3911 35.255C28.129 35.3662 27.8473 35.4238 27.5626 35.4245C27.278 35.4252 26.996 35.3689 26.7334 35.259C26.4708 35.1491 26.2329 34.9877 26.0336 34.7845C25.8342 34.5813 25.6776 34.3402 25.5728 34.0755C25.468 33.8108 25.4173 33.5278 25.4235 33.2432ZM27.5214 32.298C27.3365 32.3037 27.1574 32.3636 27.0063 32.4703C26.8552 32.5769 26.7388 32.7256 26.6714 32.8978C26.6041 33.0701 26.5888 33.2583 26.6276 33.4392C26.6663 33.62 26.7573 33.7855 26.8893 33.9151C27.0212 34.0446 27.1884 34.1326 27.3699 34.168C27.5514 34.2034 27.7394 34.1847 27.9103 34.1142C28.0813 34.0437 28.2278 33.9245 28.3317 33.7715C28.4355 33.6185 28.4921 33.4383 28.4944 33.2533C28.4955 33.1261 28.4709 32.9999 28.4222 32.8824C28.3734 32.7648 28.3015 32.6583 28.2107 32.5691C28.1199 32.48 28.0121 32.41 27.8936 32.3635C27.7752 32.3169 27.6486 32.2946 27.5214 32.298Z" fill="#691EDE"/>
<path d="M23.8126 19.8613H27.9882C28.3463 19.8613 28.5715 20.0094 28.6512 20.2839C28.6751 20.3674 28.6806 20.4551 28.6672 20.5408C28.6538 20.6266 28.622 20.7084 28.5738 20.7807C28.5257 20.8529 28.4624 20.9138 28.3884 20.9591C28.3143 21.0044 28.2313 21.0331 28.1451 21.0431C28.0823 21.047 28.0194 21.047 27.9566 21.0431H19.6737C19.6269 21.0431 19.5788 21.0431 19.532 21.0431C19.3778 21.0403 19.2306 20.9783 19.1209 20.87C19.0111 20.7616 18.9472 20.6152 18.9424 20.4611C18.9408 20.3816 18.9554 20.3027 18.9853 20.2291C19.0153 20.1555 19.0599 20.0887 19.1165 20.033C19.1731 19.9772 19.2405 19.9335 19.3146 19.9047C19.3886 19.8758 19.4678 19.8624 19.5472 19.8651C20.4722 19.8575 21.3971 19.8651 22.3221 19.8651L23.8126 19.8613Z" fill="#691EDE"/>
<path d="M23.8101 24.1443C22.5625 24.1443 21.3145 24.1443 20.066 24.1443C19.7282 24.1443 19.4903 23.9722 19.4219 23.6951C19.402 23.6139 19.3993 23.5293 19.4139 23.4469C19.4286 23.3645 19.4602 23.2861 19.5069 23.2167C19.5536 23.1472 19.6143 23.0883 19.6851 23.0437C19.7559 22.999 19.8352 22.9697 19.918 22.9574C19.9651 22.9543 20.0125 22.9543 20.0597 22.9574C22.5566 22.9574 25.0527 22.9574 27.5479 22.9574C27.9047 22.9574 28.1514 23.151 28.1957 23.456C28.2122 23.5418 28.2091 23.6303 28.1865 23.7148C28.164 23.7992 28.1226 23.8775 28.0655 23.9437C28.0085 24.0099 27.9371 24.0624 27.8569 24.0971C27.7767 24.1318 27.6896 24.148 27.6023 24.1443C27.0645 24.1532 26.528 24.1443 25.9903 24.1443H23.8101Z" fill="#691EDE"/>
<defs>
<linearGradient id="paint0_linear_452_8599" x1="22.0243" y1="0" x2="22.0243" y2="44.0486" gradientUnits="userSpaceOnUse">
<stop stop-color="#6019EB"/>
<stop offset="1" stop-color="#F16C19"/>
</linearGradient>
</defs>
</svg>
