<svg width="45" height="45" viewBox="0 0 45 45" fill="none" xmlns="http://www.w3.org/2000/svg">
<circle cx="22.0243" cy="22.0243" r="21.3662" stroke="url(#paint0_linear_452_8609)" stroke-width="1.31619"/>
<path d="M27.3415 35.2323C26.8098 35.1173 26.3113 34.8825 25.884 34.5458C24.5127 33.3943 24.7139 31.0439 26.2695 30.1663C27.9604 29.2127 29.9049 30.0564 30.3648 31.9452C30.6692 33.1897 29.8424 34.6658 28.6182 35.0598C28.4305 35.1207 28.2394 35.1748 28.05 35.2289L27.3415 35.2323ZM26.726 32.4862C26.7251 32.6761 26.7803 32.862 26.8847 33.0205C26.9892 33.1791 27.1382 33.3032 27.313 33.3772C27.4878 33.4512 27.6807 33.4718 27.8672 33.4365C28.0537 33.4012 28.2256 33.3115 28.3613 33.1786C28.4969 33.0458 28.5903 32.8758 28.6295 32.69C28.6687 32.5043 28.6521 32.3111 28.5818 32.1347C28.5115 31.9584 28.3905 31.8068 28.2342 31.6991C28.0779 31.5913 27.8932 31.5322 27.7034 31.5292C27.576 31.5265 27.4494 31.5493 27.3309 31.5961C27.2124 31.643 27.1045 31.7131 27.0135 31.8022C26.9225 31.8914 26.8501 31.9978 26.8008 32.1153C26.7514 32.2327 26.726 32.3588 26.726 32.4862Z" fill="#691EDE"/>
<path d="M18.182 35.2322C17.7068 35.0867 17.2317 34.9498 16.8394 34.6133C16.0447 33.9369 15.6862 33.0678 15.8688 32.0414C15.9407 31.5376 16.1582 31.0658 16.4947 30.684C16.8311 30.3021 17.2718 30.027 17.7626 29.8923C19.7105 29.2819 21.6517 31.0066 21.2357 33.0019C20.9956 34.1737 20.2465 34.8855 19.0917 35.178C19.0423 35.1936 18.9938 35.2116 18.9462 35.2322H18.182ZM18.559 33.4601C18.7496 33.4578 18.9352 33.3991 19.0925 33.2914C19.2498 33.1838 19.3717 33.032 19.4429 32.8552C19.514 32.6784 19.5313 32.4844 19.4924 32.2978C19.4536 32.1113 19.3604 31.9403 19.2245 31.8066C19.0887 31.6729 18.9163 31.5824 18.7292 31.5465C18.542 31.5106 18.3484 31.5308 18.1727 31.6048C17.997 31.6787 17.8472 31.803 17.742 31.9619C17.6368 32.1209 17.581 32.3074 17.5817 32.498C17.5839 32.7551 17.6881 33.0008 17.8713 33.1812C18.0546 33.3616 18.3019 33.4619 18.559 33.4601Z" fill="#691EDE"/>
<path d="M14.6531 16.9173H32.1115C32.7135 16.9173 33.0889 17.1963 33.143 17.7019C33.1535 17.8639 33.1352 18.0265 33.0889 18.1821C32.2096 21.5797 31.3281 24.9761 30.4443 28.3714C30.2871 28.9751 29.9996 29.2034 29.3774 29.205H16.8681C16.2357 29.205 15.9584 28.9768 15.7944 28.3461C14.6796 24.0625 13.5681 19.7789 12.46 15.4953C12.3974 15.2535 12.3179 15.1571 12.0491 15.1571C11.1698 15.1774 10.2872 15.1706 9.40622 15.1571C9.19843 15.1518 8.99928 15.0729 8.84436 14.9343C8.68945 14.7957 8.58888 14.6065 8.56062 14.4006C8.53237 14.1946 8.57827 13.9854 8.69012 13.8102C8.80197 13.635 8.97249 13.5053 9.17119 13.4442C9.28543 13.4146 9.40322 13.401 9.5212 13.4036C10.6552 13.4036 11.7904 13.4036 12.9267 13.4036C13.5049 13.4036 13.7907 13.6268 13.9412 14.1899C14.1779 15.0979 14.4096 15.9941 14.6531 16.9173ZM15.1147 18.7012L17.3855 27.4279H28.8599L31.1274 18.7012H15.1147Z" fill="#691EDE"/>
<path d="M24.6547 11.9547H24.2742C22.6949 11.9547 21.1139 11.9547 19.5397 11.9547C18.8989 11.9547 18.4778 11.4474 18.6165 10.8657C18.6535 10.6961 18.7418 10.542 18.8695 10.4243C18.9971 10.3066 19.1579 10.2311 19.33 10.208C19.4561 10.1914 19.5833 10.1841 19.7105 10.186H24.6141C24.5126 10.071 24.4602 10.0034 24.401 9.94421C24.0358 9.5756 23.6638 9.21713 23.307 8.84175C23.216 8.76237 23.1423 8.6651 23.0905 8.55599C23.0388 8.44688 23.01 8.32827 23.0061 8.20757C23.0022 8.08686 23.0232 7.96664 23.0678 7.85441C23.1124 7.74217 23.1796 7.64033 23.2653 7.55522C23.351 7.47011 23.4533 7.40357 23.5658 7.35975C23.6784 7.31592 23.7987 7.29574 23.9194 7.30048C24.0401 7.30522 24.1585 7.33476 24.2672 7.38728C24.376 7.43979 24.4728 7.51415 24.5515 7.60571C25.5018 8.54246 26.4459 9.48598 27.3838 10.4363C27.4746 10.5173 27.5471 10.6168 27.5965 10.728C27.6459 10.8393 27.6711 10.9598 27.6703 11.0816C27.6695 11.2033 27.6427 11.3235 27.5919 11.4341C27.541 11.5447 27.4672 11.6432 27.3753 11.723C26.4453 12.6632 25.508 13.6016 24.5633 14.5384C24.4825 14.6252 24.385 14.6947 24.2766 14.7429C24.1683 14.7911 24.0513 14.8169 23.9327 14.8188C23.8142 14.8207 23.6964 14.7987 23.5866 14.7539C23.4767 14.7092 23.377 14.6428 23.2935 14.5587C23.209 14.4755 23.1423 14.3761 23.0975 14.2663C23.0527 14.1566 23.0308 14.0388 23.033 13.9203C23.0352 13.8018 23.0615 13.685 23.1104 13.577C23.1592 13.469 23.2296 13.3721 23.3172 13.2922C23.7348 12.8475 24.166 12.4383 24.6547 11.9547Z" fill="#691EDE"/>
<path d="M24.6158 24.9326C24.7105 24.0076 24.8119 23.0337 24.9117 22.058C24.9444 21.7413 24.9759 21.4251 25.0064 21.1095C25.0469 20.6952 25.2312 20.379 25.6438 20.2488C25.7834 20.2047 25.9318 20.1962 26.0754 20.2241C26.2191 20.252 26.3535 20.3153 26.4665 20.4084C26.5794 20.5015 26.6673 20.6214 26.722 20.7571C26.7768 20.8929 26.7968 21.0401 26.7801 21.1855C26.6538 22.4943 26.5163 23.8019 26.3675 25.1084C26.3599 25.2243 26.3291 25.3375 26.2768 25.4412C26.2245 25.5449 26.1518 25.637 26.0631 25.712C25.9744 25.7869 25.8715 25.8433 25.7605 25.8776C25.6495 25.9119 25.5328 25.9234 25.4172 25.9116C24.9489 25.8778 24.609 25.4838 24.6158 24.9326Z" fill="#691EDE"/>
<path d="M21.6195 24.8531C21.6432 25.4584 21.3219 25.8676 20.8349 25.9065C20.3141 25.9505 19.9252 25.6056 19.8644 25.0307C19.7313 23.7591 19.6 22.4876 19.4704 21.216C19.4528 21.1001 19.4586 20.9819 19.4873 20.8683C19.516 20.7547 19.5671 20.6479 19.6376 20.5543C19.7081 20.4606 19.7965 20.382 19.8978 20.323C19.999 20.264 20.111 20.2257 20.2272 20.2106C20.3435 20.1954 20.4615 20.2035 20.5745 20.2345C20.6876 20.2656 20.7933 20.3188 20.8854 20.3912C20.9776 20.4636 21.0544 20.5536 21.1114 20.656C21.1683 20.7585 21.2043 20.8712 21.2171 20.9877C21.3676 22.3016 21.491 23.6103 21.6195 24.8531Z" fill="#691EDE"/>
<defs>
<linearGradient id="paint0_linear_452_8609" x1="22.0243" y1="0" x2="22.0243" y2="44.0486" gradientUnits="userSpaceOnUse">
<stop stop-color="#6019EB"/>
<stop offset="1" stop-color="#F16C19"/>
</linearGradient>
</defs>
</svg>
