<svg width="45" height="45" viewBox="0 0 45 45" fill="none" xmlns="http://www.w3.org/2000/svg">
<circle cx="22.0243" cy="22.0243" r="21.3662" stroke="url(#paint0_linear_452_8585)" stroke-width="1.31619"/>
<path d="M11.3036 21.4449C11.9909 20.8526 12.6766 20.266 13.3595 19.6766C14.0424 19.0871 14.7598 18.9204 15.6167 19.1691C17.0342 19.5817 18.4647 19.9454 19.875 20.3767C20.2828 20.504 20.6581 20.7184 20.9749 21.005C22.0689 22.0114 21.7685 23.5065 20.3825 24.0385C19.9841 24.1663 19.5791 24.2723 19.1692 24.3562C19.8477 25.1498 20.5723 25.4948 21.6247 25.2504C24.5921 24.5618 27.5795 23.9565 30.5541 23.3067C31.5216 23.0939 32.2045 23.4706 32.5927 24.4957C32.9464 25.4287 32.6775 26.2784 31.8465 26.6953C31.1665 27.0375 30.4578 27.3207 29.7591 27.6269C27.0792 28.8029 24.3922 29.966 21.7181 31.1578C20.8479 31.5605 19.8654 31.6509 18.9362 31.4137C16.5526 30.8387 14.1641 30.2852 11.7709 29.7532C11.6345 29.7314 11.4952 29.7375 11.3612 29.7711C11.2273 29.8047 11.1016 29.8652 10.9917 29.9488C10.2355 30.6087 9.3671 30.4778 8.55625 30.255C7.78854 30.0436 7.72096 29.3162 7.72528 28.6103C7.73678 26.5602 7.72528 24.51 7.72528 22.4585C7.72528 21.4032 7.96393 20.9547 8.63964 20.7131C9.51374 20.3997 10.5503 20.6398 11.1167 21.2882C11.1754 21.3447 11.2378 21.3971 11.3036 21.4449ZM11.3295 25.2246C11.3295 26.438 11.3612 27.2502 11.318 28.0582C11.2907 28.56 11.4618 28.7569 11.9506 28.8676C14.4105 29.4183 16.8531 30.0465 19.3215 30.5598C19.9501 30.6612 20.5942 30.5973 21.1905 30.3743C22.3522 29.9617 23.4664 29.4125 24.5992 28.9151C26.8219 27.9413 29.0436 26.9675 31.2643 25.9937C31.8005 25.7608 31.9831 25.3841 31.7747 24.8436C31.5935 24.3648 31.3592 24.0342 30.718 24.1794C27.7247 24.8522 24.72 25.4733 21.7239 26.1361C20.6931 26.3632 19.8147 26.1634 19.0024 25.469C18.3382 24.9011 17.5906 24.431 16.9077 23.8875C16.6662 23.6949 16.301 23.3254 16.3556 23.1558C16.5166 22.6655 16.9178 22.9229 17.2412 23.0652C18.1268 23.4519 19.0455 23.5482 19.9541 23.2233C20.2417 23.1184 20.6226 22.8064 20.6586 22.5462C20.7017 22.2414 20.4731 21.8446 20.2546 21.5743C20.095 21.3759 19.7744 21.2868 19.5056 21.202C18.2692 20.8382 17.0126 20.5521 15.8007 20.1338C14.9151 19.8275 14.3127 20.105 13.5881 20.6154C11.8083 21.859 10.6869 23.3268 11.3295 25.2246ZM10.4123 25.5121C10.4123 24.4195 10.3893 23.3254 10.4209 22.2342C10.4425 21.5154 10.0011 21.5154 9.48786 21.5082C8.97462 21.501 8.62526 21.5801 8.62526 22.2342C8.64826 24.4195 8.64826 26.6047 8.62526 28.79C8.61807 29.4513 8.97318 29.5088 9.48786 29.5088C10.0026 29.5088 10.4439 29.5218 10.4209 28.79C10.3878 27.6988 10.4123 26.6033 10.4123 25.5135V25.5121Z" fill="#691EDE"/>
<path d="M19.8879 17.2833C19.76 16.3949 19.6809 15.4963 19.4969 14.6193C18.7191 10.9331 21.2322 7.21819 24.937 6.63162C28.7483 6.02924 32.3698 8.74788 32.7005 12.4599C33.0599 16.4711 30.186 19.8208 26.2885 19.9243C25.8845 19.9358 25.4517 19.9862 25.0794 19.8683C23.6417 19.4097 22.1595 19.5376 20.6887 19.5232C19.8046 19.5146 19.7787 19.4916 19.7744 18.5859C19.7744 18.1546 19.7744 17.7233 19.7744 17.292L19.8879 17.2833ZM20.6672 18.4536C22.4139 18.6606 24.05 18.9122 25.699 19.0287C26.9147 19.1052 28.1237 18.7973 29.1547 18.1485C30.1857 17.4998 30.9864 16.5431 31.4434 15.414C31.9005 14.2848 31.9907 13.0405 31.7013 11.8573C31.4119 10.6741 30.7575 9.61187 29.8309 8.8212C28.9075 8.0378 27.763 7.56149 26.5564 7.45843C25.3499 7.35537 24.1412 7.63069 23.0983 8.24613C20.9418 9.54004 19.8836 12.0186 20.3811 14.5029C20.5507 15.3554 20.5953 16.2281 20.6686 17.1051C20.6988 17.5809 20.6672 18.0568 20.6672 18.4536Z" fill="#691EDE"/>
<path d="M25.0636 14.9588L28.4421 11.5745C28.5773 11.4394 28.6937 11.2511 28.8562 11.1907C29.0474 11.1202 29.2789 11.1648 29.4931 11.1591C29.4931 11.3733 29.5722 11.6752 29.4615 11.7873C28.1532 13.1373 26.8248 14.4686 25.4676 15.7668C25.3526 15.8761 24.9098 15.8114 24.7488 15.6748C24.1901 15.193 23.6678 14.6707 23.186 14.112C23.0523 13.9553 23.1156 13.629 23.0883 13.3803C23.3355 13.4277 23.6633 13.3932 23.8157 13.5398C24.2585 13.9525 24.6323 14.4499 25.0636 14.9588Z" fill="#691EDE"/>
<defs>
<linearGradient id="paint0_linear_452_8585" x1="22.0243" y1="0" x2="22.0243" y2="44.0486" gradientUnits="userSpaceOnUse">
<stop stop-color="#6019EB"/>
<stop offset="1" stop-color="#F16C19"/>
</linearGradient>
</defs>
</svg>
