<svg width="48" height="30" viewBox="0 0 48 30" fill="none" xmlns="http://www.w3.org/2000/svg">
<path d="M46.369 15.7039C46.7578 15.3152 46.7578 14.6848 46.369 14.2961L40.0337 7.96081C39.645 7.57204 39.0147 7.57204 38.6259 7.96081C38.2371 8.34957 38.2371 8.97988 38.6259 9.36865L44.2573 15L38.6259 20.6314C38.2371 21.0201 38.2371 21.6504 38.6259 22.0392C39.0147 22.428 39.645 22.428 40.0337 22.0392L46.369 15.7039ZM0 15.9955H1.90271V14.0045H0V15.9955ZM5.70814 15.9955H9.51356V14.0045H5.70814V15.9955ZM13.319 15.9955H17.1244V14.0045H13.319V15.9955ZM20.9298 15.9955H24.7353V14.0045H20.9298V15.9955ZM28.5407 15.9955H32.3461V14.0045H28.5407V15.9955ZM36.1515 15.9955H39.957V14.0045H36.1515V15.9955ZM43.7624 15.9955H45.6651V14.0045H43.7624V15.9955ZM47.0729 16.4078C47.8505 15.6303 47.8505 14.3697 47.0729 13.5922L34.4024 0.921614C33.6249 0.144086 32.3642 0.144086 31.5867 0.921614C30.8092 1.69914 30.8092 2.95976 31.5867 3.73729L42.8494 15L31.5867 26.2627C30.8092 27.0402 30.8092 28.3009 31.5867 29.0784C32.3642 29.8559 33.6249 29.8559 34.4024 29.0784L47.0729 16.4078ZM0 16.991H1.90271V13.009H0V16.991ZM5.70814 16.991H9.51356V13.009H5.70814V16.991ZM13.319 16.991H17.1244V13.009H13.319V16.991ZM20.9298 16.991H24.7353V13.009H20.9298V16.991ZM28.5407 16.991H32.3461V13.009H28.5407V16.991ZM36.1515 16.991H39.957V13.009H36.1515V16.991ZM43.7624 16.991H45.6651V13.009H43.7624V16.991Z" fill="#691EDE"/>
</svg>
