<svg width="26" height="26" viewBox="0 0 26 26" fill="none" xmlns="http://www.w3.org/2000/svg">
<path d="M0.129517 21.5904C0.248404 21.3481 0.356689 21.1293 0.462703 20.9089C0.824665 20.1827 1.18208 19.455 1.55237 18.7326C1.60612 18.639 1.6344 18.533 1.6344 18.4252C1.6344 18.3173 1.60612 18.2113 1.55237 18.1177C1.11469 17.2605 0.689118 16.398 0.26052 15.5363C0.219628 15.4545 0.184795 15.3689 0.140875 15.2675H24.9474C24.8239 15.5189 24.7149 15.746 24.6036 15.9732C24.2462 16.6911 23.8925 17.412 23.526 18.1238C23.4723 18.2173 23.444 18.3233 23.444 18.4312C23.444 18.5391 23.4723 18.6451 23.526 18.7387C23.9629 19.5959 24.3885 20.4583 24.8171 21.3193C24.858 21.4019 24.8928 21.4874 24.9375 21.5897L0.129517 21.5904ZM19.3438 18.9105L19.4309 18.8553C19.4995 18.9243 19.5607 19.0005 19.6134 19.0824C19.8299 19.5012 20.0366 19.9245 20.2494 20.3448C20.4145 20.6711 20.644 20.7756 20.9014 20.6477C21.1589 20.5197 21.2187 20.2728 21.0589 19.9465C20.8613 19.5421 20.6599 19.1392 20.4531 18.7281L20.5985 18.6129C21.0922 18.2215 21.2755 17.6384 21.0816 17.075C20.8878 16.5116 20.3797 16.1663 19.7504 16.1663C19.4861 16.1663 19.2203 16.1625 18.9576 16.1663C18.6047 16.1724 18.4358 16.3367 18.4351 16.6888C18.4315 17.8499 18.4315 19.011 18.4351 20.1721C18.4351 20.5008 18.6198 20.7022 18.894 20.7022C19.1681 20.7022 19.3377 20.4947 19.3407 20.1608C19.346 19.739 19.3438 19.3248 19.3438 18.9105ZM6.17534 19.7912C5.72553 19.7912 5.30224 19.7867 4.87894 19.7912C4.56847 19.795 4.3731 19.979 4.37461 20.2456C4.37613 20.5121 4.57377 20.6908 4.88575 20.6946C5.31965 20.6992 5.75431 20.7029 6.18821 20.6946C6.42734 20.695 6.65686 20.6005 6.82638 20.4318C6.99589 20.2632 7.09155 20.0341 7.09236 19.795C7.10144 19.5027 7.09841 19.2104 7.09236 18.9174C7.08327 18.3593 6.70465 17.9844 6.14277 17.9769C5.86259 17.9731 5.58241 17.9769 5.29845 17.9769V17.0682C5.74068 17.0682 6.16398 17.072 6.58576 17.0682C6.89471 17.0636 7.09236 16.8781 7.09008 16.6138C7.08781 16.3496 6.89169 16.1693 6.57819 16.1655C6.14429 16.1602 5.71039 16.1572 5.27573 16.1655C5.03685 16.1657 4.80776 16.2605 4.63849 16.429C4.46923 16.5976 4.37354 16.8263 4.37234 17.0651C4.36401 17.3574 4.36628 17.6505 4.37234 17.9428C4.38522 18.4986 4.76384 18.875 5.3242 18.8833C5.60438 18.8871 5.88455 18.8833 6.17534 18.8833V19.7912ZM8.46599 17.0697C8.7598 17.0697 9.02332 17.0697 9.28684 17.0697C9.61473 17.0644 9.81691 16.8819 9.81691 16.6078C9.81691 16.3337 9.61473 16.1678 9.30047 16.1648C8.89459 16.1595 8.48795 16.1602 8.08207 16.1648C7.72617 16.1686 7.552 16.3321 7.552 16.6812C7.54796 17.8509 7.54796 19.0214 7.552 20.1926C7.552 20.5257 7.72692 20.6931 8.06314 20.6984C8.46902 20.7037 8.8749 20.7022 9.28078 20.6984C9.61246 20.6984 9.81691 20.5182 9.8154 20.244C9.81388 19.9699 9.6117 19.7973 9.27776 19.7935C9.00818 19.7897 8.7386 19.7935 8.47129 19.7935V18.8848C8.75602 18.8848 9.02787 18.8886 9.29896 18.8848C9.61321 18.8795 9.8101 18.7068 9.8154 18.4411C9.8207 18.1753 9.617 17.9867 9.28533 17.9799C9.01499 17.9761 8.74466 17.9799 8.46448 17.9799L8.46599 17.0697ZM16.6275 17.0697C16.9244 17.0697 17.1962 17.0735 17.4681 17.0697C17.7793 17.0644 17.9777 16.8872 17.98 16.6214C17.9823 16.3556 17.7861 16.1671 17.4772 16.1671C17.0614 16.161 16.6442 16.1618 16.2307 16.1671C15.8923 16.1671 15.7173 16.3374 15.7166 16.6691C15.712 17.8489 15.712 19.0289 15.7166 20.2092C15.7166 20.525 15.8945 20.6939 16.2141 20.6992C16.6291 20.706 17.0471 20.7045 17.4605 20.6992C17.7755 20.6954 17.9732 20.5235 17.98 20.2584C17.9868 19.9934 17.7839 19.7988 17.456 19.7942C17.1856 19.7897 16.9145 19.7942 16.6412 19.7942V18.9083C16.6552 18.9004 16.6702 18.8946 16.6859 18.8909C16.9403 18.8909 17.1955 18.8909 17.4499 18.8833C17.7801 18.8772 17.9845 18.6985 17.98 18.4244C17.9754 18.1503 17.7733 17.9814 17.4386 17.9776C17.169 17.9776 16.8994 17.9776 16.6275 17.9776V17.0697ZM11.1754 19.7912V19.4452C11.1754 18.5198 11.1754 17.5945 11.1754 16.6699C11.1754 16.3594 10.9868 16.1625 10.7211 16.1648C10.4553 16.1671 10.2728 16.3617 10.272 16.6744C10.268 17.8451 10.268 19.0158 10.272 20.1865C10.272 20.5212 10.4447 20.6916 10.7786 20.6961C11.1943 20.7029 11.6116 20.7022 12.025 20.6961C12.3363 20.6916 12.5339 20.5121 12.5362 20.2471C12.5384 19.982 12.3416 19.798 12.0318 19.7927C11.7592 19.7867 11.4866 19.7912 11.1777 19.7912H11.1754ZM13.9015 19.7912V19.4414C13.9015 18.5259 13.9015 17.6104 13.9015 16.6941C13.9015 16.3639 13.7182 16.1602 13.4426 16.164C13.1669 16.1678 12.9981 16.3639 12.9966 16.6774C12.9935 17.8481 12.9935 19.0186 12.9966 20.1888C12.9966 20.5227 13.1707 20.6908 13.5062 20.6954C13.9222 20.7014 14.3376 20.7014 14.7526 20.6954C15.0631 20.6916 15.2607 20.5091 15.2607 20.241C15.2607 19.973 15.0638 19.795 14.7526 19.7867C14.4777 19.7867 14.2059 19.7912 13.9 19.7912H13.9015Z" fill="#6019EB"/>
<path d="M4.11711 14.3324C3.38259 10.7408 4.86602 7.22341 7.92452 5.25912C10.8672 3.36602 14.7791 3.49626 17.5975 5.55293C20.5849 7.73151 21.6503 11.3685 20.9476 14.3324H4.11711ZM11.1791 7.46421C11.0542 7.13859 10.8187 7.08559 10.5294 7.08559C9.87821 7.09846 9.22622 7.08559 8.57424 7.09013C8.16381 7.09013 8.00328 7.24688 8.00252 7.65049C8.00252 9.3977 8.00252 11.1447 8.00252 12.8914C8.00252 13.2768 8.1676 13.4373 8.55909 13.4388C9.20123 13.4388 9.8464 13.4282 10.4855 13.4441C10.8414 13.4525 11.1277 13.3911 11.195 12.986C12.6974 12.986 14.1703 12.986 15.6438 12.986C16.4904 12.986 17.0697 12.4082 17.0743 11.5654C17.0788 10.6971 17.0788 9.82832 17.0743 8.959C17.0697 8.12982 16.492 7.55281 15.6666 7.54448C15.3864 7.54448 15.1062 7.54448 14.8056 7.54448C14.8056 7.05833 14.8147 6.60625 14.8056 6.15494C14.7987 5.80625 14.6578 5.47359 14.4122 5.226C14.1666 4.9784 13.8351 4.83488 13.4865 4.82522C13.1836 4.81538 12.8807 4.81765 12.5778 4.82522C12.2605 4.83279 12.0931 5.00241 12.0856 5.32121C12.0788 5.61427 12.0954 5.90732 12.081 6.19961C12.0522 6.79253 11.7531 7.20296 11.1791 7.46421Z" fill="#6019EB"/>
<path d="M3.1736 14.3482C2.69578 14.3482 2.24371 14.3528 1.79088 14.3437C1.70961 14.3371 1.63348 14.3014 1.57658 14.243C1.05408 13.6849 0.538399 13.12 0 12.5346L0.958668 11.4911C1.19568 11.2337 1.4274 10.9717 1.67048 10.721C1.86433 10.5219 1.90371 10.3129 1.80375 10.0509C1.516 9.29363 1.24263 8.53033 0.954125 7.74053C1.36909 7.54516 1.77497 7.35358 2.18237 7.16351C2.51556 7.00752 2.84647 6.84547 3.18496 6.70235C3.45529 6.58725 3.56358 6.39415 3.57342 6.10716C3.58857 5.48395 3.61734 4.86149 3.64158 4.23828C3.64915 4.06033 3.66126 3.88238 3.67338 3.67338C3.87481 3.66126 4.05957 3.64688 4.24586 3.63931C4.86907 3.61432 5.49152 3.58554 6.11548 3.5704C6.24325 3.57629 6.36955 3.54119 6.47595 3.47021C6.58234 3.39923 6.66326 3.2961 6.70689 3.17587C7.03932 2.43756 7.38841 1.70607 7.73977 0.948824C8.45309 1.20856 9.16187 1.43573 9.84339 1.72651C10.275 1.91052 10.5741 1.84313 10.899 1.51448C11.4162 0.991987 11.9773 0.512653 12.5392 0C13.0874 0.502809 13.647 0.979871 14.1627 1.50161C14.4929 1.83555 14.7927 1.92264 15.2403 1.72878C15.9134 1.43422 16.6177 1.21537 17.334 0.955639C17.4529 1.20629 17.571 1.44936 17.6846 1.69471C17.9035 2.16495 18.1352 2.6299 18.3328 3.10924C18.4722 3.44621 18.6963 3.57342 19.053 3.57645C19.7049 3.58175 20.3562 3.61962 21.0074 3.64612C21.1286 3.65066 21.2497 3.66429 21.4027 3.67641C21.4315 4.27084 21.4595 4.85241 21.486 5.43473C21.4958 5.6619 21.5049 5.88907 21.5042 6.11624C21.5042 6.404 21.6306 6.58649 21.8987 6.70538C22.5537 6.99616 23.2011 7.30587 23.8508 7.60877C23.9349 7.64814 24.0174 7.69131 24.1219 7.7428C23.8554 8.46975 23.6153 9.19367 23.3238 9.89639C23.1602 10.2894 23.2314 10.5613 23.5222 10.8551C24.0523 11.3912 24.549 11.9606 25.0776 12.5354C24.5339 13.1275 23.9993 13.7106 23.4609 14.2899C23.4191 14.3268 23.3652 14.347 23.3094 14.3467C22.8475 14.3512 22.3856 14.3467 21.9093 14.3467C22.4348 10.9209 21.5428 7.96088 19.0257 5.57406C17.0796 3.72866 14.7094 2.88661 12.0394 3.02442C6.36689 3.31823 2.11346 8.50534 3.1736 14.3482Z" fill="#6019EB"/>
<path d="M12.5399 25.07C11.9515 24.5293 11.3669 24.0099 10.8043 23.4677C10.5476 23.2201 10.3068 23.1595 9.96602 23.2966C9.24134 23.5873 8.50075 23.8403 7.74048 24.1182C7.49514 23.5881 7.25509 23.0724 7.00293 22.528H18.073L17.3423 24.1106C17.0538 24.0084 16.7736 23.9107 16.4942 23.8077C16.0156 23.6343 15.5325 23.4715 15.0615 23.2776C14.7677 23.1572 14.5473 23.208 14.3202 23.4238C13.7394 23.9788 13.1442 24.5142 12.5399 25.07Z" fill="#6019EB"/>
<path d="M19.3558 17.9702V17.0774C19.6489 17.085 19.97 16.9684 20.1555 17.2728C20.1923 17.3445 20.2133 17.4232 20.2169 17.5037C20.2206 17.5842 20.2068 17.6645 20.1767 17.7393C20.0048 18.0793 19.6671 17.9619 19.3558 17.9702Z" fill="#6019EB"/>
<path d="M11.1868 12.0788V8.42288C12.5059 8.01927 13.0662 7.10527 12.992 5.73997C13.1829 5.73997 13.3631 5.71346 13.5319 5.74603C13.7894 5.79525 13.9007 5.9838 13.9 6.24353C13.9 6.79077 13.9 7.33851 13.9 7.88675C13.9 8.29187 14.0605 8.44862 14.4679 8.45165C14.8753 8.45468 15.2615 8.44711 15.6583 8.45165C15.993 8.45695 16.1641 8.62582 16.1664 8.96127C16.1709 9.83059 16.1709 10.6994 16.1664 11.5677C16.1664 11.8789 16.0021 12.0728 15.712 12.0743C14.2142 12.0834 12.7149 12.0788 11.1868 12.0788Z" fill="#6019EB"/>
<path d="M10.25 12.5216H8.92407V8.02209H10.25V12.5216Z" fill="#6019EB"/>
</svg>
