<svg width="26" height="23" viewBox="0 0 26 23" fill="none" xmlns="http://www.w3.org/2000/svg">
<path d="M0.0124969 10.3452C0.126104 9.73858 0.221534 9.12624 0.353318 8.52753C1.38941 3.94348 5.38611 0.47392 10.1054 0.0478938C15.7289 -0.458794 20.7424 3.10506 21.9784 8.35712C21.4547 8.97968 21.0082 9.53522 20.5288 10.0612C20.4152 10.1839 20.1948 10.2078 19.9767 10.2964C19.612 7.51302 18.3612 5.35562 16.114 3.82079C14.3849 2.63246 12.4411 2.11668 10.3587 2.34389C5.7008 2.85967 2.4062 6.57462 2.36076 11.1632C2.32554 15.1906 5.83259 20.1938 11.9333 19.911V22.1308C10.8688 22.3138 9.85882 22.1604 8.8659 21.9445C4.26254 20.9402 0.931578 17.415 0.153369 12.7651C0.10111 12.4515 0.0511232 12.1391 0 11.8267L0.0124969 10.3452Z" fill="#6019EB"/>
<path d="M25.574 11.2508C25.3332 11.7427 24.9208 11.9017 24.4039 11.8188C23.7915 11.7234 23.5291 11.9517 23.3814 12.58C22.8213 14.9794 22.1908 17.3617 21.5853 19.7497C21.4126 20.4314 21.2058 20.6018 20.5276 20.6029C18.5588 20.6029 16.59 20.6029 14.62 20.6029C14.1656 20.6029 13.7782 20.4984 13.6612 20.0008C13.5305 19.4487 13.8884 19.0704 14.553 19.0669C16.2003 19.0601 17.8476 19.0351 19.4938 19.0806C20.1152 19.0965 20.364 18.8909 20.322 18.2103H19.7312C17.8567 18.2103 15.9822 18.1979 14.1077 18.2172C13.5078 18.224 13.1704 18.0365 13.0329 17.4071C12.7626 16.1779 12.4161 14.9646 12.1105 13.7433C11.9253 13.0049 12.1514 12.7209 12.9057 12.7209C15.6698 12.7209 18.4338 12.7084 21.199 12.7311C21.6421 12.7311 21.8557 12.6072 21.9307 12.1778C21.9977 11.7893 22.1056 11.4076 22.2033 11.0247C22.3169 10.5703 22.5873 10.3112 23.0929 10.3328C23.5468 10.3613 24.0022 10.3613 24.4561 10.3328C24.9696 10.2885 25.3355 10.4589 25.5695 10.9134L25.574 11.2508ZM21.3365 14.2125C20.8412 14.2125 20.3561 14.2125 19.871 14.2125C19.0927 14.2125 19.0314 14.3 19.2779 15.1032C19.6663 15.0837 20.0555 15.0864 20.4435 15.1111C21.0502 15.1816 21.3819 14.9862 21.3365 14.2125ZM15.9583 15.1009L16.139 14.9419C16.014 14.701 15.9117 14.2761 15.7584 14.2546C15.1778 14.1716 14.5791 14.2216 13.9861 14.2216L13.8498 14.4125C14.0293 14.6397 14.177 15.0271 14.3928 15.0691C14.8927 15.1691 15.4289 15.1009 15.9538 15.1009H15.9583ZM16.8263 15.0668H18.3827V14.2125C18.0419 14.2125 17.7465 14.2125 17.4489 14.2125C16.6854 14.2148 16.6547 14.2602 16.8217 15.0668H16.8263ZM16.8263 16.6573H18.3986V15.9064C18.345 15.8752 18.2873 15.8519 18.2271 15.8371C17.9624 15.8246 17.6988 15.8155 17.4318 15.8155C16.6786 15.8098 16.6411 15.8575 16.8263 16.6517V16.6573ZM19.195 16.6176C19.262 16.6494 19.2938 16.6778 19.3279 16.6789C19.6085 16.688 19.8891 16.6948 20.1697 16.6948C20.8752 16.6948 20.9298 16.6323 20.89 15.8496H19.195V16.6176ZM15.997 15.8621H14.3462C14.503 16.7982 14.6689 16.8709 16.0004 16.6142L15.997 15.8621Z" fill="#6019EB"/>
<path d="M11.9423 7.91622C11.9423 8.93869 11.948 9.95093 11.9423 10.9688C11.9423 11.5846 11.7049 11.8152 11.0789 11.8198C9.82998 11.8289 8.5803 11.8289 7.32987 11.8198C6.76183 11.8198 6.45736 11.5505 6.44714 11.0893C6.43691 10.628 6.75615 10.3463 7.30828 10.3395C8.02741 10.3315 8.74655 10.3395 9.46682 10.3395C10.5415 10.3281 10.4461 10.4883 10.4495 9.3863C10.4495 7.85942 10.4495 6.33368 10.4552 4.8068C10.4552 4.17173 10.9096 3.82409 11.447 4.01155C11.8185 4.14333 11.9503 4.4228 11.9469 4.8068C11.9355 5.84289 11.9423 6.87558 11.9423 7.91622Z" fill="#6019EB"/>
<path d="M15.22 21.4528C15.4182 21.4616 15.606 21.5443 15.7464 21.6845C15.8868 21.8247 15.9697 22.0123 15.9789 22.2105C15.9714 22.4093 15.8914 22.5984 15.7538 22.742C15.6162 22.8857 15.4307 22.9739 15.2325 22.9899C15.0243 22.9857 14.8261 22.9001 14.6804 22.7514C14.5347 22.6027 14.4531 22.4028 14.4531 22.1946C14.4632 21.9968 14.5479 21.8102 14.6903 21.6725C14.8326 21.5348 15.0219 21.4562 15.22 21.4528Z" fill="#6019EB"/>
<path d="M20.7469 22.2401C20.7336 22.4384 20.6475 22.6247 20.5051 22.7634C20.3627 22.902 20.1741 22.9831 19.9755 22.991C19.7678 22.9793 19.5729 22.8866 19.4328 22.7328C19.2926 22.579 19.2183 22.3765 19.2257 22.1685C19.2352 21.9668 19.3245 21.7771 19.4738 21.6412C19.6232 21.5053 19.8204 21.4342 20.0221 21.4437C20.2238 21.4532 20.4135 21.5424 20.5495 21.6918C20.6854 21.8411 20.7564 22.0384 20.7469 22.2401Z" fill="#6019EB"/>
</svg>
