<svg width="19" height="19" viewBox="0 0 19 19" fill="none" xmlns="http://www.w3.org/2000/svg">
<path d="M1.79705 13.9235C1.92079 12.9776 1.6048 12.3671 0.904299 11.913C-0.118323 11.2494 -0.30035 10.0723 0.49525 9.16116C1.09144 8.47805 1.16916 7.76733 0.802037 6.95537C0.322427 5.90104 0.802037 4.81604 1.90749 4.48778C2.78183 4.22701 3.26962 3.69116 3.4179 2.78307C3.61732 1.56308 4.57756 0.973026 5.76994 1.31458C6.59519 1.55081 7.25887 1.35242 7.81518 0.701008C8.61998 -0.231623 9.82156 -0.235714 10.6376 0.701008C11.199 1.34219 11.8576 1.5549 12.6829 1.31458C13.9213 0.960754 14.8835 1.60398 15.0686 2.86794C15.1811 3.64105 15.6024 4.16361 16.3571 4.41006C17.7213 4.85388 18.1549 5.8131 17.5843 7.13739C17.2775 7.85323 17.4135 8.49339 17.8962 9.08037C18.7654 10.1296 18.612 11.1931 17.4779 11.9683C16.7989 12.4325 16.5116 13.0584 16.6598 13.8928C16.7126 14.1519 16.7062 14.4196 16.641 14.6758C16.5759 14.9321 16.4537 15.1703 16.2836 15.3728C16.1135 15.5752 15.8999 15.7366 15.6587 15.8449C15.4175 15.9533 15.155 16.0057 14.8907 15.9984C13.9397 15.9923 13.3384 16.4126 12.9477 17.2634C12.8473 17.4945 12.6976 17.7009 12.5091 17.8682C12.3206 18.0354 12.0978 18.1594 11.8563 18.2316C11.6149 18.3038 11.3606 18.3223 11.1112 18.286C10.8619 18.2496 10.6234 18.1593 10.4126 18.0212C9.60375 17.5098 8.86746 17.4935 8.05345 18.016C7.1198 18.6163 5.94174 18.2451 5.48667 17.2348C5.10932 16.3952 4.50904 15.9688 3.58255 16.0076C2.65605 16.0465 1.55469 15.2141 1.79705 13.9235ZM3.829 9.7052L7.67713 13.5584L14.4009 6.83163L12.7565 5.15555L7.56873 10.3464L5.43247 8.15081C4.90548 8.66076 4.37099 9.17889 3.829 9.7052Z" fill="#6019EB"/>
</svg>
