<svg width="26" height="26" viewBox="0 0 26 26" fill="none" xmlns="http://www.w3.org/2000/svg">
<path d="M3.49699 25.9139C3.25243 25.7424 2.98059 25.6001 2.76917 25.3955C1.95755 24.6083 1.16445 23.8015 0.366476 23.0016C-0.120687 22.5145 -0.120687 21.9815 0.357707 21.4953C0.552573 21.3004 0.734772 21.1056 0.931585 20.9234C1.01989 20.8312 1.12603 20.758 1.24354 20.7083C1.36105 20.6585 1.48746 20.6331 1.61508 20.6338C1.7427 20.6344 1.86885 20.661 1.98585 20.712C2.10286 20.7629 2.20826 20.8372 2.29564 20.9302C2.46518 21.0939 2.62302 21.2693 2.81593 21.47C3.10823 21.1777 3.38202 20.8971 3.65873 20.6194C3.93543 20.3417 4.21799 20.0611 4.51321 19.7678C4.23845 19.496 3.9783 19.2436 3.724 18.9884C3.27874 18.5382 3.27776 18.014 3.724 17.5629C6.45602 14.829 9.19095 12.0979 11.9288 9.36981C12.1774 9.13135 12.4695 8.94282 12.7891 8.81445C13.9583 8.33605 15.1441 7.89858 16.3172 7.43188C16.7732 7.24968 17.1492 7.31593 17.4864 7.67741C17.7387 7.94925 18.0076 8.20647 18.2717 8.46661C18.5737 8.76378 18.6614 9.10187 18.5026 9.5033C18.0213 10.7358 17.5565 11.9742 17.0577 13.1989C16.9326 13.4932 16.7527 13.761 16.5276 13.9881C15.3117 15.2294 14.0762 16.4532 12.8456 17.6808C12.7853 17.7508 12.7114 17.8078 12.6284 17.8484C12.5457 17.8847 12.453 17.8911 12.3661 17.8665C12.2792 17.842 12.2035 17.7881 12.1519 17.7139C12.0944 17.6432 12.0666 17.5528 12.0744 17.4619C12.0822 17.371 12.125 17.2867 12.1938 17.2268C12.3702 17.0465 12.5641 16.8838 12.8437 16.6295C12.6966 16.5428 12.5562 16.4451 12.4238 16.3372C11.8752 15.8004 11.3345 15.2547 10.7927 14.7111C10.7041 14.6224 10.63 14.5406 10.5004 14.6692C9.79503 15.3843 9.08475 16.0936 8.37739 16.8068C8.36077 16.8266 8.3476 16.849 8.33842 16.8731L10.4751 19.001C10.6008 18.8559 10.7401 18.6776 10.898 18.5139C11.0928 18.319 11.3345 18.2985 11.4826 18.4437C11.656 18.6162 11.6492 18.8744 11.4504 19.0731C10.4033 20.1254 9.35301 21.1754 8.29944 22.2231C7.89217 22.6255 7.36019 22.6129 6.94805 22.2124C6.68206 21.9532 6.42679 21.6843 6.18028 21.4329L4.48788 23.1468C4.61454 23.2657 4.78797 23.4206 4.94971 23.5872C5.37646 24.0217 5.37646 24.5615 4.94971 25.0019C4.79841 25.1726 4.63565 25.3328 4.46254 25.4813C4.25404 25.643 4.01825 25.7736 3.79416 25.9129L3.49699 25.9139ZM12.6167 9.7537L16.1515 13.2817C16.2242 13.1676 16.2893 13.0488 16.3464 12.9261C16.8228 11.7111 17.2915 10.4903 17.7689 9.2792C17.7947 9.22743 17.8014 9.16819 17.7876 9.112C17.7739 9.05581 17.7407 9.00631 17.6939 8.97229C17.4318 8.72189 17.1726 8.46759 16.9222 8.20549C16.8857 8.16051 16.8343 8.13008 16.7773 8.11972C16.7203 8.10935 16.6614 8.11973 16.6114 8.14898C15.413 8.61861 14.2117 9.08239 13.0132 9.55201C12.8776 9.61214 12.7452 9.67946 12.6167 9.7537ZM9.87298 12.5792C11.0354 13.7397 12.1948 14.8962 13.325 16.0225L14.122 15.2499C14.0655 15.1904 14.0041 15.1242 13.9398 15.055C13.6368 14.75 13.3299 14.449 13.0298 14.1411C12.8437 13.9462 12.8349 13.7299 12.9869 13.5565C13.1389 13.3831 13.3991 13.3792 13.6076 13.5867C13.97 13.9482 14.3256 14.3184 14.6793 14.677L15.4413 13.9034L13.3806 11.8504C13.0736 12.1359 12.7229 12.435 12.4004 12.7692C12.1558 13.0196 11.9395 13.0508 11.6833 12.8111C11.6034 12.7361 11.5274 12.6572 11.4504 12.5792L10.671 11.7813L9.87298 12.5792ZM5.5723 16.9101L9.0068 20.3203C9.25915 20.0689 9.52514 19.8049 9.75314 19.5759L6.34299 16.118L5.5723 16.9101ZM3.64314 25.1422C3.70178 25.1215 3.75721 25.0926 3.8078 25.0565C4.01435 24.8567 4.21604 24.6531 4.41773 24.4495C4.53172 24.3345 4.50639 24.2273 4.39921 24.1211C3.52752 23.252 2.65582 22.3819 1.78412 21.5109C1.66525 21.392 1.55808 21.3862 1.43823 21.5109C1.26188 21.6931 1.08553 21.8743 0.900407 22.0468C0.746463 22.189 0.760104 22.305 0.900407 22.4482C1.75587 23.2988 2.60548 24.1552 3.45899 25.0078C3.51722 25.057 3.57874 25.1023 3.64314 25.1432V25.1422ZM5.55476 19.7045C6.19392 20.3456 6.8438 21.0013 7.50342 21.6463C7.54025 21.6667 7.58165 21.6774 7.62375 21.6774C7.66584 21.6774 7.70725 21.6667 7.74408 21.6463C7.98084 21.4368 8.20006 21.2079 8.37349 21.0364L6.30207 18.965L5.55476 19.7045ZM5.0676 20.3514C4.50639 20.9133 3.95719 21.4654 3.42001 22.0078L3.88477 22.4794L5.52553 20.8454L5.0676 20.3514Z" fill="#6019EB"/>
<path d="M25.924 9.1037C25.904 9.13813 25.8864 9.17395 25.8714 9.21088C25.5246 10.3011 24.3427 10.6724 23.4356 9.97085C22.9264 9.55373 22.3524 9.22264 21.7364 8.99068C21.1708 8.79122 20.572 8.70289 19.9729 8.73053C19.4974 8.75099 19.1934 8.39926 19.3425 8.00076C19.3837 7.8809 19.4636 7.7781 19.5695 7.70846C21.0475 6.891 22.5899 6.52758 24.254 7.08392C24.5534 7.19573 24.8439 7.32992 25.1231 7.48534C25.5538 7.70944 25.7798 8.09527 25.9201 8.54249L25.924 9.1037ZM21.1294 8.00271L21.5337 8.10014C22.3827 8.3216 23.1725 8.72745 23.8468 9.28882C24.0416 9.44666 24.2472 9.5704 24.5113 9.5324C24.7422 9.49928 24.825 9.396 24.7227 9.18847C24.6204 8.98093 24.482 8.72176 24.2891 8.59218C23.3333 7.95107 22.2723 7.76303 21.1294 8.00271Z" fill="#6019EB"/>
<path d="M23.1394 0.365065C24.3914 0.393321 25.3901 1.31698 25.5479 2.59432C25.6902 3.7528 24.9029 4.90153 23.726 5.20065C22.4204 5.53192 21.1625 5.96939 20.0011 6.66214C19.7478 6.81413 19.5061 6.78393 19.3259 6.60855C19.1456 6.43317 19.1125 6.17497 19.2684 5.91288C19.9504 4.76512 20.3918 3.52578 20.7124 2.2348C20.8418 1.69242 21.1534 1.21087 21.5951 0.870577C22.0369 0.530281 22.582 0.351843 23.1394 0.365065ZM20.4668 5.50366C21.457 5.06769 22.4816 4.71443 23.5301 4.44749C23.8078 4.37883 24.0628 4.23911 24.2702 4.04205C24.4775 3.84499 24.63 3.59737 24.7126 3.32354C24.7953 3.04971 24.8053 2.75908 24.7416 2.48022C24.678 2.20135 24.5428 1.94385 24.3495 1.73302C24.1632 1.50625 23.9173 1.33589 23.6396 1.24107C23.3618 1.14624 23.0631 1.13069 22.777 1.19617C22.1183 1.32575 21.6847 1.73205 21.4899 2.38095C21.4373 2.55827 21.409 2.7434 21.3505 2.9178C21.0582 3.78398 20.7591 4.64918 20.4668 5.50366Z" fill="#6019EB"/>
<path d="M19.0979 3.10394C19.0979 4.35107 18.7618 5.34489 18.2503 6.29486C18.109 6.55695 17.8664 6.66413 17.6189 6.59885C17.4892 6.57031 17.3747 6.49481 17.2973 6.38688C17.22 6.27895 17.1853 6.14622 17.2 6.01425C17.2604 4.67455 16.7907 3.52777 15.9635 2.49693C15.3711 1.75937 15.5046 0.783092 16.2432 0.273519C16.9817 -0.236054 17.9492 -0.0187789 18.4393 0.801604C18.8592 1.49704 19.0865 2.29166 19.0979 3.10394ZM17.959 5.01946C18.4695 3.72069 18.5017 2.44529 17.7826 1.20692C17.5332 0.779194 17.0567 0.656429 16.6855 0.914625C16.3143 1.17282 16.2646 1.6366 16.5783 2.02243C17.2972 2.88081 17.7741 3.91537 17.9599 5.01946H17.959Z" fill="#6019EB"/>
</svg>
