<svg width="21" height="21" viewBox="0 0 21 21" fill="none" xmlns="http://www.w3.org/2000/svg">
<path d="M19.084 4.74111C19.0197 5.20249 18.9554 5.91895 18.809 6.61879C18.7545 6.83241 18.759 7.05681 18.8219 7.26811C18.8847 7.47941 19.0037 7.66972 19.1661 7.81881C19.5532 8.21143 19.9425 8.60737 20.3218 9.00332C21.2212 9.93273 21.2234 10.0614 20.3439 11.0462C20.2102 11.2219 20.0548 11.3799 19.8815 11.5165C18.8544 12.1975 18.6925 13.1701 18.9077 14.2837C18.9842 14.6807 19.0607 15.0789 19.1018 15.4793C19.1772 16.2013 18.9909 16.4486 18.2677 16.5739C17.8152 16.6527 17.3561 16.6926 16.9025 16.7658C15.9597 16.9189 15.302 17.4556 14.8784 18.2997C14.6721 18.7089 14.4835 19.1304 14.2529 19.5263C13.9312 20.0808 13.644 20.1662 13.0617 19.9045C12.6768 19.7315 12.3053 19.5285 11.936 19.3245C10.9899 18.801 10.0505 18.8032 9.09783 19.3156C8.70965 19.5241 8.32147 19.7404 7.9222 19.92C7.36766 20.1674 7.07819 20.0753 6.77097 19.5496C6.55803 19.1858 6.38723 18.7976 6.20423 18.4172C5.69738 17.368 4.87333 16.7869 3.70435 16.6937C3.31989 16.662 2.93839 16.6012 2.56311 16.5118C1.96198 16.3699 1.77455 16.0848 1.86327 15.4737C1.92427 15.0567 2.00524 14.6408 2.09618 14.2293C2.32576 13.2034 2.02631 12.3439 1.29875 11.613C0.974899 11.288 0.623319 10.9875 0.31943 10.6437C-0.10424 10.1679 -0.105349 9.85731 0.309448 9.38373C0.587829 9.06764 0.907244 8.78594 1.21335 8.49646C2.05958 7.69349 2.40451 6.75188 2.04073 5.60176C1.97973 5.41099 1.97973 5.20248 1.93647 5.00618C1.63924 3.67528 2.10173 3.52888 3.22634 3.45346C4.78904 3.34255 5.92807 2.69928 6.44268 1.151C6.50282 0.996617 6.57708 0.848109 6.6645 0.707367C7.09815 -0.0689917 7.3721 -0.153282 8.17507 0.238225C8.73627 0.51106 9.30301 0.776131 9.85201 1.07337C10.0498 1.19048 10.2754 1.25227 10.5053 1.25227C10.7351 1.25227 10.9607 1.19048 11.1585 1.07337C11.7752 0.74064 12.404 0.442296 13.0351 0.143952C13.5996 -0.122228 13.9279 -0.0290646 14.2362 0.505514C14.4778 0.916876 14.6912 1.34411 14.8751 1.78429C15.2832 2.77581 16.0108 3.27157 17.0755 3.33701C17.5151 3.36718 17.9514 3.43433 18.3798 3.53775C19.0297 3.68859 19.124 3.8372 19.084 4.74111ZM3.50361 14.7062C3.48919 15.1499 3.72543 15.2708 4.05815 15.2608C5.77612 15.2308 6.91183 16.0116 7.47635 17.6475C7.70815 18.3196 7.90113 18.3718 8.47453 17.9603C9.80543 17.0165 11.113 17.0009 12.4584 17.927C13.1393 18.3973 13.2347 18.3462 13.5353 17.5621C14.0976 16.0793 15.1357 15.3029 16.6307 15.2486C17.5779 15.2142 17.6234 15.161 17.3816 14.2504C17.0001 12.8086 17.3383 11.603 18.5262 10.6625C19.2792 10.0658 19.277 9.94493 18.5262 9.35933C17.528 8.58297 17.0843 7.57703 17.2707 6.3149C17.3192 6.00706 17.3854 5.70229 17.4692 5.40212C17.5801 4.97956 17.4526 4.78325 16.9956 4.76883C16.5765 4.76134 16.1593 4.70929 15.7512 4.61356C14.5745 4.31189 13.9113 3.48119 13.5275 2.3721C13.3112 1.74658 13.0606 1.64565 12.5571 2.01387C11.1574 3.03755 9.78435 3.01204 8.39356 2.00167C7.9222 1.65785 7.71702 1.74991 7.49299 2.30556C7.43088 2.45861 7.38208 2.61499 7.31442 2.76583C6.83863 3.85828 6.0423 4.54036 4.83673 4.7034C4.58275 4.73667 4.32544 4.75442 4.07035 4.76994C3.56017 4.801 3.41821 4.97734 3.52246 5.47754C3.55241 5.62061 3.60343 5.75925 3.64003 5.90121C3.99715 7.31307 3.6123 8.47317 2.46551 9.37597C1.73129 9.9538 1.72575 10.1179 2.47327 10.6869C3.50805 11.4744 3.91508 12.508 3.71655 13.7835C3.66554 14.1106 3.56794 14.4278 3.50361 14.7062Z" fill="#6019EB"/>
<path d="M7.41421 13.8368C6.8763 13.8113 6.59681 13.3577 6.7909 12.9994C6.89238 12.8253 7.01824 12.6666 7.16466 12.5281C9.11148 10.5716 11.0612 8.6178 13.014 6.66655C13.1171 6.56341 13.2192 6.40148 13.34 6.38262C13.5896 6.3427 13.9378 6.28392 14.0831 6.41368C14.2284 6.54344 14.194 6.89724 14.1641 7.14235C14.1452 7.28209 13.9811 7.41075 13.8658 7.5272C11.8894 9.50359 9.91076 11.4807 7.92993 13.4586C7.76901 13.599 7.59649 13.7255 7.41421 13.8368Z" fill="#6019EB"/>
<path d="M8.09401 9.40482C7.12023 9.39262 6.26624 8.54306 6.28953 7.61032C6.31282 6.65762 7.17679 5.80141 8.10843 5.81361C8.58215 5.82718 9.03249 6.02248 9.36615 6.35903C9.69981 6.69558 9.89122 7.14759 9.90071 7.62141C9.89231 8.0958 9.69853 8.54806 9.36087 8.88137C9.0232 9.21469 8.56847 9.40257 8.09401 9.40482ZM8.23819 6.93045H7.9831C7.82228 7.15227 7.56165 7.35967 7.52394 7.5959C7.46627 7.96856 7.72357 8.21921 8.12506 8.20701C8.49328 8.19703 8.74837 7.97632 8.67073 7.61032C8.61971 7.36632 8.38791 7.15671 8.23819 6.93045Z" fill="#6019EB"/>
<path d="M14.6854 12.4105C14.6762 12.883 14.4838 13.3333 14.1487 13.6665C13.8137 13.9997 13.3622 14.1896 12.8898 14.1962C12.4175 14.1892 11.9668 13.9969 11.6349 13.6609C11.303 13.3248 11.1163 12.8718 11.1152 12.3994C11.1152 12.1656 11.1615 11.934 11.2513 11.718C11.3411 11.5021 11.4727 11.306 11.6385 11.1411C11.8043 10.9762 12.0012 10.8457 12.2176 10.7571C12.4341 10.6685 12.6659 10.6236 12.8998 10.6249C13.3715 10.6307 13.8224 10.8206 14.156 11.1543C14.4896 11.4879 14.6796 11.9387 14.6854 12.4105ZM13.5585 12.2664C13.3312 12.1155 13.1149 11.8748 12.872 11.8338C12.5049 11.7728 12.3042 12.0412 12.3086 12.4139C12.313 12.7865 12.5304 12.9972 12.8975 12.9939C13.2646 12.9906 13.4743 12.7898 13.5585 12.2664Z" fill="#6019EB"/>
</svg>
