<svg width="20" height="20" viewBox="0 0 20 20" fill="none" xmlns="http://www.w3.org/2000/svg">
<path d="M15.2425 0.00360168H15.7784C16.261 0.10445 16.6904 0.301105 17.0433 0.660558C17.6772 1.30887 18.3205 1.9435 18.9616 2.58244C19.2187 2.83268 19.4091 3.1432 19.5156 3.48576C19.5509 3.60029 19.5768 3.71699 19.6071 3.83297V4.36963C19.597 4.38475 19.5811 4.39916 19.5782 4.41645C19.5034 4.8925 19.268 5.32866 18.9112 5.65256C18.7671 5.78799 18.6231 5.91909 18.479 6.05596C18.7001 6.1957 18.8968 6.30088 19.0726 6.43558C19.3744 6.66609 19.5148 6.99961 19.6099 7.35618V7.81505C19.4659 8.11039 19.3326 8.41005 19.1777 8.69819C19.0671 8.89806 18.9437 9.09056 18.8082 9.27447C18.5517 9.63464 18.5669 9.96744 18.8046 10.3341C19.1071 10.8009 19.4723 11.2367 19.6107 11.7942V12.2538C19.4666 12.8957 19.0517 13.2868 18.4682 13.5396C18.2348 13.6412 18.0165 13.7759 17.7882 13.889C17.459 14.0525 17.3163 14.3169 17.3372 14.6814C17.3581 15.0459 17.379 15.4197 17.3869 15.79C17.4057 16.7265 16.7264 17.4021 15.7899 17.382C15.4298 17.3748 15.0631 17.3575 14.7008 17.333C14.3183 17.3071 14.0525 17.4641 13.881 17.8034C13.7259 18.1112 13.5681 18.4171 13.4077 18.7211C12.9417 19.6071 11.9944 19.8636 11.1531 19.3334C10.857 19.1461 10.5609 18.9581 10.2685 18.765C9.95656 18.5597 9.65113 18.5619 9.33922 18.765C9.01435 18.9811 8.69091 19.1973 8.35595 19.3917C8.18344 19.4966 7.99153 19.5655 7.79173 19.5943C7.59194 19.6231 7.38838 19.6113 7.19327 19.5595C6.99816 19.5077 6.81554 19.417 6.65636 19.2929C6.49717 19.1687 6.36472 19.0137 6.26694 18.8371C6.20355 18.7276 6.1452 18.6145 6.0638 18.4661C5.89308 18.6483 5.74397 18.8212 5.58045 18.9797C4.70163 19.8261 3.44966 19.8196 2.58165 18.9617C1.9391 18.3249 1.29919 17.6845 0.661921 17.0405C-0.224826 16.1451 -0.219784 14.8845 0.672006 13.9877C0.816075 13.8393 0.977433 13.6996 1.15032 13.5418C1.03074 13.4799 0.951501 13.4395 0.873703 13.3977C0.00280362 12.9374 -0.249318 11.9895 0.277256 11.156C0.469349 10.8544 0.661441 10.5538 0.853534 10.2541C0.948281 10.124 0.999322 9.9671 0.999322 9.80609C0.999322 9.64508 0.948281 9.48821 0.853534 9.35803C0.661441 9.05933 0.469349 8.7587 0.277256 8.45615C-0.25436 7.61407 0.00280362 6.66753 0.88667 6.20579C1.18633 6.04947 1.48456 5.89172 1.78782 5.74261C2.14368 5.56756 2.30359 5.29167 2.27406 4.89332C2.24813 4.53747 2.233 4.18017 2.22507 3.8236C2.20563 2.88715 2.88203 2.20786 3.81776 2.22659C4.1873 2.23452 4.55684 2.25469 4.92638 2.2763C5.29591 2.29791 5.5538 2.1524 5.71876 1.82608C5.88372 1.49976 6.02923 1.17777 6.2158 0.878103C6.3428 0.658751 6.50766 0.463642 6.70275 0.301825C6.88716 0.157756 7.13496 0.0979672 7.35107 0.00144073H7.81065C8.11607 0.151993 8.4251 0.294622 8.72477 0.455259C8.91993 0.563724 9.10829 0.684006 9.2888 0.815433C9.63384 1.05963 9.96016 1.0445 10.316 0.815433C10.79 0.514328 11.2287 0.141188 11.7927 0H12.2523C12.2799 0.0145862 12.3088 0.0264092 12.3387 0.0352969C12.5546 0.0803172 12.7579 0.172502 12.934 0.305253C13.1101 0.438003 13.2546 0.608038 13.3573 0.803187C13.4128 0.902595 13.4647 1.00416 13.5403 1.14535C13.5984 1.07008 13.6604 0.997946 13.7261 0.929248C13.93 0.737636 14.1166 0.514328 14.3521 0.37314C14.628 0.211782 14.945 0.1239 15.2425 0.00360168ZM18.8399 4.16721C18.8487 3.97495 18.8164 3.78303 18.7451 3.60427C18.6738 3.42551 18.5651 3.26403 18.4264 3.13063C17.8007 2.50297 17.173 1.87554 16.5434 1.24836C15.8951 0.600049 15.1373 0.600049 14.4919 1.24836L5.90029 9.84138C4.33953 11.4026 2.77878 12.9634 1.21803 14.5236C0.61726 15.1251 0.615099 15.9081 1.21155 16.5068C1.84617 17.1443 2.4844 17.7782 3.11903 18.4157C3.29912 18.6075 3.53155 18.7423 3.78751 18.8032C4.31768 18.9214 4.74413 18.7398 5.11871 18.3645C9.3337 14.1452 13.5501 9.92686 17.768 5.70947C17.9935 5.484 18.2197 5.25925 18.4437 5.03234C18.6806 4.8046 18.8222 4.49538 18.8399 4.16721ZM11.2337 3.37483C10.6438 3.34169 10.0977 3.26966 9.55605 3.28262C8.464 3.30351 7.44831 3.61902 6.5025 4.16577C6.27775 4.29543 6.05012 4.2378 5.94135 4.03683C5.83257 3.83585 5.90101 3.62839 6.12287 3.50449C6.34474 3.38059 6.58101 3.25093 6.81945 3.14432C8.39917 2.44918 10.0257 2.31375 11.6955 2.75821C11.7479 2.77706 11.8049 2.7787 11.8583 2.7629C11.9116 2.74709 11.9586 2.71466 11.9923 2.67033C12.1846 2.46575 12.3877 2.27125 12.5858 2.07316C12.9712 1.68777 12.9712 1.68777 12.7097 1.20442C12.4706 0.761407 12.0204 0.641109 11.5925 0.909078C11.2791 1.10573 10.9708 1.31103 10.656 1.50625C10.0862 1.86066 9.51427 1.85778 8.94591 1.49832C8.63905 1.30383 8.33506 1.10501 8.02675 0.911959C7.59022 0.638227 7.14072 0.759966 6.89941 1.21739C6.72724 1.54442 6.56517 1.8765 6.3894 2.2021C6.07389 2.78558 5.58189 3.06652 4.91701 3.04059C4.54747 3.02546 4.17794 3.00241 3.8084 2.9916C3.3128 2.97647 2.98216 3.30207 2.99441 3.79407C3.00377 4.16433 3.02682 4.53386 3.04339 4.9034C3.0722 5.56684 2.79703 6.06316 2.21355 6.38083C1.88363 6.56092 1.54507 6.72516 1.21299 6.9002C0.767812 7.13648 0.641031 7.59174 0.906839 8.01674C1.10277 8.33009 1.30735 8.6384 1.50401 8.95319C1.86418 9.52299 1.85914 10.0949 1.50401 10.6633C1.30015 10.9875 1.08621 11.3051 0.88739 11.6314C0.831196 11.7173 0.79366 11.814 0.777216 11.9153C0.760771 12.0165 0.765784 12.1201 0.791929 12.2194C0.818074 12.3186 0.864769 12.4112 0.928988 12.4912C0.993208 12.5712 1.07352 12.6369 1.16472 12.6839C1.29799 12.7595 1.43773 12.8222 1.57028 12.9C1.58726 12.9135 1.60685 12.9234 1.62782 12.929C1.64878 12.9347 1.67068 12.9359 1.69216 12.9328C1.71364 12.9296 1.73424 12.922 1.75268 12.9106C1.77112 12.8991 1.787 12.884 1.79935 12.8661C2.09613 12.5585 2.40588 12.2632 2.7005 11.9534C2.72569 11.9219 2.74381 11.8853 2.75363 11.8462C2.76345 11.807 2.76474 11.7662 2.75741 11.7265C2.54126 10.9109 2.46431 10.0646 2.52978 9.22332C2.61264 8.12581 2.94977 7.06263 3.5145 6.11791C3.54985 6.06407 3.59604 6.0182 3.65011 5.98323C3.70419 5.94825 3.76497 5.92493 3.82857 5.91477C3.89235 5.91771 3.95491 5.93337 4.01256 5.96083C4.0702 5.98829 4.12178 6.027 4.16425 6.07469C4.28815 6.21371 4.23628 6.38155 4.1484 6.53715C3.60834 7.46806 3.30808 8.5186 3.27462 9.5943C3.25392 10.1292 3.30382 10.6644 3.42301 11.1863L11.2337 3.37483ZM15.1956 16.5701V16.591C15.406 16.6011 15.6163 16.6184 15.8267 16.6213C16.3079 16.6292 16.6335 16.3015 16.6191 15.8181C16.6097 15.4543 16.5902 15.0913 16.5715 14.7282C16.5355 14.0475 16.8171 13.544 17.4158 13.222C17.7414 13.0476 18.0749 12.887 18.4005 12.7127C18.8557 12.4692 18.971 12.0212 18.6944 11.5817C18.5006 11.2742 18.3011 10.9702 18.108 10.6626C17.7507 10.093 17.7507 9.52299 18.108 8.95247C18.3083 8.63408 18.5179 8.32145 18.7153 8.00089C18.9623 7.59822 18.842 7.15233 18.4307 6.92037C18.3025 6.84834 18.1685 6.78783 18.0425 6.71363C18.0253 6.70017 18.0056 6.69036 17.9845 6.68482C17.9634 6.67928 17.9415 6.67813 17.9199 6.68144C17.8984 6.68475 17.8777 6.69245 17.8593 6.70406C17.8408 6.71567 17.825 6.73094 17.8127 6.74893C17.5202 7.0522 17.2234 7.35114 16.9187 7.64216C16.8807 7.6737 16.8536 7.7165 16.8414 7.76439C16.8293 7.81229 16.8326 7.86282 16.851 7.90869C17.0643 8.67868 17.144 9.47955 17.0866 10.2765C16.9266 12.4181 16.0233 14.1894 14.337 15.5156C12.431 17.016 10.2706 17.4389 7.91726 16.8504C7.86499 16.8317 7.80816 16.83 7.75487 16.8455C7.70158 16.861 7.65455 16.893 7.62048 16.9368C7.42382 17.1464 7.21636 17.3452 7.01394 17.5484C6.64585 17.9172 6.64584 17.9172 6.89509 18.3861C7.14433 18.8551 7.58878 18.9703 8.03684 18.6887C8.35019 18.4913 8.65778 18.2853 8.97329 18.0915C9.52435 17.7522 10.0826 17.7515 10.6344 18.0915C10.9499 18.2846 11.2568 18.4913 11.5709 18.6887C12.0268 18.9768 12.4713 18.8558 12.7234 18.3761C12.8985 18.0433 13.0649 17.7054 13.2449 17.3755C13.3633 17.1402 13.543 16.9413 13.765 16.7995C13.9869 16.6578 14.243 16.5786 14.5063 16.5701C14.7325 16.5557 14.9623 16.5673 15.192 16.5673L15.1956 16.5701ZM8.44311 16.1855C10.3427 16.6436 12.8012 16.1545 14.5221 14.3284C16.0968 12.6572 16.6111 10.6691 16.2041 8.42158L8.44311 16.1855Z" fill="#6019EB"/>
<path d="M13.7549 8.01321C13.7549 8.66152 13.2507 9.25293 12.5303 9.4539C12.3761 9.49399 12.2178 9.51694 12.0585 9.52234C11.7999 9.53386 11.6205 9.37466 11.6141 9.14992C11.6076 8.92517 11.7682 8.77173 12.0218 8.76237C12.2868 8.76189 12.5427 8.66542 12.7421 8.4908C12.8137 8.42781 12.8745 8.35361 12.9222 8.27109C13.0058 8.1191 13.0396 7.95126 12.9222 7.80287C12.8048 7.65447 12.642 7.69409 12.4979 7.74956C12.1889 7.8677 11.8849 7.99808 11.5809 8.12918C11.1869 8.29847 10.8267 8.24156 10.5198 7.95126C10.213 7.66096 10.1244 7.27629 10.2584 6.86353C10.4745 6.2037 11.1278 5.85505 11.6991 5.80246C11.7963 5.79764 11.8916 5.83078 11.9648 5.89489C12.0381 5.959 12.0835 6.04906 12.0916 6.14607C12.1125 6.3312 11.9822 6.49472 11.7913 6.55739C11.6004 6.62006 11.3979 6.67696 11.2337 6.78574C11.1164 6.87945 11.0278 7.00426 10.978 7.14591C10.9513 7.21002 11.0032 7.33536 11.0601 7.39443C11.093 7.41566 11.1303 7.42893 11.1692 7.43319C11.2081 7.43744 11.2475 7.43255 11.2841 7.41892C11.5636 7.31231 11.8294 7.16824 12.1133 7.07748C12.3452 7.00544 12.5995 6.93701 12.8336 6.95502C13.3919 6.99824 13.7556 7.44774 13.7549 8.01321Z" fill="#6019EB"/>
<path d="M11.6098 10.1713C11.604 11.0105 10.8217 11.6358 10.0365 11.4103C9.85455 11.3533 9.68833 11.2546 9.55103 11.1222C9.01726 10.61 8.49861 10.0813 7.97707 9.55617C7.77754 9.35519 7.76673 9.13332 7.9389 8.96764C8.11106 8.80196 8.31924 8.81853 8.51517 9.01231C9.01365 9.50646 9.50853 10.0035 10.0049 10.4998C10.2332 10.7282 10.4839 10.7455 10.6877 10.5459C10.9038 10.3298 10.8938 10.0691 10.656 9.83206C10.1604 9.33574 9.66269 8.84086 9.16853 8.34238C8.95242 8.12628 8.98772 7.82229 9.23408 7.70055C9.30459 7.66079 9.38656 7.64625 9.46645 7.65935C9.54633 7.67245 9.61937 7.71239 9.67349 7.77259C10.2346 8.33086 10.7951 8.88913 11.349 9.45388C11.44 9.54876 11.5102 9.66157 11.5551 9.78511C11.6 9.90865 11.6186 10.0402 11.6098 10.1713Z" fill="#6019EB"/>
<path d="M4.38967 13.9438C4.30827 13.6513 4.23119 13.392 4.16492 13.1298C4.13733 13.0388 4.12948 12.9431 4.14187 12.8488C4.15493 12.769 4.19576 12.6963 4.25717 12.6436C4.31858 12.5909 4.39663 12.5615 4.47755 12.5607C4.56432 12.5507 4.65175 12.5726 4.72357 12.6223C4.7954 12.672 4.84672 12.7461 4.86798 12.8308C4.989 13.2261 5.10281 13.6237 5.20942 14.0237C5.21866 14.0784 5.24425 14.129 5.28283 14.1689C5.32141 14.2088 5.37116 14.236 5.42553 14.247C5.88007 14.3681 6.33245 14.4992 6.78482 14.6303C7.06216 14.7109 7.18678 14.9062 7.11618 15.1345C7.05063 15.3506 6.84389 15.4363 6.568 15.3593C6.22655 15.2642 5.88583 15.1676 5.50909 15.0617C5.61354 15.4298 5.70934 15.7626 5.80083 16.0969C5.8267 16.175 5.84007 16.2567 5.84045 16.3389C5.83444 16.4293 5.79617 16.5146 5.7326 16.5792C5.66902 16.6438 5.58437 16.6834 5.49405 16.6908C5.40373 16.6982 5.31376 16.6729 5.2405 16.6196C5.16724 16.5663 5.11557 16.4884 5.09489 16.4002C4.9609 15.9485 4.8262 15.4968 4.71094 15.0409C4.69816 14.9642 4.66133 14.8936 4.60578 14.8392C4.55024 14.7848 4.47884 14.7495 4.40191 14.7383C4.04174 14.6497 3.69165 14.5395 3.33724 14.4365C3.07864 14.3645 2.95906 14.18 3.01813 13.9582C3.0772 13.7363 3.27889 13.6311 3.5483 13.7046C3.81771 13.7781 4.08496 13.8588 4.38967 13.9438Z" fill="#6019EB"/>
<path d="M7.29775 14.5266C7.14441 14.534 6.99112 14.5107 6.84697 14.4578C6.70282 14.405 6.57074 14.3238 6.45855 14.219C6.09838 13.8696 5.7346 13.5188 5.39099 13.1507C5.20125 12.9404 5.09076 12.6706 5.07853 12.3877C5.0663 12.1047 5.15311 11.8263 5.324 11.6005C5.49406 11.3744 5.7364 11.2134 6.0107 11.1442C6.28501 11.075 6.57474 11.1018 6.83169 11.2202C6.9808 11.2922 7.08453 11.3902 7.09462 11.5638C7.11118 11.8469 6.85762 12.0327 6.57813 11.9441C6.50188 11.913 6.42239 11.8905 6.34113 11.8771C6.2514 11.8662 6.16051 11.884 6.08155 11.928C6.00259 11.972 5.93963 12.04 5.90172 12.122C5.81672 12.287 5.81024 12.4714 5.93846 12.6068C6.28422 12.9728 6.64008 13.3286 7.00601 13.6744C7.14648 13.8077 7.38131 13.7925 7.54051 13.6823C7.61925 13.6273 7.67918 13.5494 7.71217 13.4592C7.74516 13.369 7.74961 13.2709 7.72492 13.1781C7.71339 13.1348 7.69106 13.0952 7.67666 13.0534C7.60462 12.8373 7.67666 12.6392 7.86539 12.5528C8.05412 12.4664 8.2695 12.5434 8.37899 12.7509C8.77014 13.4929 8.24573 14.4531 7.41157 14.5244C7.36835 14.523 7.32297 14.5251 7.29775 14.5266Z" fill="#6019EB"/>
<path d="M14.9068 4.98261L14.0704 3.50518C14.0306 3.44005 13.9946 3.37271 13.9624 3.30348C13.9229 3.21724 13.9172 3.11935 13.9462 3.02908C13.9753 2.9388 14.0372 2.86269 14.1195 2.81571C14.2019 2.76873 14.2989 2.7543 14.3914 2.77525C14.4839 2.79619 14.5652 2.85101 14.6193 2.9289C14.6345 2.94927 14.6482 2.9707 14.6604 2.99301L16.1667 5.65397C16.2171 5.7291 16.2428 5.81817 16.2399 5.90864C16.2371 5.99911 16.2059 6.08641 16.1508 6.15821C16.1024 6.22669 16.0343 6.27884 15.9556 6.30778C15.8769 6.33673 15.7912 6.34109 15.71 6.32029C15.6423 6.30287 15.5775 6.27569 15.5176 6.23961C14.6474 5.75938 13.7775 5.27915 12.9078 4.79892C12.6578 4.66061 12.575 4.45675 12.6816 4.25146C12.7882 4.04616 13.0187 3.98997 13.2745 4.12972C13.8104 4.42266 14.3456 4.7168 14.8801 5.01214L14.9068 4.98261Z" fill="#6019EB"/>
<path d="M15.5255 2.43393L16.096 3.01021C16.1846 2.90864 16.266 2.80203 16.3611 2.70838C16.547 2.52541 16.7796 2.51605 16.9374 2.67668C17.0951 2.83732 17.0815 3.06351 16.8978 3.25296C16.8099 3.34517 16.7162 3.43233 16.6305 3.51661L17.2104 4.07272C17.2889 3.98051 17.3847 3.85661 17.4985 3.74136C17.6815 3.55623 17.9135 3.55047 18.0748 3.71471C18.2362 3.87894 18.2189 4.09145 18.0431 4.27586C17.8477 4.47755 17.6491 4.67589 17.4474 4.87086C17.2601 5.05095 17.0562 5.05671 16.8711 4.87086C16.1551 4.16108 15.4427 3.44866 14.7338 2.73359C14.5581 2.55639 14.5624 2.35109 14.7338 2.17244C14.937 1.96066 15.1442 1.7532 15.3555 1.55006C15.5284 1.3851 15.7481 1.38582 15.903 1.53926C15.9396 1.5751 15.9685 1.61802 15.9879 1.6654C16.0074 1.71278 16.017 1.76363 16.0162 1.81485C16.0154 1.86606 16.0042 1.91658 15.9832 1.96332C15.9623 2.01006 15.932 2.05205 15.8943 2.08672C15.7762 2.21134 15.6494 2.31867 15.5255 2.43393Z" fill="#6019EB"/>
<path d="M3.42008 16.6847L4.02662 17.284C4.1217 17.1644 4.21103 17.0326 4.3198 16.9202C4.50277 16.7315 4.73328 16.7236 4.89608 16.8849C5.05887 17.0463 5.04735 17.2674 4.85862 17.4612C4.66989 17.655 4.47395 17.8524 4.27658 18.0425C4.0792 18.2327 3.87895 18.2313 3.68733 18.0425C2.98139 17.3414 2.27785 16.6378 1.57672 15.9319C1.37862 15.7324 1.38438 15.5321 1.58176 15.3297C1.77913 15.1273 1.96714 14.9385 2.1638 14.7477C2.34821 14.569 2.56215 14.5596 2.72495 14.7167C2.88775 14.8737 2.88126 15.1057 2.69758 15.293C2.59096 15.4017 2.47355 15.4997 2.35685 15.6056L2.95618 16.1559C3.02245 16.0839 3.11105 15.9643 3.21623 15.8642C3.25066 15.8263 3.29241 15.7959 3.33896 15.7746C3.3855 15.7533 3.43587 15.7417 3.48703 15.7404C3.53819 15.7391 3.58908 15.7482 3.63663 15.7671C3.68418 15.7861 3.7274 15.8144 3.76369 15.8505C3.91568 16.0003 3.91424 16.2229 3.75793 16.4001C3.70763 16.4578 3.65374 16.5121 3.59657 16.5629C3.54038 16.604 3.47987 16.6415 3.42008 16.6847Z" fill="#6019EB"/>
<path d="M9.18071 12.086C9.29525 11.9578 9.36584 11.8699 9.44796 11.7885C9.48284 11.751 9.52488 11.7209 9.57161 11.7C9.61833 11.679 9.66879 11.6677 9.71998 11.6666C9.77116 11.6655 9.82205 11.6747 9.86961 11.6937C9.91717 11.7127 9.96045 11.741 9.99687 11.777C10.1496 11.9311 10.1496 12.1508 9.98606 12.3251C9.82254 12.4995 9.66623 12.6543 9.50127 12.8143C9.28516 13.0253 9.08347 13.0246 8.8688 12.8143C8.41642 12.3643 7.96525 11.9131 7.51527 11.4607L6.82518 10.7706C6.60115 10.5452 6.57738 10.3283 6.75314 10.154C6.92891 9.97969 7.14213 10.0099 7.36904 10.2354C7.92035 10.7858 8.47069 11.3363 9.02007 11.8872C9.077 11.9506 9.13061 12.017 9.18071 12.086Z" fill="#6019EB"/>
<path d="M14.9125 7.31375C14.8167 7.43116 14.7504 7.55794 14.646 7.62998C14.5841 7.67177 14.5096 7.6908 14.4353 7.68384C14.361 7.67688 14.2913 7.64435 14.2383 7.5918C14.123 7.49167 14.0178 7.3793 13.9098 7.27125C13.3004 6.66231 12.6915 6.0529 12.083 5.44301C11.8546 5.21321 11.8979 4.89554 12.1687 4.78389C12.3553 4.70609 12.5001 4.77885 12.6319 4.91139C13.3213 5.60292 14.0142 6.29085 14.7 6.98527C14.7807 7.06451 14.8275 7.17832 14.9125 7.31375Z" fill="#6019EB"/>
<path d="M4.91417 5.2868C4.86346 5.28737 4.81313 5.27785 4.76613 5.2588C4.71913 5.23974 4.67639 5.21153 4.64039 5.1758C4.60439 5.14007 4.57586 5.09754 4.55645 5.05068C4.53705 5.00382 4.52715 4.95357 4.52735 4.90285C4.53093 4.80376 4.57195 4.70972 4.64213 4.63967C4.71231 4.56963 4.80643 4.52879 4.90553 4.52539C5.00477 4.52514 5.10023 4.56347 5.17174 4.63229C5.24324 4.70111 5.2852 4.79503 5.28875 4.89421C5.2913 4.94492 5.28348 4.99562 5.26579 5.04321C5.2481 5.0908 5.2209 5.13429 5.18585 5.17102C5.1508 5.20776 5.10864 5.23697 5.06193 5.25687C5.01522 5.27678 4.96495 5.28696 4.91417 5.2868Z" fill="#6019EB"/>
</svg>
