<svg width="15" height="20" viewBox="0 0 15 20" fill="none" xmlns="http://www.w3.org/2000/svg">
<path d="M12.9303 13.4852C12.8323 15.7923 11.6527 17.8236 9.17741 18.95C6.70212 20.0764 4.31307 19.7655 2.2498 17.9918C0.164167 16.1968 -0.411802 13.8642 0.275955 11.2207C0.391357 10.8321 0.576419 10.4678 0.822116 10.1454C1.18622 9.6461 1.90805 9.50663 2.44143 9.77598C3.02911 10.0677 3.28782 10.6181 3.18668 11.2665C3.06425 12.0447 2.83429 12.8368 2.88965 13.6087C3.03124 15.5538 4.95611 16.9889 6.90228 16.7185C9.01559 16.4257 10.4071 14.5945 10.0802 12.5366C9.76616 10.5628 7.84448 9.19362 5.89193 9.5556C5.51079 9.62693 5.13604 9.72914 4.75703 9.81431C4.02668 9.9772 3.30699 9.61309 3.07489 8.9626C2.8428 8.3121 3.19733 7.53491 3.87976 7.20594C6.73832 5.83043 10.5614 7.08776 12.0998 9.91013C12.6918 11.0014 12.9292 11.9127 12.9303 13.4852Z" fill="#6019EB"/>
<path d="M12.5534 9.95065C11.8625 8.99247 11.0949 8.13011 10.0973 7.49239C9.91949 7.37741 9.74595 7.23262 9.55006 7.173C8.80481 6.96007 8.48542 6.44798 8.33424 5.69954C8.07447 4.38577 7.69546 3.09649 7.42397 1.78486C7.24831 0.933145 7.74336 0.242193 8.57272 0.0431054C8.95527 -0.0505628 9.35931 0.00975622 9.69783 0.211073C10.0363 0.412391 10.2823 0.738601 10.3826 1.11946C11.0448 3.73528 11.673 6.36068 12.3149 8.98182C12.3916 9.30654 12.4736 9.62806 12.5534 9.95065Z" fill="#6019EB"/>
<path d="M13.075 10.9332C13.034 10.8442 12.9985 10.7528 12.9686 10.6596C12.3181 7.96603 11.6654 5.27355 11.0352 2.57575C11.0206 2.47192 11.0285 2.36616 11.0585 2.26567C11.0884 2.16518 11.1397 2.07232 11.2087 1.9934C11.6484 1.56754 12.1871 1.43233 12.7684 1.69104C13.3497 1.94975 13.6701 2.38412 13.6393 3.01865C13.5605 4.69332 13.4625 6.368 13.3657 8.04162C13.3103 8.99979 13.2422 9.95797 13.1804 10.9161L13.075 10.9332Z" fill="#6019EB"/>
<path d="M13.4062 10.9472C13.4563 10.3085 13.5127 9.67607 13.5542 9.03941C13.6394 7.73842 13.7118 6.43743 13.798 5.13751C13.8289 4.67865 13.9567 4.62009 14.3516 4.85644C14.8212 5.13857 15.1097 5.65812 14.9606 6.20747C14.5263 7.79911 14.0408 9.37797 13.5766 10.9622L13.4062 10.9472Z" fill="#6019EB"/>
</svg>
