<svg width="10" height="10" viewBox="0 0 10 10" fill="none" xmlns="http://www.w3.org/2000/svg">
<path d="M9.7722 0.401217V7.90185C9.7651 7.91871 9.75711 7.93647 9.7509 7.95422C9.72105 8.05738 9.65777 8.14771 9.57101 8.21101C9.48425 8.27431 9.37892 8.30701 9.27157 8.30395C9.22453 8.30395 9.17837 8.30395 9.12156 8.30395V9.52447C9.12156 9.6878 9.0683 9.76857 8.96001 9.77035C8.85171 9.77212 8.79668 9.69312 8.79668 9.52979C8.79668 8.92264 8.79668 8.3152 8.79668 7.70745C8.80358 7.5499 8.74772 7.39603 8.64134 7.27961C8.59798 7.22536 8.53662 7.18846 8.46838 7.17559C8.40014 7.16272 8.32955 7.17475 8.26941 7.20948C8.18005 7.24949 8.10473 7.31535 8.05315 7.39857C8.00157 7.48179 7.97611 7.57856 7.98004 7.67638C7.98004 7.88321 7.98004 8.09003 7.98004 8.29774C7.98112 8.31915 7.97794 8.34056 7.9707 8.36073C7.96346 8.38091 7.9523 8.39946 7.93786 8.4153C7.92342 8.43114 7.90599 8.44397 7.88657 8.45304C7.86715 8.46212 7.84612 8.46726 7.8247 8.46817C7.78105 8.46818 7.73914 8.45108 7.70794 8.42055C7.67675 8.39002 7.65875 8.34848 7.65782 8.30484C7.65782 8.27644 7.65782 8.24803 7.65782 8.21608V7.02663C7.66064 6.94196 7.64374 6.85779 7.60847 6.78077C7.57319 6.70375 7.5205 6.63598 7.45455 6.5828C7.41606 6.54926 7.36873 6.5275 7.31821 6.5201C7.26769 6.51271 7.21611 6.51999 7.16962 6.54108C7.08465 6.57016 7.0098 6.623 6.95395 6.69332C6.8981 6.76365 6.86359 6.84852 6.8545 6.93786C6.83675 7.1074 6.84296 7.28049 6.84119 7.45181C6.83941 7.62313 6.84119 7.80687 6.84119 7.9844C6.84006 8.02341 6.82453 8.06063 6.7976 8.08888C6.77066 8.11712 6.73422 8.1344 6.6953 8.13738C6.65639 8.14035 6.61774 8.12882 6.58682 8.105C6.5559 8.08118 6.5349 8.04676 6.52785 8.00837C6.52133 7.97085 6.51836 7.93281 6.51897 7.89475C6.51897 7.39234 6.51897 6.88993 6.51897 6.38574C6.52501 6.23461 6.47109 6.08721 6.36896 5.97565C6.32546 5.91967 6.26293 5.88161 6.19323 5.86868C6.12352 5.85576 6.0515 5.86887 5.99082 5.90553C5.89953 5.94846 5.82346 6.01816 5.77272 6.10537C5.72198 6.19257 5.69898 6.29315 5.70677 6.39373C5.70677 6.83756 5.70677 7.28138 5.70677 7.72521C5.70767 7.7666 5.7041 7.80797 5.69612 7.84859C5.68703 7.88369 5.66615 7.91459 5.63698 7.93611C5.60781 7.95764 5.57212 7.96848 5.53591 7.96681C5.49969 7.96515 5.46515 7.95108 5.43808 7.92697C5.41101 7.90286 5.39305 7.87017 5.38722 7.83439C5.38247 7.79314 5.3804 7.75163 5.38101 7.71012C5.38101 6.73489 5.38101 5.75847 5.38101 4.78088C5.38601 4.69999 5.37451 4.61893 5.34719 4.54263C5.31988 4.46633 5.27732 4.39638 5.22212 4.33705C5.17991 4.28392 5.11992 4.24783 5.05321 4.23544C4.98649 4.22304 4.91755 4.23517 4.85907 4.26959C4.76578 4.31207 4.68782 4.3822 4.63574 4.47048C4.58365 4.55877 4.55998 4.66093 4.56792 4.76312C4.56792 6.08631 4.56792 7.4095 4.56792 8.73269C4.56792 8.8685 4.51644 8.93951 4.41613 8.94661C4.31583 8.95371 4.25813 8.8898 4.2386 8.75488C4.15861 8.16297 3.90853 7.607 3.51872 7.15445C3.4467 7.07045 3.35001 7.01133 3.24243 6.98551C3.13484 6.95969 3.02185 6.96849 2.91956 7.01065C2.89042 7.01746 2.86319 7.03076 2.83991 7.04956C2.81663 7.06836 2.79789 7.09217 2.78509 7.11922C2.7723 7.14626 2.76577 7.17585 2.76599 7.20578C2.76622 7.2357 2.7732 7.26518 2.78641 7.29203C2.82299 7.38976 2.87064 7.48298 2.92843 7.56987C3.33498 8.18057 3.46102 8.88181 3.57997 9.58394C3.58797 9.62561 3.5791 9.66875 3.55529 9.70388C3.53149 9.739 3.4947 9.76323 3.45303 9.77124C3.41136 9.77924 3.36822 9.77036 3.3331 9.74656C3.29797 9.72275 3.27374 9.68597 3.26574 9.6443C3.2471 9.57418 3.24177 9.5005 3.22491 9.42949C3.13614 9.05313 3.04738 8.67676 2.95861 8.30129H0.538884C0.198027 8.30129 0.000968709 8.10334 8.10603e-05 7.76249C8.10603e-05 5.35459 8.10603e-05 2.94699 8.10603e-05 0.53969C-0.000669425 0.489654 0.00379302 0.439677 0.0133959 0.390565C0.0568907 0.176642 0.205128 0.0639107 0.401298 0H9.36655C9.46408 0.0240445 9.55328 0.0740358 9.6247 0.144673C9.69612 0.215309 9.74709 0.303958 9.7722 0.401217ZM6.55537 5.70758C6.59288 5.6489 6.64592 5.60175 6.70858 5.57135C6.77125 5.54096 6.84111 5.52851 6.91042 5.53538C7.52113 5.53538 8.13094 5.53538 8.74164 5.53538C8.99019 5.53538 9.12156 5.66497 9.12244 5.90908C9.12244 6.13454 9.12244 6.36089 9.12244 6.58635C9.12244 6.90768 9.11534 7.22812 9.11268 7.54945C9.11268 7.69059 9.11268 7.83261 9.11268 7.97197C9.40649 7.99328 9.44732 7.95599 9.44732 7.69148V0.565432C9.44732 0.377251 9.39673 0.325767 9.21121 0.325767H0.565513C0.376444 0.325767 0.325848 0.375475 0.325848 0.560994V7.74562C0.325848 7.92848 0.375556 7.97907 0.556637 7.97907H2.79351C2.73493 7.88498 2.68255 7.80598 2.63728 7.72432C2.62583 7.70035 2.6072 7.68055 2.58397 7.66767C2.56075 7.65478 2.53408 7.64945 2.50769 7.65242C2.01859 7.65242 1.53127 7.65242 1.03863 7.65242C0.772335 7.65242 0.650728 7.52904 0.650728 7.26895V5.92505C0.650728 5.65876 0.776774 5.53626 1.04396 5.53626H2.86719C3.13348 5.53626 3.25775 5.66142 3.25864 5.92772C3.25864 6.14697 3.25864 6.36622 3.25864 6.58546C3.25864 6.61387 3.26752 6.65914 3.28527 6.66713C3.38025 6.70619 3.47878 6.73548 3.58263 6.77098C3.58263 6.4754 3.58263 6.18602 3.58263 5.89665C3.58263 5.66675 3.71311 5.54159 3.94479 5.53626H4.22529V5.21138H3.95012C3.71045 5.21138 3.58263 5.08623 3.58263 4.84834C3.58263 4.38439 3.58263 3.92015 3.58263 3.45562C3.57751 3.40695 3.58329 3.35776 3.59956 3.31161C3.61584 3.26546 3.64219 3.22352 3.6767 3.18884C3.71122 3.15415 3.75303 3.12759 3.7991 3.1111C3.84516 3.0946 3.89433 3.08857 3.94302 3.09346C4.19422 3.09346 4.44543 3.09346 4.69663 3.09346C5.07566 3.09346 5.45379 3.09346 5.83282 3.09346C6.04053 3.09346 6.18078 3.22039 6.18255 3.41567C6.1861 3.90861 6.1861 4.40155 6.18255 4.89449C6.1828 4.97746 6.15031 5.05717 6.09214 5.11633C6.03398 5.17549 5.95483 5.20933 5.87188 5.2105C5.81862 5.2105 5.76536 5.2105 5.7121 5.2105V5.68006C6.00325 5.48656 6.28286 5.49011 6.55537 5.70758ZM2.93287 5.87002H0.980045V7.32399H2.44644C2.43668 6.95473 2.5352 6.81004 2.88405 6.67689C2.89702 6.66849 2.90791 6.65726 2.91591 6.64403C2.92391 6.63081 2.9288 6.61594 2.93021 6.60056C2.93553 6.46386 2.93021 6.32716 2.93021 6.19046L2.93287 5.87002ZM4.2386 4.88118C4.21139 4.63807 4.27913 4.39384 4.42767 4.19947C4.63449 3.93317 4.97358 3.83198 5.25851 3.97844C5.3778 4.04039 5.47964 4.13127 5.55469 4.24277C5.62975 4.35428 5.67563 4.48283 5.68813 4.61666C5.70056 4.70543 5.70145 4.79419 5.70766 4.88296H5.85412V3.42632H3.91905V4.88118H4.2386ZM8.78958 6.9707V5.86736H6.84829V6.33426C7.3862 5.95967 7.93388 6.37598 7.98537 6.98668C8.24811 6.80738 8.51529 6.78962 8.78958 6.9707ZM3.90751 5.86647C3.90751 6.20466 3.91461 6.53221 3.90751 6.85886C3.89199 7.02884 3.94254 7.19828 4.04865 7.33198C4.10068 7.40862 4.14639 7.48937 4.18534 7.57342C4.1982 7.59446 4.21243 7.61462 4.22795 7.63378V5.86647H3.90751Z" fill="white"/>
<path d="M1.9494 2.76857H1.0147C0.784802 2.76857 0.651655 2.63808 0.650767 2.41351C0.650767 1.94542 0.650767 1.47793 0.650767 1.01102C0.647332 0.963515 0.65416 0.915824 0.670788 0.871187C0.687417 0.826551 0.713456 0.786016 0.747137 0.752335C0.780819 0.718653 0.821354 0.692614 0.86599 0.675986C0.910626 0.659358 0.958318 0.652529 1.00583 0.655965H2.89918C2.94683 0.651916 2.99479 0.658321 3.0397 0.674732C3.08462 0.691144 3.12541 0.717166 3.15922 0.75098C3.19304 0.784794 3.21906 0.825585 3.23547 0.870501C3.25188 0.915417 3.25829 0.963375 3.25424 1.01102C3.25424 1.47881 3.25424 1.94572 3.25424 2.41351C3.25424 2.6443 3.12109 2.76857 2.8903 2.76857H1.9494ZM0.983635 0.979069V2.43836H2.92492V0.979069H0.983635Z" fill="white"/>
<path d="M4.88497 2.76869H3.95027C3.7115 2.76869 3.58634 2.64264 3.58545 2.40298C3.58545 1.94258 3.58545 1.4816 3.58545 1.02002C3.58545 0.776803 3.71327 0.650757 3.95737 0.650757H5.82144C6.06376 0.650757 6.18981 0.778578 6.1907 1.02268C6.1907 1.48071 6.1907 1.93844 6.1907 2.39587C6.1907 2.64708 6.06643 2.7678 5.81345 2.76869H4.88497ZM5.85339 2.44026V0.980962H3.91921V2.44026H5.85339Z" fill="white"/>
<path d="M7.81315 2.76857H6.87845C6.64766 2.76857 6.51541 2.64075 6.51363 2.41351C6.51363 1.94572 6.51363 1.47881 6.51363 1.01102C6.50958 0.963375 6.51599 0.915417 6.5324 0.870501C6.54881 0.825585 6.57483 0.784794 6.60865 0.75098C6.64246 0.717166 6.68325 0.691144 6.72817 0.674732C6.77308 0.658321 6.82104 0.651916 6.86869 0.655965H8.75761C8.80518 0.652226 8.85301 0.658845 8.89778 0.675366C8.94256 0.691887 8.98322 0.717918 9.01697 0.751665C9.05071 0.785411 9.07674 0.826073 9.09326 0.870847C9.10978 0.915622 9.1164 0.963445 9.11266 1.01102C9.11266 1.48148 9.11266 1.95282 9.11266 2.42327C9.11607 2.4705 9.10917 2.51789 9.09244 2.56219C9.07572 2.60648 9.04956 2.6466 9.01579 2.67979C8.98202 2.71297 8.94143 2.73841 8.89685 2.75435C8.85227 2.7703 8.80476 2.77636 8.75761 2.77212C8.44604 2.76946 8.13093 2.76857 7.81315 2.76857ZM8.78956 2.43836V0.982619H6.84827V2.43836H8.78956Z" fill="white"/>
<path d="M1.95564 5.21144C1.64141 5.21144 1.3263 5.21144 1.01207 5.21144C0.963065 5.21654 0.91354 5.21058 0.867146 5.19399C0.820751 5.17741 0.778669 5.15062 0.744001 5.11562C0.709332 5.08061 0.682961 5.03826 0.666831 4.99171C0.6507 4.94516 0.645221 4.89557 0.650798 4.84662C0.650798 4.38268 0.650798 3.91844 0.650798 3.4539C0.646427 3.40517 0.652825 3.35607 0.669537 3.31009C0.68625 3.2641 0.712868 3.22235 0.747508 3.1878C0.782147 3.15324 0.82396 3.12673 0.869986 3.11013C0.916012 3.09353 0.965125 3.08725 1.01385 3.09174C1.63934 3.09174 2.26573 3.09174 2.893 3.09174C3.1229 3.09174 3.25693 3.22222 3.25782 3.4468C3.25782 3.91459 3.25782 4.38149 3.25782 4.84928C3.25782 5.07918 3.12379 5.20434 2.89122 5.20434L1.95564 5.21144ZM2.92407 4.88124V3.42638H0.981003V4.88213L2.92407 4.88124Z" fill="white"/>
<path d="M7.81496 5.21156H6.88027C6.64504 5.21156 6.51456 5.08285 6.51367 4.84496C6.51367 4.38338 6.51367 3.9221 6.51367 3.46111C6.51367 3.225 6.64682 3.09452 6.88116 3.09363C7.50429 3.09363 8.12742 3.09363 8.75055 3.09363C8.98932 3.09363 9.1207 3.22677 9.12158 3.46644C9.12158 3.92447 9.12158 4.38249 9.12158 4.84052C9.12158 5.08196 8.99199 5.21067 8.74966 5.21156H7.81496ZM8.79138 3.4265H6.84832V4.87958H8.79404L8.79138 3.4265Z" fill="white"/>
</svg>
