<svg width="9" height="9" viewBox="0 0 9 9" fill="none" xmlns="http://www.w3.org/2000/svg">
<path d="M7.2975 8.38436L5.35667 6.44353C5.08496 6.5988 4.79383 6.72819 4.4833 6.8317C4.17277 6.93521 3.84283 6.98697 3.49348 6.98697C2.52307 6.98697 1.69809 6.64745 1.01854 5.96842C0.339515 5.28887 0 4.4639 0 3.49348C0 2.52307 0.339515 1.69809 1.01854 1.01854C1.69809 0.339515 2.52307 0 3.49348 0C4.4639 0 5.28887 0.339515 5.96842 1.01854C6.64745 1.69809 6.98697 2.52307 6.98697 3.49348C6.98697 3.84283 6.93521 4.17277 6.8317 4.4833C6.72819 4.79383 6.5988 5.08496 6.44353 5.35667L8.38436 7.2975C8.52669 7.43982 8.59785 7.62097 8.59785 7.84093C8.59785 8.06089 8.52669 8.24203 8.38436 8.38436C8.24203 8.52669 8.06089 8.59785 7.84093 8.59785C7.62097 8.59785 7.43982 8.52669 7.2975 8.38436ZM3.49348 5.43431C4.03691 5.43431 4.49624 5.24669 4.87147 4.87147C5.24669 4.49624 5.43431 4.03691 5.43431 3.49348C5.43431 2.95005 5.24669 2.49072 4.87147 2.1155C4.49624 1.74027 4.03691 1.55266 3.49348 1.55266C2.95005 1.55266 2.49072 1.74027 2.1155 2.1155C1.74027 2.49072 1.55266 2.95005 1.55266 3.49348C1.55266 4.03691 1.74027 4.49624 2.1155 4.87147C2.49072 5.24669 2.95005 5.43431 3.49348 5.43431Z" fill="#6019EB"/>
</svg>
