<svg width="16" height="17" viewBox="0 0 16 17" fill="none" xmlns="http://www.w3.org/2000/svg">
<path d="M6.49846 9.28352V5.57011C6.49846 5.05952 6.0807 4.64176 5.57011 4.64176H1.8567V2.78506H6.49846V0.928352H4.17758V0H2.32088V0.928352H0.928352C0.417758 0.928352 0 1.34611 0 1.8567V5.57011C0 6.08071 0.417758 6.49846 0.928352 6.49846H4.64176V8.35517H0V10.2119H2.32088V11.1402H4.17758V10.2119H5.57011C6.0807 10.2119 6.49846 9.79411 6.49846 9.28352ZM14.473 8.83791L9.21853 14.0831L6.5913 11.4559L5.28232 12.7741L9.21853 16.7103L15.782 10.1469L14.473 8.83791Z" fill="#333333"/>
</svg>
