<svg width="42" height="42" viewBox="0 0 42 42" fill="none" xmlns="http://www.w3.org/2000/svg">
<path d="M24.6477 20.2183L19.8338 17.972C19.4137 17.777 19.0686 17.9956 19.0686 18.4607V22.6917C19.0686 23.1568 19.4137 23.3754 19.8338 23.1804L24.6456 20.9342C25.0678 20.737 25.0678 20.4155 24.6477 20.2183ZM21.212 0C9.84788 0 0.635742 9.21214 0.635742 20.5762C0.635742 31.9403 9.84788 41.1524 21.212 41.1524C32.576 41.1524 41.7882 31.9403 41.7882 20.5762C41.7882 9.21214 32.576 0 21.212 0ZM21.212 28.9353C10.6795 28.9353 10.4952 27.9858 10.4952 20.5762C10.4952 13.1666 10.6795 12.2171 21.212 12.2171C31.7444 12.2171 31.9287 13.1666 31.9287 20.5762C31.9287 27.9858 31.7444 28.9353 21.212 28.9353Z" fill="#6019EB"/>
</svg>
