<svg width="42" height="42" viewBox="0 0 42 42" fill="none" xmlns="http://www.w3.org/2000/svg">
<path fillRule="evenodd" clipRule="evenodd" d="M20.5762 41.1524C31.9401 41.1524 41.1524 31.9401 41.1524 20.5762C41.1524 9.21228 31.9401 0 20.5762 0C9.21228 0 0 9.21228 0 20.5762C0 31.9401 9.21228 41.1524 20.5762 41.1524ZM21.0782 7.02478C17.2611 7.02478 16.7833 7.04011 15.2849 7.1091H15.2836C13.789 7.17808 12.767 7.41569 11.8728 7.76188C10.9357 8.11502 10.0869 8.66824 9.38557 9.38297C8.67035 10.0847 8.1167 10.9339 7.7632 11.8715C7.41701 12.7657 7.17812 13.7877 7.11042 15.2848C7.04271 16.782 7.02611 17.2598 7.02611 21.0768C7.02611 24.8926 7.04144 25.3704 7.11042 26.8714C7.1794 28.366 7.41701 29.388 7.7632 30.2822C8.11618 31.2197 8.6694 32.0689 9.3843 32.7707C10.0867 33.4851 10.9363 34.0379 11.8741 34.3905C12.7683 34.738 13.7903 34.9769 15.2849 35.0446C16.7833 35.1123 17.2611 35.1289 21.0782 35.1289C24.8952 35.1289 25.373 35.1135 26.8727 35.0446C28.3673 34.9756 29.3893 34.738 30.2835 34.3905C31.2199 34.0379 32.0694 33.4861 32.772 32.7707C33.4865 32.0683 34.0392 31.2187 34.3918 30.2809C34.7393 29.3867 34.9782 28.3647 35.0459 26.8701C35.1136 25.3716 35.1302 24.8939 35.1302 21.0768C35.1302 17.2611 35.1149 16.7833 35.0459 15.2823C34.9769 13.7877 34.7393 12.7657 34.3918 11.8715C34.0392 10.9338 33.4874 10.0856 32.772 9.38425C32.0694 8.66887 31.2199 8.11573 30.2835 7.76188C29.3893 7.41569 28.3673 7.1768 26.8701 7.1091C25.373 7.04139 24.8952 7.02478 21.0782 7.02478ZM21.0782 9.55671C24.83 9.55671 25.2746 9.57076 26.7565 9.63846C28.1272 9.70106 28.8707 9.92972 29.3663 10.1226C29.9766 10.3477 30.5287 10.7065 30.9823 11.1727C31.4741 11.6645 31.7769 12.1333 32.0324 12.7887C32.2253 13.2843 32.4539 14.0278 32.5165 15.3985C32.5842 16.8804 32.5983 17.3249 32.5983 21.0768C32.5983 24.8287 32.5842 25.2733 32.5165 26.7551C32.4539 28.1258 32.2253 28.8693 32.0324 29.365C31.8075 29.9743 31.4486 30.5275 30.9823 30.981C30.4905 31.4728 30.0216 31.7755 29.3663 32.031C28.8707 32.2239 28.1272 32.4526 26.7565 32.5152C25.2746 32.5829 24.8313 32.597 21.0782 32.597C17.325 32.597 16.8817 32.5829 15.3998 32.5152C14.0291 32.4526 13.2857 32.2239 12.79 32.031C12.1807 31.8062 11.6275 31.4472 11.174 30.981C10.7077 30.5275 10.3488 29.9743 10.1239 29.365C9.93105 28.8693 9.70238 28.1258 9.63979 26.7551C9.57208 25.2733 9.55803 24.8287 9.55803 21.0768C9.55803 17.3249 9.57208 16.8804 9.63979 15.3985C9.70238 14.0278 9.93105 13.2843 10.1239 12.7887C10.349 12.1784 10.7078 11.6263 11.174 11.1727C11.6658 10.6809 12.1347 10.3781 12.79 10.1226C13.2857 9.92972 14.0291 9.70106 15.3998 9.63846C16.8817 9.57076 17.3263 9.55671 21.0782 9.55671ZM22.4411 25.568C21.4018 25.8823 20.2857 25.8259 19.2833 25.4087C18.6431 25.1432 18.0697 24.7391 17.6044 24.2254C17.1391 23.7117 16.7935 23.1013 16.5924 22.438C16.3913 21.7747 16.3399 21.0751 16.4416 20.3895C16.5434 19.7039 16.7959 19.0494 17.181 18.4732C17.5661 17.8969 18.0742 17.4132 18.6686 17.0568C19.2631 16.7005 19.9292 16.4804 20.6189 16.4123C21.3086 16.3443 22.0049 16.43 22.6575 16.6634C23.3101 16.8967 23.9029 17.2719 24.3932 17.7618C25.1622 18.5283 25.6413 19.5379 25.7486 20.6184C25.8559 21.6988 25.5848 22.783 24.9816 23.6857C24.3783 24.5885 23.4804 25.2538 22.4411 25.568ZM18.3141 14.4038C17.4378 14.7668 16.6416 15.2989 15.9709 15.9695C14.6163 17.3241 13.8554 19.1612 13.8554 21.0768C13.8554 22.9924 14.6163 24.8296 15.9709 26.1841C17.3254 27.5386 19.1625 28.2996 21.0782 28.2996C22.9938 28.2996 24.8309 27.5386 26.1854 26.1841C26.8561 25.5134 27.3882 24.7172 27.7511 23.8409C28.1141 22.9646 28.3009 22.0253 28.3009 21.0768C28.3009 20.1283 28.1141 19.1891 27.7511 18.3128C27.3882 17.4365 26.8561 16.6402 26.1854 15.9695C25.5147 15.2989 24.7185 14.7668 23.8422 14.4038C22.9659 14.0409 22.0267 13.854 21.0782 13.854C20.1296 13.854 19.1904 14.0409 18.3141 14.4038ZM30.2941 14.3752C30.2021 14.5844 30.069 14.7729 29.9028 14.9297C29.5796 15.2346 29.1503 15.4016 28.7059 15.3951C28.2616 15.3886 27.8373 15.2092 27.5231 14.895C27.2089 14.5808 27.0295 14.1565 27.0231 13.7122C27.0166 13.2679 27.1835 12.8385 27.4884 12.5153C27.6452 12.3491 27.8338 12.216 28.0429 12.124C28.252 12.032 28.4775 11.9828 28.7059 11.9795C28.9344 11.9762 29.1612 12.0187 29.3729 12.1046C29.5847 12.1905 29.777 12.318 29.9386 12.4796C30.1001 12.6411 30.2276 12.8335 30.3135 13.0452C30.3994 13.2569 30.442 13.4837 30.4386 13.7122C30.4353 13.9406 30.3862 14.1661 30.2941 14.3752Z" fill="#6019EB"/>
</svg>
