<svg width="42" height="42" viewBox="0 0 42 42" fill="none" xmlns="http://www.w3.org/2000/svg">
<path d="M20.5762 0C9.21214 0 0 9.21214 0 20.5762C0 31.9403 9.21214 41.1524 20.5762 41.1524C31.9403 41.1524 41.1524 31.9403 41.1524 20.5762C41.1524 9.21214 31.9403 0 20.5762 0ZM15.5393 29.1046H11.3726V15.6958H15.5393V29.1046ZM13.4303 14.0497C12.1142 14.0497 11.2633 13.1173 11.2633 11.9642C11.2633 10.7875 12.14 9.88301 13.4838 9.88301C14.8277 9.88301 15.6508 10.7875 15.6765 11.9642C15.6765 13.1173 14.8277 14.0497 13.4303 14.0497ZM30.7571 29.1046H26.5905V21.6736C26.5905 19.9439 25.986 18.7694 24.4793 18.7694C23.3283 18.7694 22.6445 19.5645 22.3423 20.3297C22.2309 20.6019 22.203 20.9877 22.203 21.3714V29.1025H18.0342V19.9718C18.0342 18.2978 17.9806 16.8982 17.9249 15.6936H21.545L21.7358 17.5562H21.8194C22.3681 16.6817 23.7119 15.3914 25.9603 15.3914C28.7017 15.3914 30.7571 17.2283 30.7571 21.1763V29.1046V29.1046Z" fill="#6019EB"/>
</svg>
