<svg width="42" height="42" viewBox="0 0 42 42" fill="none" xmlns="http://www.w3.org/2000/svg">
<path d="M20.5762 0C9.21337 0 0 9.21337 0 20.5762C0 31.9391 9.21337 41.1524 20.5762 41.1524C31.9391 41.1524 41.1524 31.9391 41.1524 20.5762C41.1524 9.21337 31.9391 0 20.5762 0ZM30.4647 15.5102C30.4785 15.7261 30.4785 15.9512 30.4785 16.1716C30.4785 22.914 25.3436 30.6806 15.9603 30.6806C13.0668 30.6806 10.3846 29.8401 8.12485 28.3933C8.53821 28.4393 8.9332 28.4576 9.35575 28.4576C11.7441 28.4576 13.9395 27.6493 15.6894 26.2806C13.448 26.2347 11.5649 24.7649 10.9219 22.7441C11.7073 22.8589 12.4146 22.8589 13.223 22.6522C12.0689 22.4177 11.0316 21.791 10.2873 20.8783C9.54294 19.9657 9.13752 18.8236 9.13988 17.6459V17.5816C9.81504 17.9628 10.6096 18.1971 11.4409 18.2292C10.7421 17.7635 10.169 17.1325 9.77237 16.3922C9.37579 15.6519 9.168 14.8252 9.16744 13.9854C9.16744 13.0347 9.41545 12.1666 9.86097 11.4134C11.1419 12.9903 12.7404 14.28 14.5525 15.1987C16.3645 16.1174 18.3496 16.6445 20.3787 16.7457C19.6576 13.2781 22.248 10.4718 25.362 10.4718C26.8317 10.4718 28.1545 11.0873 29.0869 12.0793C30.2397 11.8635 31.342 11.4317 32.3249 10.853C31.9436 12.0334 31.1445 13.0301 30.0835 13.6593C31.1123 13.5491 32.1044 13.2643 33.023 12.8647C32.3295 13.8843 31.4614 14.7892 30.4647 15.5102Z" fill="#6019EB"/>
</svg>
