<svg width="41" height="30" viewBox="0 0 41 30" fill="none" xmlns="http://www.w3.org/2000/svg">
<path d="M16.233 8.77198C18.2466 8.77198 19.879 7.13961 19.879 5.12598C19.879 3.11235 18.2466 1.47998 16.233 1.47998C14.2193 1.47998 12.587 3.11235 12.587 5.12598C12.587 7.13961 14.2193 8.77198 16.233 8.77198Z" stroke="#691EDE" strokeLinecap="round" stroke-linejoin="round"/>
<path d="M35.665 20.8001C37.6786 20.8001 39.311 19.1677 39.311 17.1541C39.311 15.1404 37.6786 13.5081 35.665 13.5081C33.6514 13.5081 32.019 15.1404 32.019 17.1541C32.019 19.1677 33.6514 20.8001 35.665 20.8001Z" stroke="#691EDE" strokeLinecap="round" stroke-linejoin="round"/>
<path d="M6.06 3.845L18.045 15.835C19.377 17.167 18.167 28.791 11.05 28.791C2.73 28.79 1 26.118 1 26.118L6.237 20.878C9.11 23.752 12.385 20.038 10.892 18.545C9.932 17.738 4.378 12.029 4.378 12.029L6.06 3.845ZM37.854 1H29.891C28.6781 1.12466 27.5363 1.6324 26.6314 2.44961C25.7264 3.26682 25.1053 4.35101 24.858 5.545L18.758 28.318H26.471L30.96 11.562C30.96 11.562 31.61 8.402 34.118 8.402H40L37.854 1Z" stroke="#691EDE" strokeLinecap="round" stroke-linejoin="round"/>
</svg>
