<svg id="background" xmlns="http://www.w3.org/2000/svg" viewBox="0 0 2216.36 443"><defs><style>.cls-1{fill:#5d17ea;}.cls-2{fill:#ef6b19;}.cls-3{isolation:isolate;}</style></defs><path class="cls-1" d="M7.32,142l71.17-.62,28.18-.26c.43,0,.85-.08,1.28-.12h13.63c.76,0,.86-.63,1.13-1,2.75-4.14,5.44-8.31,8.17-12.46q5.81-8.82,11.64-17.63l12.48-19q6.25-9.51,12.53-19c1.09-1.67,2.27-3.29,3.22-5,1.29-2.38,3.56-3.22,5.86-4a24,24,0,0,1,2.5-.61,12.37,12.37,0,0,1,3.1,0,16.54,16.54,0,0,1,10,6.56A11.87,11.87,0,0,1,194,74a11.49,11.49,0,0,1,0,3.1v.52a.29.29,0,0,1-.08.37,22.12,22.12,0,0,0-6,1.86,7.8,7.8,0,0,0-3,2.73c-7.76,11.89-15.59,23.73-23.39,35.6-8.08,12.31-16.2,24.58-24.22,36.92a3.65,3.65,0,0,1-3.51,1.89c-8.18-.23-16.35.38-24.53.24-4.24-.07-8.49-.15-12.73,0-10.3.39-20.6,0-30.89.29-9.27.3-18.53-.06-27.79.24-5.19.17-10.38.18-15.57.22a.62.62,0,0,0-.43.16A38.66,38.66,0,0,0,24,161.64q9.18,14,18.32,28.05Q57,212.22,71.71,234.84c3.32,5.07,6.64,10.15,9.91,15.25.32.49.81.94.6,1.63a2.39,2.39,0,0,1-.21.34c-1.43,2.16-1.43,2.16-2.88-.07L8.33,143.54c-.29-.45-.47-1-1-1.29Z"/><path class="cls-2" d="M201.67,434.53c-.74.11-.79-.58-1-1-3.61-5.51-7.18-11-10.76-16.56-.54-.12-.72-.6-1-1-6.08-9.32-12.09-18.68-18.13-28-2.28-3.53-4.57-7.05-6.84-10.58a2.1,2.1,0,0,1,0-2.69c5.42-8.14,10.78-16.32,16.17-24.49l22.37-33.95,21.36-32.43q10.89-16.54,21.8-33.08L267,218.35l22.29-33.84c5.74-8.71,11.52-17.4,17.17-26.17a3.6,3.6,0,0,1,3.49-1.9c8.69.22,17.39.27,26.09.36,3.15,0,6.31.1,9.46.21a2.44,2.44,0,0,0,2.34-1.27c7.5-11.65,15.14-23.2,22.69-34.82q4.35-6.7,8.73-13.38c9.56-14.54,19-29.14,28.58-43.69Q418.24,48,428.59,32.1c2-3.12,4.11-6.21,6.08-9.37a4.67,4.67,0,0,1,2.51-1.92,19.5,19.5,0,0,1,7.8-1,1.56,1.56,0,0,1,1,.3,20.48,20.48,0,0,1,7,2.67c5.78,3.75,7,9.94,5.55,15.6a5.07,5.07,0,0,1-.7,1.37L340,221.24,202.24,433.52A9.26,9.26,0,0,0,201.67,434.53Z"/><path class="cls-2" d="M213.09,248.48c-3.71,5.63-7.43,11.26-11.11,16.9q-27.3,41.85-54.57,83.71c-.82,1.26-.83,1.26-1.68,0l-10.27-15.46c-.24-.35-.51-.69-.76-1-.52-.15-.7-.62-1-1C125.78,319.85,118,308,110.11,296.17a2.15,2.15,0,0,1,.1-2.79c7.1-10.61,14.14-21.27,21.28-31.86,14.56-21.61,28.88-43.38,43.42-65q12.78-19,25.46-38.12a3.18,3.18,0,0,1,3-1.6h34.68a3.11,3.11,0,0,0,3-1.72c3.14-5,6.41-10,9.63-15Q264.35,119,278,97.89,285.71,86,293.43,74c4.19-6.47,8.26-13,12.58-19.38,2.46-3.63,6.2-5.1,10.62-4.57.23.11.39.34.64.41a29.5,29.5,0,0,1,8.37,4.43c3,2.37,4.24,5.71,4.68,9.41a9.65,9.65,0,0,1,0,2.84c-.07,2-1.35,3.39-2.34,4.91q-11.34,17.43-22.75,34.82-13.41,20.53-26.8,41.09Q267,165.52,255.58,183l-22.86,35.1q-9.48,14.57-19,29.13C213.49,247.64,213.28,248.05,213.09,248.48Z"/><path class="cls-2" d="M82.22,251.72C78.5,246,74.8,240.25,71.06,234.53L21.64,158.8c-.23-.35-.44-.71-.81-1.32H34q28.77-.24,57.52-.51c14.28-.13,28.57-.29,42.85-.39a2.16,2.16,0,0,0,2.06-1.15Q160.21,119.17,184,83c2.12-3.25,5.13-4.4,8.56-5.13.42-.09.86-.12,1.28-.18.61.15,1.24-.06,1.85.12a16,16,0,0,1,9.82,6.37,11.62,11.62,0,0,1,1.93,5.39,11.49,11.49,0,0,1,0,3.1c-.08,4.53-2.84,7.87-5.14,11.4q-12.86,19.67-25.72,39.32Q164.64,161.66,152.76,180a40.11,40.11,0,0,0-3.06,4.9c-3.12,4.73-6.25,9.44-9.35,14.18L95,268.59c-.82,1.27-.83,1.27-1.67,0Z"/><path class="cls-1" d="M446,20.12a22.26,22.26,0,0,0-8.58.94A4.56,4.56,0,0,0,434.9,23L348.22,155.79a3,3,0,0,1-3,1.57c-12-.22-24-.35-36-.56a2.12,2.12,0,0,0-2.07,1.12q-71.47,108.6-143,217.15a1.57,1.57,0,0,0,0,2q12.4,19.1,24.74,38.24c.35.55.68,1.1,1,1.66-1.49,2.15-1.49,2.15-3-.11Q169,389.22,151.13,361.61a1.81,1.81,0,0,1,.05-2.36q34-51.57,68-103.16c.23-.35.59-.65.6-1.12q6.61-10,13.22-20.09l13-19.75L260.73,193q7.29-11,14.57-22.1T289.7,149c1.53-2.34,3.12-4.64,4.62-7a1.43,1.43,0,0,1,1.43-.76h8.95c2.43.24,4.86,0,7.29.11a8.71,8.71,0,0,1,1.91.07l10.3.08c2.42.24,4.84,0,7.25.11a10.13,10.13,0,0,1,2.2.08c.76.19.82-.57,1-.91,3.07-4.64,6.06-9.32,9.1-14Q350,117.38,356.14,108l12.57-19.3,12.82-19.61L394.28,49.6q6.36-9.75,12.74-19.5l12.75-19.5a8.9,8.9,0,0,0,.94-1.49c1.24-3.22,4-4,6.92-4.38,6-.82,11.29.64,15.4,5.26C445.59,12.83,446.32,16.34,446,20.12Z"/><path class="cls-1" d="M316.78,50.31c-3.51-.56-6.41.9-9.19,2.79a4.25,4.25,0,0,0-1.14,1.39q-32.67,50.51-65.3,101a2.92,2.92,0,0,1-2.88,1.56c-11.78-.06-23.55,0-35.33-.05a2.05,2.05,0,0,0-2,1.05q-45.27,67.84-90.61,135.66a1.54,1.54,0,0,0,0,2q11.85,17.76,23.63,35.57c.26.39.48.81.73,1.21-1.65,2.43-1.64,2.43-3.26,0Q114.23,306.62,97,280.68a1.85,1.85,0,0,1,0-2.47q28.88-43.12,57.68-86.31a3,3,0,0,0,.75-1.33L171.84,166c5.21-7.8,10.45-15.58,15.64-23.39a1.7,1.7,0,0,1,1.66-.86h36.37A1.58,1.58,0,0,0,227,141q5.9-9.3,11.85-18.55c3.46-5.34,7-10.64,10.44-16,4-6.19,8-12.43,12-18.63,3.35-5.21,6.77-10.37,10.13-15.57,4.08-6.31,8.11-12.65,12.18-19,3.2-5,6.37-9.93,9.7-14.79,1.23-1.78,3.39-2.41,5.36-3.16a13.25,13.25,0,0,1,1.76-.42,5.94,5.94,0,0,1,2.06,0,24.56,24.56,0,0,1,9.44,4.51c3.18,2.34,4.46,5.77,4.9,9.58A2,2,0,0,1,316.78,50.31Z"/><g class="cls-3"><path d="M577.76,225.11,529.88,113h34.27l40.35,97.05H584.33l41.31-97H657l-48,112.1Z"/></g><g class="cls-3"><path d="M666.79,225.11V113H698.5v112.1Z"/><path d="M724.12,225.11V113h51.24q15.38,0,26.51,5a38.72,38.72,0,0,1,17.21,14.33q6.09,9.36,6.09,22.18,0,12.64-6.09,21.94a39.44,39.44,0,0,1-17.21,14.33q-11.14,5-26.51,5H741.73L755.83,182v43.08Zm31.71-39.71-14.1-14.58h31.71q9.93,0,14.81-4.32t4.89-12q0-7.85-4.89-12.17T773.44,138H741.73l14.1-14.57Z"/><path d="M894.83,225.11V113h26.1l61.81,74.63H970.41V113h31.07v112.1h-26.1l-61.82-74.63h12.33v74.63Z"/><path d="M1078.67,227.35q-24.83,0-38.76-13.61T1026,175.15V113h31.71v61.18q0,14.4,5.68,20.65t15.62,6.25q9.91,0,15.53-6.25t5.6-20.65V113h31.23v62.14q0,25-13.93,38.59T1078.67,227.35Z"/><path d="M1155.85,225.11V113H1182l46.44,76.23h-13.78L1259.78,113h26.11l.32,112.1h-29.15l-.32-67.74h5l-33.79,56.69h-14.1l-34.75-56.69h6.09v67.74Z"/><path d="M1311.67,225.11V113H1369q22.1,0,33,8.09t10.89,21.22a25.64,25.64,0,0,1-4.57,15.13,30.93,30.93,0,0,1-12.81,10.25q-8.25,3.77-19.62,3.76l3.21-7.68a54.41,54.41,0,0,1,20.66,3.6,30.61,30.61,0,0,1,13.69,10.41q4.88,6.81,4.88,16.57,0,14.58-11.77,22.66t-34.35,8.09Zm31.39-22.9h26.58q8.16,0,12.41-2.8t4.24-8.57q0-5.76-4.24-8.57t-12.41-2.8h-28.83V157.53h24q8,0,12-2.72a9.23,9.23,0,0,0,4-8.17q0-5.44-4-8.09t-12-2.64h-21.77Z"/><path d="M1469.25,200.61h58.61v24.5h-90V113h87.92v24.5h-56.53Zm-2.25-44.2h52v23.7h-52Z"/><path d="M1548.51,225.11V113h51.25q15.38,0,26.5,5a38.75,38.75,0,0,1,17.22,14.33q6.07,9.36,6.08,22.18,0,12.64-6.08,21.86a38.67,38.67,0,0,1-17.22,14.09q-11.13,4.89-26.5,4.88h-33.63L1580.22,182v43.08Zm31.71-39.71-14.09-14.58h31.71q9.93,0,14.81-4.32t4.89-12q0-7.85-4.89-12.17T1597.84,138h-31.71l14.09-14.57Zm37.64,39.71L1590,184.27h33.79l28,40.84Z"/><path d="M1759.09,227.35a101.3,101.3,0,0,1-26.5-3.44q-12.73-3.45-20.74-8.89l10.41-23.38a73.39,73.39,0,0,0,17.38,7.93,64.6,64.6,0,0,0,19.61,3.12,37.89,37.89,0,0,0,10.57-1.2,12.88,12.88,0,0,0,5.85-3.2,6.75,6.75,0,0,0,1.84-4.73,6.9,6.9,0,0,0-3.52-6.08,31.62,31.62,0,0,0-9.13-3.69q-5.61-1.44-12.41-2.88a128.94,128.94,0,0,1-13.61-3.68,54.31,54.31,0,0,1-12.41-5.85,28.53,28.53,0,0,1-9.13-9.44q-3.52-5.85-3.53-14.82a31.86,31.86,0,0,1,5.53-18.25q5.52-8.18,16.57-13.14t27.55-5a95.53,95.53,0,0,1,21.7,2.48,69.36,69.36,0,0,1,19,7.29l-9.76,23.54a76,76,0,0,0-15.86-6.49,57.2,57.2,0,0,0-15.21-2.16,33.87,33.87,0,0,0-10.57,1.36,12.08,12.08,0,0,0-5.77,3.61,8.07,8.07,0,0,0-1.76,5.12,6.63,6.63,0,0,0,3.45,5.85,30.72,30.72,0,0,0,9.12,3.52q5.68,1.37,12.49,2.8t13.62,3.6a52.08,52.08,0,0,1,12.41,5.77,27.83,27.83,0,0,1,9,9.45q3.45,5.85,3.45,14.65a31.69,31.69,0,0,1-5.53,18q-5.52,8.25-16.49,13.21T1759.09,227.35Z"/><path d="M1858.06,225.11h-31.71V113h31.71Zm45.48-43.72h-47.72V155.13h47.72ZM1901.3,113H1933v112.1h-31.7Z"/><path d="M2015,227.35a69.37,69.37,0,0,1-24.83-4.32,59.05,59.05,0,0,1-19.77-12.25,56.16,56.16,0,0,1-13.05-18.5,60.3,60.3,0,0,1,0-46.44,56.16,56.16,0,0,1,13.05-18.5,59.21,59.21,0,0,1,19.77-12.25,73.72,73.72,0,0,1,49.73,0,58.6,58.6,0,0,1,19.61,12.25,58,58,0,0,1,13.06,18.5,57.5,57.5,0,0,1-13.06,65A59,59,0,0,1,2039.9,223,69.17,69.17,0,0,1,2015,227.35Zm0-26.26a31.58,31.58,0,0,0,11.93-2.24,27.74,27.74,0,0,0,9.61-6.49,30.62,30.62,0,0,0,6.4-10.17,38.54,38.54,0,0,0,0-26.34,30.77,30.77,0,0,0-6.4-10.09,27.74,27.74,0,0,0-9.61-6.49,32.89,32.89,0,0,0-23.86,0,27.56,27.56,0,0,0-9.61,6.49,30.63,30.63,0,0,0-6.41,10.09,38.54,38.54,0,0,0,0,26.34,30.48,30.48,0,0,0,6.41,10.17,27.56,27.56,0,0,0,9.61,6.49A31.46,31.46,0,0,0,2015,201.09Z"/><path d="M2097,225.11V113h51.24q15.38,0,26.5,5A38.75,38.75,0,0,1,2192,132.31q6.08,9.36,6.08,22.18,0,12.64-6.08,21.94a39.47,39.47,0,0,1-17.22,14.33q-11.13,5-26.5,5H2114.6L2128.69,182v43.08Zm31.7-39.71-14.09-14.58h31.71q9.93,0,14.81-4.32t4.89-12q0-7.85-4.89-12.17T2146.31,138H2114.6l14.09-14.57Z"/></g><g class="cls-3"><path d="M638.8,332.63,665,274.85h8.17l26.25,57.78h-8.67l-23.35-53.16h3.3L647.3,332.63Zm11.14-14.44,2.23-6.61h32.52l2.39,6.61Z"/></g><g class="cls-3"><path d="M709.62,332.63V274.85h22.53a31.64,31.64,0,0,1,13,2.4,18.23,18.23,0,0,1,8.25,6.93A19.68,19.68,0,0,1,756.25,295a19.47,19.47,0,0,1-2.89,10.77,18.68,18.68,0,0,1-8.25,6.94,31.29,31.29,0,0,1-13,2.43h-18l3.71-3.88v21.38Zm8.25-20.55L714.16,308H731.9q7.94,0,12-3.38T748,295q0-6.19-4.09-9.57t-12-3.39H714.16l3.71-4.12Z"/></g><g class="cls-3"><path d="M770,332.63V274.85h8.25v57.78Zm7.26-13.95-.41-10.07,32.77-33.76h9.41l-25.34,26.74-4.63,5.12ZM811,332.63l-23.69-27.57,5.53-6.11,27.81,33.68Z"/></g><g class="cls-3"><path d="M820,332.63l26.16-57.78h8.17l26.25,57.78h-8.67l-23.35-53.16h3.3l-23.36,53.16Zm11.14-14.44,2.23-6.61h32.52l2.39,6.61Z"/><path d="M914.64,332.63V274.85h6.77l38.21,47.46h-3.55V274.85h8.26v57.78h-6.77l-38.22-47.46h3.55v47.46Z"/><path d="M1007.25,333.29q-11.38,0-17.91-6.52t-6.52-19.07V274.85h8.25v32.52q0,9.66,4.25,14.12t12,4.45q7.84,0,12.09-4.45t4.26-14.12V274.85h8V307.7q0,12.56-6.48,19.07T1007.25,333.29Z"/><path d="M1050.25,332.63V274.85H1057l25.92,43.67h-3.63l25.58-43.67h6.77l.08,57.78h-7.92l-.08-45.31h1.9l-22.79,38.29h-3.79l-23-38.29h2.07v45.31Z"/><path d="M1130.73,332.63V274.85h25.92q10,0,15.35,4a12.9,12.9,0,0,1,5.36,10.93,14.22,14.22,0,0,1-2.1,7.93,14,14,0,0,1-5.66,4.95,17.29,17.29,0,0,1-7.67,1.73l1.48-2.48a20.8,20.8,0,0,1,8.75,1.74,14.18,14.18,0,0,1,6,5.07,14.7,14.7,0,0,1,2.23,8.3,13.43,13.43,0,0,1-5.58,11.51q-5.56,4.09-16.54,4.09Zm8.25-6.69h19q6.84,0,10.48-2.31t3.63-7.26q0-5-3.63-7.35T1158,306.71h-19.73V300h17.66q6.27,0,9.74-2.31a8.67,8.67,0,0,0,0-13.87q-3.47-2.31-9.74-2.31H1139Z"/><path d="M1203.11,325.45h33.68v7.18h-41.93V274.85h40.77V282h-32.52Zm-.74-25.67h29.71v7h-29.71Z"/><path d="M1251.81,332.63V274.85h22.54a31.55,31.55,0,0,1,13,2.4,18.31,18.31,0,0,1,8.26,6.93,19.77,19.77,0,0,1,2.89,10.81,19.56,19.56,0,0,1-2.89,10.77,18.5,18.5,0,0,1-8.26,6.9,31.72,31.72,0,0,1-13,2.39h-18l3.72-3.8v21.38Zm8.26-20.55-3.72-4.05h17.75q7.92,0,12-3.42t4.08-9.62q0-6.19-4.08-9.57t-12-3.39h-17.75l3.72-4.12Zm30.37,20.55-14.69-21h8.83l14.86,21Z"/><path d="M1309.18,344.85l4.12-16.68,1.08,4.79a5.7,5.7,0,0,1-4-1.49,5.23,5.23,0,0,1-1.61-4,5.43,5.43,0,0,1,5.53-5.61,5,5,0,0,1,3.88,1.61,5.66,5.66,0,0,1,1.49,4,10.61,10.61,0,0,1-.12,1.61c-.09.52-.23,1.13-.42,1.82s-.48,1.52-.86,2.51l-3.88,11.48Z"/><path d="M1349,332.63l26.17-57.78h8.17l26.24,57.78h-8.66l-23.36-53.16h3.3l-23.36,53.16Zm11.14-14.44,2.23-6.61h32.52l2.4,6.61Z"/></g><g class="cls-3"><path d="M1419.77,332.63V274.85h22.53a31.64,31.64,0,0,1,13,2.4,18.28,18.28,0,0,1,8.25,6.93A19.68,19.68,0,0,1,1466.4,295a19.47,19.47,0,0,1-2.89,10.77,18.74,18.74,0,0,1-8.25,6.94,31.29,31.29,0,0,1-13,2.43h-18l3.71-3.88v21.38Zm8.25-20.55-3.71-4.13h17.74q7.92,0,12-3.38t4.09-9.58q0-6.19-4.09-9.57t-12-3.39h-17.74l3.71-4.12Z"/></g><g class="cls-3"><path d="M1480.19,332.63V274.85h8.25v57.78Zm7.26-13.95-.41-10.07,32.77-33.76h9.4l-25.33,26.74-4.63,5.12Zm33.68,13.95-23.69-27.57L1503,299l27.81,33.68Z"/><path d="M1541.18,332.63V274.85h8.26v57.78Z"/></g><g class="cls-3"><path d="M1592.28,332.63V274.85h22.53a31.64,31.64,0,0,1,13,2.4,18.23,18.23,0,0,1,8.25,6.93,19.68,19.68,0,0,1,2.89,10.81,19.47,19.47,0,0,1-2.89,10.77,18.68,18.68,0,0,1-8.25,6.94,31.29,31.29,0,0,1-13,2.43h-18l3.71-3.88v21.38Zm8.25-20.55-3.71-4.13h17.74q7.92,0,12-3.38t4.09-9.58q0-6.19-4.09-9.57t-12-3.39h-17.74l3.71-4.12Z"/></g><g class="cls-3"><path d="M1661,325.45h33.68v7.18H1652.7V274.85h40.77V282H1661Zm-.74-25.67h29.71v7h-29.71Z"/><path d="M1717.9,332.63h-8.25V274.85h8.25Zm33.93-25.75h-34.75V299.7h34.75Zm-.75-32h8.26v57.78h-8.26Z"/><path d="M1804.16,333.29A33,33,0,0,1,1792,331.1a28.35,28.35,0,0,1-9.65-6.19,29,29,0,0,1-6.4-9.37,31.29,31.29,0,0,1,0-23.6,28.62,28.62,0,0,1,6.44-9.37,28.91,28.91,0,0,1,9.7-6.19,34.79,34.79,0,0,1,24.51.08,25.45,25.45,0,0,1,9.62,6.73l-5.37,5.2a21.49,21.49,0,0,0-7.43-5.16,23,23,0,0,0-8.83-1.69,24.34,24.34,0,0,0-9,1.65,21.59,21.59,0,0,0-7.22,4.62,20.78,20.78,0,0,0-4.75,7.06,24.12,24.12,0,0,0,0,17.74,20.78,20.78,0,0,0,4.75,7.06,21.59,21.59,0,0,0,7.22,4.62,24.34,24.34,0,0,0,9,1.65,23,23,0,0,0,8.83-1.69,20.83,20.83,0,0,0,7.43-5.24l5.37,5.2a25.77,25.77,0,0,1-9.62,6.77A32.54,32.54,0,0,1,1804.16,333.29Z"/><path d="M1847.9,332.63h-8.25V274.85h8.25Zm33.93-25.75h-34.75V299.7h34.75Zm-.75-32h8.26v57.78h-8.26Z"/></g><g class="cls-3"><path d="M1899.57,332.63l26.16-57.78h8.17l26.25,57.78h-8.66l-23.36-53.16h3.3l-23.36,53.16Zm11.14-14.44,2.23-6.61h32.52l2.39,6.61Z"/></g><g class="cls-3"><path d="M1962.71,332.63l26.16-57.78H1997l26.25,57.78h-8.66l-23.36-53.16h3.3l-23.36,53.16Zm11.14-14.44,2.23-6.61h32.52l2.39,6.61Z"/><path d="M2033.53,332.63V274.85h6.76l38.22,47.46H2075V274.85h8.26v57.78h-6.77l-38.22-47.46h3.55v47.46Z"/></g></svg>