<svg id="background" xmlns="http://www.w3.org/2000/svg" viewBox="0 0 451.71 430.07"><defs><style>.cls-1{fill:#5d17ea;}.cls-2{fill:#ef6b19;}</style></defs><path class="cls-1" d="M0,137.52l71.17-.62,28.18-.27c.42,0,.85-.07,1.27-.11,4.55,0,9.09,0,13.63,0,.76,0,.87-.63,1.14-1,2.74-4.14,5.44-8.31,8.17-12.46q5.81-8.82,11.63-17.63,6.24-9.47,12.44-18.94t12.53-19c1.1-1.66,2.28-3.28,3.23-5,1.29-2.38,3.55-3.22,5.86-4a22.79,22.79,0,0,1,2.5-.61,13.39,13.39,0,0,1,3.1,0,16.59,16.59,0,0,1,10,6.57,11.74,11.74,0,0,1,1.75,5.19,11.91,11.91,0,0,1,0,3.1v.52a.28.28,0,0,1-.08.37,21.84,21.84,0,0,0-6,1.86A7.85,7.85,0,0,0,177.42,78c-7.75,11.9-15.59,23.74-23.38,35.61-8.08,12.31-16.2,24.58-24.23,36.92a3.64,3.64,0,0,1-3.5,1.89c-8.18-.23-16.35.38-24.53.24-4.25-.07-8.5-.15-12.73,0-10.3.39-20.61-.05-30.9.29-9.26.3-18.53-.06-27.78.24-5.19.17-10.38.18-15.57.22a.6.6,0,0,0-.44.16,39.22,39.22,0,0,0,2.16,3.47q9.19,14,18.33,28,14.77,22.61,29.54,45.23c3.32,5.07,6.64,10.14,9.91,15.25.32.49.8.94.59,1.63l-.2.34c-1.43,2.16-1.43,2.16-2.88-.07L1,139.07c-.3-.45-.47-1-1-1.29Z"/><path class="cls-2" d="M194.34,430.06c-.74.11-.78-.58-1-1q-5.4-8.27-10.76-16.57c-.54-.11-.71-.59-1-1-6.07-9.32-12.08-18.68-18.12-28L156.61,373a2.12,2.12,0,0,1,0-2.69c5.43-8.14,10.79-16.32,16.18-24.49q11.19-17,22.36-33.95,10.69-16.21,21.37-32.43l21.79-33.08,21.36-32.43Q270.84,197,282,180c5.74-8.71,11.52-17.4,17.17-26.17a3.6,3.6,0,0,1,3.48-1.9c8.7.22,17.39.27,26.09.36q4.72,0,9.47.21a2.43,2.43,0,0,0,2.33-1.28c7.51-11.64,15.15-23.2,22.69-34.81q4.35-6.7,8.74-13.38c9.56-14.54,19-29.14,28.58-43.69,6.93-10.58,13.81-21.18,20.74-31.75,2-3.12,4.11-6.21,6.08-9.37a4.66,4.66,0,0,1,2.5-1.92,19.54,19.54,0,0,1,7.8-1,1.56,1.56,0,0,1,1,.3,20.49,20.49,0,0,1,7,2.67c5.77,3.75,7,9.93,5.55,15.6a4.71,4.71,0,0,1-.71,1.37Q391.57,126,332.67,216.77L194.91,429.05C194.7,429.37,194.53,429.72,194.34,430.06Z"/><path class="cls-2" d="M205.76,244c-3.7,5.63-7.42,11.25-11.11,16.9l-54.57,83.71c-.81,1.26-.82,1.26-1.67,0q-5.15-7.72-10.27-15.46c-.24-.36-.51-.69-.77-1-.51-.15-.69-.62-1-1-7.92-11.78-15.69-23.67-23.6-35.46a2.16,2.16,0,0,1,.1-2.79C110,278.21,117.06,267.56,124.2,257c14.56-21.61,28.89-43.38,43.43-65q12.78-19,25.45-38.12a3.23,3.23,0,0,1,3-1.61c11.55.05,23.11,0,34.67.06a3.1,3.1,0,0,0,3-1.72c3.15-5,6.41-10,9.63-15Q257,114.52,270.65,93.42q7.74-11.94,15.45-23.87c4.2-6.47,8.27-13,12.59-19.39,2.46-3.62,6.19-5.09,10.62-4.56.23.11.38.34.64.41a29.18,29.18,0,0,1,8.36,4.43c3,2.37,4.25,5.71,4.69,9.4a10.39,10.39,0,0,1,0,2.84c-.06,2-1.35,3.4-2.34,4.92Q309.31,85,297.91,102.42,284.48,123,271.1,143.51l-22.85,35.06L225.4,213.63q-9.5,14.56-19,29.13A13.5,13.5,0,0,0,205.76,244Z"/><path class="cls-2" d="M74.89,247.25q-5.56-8.59-11.15-17.19Q39,192.19,14.31,154.33c-.23-.35-.43-.71-.8-1.32,4.55,0,8.87,0,13.18,0l57.52-.51q21.42-.21,42.84-.39a2.18,2.18,0,0,0,2.07-1.15q23.77-36.24,47.54-72.47c2.12-3.25,5.13-4.4,8.57-5.13.42-.09.85-.13,1.28-.19.61.16,1.24,0,1.85.13a16,16,0,0,1,9.81,6.37,11.5,11.5,0,0,1,1.93,5.39,11.91,11.91,0,0,1,0,3.1C200,92.68,197.26,96,195,99.55q-12.84,19.67-25.72,39.32-11.92,18.25-23.82,36.56a41.86,41.86,0,0,0-3.06,4.9c-3.11,4.72-6.24,9.44-9.34,14.18q-22.71,34.77-45.4,69.56c-.83,1.27-.83,1.26-1.67,0Z"/><path class="cls-1" d="M438.63,15.65a22.28,22.28,0,0,0-8.58.94,4.57,4.57,0,0,0-2.47,1.91Q384.25,84.91,340.9,151.3a3,3,0,0,1-3,1.57c-12-.22-24-.35-36-.56a2.14,2.14,0,0,0-2.08,1.12Q228.35,262,156.78,370.6a1.59,1.59,0,0,0,0,2q12.39,19.1,24.73,38.24c.36.55.69,1.1,1,1.65-1.49,2.16-1.49,2.16-3-.11q-17.85-27.63-35.72-55.24a1.82,1.82,0,0,1,.05-2.37q34-51.56,68-103.15c.23-.35.58-.65.59-1.12l13.23-20.09,13-19.76,14.65-22.19L268,166.4l14.4-21.9c1.54-2.34,3.13-4.65,4.62-7a1.43,1.43,0,0,1,1.44-.76c3,0,6,0,8.95,0,2.42.25,4.86,0,7.28.12a8.71,8.71,0,0,1,1.91.07l10.31.07c2.41.25,4.83,0,7.25.12a10.68,10.68,0,0,1,2.19.07c.77.2.82-.57,1-.9,3.07-4.64,6.07-9.32,9.11-14,4.1-6.28,8.24-12.55,12.34-18.84s8.38-12.87,12.57-19.31l12.83-19.6q6.38-9.73,12.74-19.49l12.75-19.5q6.38-9.75,12.75-19.5a10.43,10.43,0,0,0,.94-1.49c1.23-3.23,4-4,6.92-4.38,6-.82,11.29.64,15.39,5.26A12.76,12.76,0,0,1,438.63,15.65Z"/><path class="cls-1" d="M309.46,45.84c-3.52-.56-6.41.9-9.19,2.79A4.39,4.39,0,0,0,299.12,50q-32.65,50.51-65.29,101a2.94,2.94,0,0,1-2.88,1.56c-11.78-.06-23.56,0-35.33-.05a2.06,2.06,0,0,0-2,1.05Q148.35,221.46,103,289.28a1.54,1.54,0,0,0,0,2q11.83,17.76,23.62,35.57c.26.39.49.81.73,1.21-1.64,2.43-1.64,2.43-3.25,0q-17.22-25.95-34.47-51.88a1.86,1.86,0,0,1,0-2.47q28.88-43.12,57.68-86.31a3.09,3.09,0,0,0,.75-1.33q8.2-12.3,16.41-24.61c5.21-7.8,10.45-15.58,15.65-23.39a1.7,1.7,0,0,1,1.66-.86c12.12,0,24.24,0,36.36,0a1.59,1.59,0,0,0,1.57-.78q5.88-9.3,11.85-18.55c3.45-5.35,7-10.64,10.44-16C246,95.76,250,89.52,254,83.32c3.36-5.21,6.78-10.37,10.14-15.57,4.08-6.31,8.1-12.65,12.18-19,3.2-4.95,6.37-9.93,9.7-14.79,1.23-1.79,3.39-2.41,5.36-3.16a12.75,12.75,0,0,1,1.75-.42,5.94,5.94,0,0,1,2.06,0,24.59,24.59,0,0,1,9.44,4.52c3.19,2.34,4.47,5.77,4.91,9.58A2.06,2.06,0,0,1,309.46,45.84Z"/></svg>