<svg width="22" height="22" viewBox="0 0 22 22" fill="none" xmlns="http://www.w3.org/2000/svg">
<path fillRule="evenodd" clipRule="evenodd" d="M8.20709 1.6782C7.56625 1.96724 6.96496 2.67354 6.3284 4.1459C6.31895 4.16776 6.30846 4.18915 6.29698 4.21001C6.29607 4.21252 6.29496 4.21565 6.29361 4.21953L6.2815 4.25544C6.27433 4.27695 6.26619 4.29812 6.2571 4.31889L6.1919 4.46792L6.15189 4.56794L4.98497 7.35497C5.19682 7.33075 5.41208 7.31827 5.62998 7.31827H7.9865L10.4004 1.71633C9.39376 1.42186 8.71875 1.44742 8.20709 1.6782ZM7.59037 0.310845C8.77466 -0.223308 10.1302 -0.0243259 11.678 0.567778C11.8685 0.640686 12.0212 0.788099 12.1007 0.976022C12.1802 1.16395 12.1797 1.37615 12.0993 1.56371L12.0688 1.63507L9.16876 8.36507C9.05024 8.6401 8.77947 8.81827 8.47998 8.81827H5.62998C5.05353 8.81827 4.50285 8.93686 4.00259 9.14884C3.72179 9.26782 3.39691 9.20492 3.1808 8.98974C2.96469 8.77456 2.90039 8.44995 3.01817 8.16864L4.76585 3.99416L4.80363 3.89973C4.80659 3.89232 4.80967 3.88496 4.81287 3.87766L4.86884 3.74972C4.88589 3.69877 4.91762 3.60958 4.96587 3.51767C5.63624 1.97672 6.427 0.835567 7.59037 0.310845Z" fill="#6019EB"/>
<path fillRule="evenodd" clipRule="evenodd" d="M10.7211 0.972289C10.8748 0.61376 11.2776 0.432863 11.6476 0.556213C11.7712 0.597402 11.942 0.671119 12.0474 0.716644C12.0841 0.732485 12.1129 0.744912 12.129 0.751368L12.1414 0.75633L14.3496 1.68568C15.6114 2.20904 16.6104 2.79638 17.2496 3.58112C17.3626 3.71704 17.4696 3.86095 17.5666 4.03613C17.6682 4.19733 17.7643 4.38274 17.8285 4.59589C17.8718 4.70005 17.9061 4.80351 17.9317 4.90085C18.2726 5.98859 18.0332 7.21576 17.4961 8.54813C17.3501 8.91033 16.9506 9.09988 16.5777 8.98387C16.2128 8.87035 15.8098 8.81773 15.3905 8.81773H8.48047C8.2281 8.81773 7.99265 8.6908 7.85393 8.47998C7.71521 8.26915 7.69183 8.0027 7.7917 7.77093L10.6911 1.04229L10.7211 0.972289ZM11.807 2.24313L9.62032 7.31773H15.3905C15.6988 7.31773 16.0125 7.33964 16.3244 7.38936C16.6238 6.47466 16.6529 5.82391 16.4964 5.33723C16.4914 5.32152 16.4869 5.30564 16.4829 5.28963C16.4731 5.25038 16.457 5.20153 16.4351 5.15233C16.4191 5.1163 16.406 5.07907 16.3958 5.04097C16.3822 4.98983 16.3532 4.92219 16.2896 4.82329C16.2791 4.80702 16.2693 4.79034 16.2601 4.7733C16.2217 4.70191 16.1746 4.63424 16.0943 4.53786L16.0883 4.53071C15.6877 4.03766 14.9686 3.56616 13.7732 3.07053L13.7696 3.06902L11.807 2.24313Z" fill="#6019EB"/>
<path fillRule="evenodd" clipRule="evenodd" d="M4.01442 9.1489C2.5408 9.78601 1.51172 11.251 1.51172 12.9484V14.8984C1.51172 15.0978 1.52841 15.3043 1.55542 15.5114C1.55748 15.5272 1.55904 15.543 1.56009 15.5589C1.65708 17.0276 2.09015 18.0536 2.7733 18.7368C3.45644 19.4199 4.48243 19.853 5.95114 19.95C5.96705 19.951 5.98292 19.9526 5.99872 19.9547C6.20578 19.9817 6.41229 19.9984 6.61172 19.9984H14.4117C16.1518 19.9984 17.3575 19.5844 18.1463 18.8746C18.9282 18.171 19.4146 17.0734 19.5028 15.4589C19.5129 15.2566 19.5217 15.0759 19.5217 14.8984V12.9484C19.5217 11.0807 18.2797 9.50451 16.5955 8.98654C16.2272 8.87811 15.8202 8.81836 15.4017 8.81836H5.64172C5.06908 8.81836 4.52821 8.93541 4.01442 9.1489ZM3.43326 7.76605C4.1182 7.48066 4.85593 7.31836 5.64172 7.31836H15.4017C15.9619 7.31836 16.5136 7.39821 17.0242 7.5491L17.0315 7.55125L17.0315 7.55129C19.3255 8.25448 21.0217 10.3974 21.0217 12.9484V14.8984C21.0217 15.1172 21.0109 15.3331 21.0012 15.5279L21.0008 15.5358L21.0006 15.5391C20.8985 17.4139 20.315 18.9409 19.1497 19.9896C17.9909 21.0323 16.3716 21.4984 14.4117 21.4984H6.61172C6.33995 21.4984 6.07483 21.4765 5.82859 21.4451C4.12794 21.3289 2.7223 20.8071 1.71264 19.7974C0.702975 18.7878 0.181196 17.3821 0.0649428 15.6815C0.033587 15.4353 0.0117188 15.1701 0.0117188 14.8984V12.9484C0.0117188 10.6273 1.42069 8.63348 3.42485 7.76962L3.43324 7.766L3.43326 7.76605Z" fill="#6019EB"/>
<path fillRule="evenodd" clipRule="evenodd" d="M6.04109 3.8032C6.21622 4.01781 6.25879 4.31149 6.15182 4.567L4.40182 8.747C4.32674 8.92633 4.18497 9.06949 4.00638 9.14632C3.26303 9.4661 2.62957 9.99653 2.18417 10.6722C1.73877 11.3478 1.50093 12.139 1.5 12.9482C1.49952 13.3623 1.16361 13.6976 0.749567 13.6974C0.335522 13.6971 0 13.3614 0 12.9474V10.0174C0 6.81318 2.27924 4.13964 5.31502 3.54151C5.5868 3.48796 5.86596 3.58858 6.04109 3.8032ZM1.59761 9.01836C2.0405 8.5629 2.55843 8.18414 3.13042 7.89963L4.10814 5.56428C2.82869 6.28136 1.89175 7.53435 1.59761 9.01836ZM16.6121 4.31365C16.8431 4.0856 17.1945 4.03203 17.483 4.1809C19.587 5.26684 21.019 7.49078 21.019 10.0174V12.9474C21.019 13.3616 20.6832 13.6974 20.269 13.6974C19.8548 13.6974 19.519 13.3616 19.519 12.9474C19.519 11.0852 18.2826 9.50247 16.5935 8.99573C16.3919 8.93524 16.2249 8.7928 16.1335 8.60319C16.042 8.41359 16.0345 8.19428 16.1126 7.99882C16.6091 6.75768 16.6891 5.92976 16.5095 5.31899C16.5047 5.30283 16.5005 5.28651 16.4969 5.27006C16.4877 5.22877 16.4761 5.19857 16.4682 5.18277C16.323 4.89245 16.3811 4.54169 16.6121 4.31365ZM19.42 9.01523C19.2234 8.03208 18.7437 7.14785 18.0708 6.45923C18.0246 6.90124 17.9191 7.36123 17.7648 7.84036C18.3866 8.12915 18.9468 8.5294 19.42 9.01523Z" fill="#6019EB"/>
</svg>
