<svg width="12" height="13" viewBox="0 0 12 13" fill="none" xmlns="http://www.w3.org/2000/svg">
<path fillRule="evenodd" clipRule="evenodd" d="M2.46609 3.0525C1.98027 3.0525 1.58644 3.44634 1.58644 3.93216V10.9694C1.58644 11.4552 1.98027 11.8491 2.46609 11.8491H9.50334C9.98916 11.8491 10.383 11.4552 10.383 10.9694V5.33961H10.9694V10.9694C10.9694 11.7791 10.313 12.4355 9.50334 12.4355H2.46609C1.65639 12.4355 1 11.7791 1 10.9694V3.93216C1 3.12246 1.65639 2.46606 2.46609 2.46606H7.15759V3.0525H2.46609Z" fill="#6019EB" stroke="#6019EB" strokeWidth="0.25"/>
<path d="M9.50342 1H10.0899V5.10506H9.50342V1Z" fill="#6019EB" stroke="#6019EB" strokeWidth="0.25"/>
<path d="M11.8491 2.75928L11.8491 3.34571L7.74406 3.34571L7.74406 2.75928L11.8491 2.75928Z" fill="#6019EB" stroke="#6019EB" strokeWidth="0.25"/>
<path d="M3.42041 5.79736H4.54459C4.78617 5.79736 4.99208 5.83374 5.16235 5.90651C5.33261 5.97927 5.46286 6.08696 5.55309 6.22957C5.64477 6.37073 5.69061 6.54536 5.69061 6.75347C5.69061 6.91209 5.6615 7.05179 5.60329 7.17258C5.54508 7.29336 5.46286 7.39523 5.35663 7.47818C5.25039 7.55968 5.12379 7.62298 4.9768 7.66809L4.81091 7.74886H3.80023L3.79587 7.31447H4.55333C4.6843 7.31447 4.79344 7.29118 4.88076 7.24461C4.96807 7.19805 5.03356 7.13474 5.07722 7.0547C5.12233 6.97321 5.14489 6.88153 5.14489 6.77966C5.14489 6.66906 5.12306 6.57301 5.0794 6.49152C5.0372 6.40857 4.97171 6.34527 4.88294 6.30161C4.79417 6.2565 4.68139 6.23394 4.54459 6.23394H3.96831V8.97564H3.42041V5.79736ZM5.23438 8.97564L4.48784 7.54803L5.06194 7.54585L5.8194 8.94726V8.97564H5.23438Z" fill="#6019EB"/>
<path d="M7.50895 8.33605C7.50895 8.28367 7.49585 8.23637 7.46966 8.19417C7.44346 8.15051 7.39325 8.11122 7.31904 8.07629C7.24627 8.04137 7.13859 8.00935 6.99597 7.98024C6.87082 7.95259 6.75585 7.91985 6.65107 7.88202C6.54775 7.84272 6.45898 7.79543 6.38476 7.74013C6.31055 7.68483 6.25306 7.61934 6.21232 7.54367C6.17157 7.468 6.1512 7.38068 6.1512 7.28172C6.1512 7.18568 6.1723 7.09472 6.2145 7.00886C6.2567 6.923 6.31709 6.84733 6.39568 6.78184C6.47426 6.71636 6.56958 6.66469 6.68164 6.62686C6.79515 6.58902 6.92175 6.5701 7.06146 6.5701C7.25937 6.5701 7.42891 6.60357 7.57007 6.67052C7.71268 6.736 7.82183 6.8255 7.8975 6.93901C7.97317 7.05106 8.01101 7.17767 8.01101 7.31883H7.48494C7.48494 7.25626 7.46893 7.19805 7.43691 7.1442C7.40635 7.0889 7.35978 7.04452 7.29721 7.01105C7.23463 6.97612 7.15605 6.95866 7.06146 6.95866C6.97123 6.95866 6.89629 6.97321 6.83662 7.00231C6.77841 7.02996 6.73475 7.06635 6.70565 7.11146C6.678 7.15657 6.66417 7.20605 6.66417 7.25989C6.66417 7.29919 6.67145 7.33484 6.686 7.36686C6.70201 7.39742 6.7282 7.42579 6.76458 7.45199C6.80097 7.47673 6.85044 7.50001 6.91302 7.52184C6.97705 7.54367 7.05709 7.56477 7.15314 7.58514C7.33359 7.62298 7.48857 7.67173 7.61809 7.7314C7.74906 7.78961 7.84948 7.86528 7.91933 7.95842C7.98918 8.0501 8.02411 8.16652 8.02411 8.30768C8.02411 8.41246 8.00155 8.5085 7.95644 8.59582C7.91278 8.68168 7.84875 8.75662 7.76434 8.82065C7.67994 8.88323 7.5788 8.93198 7.46092 8.96691C7.3445 9.00183 7.21353 9.0193 7.06801 9.0193C6.85408 9.0193 6.6729 8.98146 6.52447 8.90579C6.37603 8.82866 6.26325 8.73043 6.18612 8.6111C6.11045 8.49031 6.07261 8.36516 6.07261 8.23564H6.58122C6.58704 8.33314 6.61397 8.411 6.66199 8.46921C6.71147 8.52597 6.77259 8.56744 6.84535 8.59363C6.91957 8.61837 6.99597 8.63074 7.07455 8.63074C7.16915 8.63074 7.24846 8.61837 7.31249 8.59363C7.37652 8.56744 7.42527 8.53251 7.45874 8.48886C7.49221 8.44374 7.50895 8.39281 7.50895 8.33605Z" fill="#6019EB"/>
<path d="M8.50652 8.71369C8.50652 8.6322 8.53417 8.5638 8.58947 8.5085C8.64477 8.45175 8.71972 8.42337 8.81431 8.42337C8.91036 8.42337 8.9853 8.45175 9.03915 8.5085C9.09445 8.5638 9.1221 8.6322 9.1221 8.71369C9.1221 8.79519 9.09445 8.86358 9.03915 8.91888C8.9853 8.97418 8.91036 9.00183 8.81431 9.00183C8.71972 9.00183 8.64477 8.97418 8.58947 8.91888C8.53417 8.86358 8.50652 8.79519 8.50652 8.71369Z" fill="#6019EB"/>
<path d="M3.42041 5.79736H4.54459C4.78617 5.79736 4.99208 5.83374 5.16235 5.90651C5.33261 5.97927 5.46286 6.08696 5.55309 6.22957C5.64477 6.37073 5.69061 6.54536 5.69061 6.75347C5.69061 6.91209 5.6615 7.05179 5.60329 7.17258C5.54508 7.29336 5.46286 7.39523 5.35663 7.47818C5.25039 7.55968 5.12379 7.62298 4.9768 7.66809L4.81091 7.74886H3.80023L3.79587 7.31447H4.55333C4.6843 7.31447 4.79344 7.29118 4.88076 7.24461C4.96807 7.19805 5.03356 7.13474 5.07722 7.0547C5.12233 6.97321 5.14489 6.88153 5.14489 6.77966C5.14489 6.66906 5.12306 6.57301 5.0794 6.49152C5.0372 6.40857 4.97171 6.34527 4.88294 6.30161C4.79417 6.2565 4.68139 6.23394 4.54459 6.23394H3.96831V8.97564H3.42041V5.79736ZM5.23438 8.97564L4.48784 7.54803L5.06194 7.54585L5.8194 8.94726V8.97564H5.23438Z" stroke="#6019EB" strokeWidth="0.23"/>
<path d="M7.50895 8.33605C7.50895 8.28367 7.49585 8.23637 7.46966 8.19417C7.44346 8.15051 7.39325 8.11122 7.31904 8.07629C7.24627 8.04137 7.13859 8.00935 6.99597 7.98024C6.87082 7.95259 6.75585 7.91985 6.65107 7.88202C6.54775 7.84272 6.45898 7.79543 6.38476 7.74013C6.31055 7.68483 6.25306 7.61934 6.21232 7.54367C6.17157 7.468 6.1512 7.38068 6.1512 7.28172C6.1512 7.18568 6.1723 7.09472 6.2145 7.00886C6.2567 6.923 6.31709 6.84733 6.39568 6.78184C6.47426 6.71636 6.56958 6.66469 6.68164 6.62686C6.79515 6.58902 6.92175 6.5701 7.06146 6.5701C7.25937 6.5701 7.42891 6.60357 7.57007 6.67052C7.71268 6.736 7.82183 6.8255 7.8975 6.93901C7.97317 7.05106 8.01101 7.17767 8.01101 7.31883H7.48494C7.48494 7.25626 7.46893 7.19805 7.43691 7.1442C7.40635 7.0889 7.35978 7.04452 7.29721 7.01105C7.23463 6.97612 7.15605 6.95866 7.06146 6.95866C6.97123 6.95866 6.89629 6.97321 6.83662 7.00231C6.77841 7.02996 6.73475 7.06635 6.70565 7.11146C6.678 7.15657 6.66417 7.20605 6.66417 7.25989C6.66417 7.29919 6.67145 7.33484 6.686 7.36686C6.70201 7.39742 6.7282 7.42579 6.76458 7.45199C6.80097 7.47673 6.85044 7.50001 6.91302 7.52184C6.97705 7.54367 7.05709 7.56477 7.15314 7.58514C7.33359 7.62298 7.48857 7.67173 7.61809 7.7314C7.74906 7.78961 7.84948 7.86528 7.91933 7.95842C7.98918 8.0501 8.02411 8.16652 8.02411 8.30768C8.02411 8.41246 8.00155 8.5085 7.95644 8.59582C7.91278 8.68168 7.84875 8.75662 7.76434 8.82065C7.67994 8.88323 7.5788 8.93198 7.46092 8.96691C7.3445 9.00183 7.21353 9.0193 7.06801 9.0193C6.85408 9.0193 6.6729 8.98146 6.52447 8.90579C6.37603 8.82866 6.26325 8.73043 6.18612 8.6111C6.11045 8.49031 6.07261 8.36516 6.07261 8.23564H6.58122C6.58704 8.33314 6.61397 8.411 6.66199 8.46921C6.71147 8.52597 6.77259 8.56744 6.84535 8.59363C6.91957 8.61837 6.99597 8.63074 7.07455 8.63074C7.16915 8.63074 7.24846 8.61837 7.31249 8.59363C7.37652 8.56744 7.42527 8.53251 7.45874 8.48886C7.49221 8.44374 7.50895 8.39281 7.50895 8.33605Z" stroke="#6019EB" strokeWidth="0.23"/>
<path d="M8.50652 8.71369C8.50652 8.6322 8.53417 8.5638 8.58947 8.5085C8.64477 8.45175 8.71972 8.42337 8.81431 8.42337C8.91036 8.42337 8.9853 8.45175 9.03915 8.5085C9.09445 8.5638 9.1221 8.6322 9.1221 8.71369C9.1221 8.79519 9.09445 8.86358 9.03915 8.91888C8.9853 8.97418 8.91036 9.00183 8.81431 9.00183C8.71972 9.00183 8.64477 8.97418 8.58947 8.91888C8.53417 8.86358 8.50652 8.79519 8.50652 8.71369Z" stroke="#6019EB" strokeWidth="0.23"/>
</svg>
