<svg width="21" height="22" viewBox="0 0 21 22" fill="none" xmlns="http://www.w3.org/2000/svg">
<path d="M16.35 13.73H12.8M14.57 12V15.55M19.32 13.75C19.32 14.64 19.07 15.48 18.63 16.2C18.2114 16.9031 17.6168 17.4849 16.9049 17.8882C16.1929 18.2916 15.3882 18.5024 14.57 18.5C13.7521 18.5003 12.9482 18.2886 12.2366 17.8855C11.525 17.4824 10.9301 16.9017 10.51 16.2C10.0571 15.4632 9.81815 14.6149 9.81996 13.75C9.81996 11.13 11.95 9 14.57 9C17.19 9 19.32 11.13 19.32 13.75Z" stroke="black" stroke-width="1.5" stroke-miterlimit="10" stroke-linecap="round" stroke-linejoin="round"/>
<path d="M18.38 3.02V5.24C18.38 6.05 17.87 7.06 17.37 7.57L15.61 9.12C15.2693 9.03894 14.9202 8.99866 14.57 9C11.95 9 9.82 11.13 9.82 13.75C9.82 14.64 10.07 15.48 10.51 16.2C10.88 16.82 11.39 17.35 12.01 17.73V18.07C12.01 18.68 11.61 19.49 11.1 19.79L9.69 20.7C8.38 21.51 6.56 20.6 6.56 18.98V13.63C6.56 12.92 6.15 12.01 5.75 11.51L1.91 7.47C1.41 6.96 1 6.05 1 5.45V3.12C1 1.91 1.91 1 3.02 1H16.36C17.47 1 18.38 1.91 18.38 3.02Z" stroke="black" stroke-width="1.5" stroke-miterlimit="10" stroke-linecap="round" stroke-linejoin="round"/>
</svg>
