<svg width="21" height="17" viewBox="0 0 21 17" fill="none" xmlns="http://www.w3.org/2000/svg">
<path d="M14.3684 9.91667C14.8474 9.91667 15.2434 9.78287 15.5566 9.51528C15.8697 9.24768 16.0263 8.90926 16.0263 8.5C16.0263 8.09074 15.8697 7.75231 15.5566 7.48472C15.2434 7.21713 14.8474 7.08333 14.3684 7.08333C13.8895 7.08333 13.4934 7.21713 13.1803 7.48472C12.8671 7.75231 12.7105 8.09074 12.7105 8.5C12.7105 8.90926 12.8671 9.24768 13.1803 9.51528C13.4934 9.78287 13.8895 9.91667 14.3684 9.91667ZM2.21053 17C1.60263 17 1.08205 16.8152 0.648789 16.4456C0.216263 16.0754 0 15.6306 0 15.1111V1.88889C0 1.36944 0.216263 0.924611 0.648789 0.554389C1.08205 0.184796 1.60263 0 2.21053 0H17.6842C18.2921 0 18.8127 0.184796 19.2459 0.554389C19.6785 0.924611 19.8947 1.36944 19.8947 1.88889V4.25H17.6842V1.88889H2.21053V15.1111H17.6842V12.75H19.8947V15.1111C19.8947 15.6306 19.6785 16.0754 19.2459 16.4456C18.8127 16.8152 18.2921 17 17.6842 17H2.21053ZM11.0526 13.2222C10.4447 13.2222 9.92453 13.0374 9.492 12.6678C9.05874 12.2976 8.8421 11.8528 8.8421 11.3333V5.66667C8.8421 5.14722 9.05874 4.70239 9.492 4.33217C9.92453 3.96257 10.4447 3.77778 11.0526 3.77778H18.7895C19.3974 3.77778 19.9179 3.96257 20.3512 4.33217C20.7837 4.70239 21 5.14722 21 5.66667V11.3333C21 11.8528 20.7837 12.2976 20.3512 12.6678C19.9179 13.0374 19.3974 13.2222 18.7895 13.2222H11.0526ZM18.7895 11.3333V5.66667H11.0526V11.3333H18.7895Z" fill="#6019EB"/>
</svg>
