<svg width="19" height="30" viewBox="0 0 19 30" fill="none" xmlns="http://www.w3.org/2000/svg">
<path d="M5.87324 23.6575L0.186974 29.5714L0 29.4116C0.648916 26.719 1.29783 24.0141 1.95775 21.3214C3.60753 14.6206 5.25732 7.93206 6.91811 1.23122C6.91811 1.20663 6.91811 1.18204 6.91811 1.16975C6.91811 0.837781 7.07209 0.530404 7.33605 0.370567C7.732 0.296797 7.72101 0.800896 7.86399 1.08368C8.71088 2.82959 9.3488 4.68615 10.3387 6.34599C11.2735 8.87878 12.3624 11.3993 13.5393 13.7968C13.6822 14.0427 13.7702 14.3255 13.7702 14.6206C13.7702 15.1247 13.5393 15.6042 13.1543 15.8747C10.6796 18.4444 8.28193 21.0632 5.87324 23.6575Z" fill="#F07A25"/>
<path d="M5.87425 23.6558C8.29393 21.0615 10.6916 18.4427 13.1443 15.8853C13.5293 15.6148 13.7602 15.1353 13.7602 14.6312C13.7602 14.3361 13.6832 14.041 13.5293 13.8074C12.3414 11.4099 11.2636 8.88936 10.3287 6.35657L12.0225 0C12.7264 1.5123 13.3093 2.7541 13.8702 4.0082C15.289 7.16804 16.6749 10.3525 18.1487 13.4877C18.3466 13.7951 18.4456 14.164 18.4456 14.5451C18.4456 15.1722 18.1597 15.7623 17.6757 16.0943C13.6502 20.2623 9.70176 24.5287 5.73127 28.7582C5.4783 29.1271 5.13734 29.4099 4.74139 29.5574C5.24733 27.6271 5.63228 25.6476 5.87425 23.6558Z" fill="#0C8D48"/>
</svg>
