<svg width="21" height="22" viewBox="0 0 21 22" fill="none" xmlns="http://www.w3.org/2000/svg">
<path d="M15.065 3.00072C17.005 3.00072 18.565 4.57072 18.565 6.50072C18.565 8.39072 17.065 9.93072 15.195 10.0007C15.1086 9.99072 15.0214 9.99072 14.935 10.0007M16.995 19.0007C17.715 18.8507 18.395 18.5607 18.955 18.1307C20.515 16.9607 20.515 15.0307 18.955 13.8607C18.405 13.4407 17.735 13.1607 17.025 13.0007M7.815 9.87072C7.715 9.86072 7.595 9.86072 7.485 9.87072C6.3372 9.83175 5.24964 9.34756 4.45263 8.52068C3.65562 7.6938 3.21174 6.58918 3.215 5.44072C3.215 2.99072 5.195 1.00072 7.655 1.00072C8.83124 0.979505 9.96772 1.42641 10.8144 2.24314C11.6612 3.05986 12.1488 4.17949 12.17 5.35572C12.1912 6.53196 11.7443 7.66845 10.9276 8.51517C10.1109 9.3619 8.99124 9.8495 7.815 9.87072ZM2.815 13.5607C0.395 15.1807 0.395 17.8207 2.815 19.4307C5.565 21.2707 10.075 21.2707 12.825 19.4307C15.245 17.8107 15.245 15.1707 12.825 13.5607C10.085 11.7307 5.575 11.7307 2.815 13.5607Z" stroke="black" stroke-width="1.5" stroke-linecap="round" stroke-linejoin="round"/>
</svg>
